<?xml version="1.0" encoding="UTF-8"?>
<svg width="30px" height="36px" viewBox="0 0 30 36" version="1.1" xmlns="http://www.w3.org/2000/svg" xmlns:xlink="http://www.w3.org/1999/xlink">
    <title>Group 3</title>
    <g id="Page-1" stroke="none" stroke-width="1" fill="none" fill-rule="evenodd">
        <g id="body_01_2" transform="translate(-618.000000, -422.000000)">
            <g id="Group-3" transform="translate(618.000000, 422.000000)">
                <path d="M30,0 L30,30 L18.75,30 L15,36 L11.25,30 L0,30 L0,0 L30,0 Z" id="Combined-Shape" fill="#0E4E30"></path>
                <path d="M15.0075391,10.8177093 C15.0051043,10.8146086 15.0026696,10.8121281 15.0002348,10.8090274 C14.9978,10.8121281 14.9947565,10.8146086 14.9923217,10.8177093 C14.2576261,9.98920195 13.197887,9.00007826 12.0151913,9.00007826 C9.79771304,9.00007826 8.00023478,10.8313524 8.00023478,13.0911435 C8.00023478,14.1342194 8.30945217,14.972649 9.01858261,15.8067376 L9.01858261,15.8116987 L15.0002348,22.0000783 L20.981887,15.8116987 L20.981887,15.8067376 C21.6904087,14.972649 22.0002348,14.1342194 22.0002348,13.0911435 C22.0002348,10.8313524 20.2027565,9.00007826 17.9846696,9.00007826 C16.8025826,9.00007826 15.7422348,9.98920195 15.0075391,10.8177093 Z" id="Fill-1" fill="#C49260"></path>
            </g>
        </g>
    </g>
</svg>