<?xml version="1.0" encoding="UTF-8"?>
<svg width="144px" height="129px" viewBox="0 0 144 129" version="1.1" xmlns="http://www.w3.org/2000/svg" xmlns:xlink="http://www.w3.org/1999/xlink">
    <title>article-01-mail</title>
    <g id="Page-1" stroke="none" stroke-width="1" fill="none" fill-rule="evenodd">
        <g id="body_01_2" transform="translate(-888.000000, -171.000000)">
            <g id="article-01-mail" transform="translate(888.000000, 171.000000)">
                <polygon id="Fill-1" fill="#0E4E30" points="72 0.0005 0 50.8215 72 101.1355 144 50.8215"></polygon>
                <polygon id="Fill-2" fill="#FFFFFF" points="13.012 86.736 130.988 86.736 130.988 9.215 13.012 9.215"></polygon>
                <polygon id="Fill-3" fill="#207D46" points="24.09 25.231 119.911 25.231 119.911 20.793 24.09 20.793"></polygon>
                <polygon id="Fill-4" fill="#66493F" points="24.089 85.021 76.605 85.021 76.605 31.075 24.089 31.075"></polygon>
                <path d="M120.5182,38.5485 C120.5182,43.1545 116.7842,46.8895 112.1772,46.8895 C107.5712,46.8895 103.8362,43.1545 103.8362,38.5485 C103.8362,33.9425 107.5712,30.2075 112.1772,30.2075 C116.7842,30.2075 120.5182,33.9425 120.5182,38.5485" id="Fill-5" fill="#207D46"></path>
                <polygon id="Fill-7" fill="#BA8C5F" points="50.953 105.106 93.678 105.106 93.678 88.673 50.953 88.673"></polygon>
                <path d="M117.7048,78.362 L109.7808,78.362 C109.6478,81.685 108.9868,84.508 107.9178,86.906 L114.9818,90.986 C115.5858,91.334 115.7928,92.106 115.4438,92.709 C115.0958,93.313 114.3238,93.519 113.7208,93.171 L106.7338,89.137 C99.6778,100.465 82.1378,100.466 71.9998,100.466 C61.8628,100.466 44.3218,100.465 37.2658,89.137 L30.2788,93.171 C29.6758,93.519 28.9038,93.313 28.5558,92.709 C28.2068,92.106 28.4138,91.334 29.0168,90.986 L36.0828,86.906 C35.0138,84.508 34.3518,81.685 34.2198,78.362 L26.2958,78.362 C25.5988,78.362 25.0338,77.797 25.0338,77.1 C25.0338,76.404 25.5988,75.839 26.2958,75.839 L34.2208,75.839 C34.5588,67.415 38.2848,62.2 43.4718,58.975 C45.0838,56.013 49.5098,47.886 51.7728,43.73 C52.6058,42.201 53.6708,42.228 54.4448,43.731 C55.9708,46.69 58.4628,51.525 59.8298,54.179 C64.2728,53.737 68.5608,53.737 71.9988,53.737 L71.9998,53.737 L72.0008,53.737 C75.4378,53.737 79.7268,53.737 84.1698,54.179 C85.5368,51.527 88.0268,46.695 89.5528,43.736 C90.3288,42.23 91.3958,42.205 92.2318,43.738 C94.4968,47.898 98.9168,56.015 100.5278,58.975 C105.7148,62.2 109.4408,67.415 109.7788,75.839 L117.7048,75.839 C118.4008,75.839 118.9668,76.404 118.9668,77.1 C118.9668,77.797 118.4008,78.362 117.7048,78.362" id="Fill-9" fill="#BA8C5F"></path>
                <path d="M57.9136,81.9149 C58.2726,81.3619 59.0216,81.2219 59.5526,81.6129 L59.5526,81.6129 L59.6256,81.6659 C60.1036,82.0179 60.2266,82.6729 59.9236,83.1819 C59.4806,83.9289 59.2426,84.7689 59.2426,85.6239 C59.2426,88.4799 61.8306,90.8039 65.0116,90.8039 C67.7946,90.8039 70.1236,88.4159 70.6626,85.5829 C70.7826,84.9529 71.3396,84.5009 71.9816,84.5009 L71.9816,84.5009 L72.0196,84.5009 C72.6606,84.5009 73.2176,84.9529 73.3376,85.5829 C73.8766,88.4159 76.2056,90.8039 78.9886,90.8039 C82.1696,90.8039 84.7576,88.4799 84.7576,85.6239 C84.7576,84.7649 84.5306,83.9449 84.0946,83.2069 C83.7926,82.6949 83.9176,82.0389 84.3986,81.6889 L84.3986,81.6889 L84.4696,81.6369 C85.0016,81.2489 85.7516,81.3909 86.1066,81.9459 C86.8176,83.0579 87.2006,84.3299 87.2006,85.6239 C87.2006,89.6899 83.5166,92.9979 78.9886,92.9979 C76.1136,92.9979 73.5796,91.6629 72.1116,89.3119 C72.0606,89.2279 71.9396,89.2279 71.8876,89.3119 C70.4206,91.6629 67.8866,92.9979 65.0116,92.9979 C60.4826,92.9979 56.7996,89.6899 56.7996,85.6239 C56.7996,84.3169 57.1896,83.0339 57.9136,81.9149 Z M81.4316,66.6139 L89.1606,66.8839 C89.1696,70.7879 89.8426,73.7919 90.7786,73.8249 C91.7156,73.8579 92.5966,70.9079 92.8776,67.0129 L92.8776,67.0129 L100.6546,67.2849 C100.4746,72.4579 96.1346,76.5049 90.9616,76.3239 L90.9616,76.3239 L90.4716,76.3069 C85.2986,76.1259 81.2506,71.7869 81.4316,66.6139 L81.4316,66.6139 Z M62.5676,66.6139 C62.7486,71.7869 58.7016,76.1259 53.5286,76.3069 L53.5286,76.3069 L53.0376,76.3239 C47.8646,76.5049 43.5246,72.4579 43.3446,67.2849 L43.3446,67.2849 L51.0986,67.0139 C51.3796,70.9089 52.2606,73.8589 53.1966,73.8259 C54.1336,73.7929 54.8066,70.7889 54.8146,66.8849 L54.8146,66.8849 Z" id="Fill-10" fill="#FFFFFF"></path>
                <polygon id="Fill-11" fill="#207D46" points="-0.0003 50.8219 -0.0003 128.8939 143.9997 128.8939 143.9997 50.8219 71.9997 101.1349"></polygon>
                <path d="M45.4518,120.8517 C45.4518,122.6707 43.9768,124.1447 42.1578,124.1447 C40.3398,124.1447 38.8648,122.6707 38.8648,120.8517 C38.8648,119.0327 40.3398,117.5587 42.1578,117.5587 C43.9768,117.5587 45.4518,119.0327 45.4518,120.8517" id="Fill-12" fill="#0E4E30"></path>
                <polygon id="Fill-13" fill="#0E4E30" points="30.7839 120.8517 27.0799 124.5567 23.3749 120.8517 27.0799 117.1467"></polygon>
                <path d="M75.6091,120.8517 C75.6091,122.6707 74.1351,124.1447 72.3161,124.1447 C70.4981,124.1447 69.0231,122.6707 69.0231,120.8517 C69.0231,119.0327 70.4981,117.5587 72.3161,117.5587 C74.1351,117.5587 75.6091,119.0327 75.6091,120.8517" id="Fill-14" fill="#0E4E30"></path>
                <polygon id="Fill-15" fill="#0E4E30" points="60.9421 120.8517 57.2371 124.5567 53.5321 120.8517 57.2371 117.1467"></polygon>
                <path d="M105.7673,120.8517 C105.7673,122.6707 104.2923,124.1447 102.4743,124.1447 C100.6553,124.1447 99.1813,122.6707 99.1813,120.8517 C99.1813,119.0327 100.6553,117.5587 102.4743,117.5587 C104.2923,117.5587 105.7673,119.0327 105.7673,120.8517" id="Fill-16" fill="#0E4E30"></path>
                <polygon id="Fill-17" fill="#0E4E30" points="91.1003 120.8517 87.3953 124.5567 83.6903 120.8517 87.3953 117.1467"></polygon>
                <polygon id="Fill-18" fill="#0E4E30" points="121.2575 120.8517 117.5535 124.5567 113.8485 120.8517 117.5535 117.1467"></polygon>
                <path d="M6.1452,92.4547 L-0.0008,92.4547 L-0.0008,104.7447 L6.1452,104.7447 C9.5392,104.7447 12.2902,101.9937 12.2902,98.5997 C12.2902,95.2057 9.5392,92.4547 6.1452,92.4547" id="Fill-19" fill="#0E4E30"></path>
                <path d="M138.986,98.5998 L144,93.5858 C142.716,92.3028 140.944,91.5098 138.986,91.5098 C135.071,91.5098 131.896,94.6838 131.896,98.5998 C131.896,102.5158 135.071,105.6898 138.986,105.6898 C140.944,105.6898 142.716,104.8968 144,103.6138 L138.986,98.5998 Z" id="Fill-20" fill="#0E4E30"></path>
            </g>
        </g>
    </g>
</svg>