<?xml version="1.0" encoding="UTF-8"?>
<svg width="495px" height="1000px" viewBox="0 0 495 1000" version="1.1" xmlns="http://www.w3.org/2000/svg" xmlns:xlink="http://www.w3.org/1999/xlink">
    <title>header-left</title>
    <g id="Page-1" stroke="none" stroke-width="1" fill="none" fill-rule="evenodd">
        <g id="header-left">
            <g id="header-t-left-box">
                <g id="header-left-box-02" transform="translate(165.000000, 0.000000)">
                    <polygon id="Fill-1" fill="#207D46" points="0 55 55 55 55 0 0 0"></polygon>
                    <polygon id="Fill-2" fill="#66493F" points="37.2552 13.6428 37.2552 18.7688 34.3022 15.4368"></polygon>
                    <path d="M45.1722,26.1907 L46.6832,23.4527 C46.6832,23.4527 46.6282,33.1297 46.6282,33.7997 C46.6282,35.1307 46.4532,36.0087 46.0102,36.7237 C45.6922,37.2387 44.8922,38.0847 44.8922,38.0847 L45.1722,26.1907 Z" id="Fill-3" fill="#0E4E30"></path>
                    <path d="M8.4207,27.9543 C8.4207,27.9543 9.1577,37.8583 9.1577,39.1303 C9.1577,40.4003 9.4547,40.2953 10.2467,40.2953 C11.0377,40.2953 42.0137,38.5013 43.6957,38.3943 C45.3787,38.2893 45.1997,37.5803 45.1597,36.5953 C45.1277,35.7703 45.1717,26.1903 45.1717,26.1903 L8.4207,27.9543 Z" id="Fill-5" fill="#66493F"></path>
                    <path d="M44.699,26.1848 C31.415,26.8178 20.462,27.4378 9.24,28.0648 C8.364,28.1138 7.863,27.5348 8.886,26.8308 C16.594,21.5318 23.473,16.7788 31.913,12.1868 C31.913,12.1868 33.407,11.6078 35.233,12.4918 C35.819,12.7748 36.428,13.1058 37.069,13.4358 C37.815,13.8208 36.147,14.2488 35.936,15.4698 C35.667,17.0308 37.023,18.1088 38.961,17.9778 C40.717,17.8588 42.037,16.6868 42.738,17.3088 C44.613,18.9748 46.113,20.8808 46.628,22.9598 C46.955,24.2838 45.763,26.1338 44.699,26.1848" id="Fill-7" fill="#BA8C5F"></path>
                    <path d="M17.2561,27.5666 C17.2561,27.5666 17.7961,25.9266 19.2691,25.3536 C20.7421,24.7806 22.0991,24.8176 23.1201,25.7276 C23.7311,26.2726 23.7301,27.3086 23.7301,27.3086 C23.7301,27.3086 23.7301,29.1566 22.6371,30.0626 C21.7411,30.8046 20.0271,31.3796 18.8281,30.6566 C17.0241,29.5656 17.2561,27.5666 17.2561,27.5666" id="Fill-9" fill="#0E4E30"></path>
                    <path d="M37.9695,30.4739 C38.6315,30.9699 39.1765,31.7569 39.1585,32.5689 C39.1405,33.3799 38.7395,34.3689 38.2235,35.0069 C37.7635,35.5779 37.1815,35.7469 36.4695,35.9639 C35.6375,36.2169 34.6885,36.0269 33.9925,35.5159 C33.2975,35.0049 32.8605,34.1959 32.7555,33.3559 C32.5065,31.3609 34.3945,30.1599 35.9495,29.9749 C36.6685,29.8889 37.2855,29.9619 37.9695,30.4739" id="Fill-11" fill="#0E4E30"></path>
                    <path d="M27.9856,16.7219 C29.0926,16.5679 30.4936,16.9119 30.8806,17.9609 C31.2666,19.0099 30.2606,21.4689 27.0056,21.9179 C24.9026,22.2079 24.0816,21.2239 23.9476,20.3739 C23.6306,18.3719 26.2996,16.9559 27.9856,16.7219" id="Fill-13" fill="#66493F"></path>
                    <path d="M40.7737,20.841 C41.4487,21.107 41.8637,21.646 41.8117,22.369 C41.7597,23.093 40.8697,24.631 38.6917,24.829 C37.7037,24.919 36.5047,24.643 36.2897,23.674 C36.0927,22.795 36.6187,22.064 37.3147,21.491 C37.8837,21.023 39.6317,20.393 40.7737,20.841" id="Fill-15" fill="#66493F"></path>
                    <path d="M17.2093,33.4485 C18.2753,34.4275 18.1613,35.8575 17.3623,36.7735 C16.5633,37.6885 15.1263,38.0045 14.0473,37.4425 C12.9693,36.8825 12.3263,35.4275 12.8643,34.3385 C13.8573,32.3275 16.0233,32.3595 17.2093,33.4485" id="Fill-17" fill="#0E4E30"></path>
                </g>
                <rect id="header-left-box-03" fill="#BA8C5F" x="275" y="0" width="55" height="55"></rect>
                <g id="header-left-box-04" transform="translate(330.000000, 0.000000)">
                    <polygon id="Fill-1" fill="#0E4E30" points="0 55 55 55 55 0 0 0"></polygon>
                    <polygon id="Fill-2" fill="#BA8C5F" points="13.2875 25.8547 28.5905 27.7507 42.5695 11.1167 28.7555 10.1597"></polygon>
                    <polygon id="Fill-3" fill="#207D46" points="13.2875 25.8547 8.5225 39.1127 30.7665 41.7677 28.5905 27.7507"></polygon>
                    <polygon id="Fill-4" fill="#66493F" points="28.5907 27.7512 30.7667 41.7682 47.3327 20.5322 42.5697 11.1162"></polygon>
                    <polygon id="Fill-5" fill="#0E4E30" points="38.4813 16.1955 36.7383 31.9585 39.8623 27.9275 41.6303 12.3195"></polygon>
                    <polygon id="Fill-6" fill="#0E4E30" points="43.0575 12.0813 41.5035 25.9753 42.9535 24.1073 44.1745 14.2893"></polygon>
                </g>
                <rect id="header-left-box-05" fill="#207D46" x="385" y="0" width="55" height="55"></rect>
                <g id="header-left-box-06" transform="translate(0.000000, 110.000000)">
                    <polygon id="Fill-1" fill="#207D46" points="0 55 55 55 55 0 0 0"></polygon>
                    <path d="M35.6716,47.9498 L19.8986,47.9498 C19.2996,47.9498 16.0386,44.8848 16.0386,44.2858 L16.0386,11.2388 C16.0386,10.6398 20.2486,9.5098 20.8476,9.5098 L34.0106,9.5098 C34.6096,9.5098 38.9616,10.6398 38.9616,11.2388 L38.9616,44.8008 C38.9616,45.3988 36.2706,47.9498 35.6716,47.9498" id="Fill-2" fill="#66493F"></path>
                    <path d="M38.9612,13.3482 L38.9612,9.2752 C38.9612,8.0462 37.9652,7.0502 36.7362,7.0502 L18.2632,7.0502 C17.0352,7.0502 16.0392,8.0462 16.0392,9.2752 L16.0392,13.3482 L38.9612,13.3482 Z" id="Fill-4" fill="#BA8C5F"></path>
                    <path d="M16.0388,41.6509 L16.0388,45.7239 C16.0388,46.9539 17.0348,47.9499 18.2638,47.9499 L36.7368,47.9499 C37.9648,47.9499 38.9608,46.9539 38.9608,45.7239 L38.9608,41.6509 L16.0388,41.6509 Z" id="Fill-6" fill="#BA8C5F"></path>
                    <path d="M29.1033,44.8052 C29.1033,45.6922 28.3833,46.4112 27.4963,46.4112 C26.6093,46.4112 25.8903,45.6922 25.8903,44.8052 C25.8903,43.9172 26.6093,43.1992 27.4963,43.1992 C28.3833,43.1992 29.1033,43.9172 29.1033,44.8052" id="Fill-8" fill="#66493F"></path>
                    <path d="M30.3376,9.5093 C30.3046,9.5093 30.2726,9.5153 30.2406,9.5193 C30.2256,9.5133 30.2096,9.5093 30.1916,9.5093 L24.7986,9.5093 C24.7816,9.5093 24.7656,9.5133 24.7506,9.5193 C24.7186,9.5153 24.6866,9.5093 24.6536,9.5093 C24.1756,9.5093 23.7886,9.8963 23.7886,10.3733 C23.7886,10.8513 24.1756,11.2383 24.6536,11.2383 C24.6866,11.2383 24.7186,11.2333 24.7506,11.2293 C24.7656,11.2353 24.7816,11.2383 24.7986,11.2383 L30.1916,11.2383 C30.2096,11.2383 30.2256,11.2353 30.2406,11.2293 C30.2726,11.2333 30.3046,11.2383 30.3376,11.2383 C30.8156,11.2383 31.2026,10.8513 31.2026,10.3733 C31.2026,9.8963 30.8156,9.5093 30.3376,9.5093" id="Fill-10" fill="#66493F"></path>
                </g>
                <polygon id="header-left-box-07" fill="#66493F" transform="translate(192.500000, 82.500000) rotate(-270.000000) translate(-192.500000, -82.500000) " points="165 55 220 110 220 55"></polygon>
                <g id="header-left-box-08" transform="translate(220.000000, 110.000000)">
                    <polygon id="Fill-1" points="0 55 55 55 55 0 0 0"></polygon>
                    <polygon id="Fill-2" fill="#BA8C5F" points="27.5004504 41 14 27.5004504 27.5004504 14 41 27.5004504"></polygon>
                </g>
                <g id="header-left-box-09" transform="translate(137.500000, 302.500000) rotate(-360.000000) translate(-137.500000, -302.500000) translate(110.000000, 275.000000)">
                    <polygon id="Fill-1" fill="#0E4E30" points="0 55 55 55 55 0 0 0"></polygon>
                    <polygon id="Fill-2" fill="#207D46" points="0 55 55 55 0 0"></polygon>
                </g>
                <g id="header-left-box-10" transform="translate(220.000000, 55.000000)">
                    <polygon id="Fill-1" fill="#207D46" points="0 55 55 55 55 0 0 0"></polygon>
                    <path d="M55,27.5 C55,42.6873333 42.6873333,55 27.5,55 C12.31175,55 0,42.6873333 0,27.5 C0,12.31175 12.31175,0 27.5,0 C42.6873333,0 55,12.31175 55,27.5" id="Fill-2" fill="#0E4E30"></path>
                    <polygon id="Fill-5" fill="#207D46" points="17 38 38 38 38 17 17 17"></polygon>
                </g>
                <g id="header-left-box-11" transform="translate(275.000000, 55.000000)">
                    <polygon id="Fill-1" fill="#0E4E30" points="0 55 55 55 55 0 0 0"></polygon>
                    <g id="Group-6" transform="translate(10.000000, 8.000000)">
                        <path d="M5.0733,32.3181 C8.1223,33.9031 15.1153,32.7811 13.1533,31.6951 C11.6523,30.8641 10.7643,29.9281 10.5983,29.0591 C10.4713,28.3981 10.7963,28.1671 10.7963,28.1671 C12.2163,28.4191 13.7713,29.3531 15.3763,29.5361 C16.5703,29.6721 17.1793,29.4681 17.9973,28.8141 C19.2643,27.8001 22.0843,24.6261 24.8893,21.0281 C25.6383,20.0671 24.6433,20.1111 23.6623,20.0331 C21.6233,19.8691 20.9443,18.9031 20.6623,18.0801 C20.3803,17.2561 20.9583,17.2381 20.9583,17.2381 C22.2373,17.4061 25.6563,17.2261 26.9463,17.1931 C27.1833,17.1861 27.4293,17.1741 27.6403,17.0661 C27.9713,16.8961 28.1453,16.5291 28.2933,16.1871 C28.6153,15.4411 30.4053,12.5711 30.3463,11.6201 C30.3243,11.2661 26.6593,12.6051 25.8353,11.9651 C25.3793,11.6111 25.5283,11.1781 25.5493,11.0121 C25.7143,9.6651 30.9163,10.2851 31.4533,8.8861 C32.1793,6.9981 33.5993,4.5841 35.6633,2.5571 C37.6393,0.6181 34.2923,0.7701 32.4743,0.7551 C29.0203,0.7261 25.7063,0.8701 21.0413,2.3001 C19.3083,2.8321 17.7203,3.4601 16.3183,4.6081 C15.6223,5.1771 15.5923,7.2921 15.2013,8.5921 C14.8103,9.8941 13.8963,11.2501 12.5403,11.3411 C12.2423,10.2451 12.6113,8.1201 12.7173,6.7491 C12.7983,5.6921 7.8383,9.9361 7.1753,11.8001 C6.2703,14.3431 7.6173,16.8881 7.3913,19.5781 C6.5513,20.3791 5.1353,17.1911 4.0593,16.7881 C3.6363,16.6301 2.8333,18.5011 2.6283,19.0021 C1.3563,22.1021 0.9213,27.1891 3.3603,31.3371 L5.0733,32.3181 Z" id="Fill-2" fill="#BA8C5F"></path>
                        <path d="M19.8512,11.7703 C14.7392,16.9603 6.2702,28.7443 4.6812,35.8533 C4.5362,36.5023 4.3902,37.1703 4.0222,37.7253 C3.3702,38.7093 2.0412,39.2653 0.9192,39.6353 C-0.2018,40.0063 0.2442,38.2913 0.3112,37.8093 C1.7432,27.6043 13.0982,14.5073 21.1022,8.6473 C22.7952,7.4083 23.3052,8.4563 22.5022,9.2823 C21.7002,10.1083 21.1852,10.4153 19.8512,11.7703" id="Fill-4" fill="#66493F"></path>
                    </g>
                </g>
                <g id="header-left-box-12" transform="translate(330.000000, 55.000000)" fill="#207D46">
                    <path d="M9,37 C13.9707,37 18,41.0302 18,46 C18,50.9698 13.9707,55 9,55 C4.0293,55 0,50.9698 0,46 C0,41.0302 4.0293,37 9,37 Z M27,37 C31.9707,37 36,41.0302 36,46 C36,50.9698 31.9707,55 27,55 C22.0293,55 18,50.9698 18,46 C18,41.0302 22.0293,37 27,37 Z M46,37 C50.9707,37 55,41.0302 55,46 C55,50.9698 50.9707,55 46,55 C41.0293,55 37,50.9698 37,46 C37,41.0302 41.0293,37 46,37 Z M9,18 C13.9707,18 18,22.0302 18,27 C18,31.9698 13.9707,36 9,36 C4.0293,36 0,31.9698 0,27 C0,22.0302 4.0293,18 9,18 Z M27,18 C31.9707,18 36,22.0302 36,27 C36,31.9698 31.9707,36 27,36 C22.0293,36 18,31.9698 18,27 C18,22.0302 22.0293,18 27,18 Z M46,18 C50.9707,18 55,22.0302 55,27 C55,31.9698 50.9707,36 46,36 C41.0293,36 37,31.9698 37,27 C37,22.0302 41.0293,18 46,18 Z M8.99991,0 C13.97061,0 17.99991,4.0302 17.99991,9 C17.99991,13.9698 13.97061,18 8.99991,18 C4.02921,18 -9e-05,13.9698 -9e-05,9 C-9e-05,4.0302 4.02921,0 8.99991,0 Z M27,0 C31.9707,0 36,4.0302 36,9 C36,13.9698 31.9707,18 27,18 C22.0293,18 18,13.9698 18,9 C18,4.0302 22.0293,0 27,0 Z M46,0 C50.9707,0 55,4.0302 55,9 C55,13.9698 50.9707,18 46,18 C41.0293,18 37,13.9698 37,9 C37,4.0302 41.0293,0 46,0 Z" id="Combined-Shape"></path>
                </g>
                <g id="header-left-box-13" transform="translate(357.500000, 137.500000) rotate(-270.000000) translate(-357.500000, -137.500000) translate(330.000000, 110.000000)">
                    <polygon id="Fill-1" fill="#BA8C5F" points="0 55 55 55 55 0 0 0"></polygon>
                    <polygon id="Fill-2" fill="#207D46" points="0 0 55 55 55 0"></polygon>
                    <polygon id="Fill-3" fill="#0E4E30" points="0 0 0 55 55 0"></polygon>
                </g>
                <g id="header-left-box-14" transform="translate(55.000000, 110.000000)">
                    <path d="M55,27.5 C55,42.6873333 42.6873333,55 27.5,55 C12.3126667,55 0,42.6873333 0,27.5 C0,12.3126667 12.3126667,0 27.5,0 C42.6873333,0 55,12.3126667 55,27.5" id="Fill-1" fill="#0E4E30"></path>
                    <path d="M38,27.5 C38,33.2988 33.2988,38 27.5,38 C21.7012,38 17,33.2988 17,27.5 C17,21.7012 21.7012,17 27.5,17 C33.2988,17 38,21.7012 38,27.5" id="Fill-4" fill="#207D46"></path>
                </g>
                <g id="header-left-box-15" transform="translate(110.000000, 110.000000)" fill="#207D46">
                    <path d="M55,44 L55,55 L44,55 L44,44 L55,44 Z M11,44 L11,55 L0,55 L0,44 L11,44 Z M33,44 L33,55 L22,55 L22,44 L33,44 Z M44,33 L44,44 L33,44 L33,33 L44,33 Z M33,22 L33,33 L22,33 L22,22 L33,22 Z M11,22 L11,33 L0,33 L0,22 L11,22 Z M55,22 L55,33 L44,33 L44,22 L55,22 Z M22,11 L22,22 L11,22 L11,11 L22,11 Z M11,0 L11,11 L0,11 L0,0 L11,0 Z M44,0 L44,11 L33,11 L33,0 L44,0 Z" id="Combined-Shape"></path>
                </g>
                <g id="header-left-box-16" transform="translate(165.000000, 110.000000)">
                    <polygon id="Fill-1" fill="#0E4E30" points="0 55 55 55 55 0 0 0"></polygon>
                    <path d="M44.532218,22.3611074 C43.0829995,19.0896118 40.8501972,14 36.4156801,14 C32.6129673,14 28.7343649,16.5865697 27.1562254,16.5865697 C27.10868,16.5865697 27.0519914,16.5754327 26.9998744,16.5689361 C26.9477573,16.5754327 26.891983,16.5865697 26.8435233,16.5865697 C25.2662982,16.5865697 21.3867814,14 17.584983,14 C13.1495515,14 10.9176636,19.0896118 9.46844506,22.3611074 C8.01831223,25.6326029 6.68795708,30.6117728 7.06466246,36.635965 C7.22284214,39.1631373 9.93841244,45.3896519 15.6493391,39.6271793 C20.8116657,34.4178446 23.8243943,34.0029912 26.2473779,33.9927822 L26.2473779,34.0002069 C26.4430453,34.0002069 26.64237,33.9974226 26.8435233,33.9955665 C26.8965547,33.9964946 26.9477573,33.9964946 26.9998744,33.9964946 C27.0529057,33.9964946 27.103194,33.9964946 27.1562254,33.9955665 C27.3582931,33.9974226 27.5567034,34.0002069 27.7523708,34.0002069 L27.7523708,33.9927822 C30.1753544,34.0029912 33.188083,34.4178446 38.351324,39.6271793 C44.0622506,45.3896519 46.7769066,39.1631373 46.9350862,36.635965 C47.312706,30.6117728 45.9814365,25.6326029 44.532218,22.3611074" id="Fill-2" fill="#F3F2EB"></path>
                    <polygon id="Fill-4" fill="#207D46" points="20.6666667 24.3327096 20.6666667 21 17.3333333 21 17.3333333 24.3327096 14 24.3327096 14 27.6672904 17.3333333 27.6672904 17.3333333 31 20.6666667 31 20.6666667 27.6672904 24 27.6672904 24 24.3327096"></polygon>
                    <path d="M37.4136996,23.4135936 C36.6329297,24.1954688 35.3673113,24.1954688 34.5855774,23.4135936 C33.8048075,22.6326826 33.8048075,21.3668354 34.5855774,20.5849602 C35.3673113,19.8050133 36.6329297,19.8050133 37.4136996,20.5849602 C38.1954335,21.3668354 38.1954335,22.6326826 37.4136996,23.4135936" id="Fill-6" fill="#BA8C5F"></path>
                    <path d="M41.4143167,27.4143167 C40.6334056,28.1952278 39.3665944,28.1952278 38.5856833,27.4143167 C37.8047722,26.6324416 37.8047722,25.3665944 38.5856833,24.5856833 C39.3665944,23.8047722 40.6334056,23.8047722 41.4143167,24.5856833 C42.1952278,25.3665944 42.1952278,26.6324416 41.4143167,27.4143167" id="Fill-8" fill="#BA8C5F"></path>
                    <path d="M33.4143167,27.4143167 C32.6334056,28.1952278 31.3665944,28.1952278 30.5856833,27.4143167 C29.8047722,26.6324416 29.8047722,25.3665944 30.5856833,24.5856833 C31.3665944,23.8047722 32.6334056,23.8047722 33.4143167,24.5856833 C34.1952278,25.3665944 34.1952278,26.6324416 33.4143167,27.4143167" id="Fill-10" fill="#BA8C5F"></path>
                    <path d="M37.4136996,31.4143167 C36.6329297,32.1952278 35.3673113,32.1952278 34.5855774,31.4143167 C33.8048075,30.6324416 33.8048075,29.3665944 34.5855774,28.5856833 C35.3673113,27.8047722 36.6329297,27.8047722 37.4136996,28.5856833 C38.1954335,29.3665944 38.1954335,30.6324416 37.4136996,31.4143167" id="Fill-12" fill="#BA8C5F"></path>
                </g>
                <g id="header-left-box-17" transform="translate(275.000000, 110.000000)">
                    <polygon id="Fill-1" fill="#207D46" points="0 55 55 55 55 0 0 0"></polygon>
                    <polygon id="Fill-2" fill="#0E4E30" points="0 55 55 55 27.5 18"></polygon>
                </g>
                <g id="header-left-box-18" transform="translate(385.000000, 110.000000)">
                    <polygon id="Fill-1" fill="#207D46" points="0 55 55 55 55 0 0 0"></polygon>
                    <path d="M44.8929906,13.7815552 C44.8929906,13.7815552 44.6942719,13.7705581 43.6059622,13.7705581 C38.2275579,13.7705581 29.6965841,11.2980397 27.5004643,7 C25.3043445,11.2980397 16.7724421,13.7705581 11.3940378,13.7705581 C10.3057281,13.7705581 10.1070094,13.7815552 10.1070094,13.7815552 C10.0410794,18.0722636 9.84328935,23.289479 10.2453696,26.8543776 C12.3467731,45.4935738 27.5004643,48 27.5004643,48 C27.5004643,48 42.6541555,45.4935738 44.7546304,26.8543776 C45.1567107,23.289479 44.9589206,18.0722636 44.8929906,13.7815552" id="Fill-2" fill="#0E4E30"></path>
                    <path d="M40.8865435,18.1231791 C30.5762496,18.1231791 27.4997984,14 27.4997984,14 C27.4997984,14 24.4242766,18.1231791 14.1130532,18.1231791 C14.1130532,18.1231791 13.8044787,23.7215563 14.2069268,26.5917389 C15.2711373,34.1641158 18.950796,42.1200443 27.4997984,44 C36.0488008,42.0619583 39.7284595,34.1641158 40.7926699,26.5917389 C41.1960475,23.7215563 40.8865435,18.1231791 40.8865435,18.1231791" id="Fill-4" fill="#66493F"></path>
                    <path d="M33.2107234,27.9922837 C33.2207092,27.1398582 33.8398298,26.628766 34.108539,26.1503546 C34.5579007,25.3496738 34.4081135,23.9852482 34.4081135,23.9852482 C33.7653901,24.4609362 32.3129078,24.3855887 31.667461,23.9852482 C31.0565106,23.6057872 30.8005106,23.0429504 30.638922,21.7320851 C30.488227,20.4992908 29.5686241,20 29.5686241,20 C29.2327376,21.549617 27.7139858,21.8455603 26.9114894,21.8074326 L26.9114894,21.8083404 C26.0617872,21.8038014 25.5561418,21.1728794 25.0813617,20.900539 C24.2888511,20.4457305 22.940766,20.5973333 22.940766,20.5973333 C23.4119149,21.2473191 23.3365674,22.7161418 22.940766,23.3688511 C22.5649362,23.986156 22.0093617,24.246695 20.7130213,24.4091915 C19.4929362,24.5617021 19,25.4912908 19,25.4912908 C20.4633759,25.8162837 20.7956312,27.2279149 20.7883688,28.0621844 C20.7529645,28.8819291 20.1592624,29.3830355 19.8969078,29.8505532 C19.4466383,30.6521418 19.5964255,32.0165674 19.5964255,32.0165674 C20.2391489,31.5390638 21.692539,31.6153191 22.337078,32.0165674 C22.9480284,32.3951206 23.2049362,32.9579574 23.365617,34.2679149 C23.5163121,35.501617 24.4359149,36 24.4359149,36 C24.7727092,34.4521986 26.2878298,34.1553475 27.0903262,34.1934752 C27.9391206,34.2007376 28.444766,34.829844 28.9186383,35.1021844 C29.7111489,35.5569929 31.0601418,35.4053901 31.0601418,35.4053901 C30.5889929,34.7554043 30.6634326,33.2865816 31.0601418,32.6329645 C31.4350638,32.0165674 31.9915461,31.7560284 33.2869787,31.5944397 C34.5070638,31.4410213 35,30.5114326 35,30.5114326 C33.5683972,30.1937021 33.2188936,28.832 33.2107234,27.9922837" id="Fill-6" fill="#BA8C5F"></path>
                </g>
                <path d="M467.5,55 L440,55 L440,110 L467.5,110 C482.68825,110 495,97.68825 495,82.5009167 C495,67.3126667 482.68825,55 467.5,55" id="header-left-box-19" fill="#0E4E30"></path>
                <rect id="header-left-box-20" fill="#BA8C5F" x="0" y="165" width="55" height="55"></rect>
                <rect id="header-left-box-21" fill="#0E4E30" x="110" y="165" width="55" height="55"></rect>
                <g id="header-left-box-22" transform="translate(220.000000, 165.000000)">
                    <polygon id="Fill-1" fill="#66493F" points="0 55 55 55 55 0 0 0"></polygon>
                    <path d="M31.4028,31.9294 C32.6478,31.5724 33.7708,31.0754 34.6588,30.5234 C37.6738,28.6444 39.3728,25.6334 39.7618,23.9654 C40.2058,22.0604 40.8598,17.1444 40.8598,17.1444 L40.8598,15.7334 L27.4998,15.7334 L14.1398,15.7334 L14.1398,17.1444 C14.1398,17.1444 14.7938,22.0604 15.2378,23.9654 C15.6278,25.6334 17.3258,28.6444 20.3408,30.5234 C21.2288,31.0754 22.3528,31.5724 23.5968,31.9294 C24.3138,32.2584 24.4628,32.6954 24.4628,33.1784 L24.4628,35.5874 C24.4628,36.2214 24.1108,36.1174 23.7138,36.3484 C22.6218,36.9824 19.3538,37.1794 16.5358,39.7004 L16.0508,40.9064 L14.9508,41.4764 C14.9508,41.4764 14.0638,42.0464 14.9508,42.4904 C15.8388,42.9344 20.0178,44.3284 27.4998,44.3284 C34.9828,44.3284 39.1618,42.9344 40.0488,42.4904 C40.9368,42.0464 40.0488,41.4764 40.0488,41.4764 L38.9498,40.9064 L38.4648,39.7004 C35.7378,36.9114 32.3788,36.9824 31.2858,36.3484 C30.8888,36.1174 30.5368,36.2214 30.5368,35.5874 L30.5368,33.1784 C30.5368,32.6954 30.6858,32.2584 31.4028,31.9294" id="Fill-2" fill="#207D46"></path>
                    <path d="M11.4882,14.6725 C11.6272,16.3905 11.6962,16.6685 11.7662,17.2245 C11.8362,17.7805 12.4922,18.3975 12.9472,18.6175 C15.9192,20.0565 19.3662,21.0835 27.5002,21.0835 L27.5002,17.3265 L11.4882,14.6725 Z" id="Fill-4" fill="#66493F"></path>
                    <path d="M43.5117,14.6725 C43.3727,16.3905 43.3037,16.6685 43.2337,17.2245 C43.1637,17.7805 42.5077,18.3975 42.0527,18.6175 C39.0807,20.0565 35.6347,21.0835 27.4997,21.0835 L27.4997,17.3265 L43.5117,14.6725 Z" id="Fill-6" fill="#66493F"></path>
                    <path d="M43.5117,14.6725 C43.5117,16.9415 36.5187,18.6735 27.4997,18.6735 C18.4817,18.6735 11.4887,16.9415 11.4887,14.6725 C11.4887,12.4035 18.4817,10.6715 27.4997,10.6715 C36.5187,10.6715 43.5117,12.4035 43.5117,14.6725" id="Fill-8" fill="#BA8C5F"></path>
                    <path d="M40.0527,14.5485 C40.0527,16.0685 34.0437,17.0095 27.4997,17.0095 C20.9567,17.0095 14.9477,16.0685 14.9477,14.5485 C14.9477,13.0285 20.9567,12.1845 27.4997,12.1845 C34.0437,12.1845 40.0527,13.0285 40.0527,14.5485" id="Fill-10" fill="#66493F"></path>
                    <path d="M16.4726,15.7653 C18.6656,16.5533 22.9506,17.0093 27.4996,17.0093 C32.0496,17.0093 36.3346,16.5533 38.5276,15.7653 C36.3346,15.0063 32.0496,14.5973 27.4996,14.5973 C22.9506,14.5973 18.6656,15.0063 16.4726,15.7653" id="Fill-12" fill="#0E4E30"></path>
                    <path d="M31.3764,33.5388 L27.5004,34.5198 L23.6244,33.5388 L23.4294,33.7268 C23.3804,34.3378 23.9394,35.3438 24.4764,35.6068 C25.4224,36.0718 26.7384,36.1718 27.5004,36.1718 C28.4694,36.1718 29.5774,36.0718 30.5234,35.6068 C31.0614,35.3438 31.6204,34.3378 31.5704,33.7268 L31.3764,33.5388 Z" id="Fill-14" fill="#66493F"></path>
                    <path d="M30.5893,32.7438 C29.7373,33.2658 27.9083,33.3688 27.5003,33.3688 C27.0923,33.3688 25.2623,33.2658 24.4103,32.7438 C24.4103,32.7438 23.7123,33.0978 23.4293,33.7268 C23.4153,33.7598 24.8483,34.7268 27.5003,34.7268 C30.1523,34.7268 31.5853,33.7598 31.5703,33.7268 C31.2883,33.0978 30.5893,32.7438 30.5893,32.7438" id="Fill-16" fill="#BA8C5F"></path>
                    <path d="M40.0488,41.4763 L38.9498,40.9063 L38.4638,39.7013 C37.3918,40.6403 32.2028,41.6053 27.4998,41.6053 C22.7978,41.6053 17.6078,40.6403 16.5358,39.7013 L16.0508,40.9063 L14.9508,41.4763 C14.9508,41.4763 14.0638,42.0463 14.9508,42.4903 C15.8388,42.9343 20.0178,44.3293 27.4998,44.3293 C34.9828,44.3293 39.1608,42.9343 40.0488,42.4903 C40.9358,42.0463 40.0488,41.4763 40.0488,41.4763" id="Fill-18" fill="#0E4E30"></path>
                    <path d="M29.7646,30.0837 C29.1716,30.0837 28.6576,29.6427 28.5806,29.0377 C28.4986,28.3837 28.9626,27.7857 29.6176,27.7037 C31.1196,27.5147 33.2266,26.5777 34.2196,24.5597 C34.5116,23.9677 35.2266,23.7247 35.8186,24.0147 C36.4106,24.3067 36.6546,25.0217 36.3636,25.6137 C35.2006,27.9767 32.6696,29.7277 29.9156,30.0737 C29.8646,30.0807 29.8146,30.0837 29.7646,30.0837" id="Fill-20" fill="#0E4E30"></path>
                </g>
                <path d="M330,220 C360.375672,220 385,195.376086 385,165 L330,165 L330,220 Z" id="header-left-box-23" fill="#0E4E30"></path>
                <g id="header-left-box-24" transform="translate(55.000000, 220.000000)">
                    <polygon id="Fill-1" fill="#BA8C5F" points="55 0 0 55 55 55"></polygon>
                    <polygon id="Fill-2" fill="#207D46" points="0 0 0 55 55 55"></polygon>
                </g>
                <g id="header-left-box-25" transform="translate(110.000000, 220.000000)">
                    <path d="M46.9452836,8.05461576 C36.2056616,-2.68487192 18.7936509,-2.68487192 8.05402894,8.05461576 C-2.68467631,18.7941034 -2.68467631,36.2058966 8.05402894,46.9453842 C18.7936509,57.6848719 36.2056616,57.6848719 46.9452836,46.9453842 C57.6849055,36.2058966 57.6849055,18.7941034 46.9452836,8.05461576" id="Fill-1" fill="#207D46"></path>
                    <polygon id="Fill-4" fill="#0E4E30" points="35.0009224 27.9981552 42.9981552 20 35 12.0009224 27.0018448 19.9990776 19.0027672 12 11 20.0018448 19 28.0009224 11.0018448 35.9990776 19.0009224 43.9981552 26.9990776 36 34.9981552 44 43 35.9972328"></polygon>
                </g>
                <g id="header-left-box-26" transform="translate(275.000000, 220.000000)">
                    <polygon id="Fill-1" fill="#0E4E30" points="0 55 55 55 55 0 0 0"></polygon>
                    <polygon id="Fill-2" fill="#207D46" points="27.5 55 54.999 55 54.999 0 27.5 0"></polygon>
                    <polygon id="Fill-3" fill="#BA8C5F" points="15.125 39.875 39.875 39.875 39.875 15.125 15.125 15.125"></polygon>
                </g>
                <g id="header-left-box-27" transform="translate(330.000000, 220.000000)">
                    <polygon id="Fill-1" fill="#207D46" points="0.0009 0.0001 54.9999 55.0001 54.9999 0.0001"></polygon>
                    <polygon id="Fill-2" fill="#0E4E30" points="0 41.358 55 41.358 55 0 0 0"></polygon>
                    <g id="Group-9" transform="translate(11.000000, 17.000000)" fill="#BA8C5F">
                        <path d="M25.9465,3.6793 C25.9465,5.3873 27.3315,6.7733 29.0405,6.7733 C30.7485,6.7733 32.1335,5.3873 32.1335,3.6793 C32.1335,1.9703 30.7485,0.5853 29.0405,0.5853 C27.3315,0.5853 25.9465,1.9703 25.9465,3.6793" id="Fill-3"></path>
                        <path d="M13.4065,3.6793 C13.4065,5.3873 14.7915,6.7733 16.5005,6.7733 C18.2085,6.7733 19.5935,5.3873 19.5935,3.6793 C19.5935,1.9703 18.2085,0.5853 16.5005,0.5853 C14.7915,0.5853 13.4065,1.9703 13.4065,3.6793" id="Fill-5"></path>
                        <path d="M0.866,3.6793 C0.866,5.3873 2.251,6.7733 3.96,6.7733 C5.669,6.7733 7.053,5.3873 7.053,3.6793 C7.053,1.9703 5.669,0.5853 3.96,0.5853 C2.251,0.5853 0.866,1.9703 0.866,3.6793" id="Fill-7"></path>
                    </g>
                </g>
                <g id="header-left-box-28" transform="translate(385.000000, 220.000000)" fill="#207D46">
                    <polygon id="Fill-1" points="0 27 27 27 27 0 0 0"></polygon>
                    <polygon id="Fill-2" points="27 54 54 54 54 27 27 27"></polygon>
                </g>
                <g id="header-left-box-29" transform="translate(0.000000, 275.000000)">
                    <polygon id="Fill-1" fill="#66493F" points="0 55 55 55 55 0 0 0"></polygon>
                    <g id="Group-14" transform="translate(8.000000, 5.000000)">
                        <path d="M21.4997,21.2093 C25.2647,20.2723 29.2107,19.5643 33.0427,20.1863 C35.0627,20.5133 37.1667,21.3693 38.0937,23.0843 C39.1097,24.9643 38.3697,27.3353 36.9517,28.9793 C35.5327,30.6223 33.5477,31.7263 31.6867,32.9193 C29.1717,34.5303 26.8147,36.3613 24.2067,37.8363 C19.2827,40.6213 13.5027,42.2043 7.7677,42.0803 C6.1957,42.0473 4.4237,41.7303 3.0817,40.9683 C0.7927,39.6683 0.0207,36.8103 0.6407,34.3603 C1.2607,31.9113 3.1727,29.8853 5.4107,28.4933 C7.6477,27.1023 10.5047,25.6853 12.9107,24.5683 C15.5797,23.3303 17.7357,22.1463 21.4997,21.2093" id="Fill-2" fill="#BA8C5F"></path>
                        <path d="M24.4573,6.1654 C23.6253,5.5634 17.5603,0.5254 17.5603,0.5254 L13.0463,2.1364 L12.4433,4.5374 L14.2123,9.0034 L18.1263,4.4594 C18.1263,4.4594 22.3513,6.4184 23.7463,6.9434 C24.7083,7.3064 24.8823,6.4734 24.4573,6.1654" id="Fill-4" fill="#0E4E30"></path>
                        <path d="M15.5466,6.2933 C16.6126,8.0113 17.1376,9.3133 18.5356,11.7723 C20.8646,15.8723 25.1406,20.9073 27.4596,24.5383 C28.0966,25.5353 28.5786,26.1123 28.0036,27.2613 C26.3566,30.5483 23.5226,32.7303 20.3346,33.6483 C16.0236,34.8933 13.6256,35.1023 10.4366,33.9013 C9.6736,33.6143 9.3756,33.1433 9.4046,32.0473 C9.4446,30.5083 10.3236,28.1313 10.3356,26.6083 C10.4136,16.1173 11.1256,11.1723 11.8776,6.9513 C12.0286,6.1013 13.0846,1.9703 13.0816,1.99518701 C13.0806,2.0013 14.6216,4.8043 15.5466,6.2933" id="Fill-6" fill="#207D46"></path>
                        <path d="M13.7561,29.3646 L15.0181,30.1926 L14.7191,31.8086 L16.1651,30.6046 L17.9211,31.4276 L17.2351,29.9646 C17.2351,29.9646 18.2141,28.7556 18.2391,28.7306 C18.2561,28.7136 16.7511,28.8236 16.7511,28.8236 L15.7281,27.3846 L15.2541,29.0086 L13.7561,29.3646 Z" id="Fill-8" fill="#0E4E30"></path>
                        <path d="M12.0686,22.1702 L11.6956,20.6362 L12.9316,19.1872 L11.3226,19.2612 C11.3226,19.2612 10.7626,18.4392 10.5386,18.0322 C10.4906,19.0452 10.4506,20.1232 10.4166,21.2612 L12.0686,22.1702 Z" id="Fill-10" fill="#0E4E30"></path>
                        <polygon id="Fill-12" fill="#0E4E30" points="16.1833 22.4505 18.3163 23.0925 18.6903 25.2655 20.0193 23.2785 22.3673 23.4355 21.1083 21.9205 21.8963 19.8595 19.9933 20.7745 17.9293 18.9585 18.1293 21.4325"></polygon>
                    </g>
                </g>
                <path d="M55,330 C85.375672,330 110,305.376086 110,275 L55,275 L55,330 Z" id="header-left-box-30" fill="#0E4E30"></path>
                <rect id="header-left-box-31" fill="#0E4E30" x="165" y="330" width="55" height="55"></rect>
                <rect id="header-left-box-31-copy-2" fill="#207D46" x="165" y="275" width="55" height="55"></rect>
                <rect id="header-left-box-31-copy-3" fill="#BA8C5F" x="220" y="275" width="55" height="55"></rect>
                <rect id="header-left-box-31-copy" fill="#0E4E30" x="165" y="220" width="55" height="55"></rect>
                <g id="header-left-box-32" transform="translate(357.500000, 302.500000) scale(-1, 1) translate(-357.500000, -302.500000) translate(330.000000, 275.000000)">
                    <polygon id="Fill-1" fill="#0E4E30" points="0 55 55 55 55 0 0 0"></polygon>
                    <polygon id="Fill-2" fill="#BA8C5F" points="0 0 0 55 37 27.4990759"></polygon>
                </g>
                <rect id="header-left-box-33" fill="#0E4E30" x="0" y="330" width="55" height="55"></rect>
                <polygon id="header-left-box-34" fill="#66493F" points="220 385 220 440 275 385"></polygon>
            </g>
            <g id="header-b-left-box" transform="translate(0.000000, 615.000000)">
                <rect id="header-b-left-box-01" fill="#0E4E30" x="0" y="330" width="55" height="55"></rect>
                <g id="header-b-left-box-02" transform="translate(110.000000, 330.000000)">
                    <polygon id="Fill-1" fill="#207D46" points="0 54.999 54.997 54.999 54.997 0 0 0"></polygon>
                    <polygon id="Fill-2" fill="#66493F" points="27.5 27.501 54.999 27.501 54.999 0.001 27.5 0.001"></polygon>
                    <polygon id="Fill-3" fill="#0E4E30" points="27.501 55 55 55 55 27.5 27.501 27.5"></polygon>
                    <polygon id="Fill-4" fill="#BA8C5F" points="15.125 39.875 39.875 39.875 39.875 15.125 15.125 15.125"></polygon>
                </g>
                <rect id="header-b-left-box-03" fill="#207D46" x="165" y="330" width="55" height="55"></rect>
                <polygon id="header-b-left-box-04" fill="#66493F" points="238.334 330 238.334 348.33 220 348.33 220 366.67 238.334 366.67 238.334 385 256.667 385 256.667 366.67 275 366.67 275 348.33 256.667 348.33 256.667 330"></polygon>
                <path d="M275,330 C275,360.376 299.624,385 330,385 L330,330 L275,330 Z" id="header-b-left-box-05" fill="#0E4E30"></path>
                <g id="header-b-left-box-06" transform="translate(0.000000, 275.000000)">
                    <polygon id="Fill-1" fill="#207D46" points="0 55 55 55 55 0 0 0"></polygon>
                    <path d="M43.2166,23.3811 C41.0956,21.8601 38.3816,22.0331 36.3306,22.9611 C36.7446,22.3181 37.1786,21.6901 37.6186,21.0641 C39.0336,20.6901 40.6126,19.7191 41.7726,18.2671 C42.9566,16.7861 43.2676,14.3161 43.0206,12.8421 C42.9296,12.2961 42.9466,11.7391 42.7206,11.6681 C42.4576,11.5841 41.9576,11.8111 41.4266,11.8971 C40.0596,12.1191 38.3196,12.7491 37.2306,14.1611 C36.1706,15.5371 35.4576,17.9361 35.9336,20.0511 C35.4586,20.7261 34.9916,21.4031 34.5466,22.0991 C34.1186,19.6281 32.3646,17.8841 30.7286,17.2231 C30.5046,17.1321 28.3656,16.1751 28.3296,16.6761 C28.1956,18.5361 28.1956,18.5361 28.1246,19.4641 C28.0186,20.8351 28.1476,22.3681 28.8206,23.5681 C29.3336,24.4841 30.6696,25.4791 32.3416,25.8141 C31.7376,26.9051 31.1586,28.0071 30.6046,29.1211 C30.3916,28.3761 29.9746,27.6551 29.1836,26.6971 C27.5176,24.6831 25.5596,24.4151 25.2036,24.3331 C24.8476,24.2501 24.3286,24.1031 24.3136,24.7631 C24.2516,27.4021 23.8466,29.8651 25.8476,31.8131 C26.4246,32.3731 27.3346,32.8651 28.7316,33.0541 C28.2816,34.0581 27.8496,35.0721 27.4416,36.0971 C27.1036,35.4021 26.6906,34.7961 26.4366,34.5041 C25.2826,33.1791 23.5546,32.6881 21.9846,32.5291 C21.5486,32.4851 20.6946,32.5791 20.6796,33.0191 C20.6236,34.7391 20.9786,37.0281 22.5136,38.5951 C23.2586,39.3561 24.5196,40.0931 25.9806,40.2021 C25.5646,41.5391 25.2006,42.8891 24.9196,44.2561 C24.6656,45.4931 26.5636,46.0231 26.8186,44.7801 C27.0296,43.7541 27.2886,42.7381 27.5786,41.7301 C31.4496,42.9121 34.7576,40.9481 36.3466,38.0031 C36.6186,37.4991 36.3196,37.3261 35.3006,36.8741 C33.3926,36.0271 31.1256,36.0471 29.2316,36.9091 C29.5286,36.1561 29.8356,35.4071 30.1576,34.6651 C31.7576,35.2461 33.4846,35.6891 35.0286,35.2141 C36.8256,34.6621 37.9656,33.5271 39.2336,32.3491 C40.1866,31.4631 40.3976,31.4381 40.0436,31.0171 C39.8216,30.7531 38.9356,30.1611 38.6166,30.0131 C36.1406,28.8601 34.0796,29.2171 32.2006,30.3231 C32.7626,29.1881 33.3516,28.0641 33.9646,26.9491 C35.5876,28.0301 37.7686,28.3311 39.2766,27.8181 C41.2576,27.1441 42.4706,26.0881 43.8556,24.4341 C44.1836,24.0421 43.9276,23.8911 43.2166,23.3811" id="Fill-2" fill="#66493F"></path>
                    <path d="M27.1536,24.5676 C28.8366,23.3236 29.6716,21.9486 30.4886,19.9526 C30.6826,19.4796 30.3926,19.4136 29.5606,19.1436 C27.0706,18.3376 24.5296,19.3336 22.8576,20.8466 C23.0566,20.1106 23.2666,19.3786 23.4956,18.6516 C24.7396,17.8686 25.9626,16.4576 26.6316,14.7096 C27.3096,12.9386 26.8556,10.4906 26.1726,9.1616 C25.9206,8.6696 25.7676,8.1336 25.5306,8.1336 C25.2536,8.1336 24.8466,8.5016 24.3676,8.7456 C23.1326,9.3726 21.6656,10.5016 21.0566,12.1766 C20.4676,13.7996 20.5126,16.2826 21.5896,18.1496 C21.3416,18.9406 21.1146,19.7376 20.9016,20.5396 C19.7416,18.3266 17.5476,17.2016 15.7916,17.0686 C15.5506,17.0496 13.2226,16.7876 13.3406,17.2756 C13.7776,19.0886 13.7776,19.0886 13.9916,19.9956 C14.3066,21.3346 14.8956,22.7556 15.9006,23.6936 C16.6666,24.4086 18.2336,24.9496 19.9226,24.7656 C19.6806,25.9836 19.4676,27.2066 19.2786,28.4306 C18.8506,27.7906 18.2356,27.2326 17.1966,26.5646 C14.9986,25.1516 13.0516,25.4906 12.6876,25.5206 C12.3236,25.5496 11.7836,25.5676 11.9696,26.2006 C12.7126,28.7346 13.0746,31.2046 15.5726,32.4516 C16.2936,32.8106 17.3106,33.0036 18.7016,32.7576 C18.5766,33.8526 18.4726,34.9506 18.3946,36.0516 C17.8616,35.4926 17.2826,35.0386 16.9516,34.8376 C15.4486,33.9246 13.6536,33.9816 12.1106,34.3076 C11.6816,34.3986 10.8956,34.7476 11.0156,35.1706 C11.4846,36.8266 12.5176,38.8996 14.4566,39.9266 C15.3976,40.4246 16.8236,40.7436 18.2496,40.4046 C18.2586,41.7906 18.3216,43.1746 18.4666,44.5496 C18.5996,45.7976 20.5706,45.8116 20.4366,44.5496 C20.3246,43.4976 20.2626,42.4366 20.2326,41.3746 C24.2806,41.3266 26.8366,38.4506 27.4566,35.1616 C27.5626,34.5986 27.2246,34.5246 26.1166,34.4036 C24.0406,34.1746 21.8846,34.8836 20.3416,36.2816 C20.3966,35.4736 20.4606,34.6656 20.5426,33.8606 C22.2436,33.9276 24.0246,33.8256 25.3526,32.9046 C26.8976,31.8336 27.6396,30.4056 28.4896,28.8976 C29.1286,27.7636 29.3216,27.6746 28.8566,27.3816 C28.5646,27.1976 27.5406,26.9036 27.1926,26.8586 C24.4706,26.5106 22.6106,27.4856 21.1536,29.1246 C21.3456,27.8626 21.5616,26.6016 21.8096,25.3466 C23.6886,25.8926 25.8686,25.5176 27.1536,24.5676" id="Fill-4" fill="#0E4E30"></path>
                </g>
                <g id="header-b-left-box-07" transform="translate(55.000000, 275.000000)">
                    <polygon id="Fill-1" fill="#0E4E30" points="0 55 55 55 55 0 0 0"></polygon>
                    <path d="M46.0626,27.5002 C46.0626,37.7522 37.7516,46.0622 27.5006,46.0622 C17.2486,46.0622 8.9376,37.7522 8.9376,27.5002 C8.9376,17.2482 17.2486,8.9382 27.5006,8.9382 C37.7516,8.9382 46.0626,17.2482 46.0626,27.5002" id="Fill-2" fill="#BA8C5F"></path>
                    <polygon id="Fill-4" fill="#66493F" points="27.5001 18.0363 30.6581 24.1803 37.1251 25.0053 32.3831 29.4023 33.6761 35.5883 27.5001 32.6103 21.3241 35.5883 22.6171 29.4023 17.8751 25.0053 24.3411 24.1803"></polygon>
                </g>
                <g id="header-b-left-box-08" transform="translate(110.000000, 275.000000)" fill="#207D46">
                    <path d="M54.999,27.5 L54.999,55 L27.5,55 L27.5,27.5 L54.999,27.5 Z M27.5,0.001 L27.5,27.5 L0,27.5 L0,0.001 L27.5,0.001 Z" id="Combined-Shape"></path>
                </g>
                <rect id="header-b-left-box-09" fill="#0E4E30" x="165" y="275" width="55" height="55"></rect>
                <rect id="header-b-left-box-10" fill="#BA8C5F" x="0" y="220" width="55" height="55"></rect>
                <polygon id="header-b-left-box-11" fill="#207D46" points="55 220 55 275 110 275"></polygon>
                <rect id="header-b-left-box-10" fill="#0E4E30" x="110" y="220" width="55" height="55"></rect>
                <g id="header-b-left-box-12" transform="translate(165.000000, 220.000000)">
                    <path d="M27.5,13.7499 C27.5,21.3439 21.344,27.4999 13.75,27.4999 C6.156,27.4999 0,21.3439 0,13.7499 C0,6.1559 6.156,-0.0001 13.75,-0.0001 C21.344,-0.0001 27.5,6.1559 27.5,13.7499" id="Fill-1" fill="#207D46"></path>
                    <path d="M55,13.7499 C55,21.3439 48.844,27.4999 41.25,27.4999 C33.656,27.4999 27.5,21.3439 27.5,13.7499 C27.5,6.1559 33.656,-0.0001 41.25,-0.0001 C48.844,-0.0001 55,6.1559 55,13.7499" id="Fill-4" fill="#BA8C5F"></path>
                    <path d="M27.5,41.2499 C27.5,48.8439 21.344,54.9999 13.75,54.9999 C6.156,54.9999 0,48.8439 0,41.2499 C0,33.6559 6.156,27.4999 13.75,27.4999 C21.344,27.4999 27.5,33.6559 27.5,41.2499" id="Fill-7" fill="#66493F"></path>
                    <path d="M55,41.2499 C55,48.8439 48.844,54.9999 41.25,54.9999 C33.656,54.9999 27.5,48.8439 27.5,41.2499 C27.5,33.6559 33.656,27.4999 41.25,27.4999 C48.844,27.4999 55,33.6559 55,41.2499" id="Fill-9" fill="#0E4E30"></path>
                </g>
                <g id="header-b-left-box-13" transform="translate(220.000000, 220.000000)">
                    <polygon id="Fill-1" fill="#0E4E30" points="0 55 55 55 55 0 0 0"></polygon>
                    <g id="Group-14" transform="translate(8.000000, 7.000000)">
                        <path d="M19.4993,17.4686 L0.6863,17.4686 C0.6863,22.0956 1.0803,25.1916 1.9193,28.3246 C2.6693,31.1256 4.5393,35.2426 8.5363,37.8426 C11.0033,39.4476 14.3103,40.3726 19.4993,40.3726 C24.6883,40.3726 27.9963,39.4476 30.4623,37.8426 C34.4603,35.2426 36.3303,31.1256 37.0803,28.3246 C37.9193,25.1916 38.3133,22.0956 38.3133,17.4686 L19.4993,17.4686 Z" id="Fill-2" fill="#66493F"></path>
                        <path d="M38.3138,17.4686 C38.3138,23.0546 29.8898,26.6156 19.4998,26.6156 C9.1088,26.6156 0.6858,22.8496 0.6858,17.4686 C0.6858,11.9506 9.1088,8.3226 19.4998,8.3226 C29.8898,8.3226 38.3138,11.9506 38.3138,17.4686" id="Fill-4" fill="#BA8C5F"></path>
                        <path d="M34.8772,17.2596 C34.8772,21.4096 27.7482,23.8516 19.4992,23.8516 C11.2502,23.8516 4.1212,21.5466 4.1212,17.2596 C4.1212,13.1166 11.2502,10.4586 19.4992,10.4586 C27.7482,10.4586 34.8772,12.9796 34.8772,17.2596" id="Fill-6" fill="#66493F"></path>
                        <path d="M19.4993,24.0604 C26.0673,24.0604 31.9113,22.3764 34.0263,19.5964 C31.8003,16.3724 26.1453,14.2854 19.4993,14.2854 C12.8353,14.2854 7.1663,16.3854 4.9533,19.6254 C7.0533,22.4544 12.9133,24.0604 19.4993,24.0604" id="Fill-8" fill="#207D46"></path>
                        <path d="M30.2346,19.1698 C30.3416,19.0378 30.4606,18.8758 30.5826,18.6958 C31.2326,17.7378 32.0126,16.2628 32.0996,16.0838 C34.0126,12.1708 34.3306,11.6218 36.3606,6.5308 C36.7936,5.4448 37.2526,4.2698 37.1626,3.0588 C37.0146,1.0618 35.0506,0.2128 33.5646,0.8198 C31.9176,1.4938 31.2636,2.8138 30.4146,4.3768 C28.4346,8.0218 27.6306,9.4578 25.9806,13.8628 C25.3936,15.4318 24.8416,16.8208 24.4096,18.4338 C24.1866,19.2638 24.7056,19.1698 24.7056,19.1698 L30.2346,19.1698 Z" id="Fill-10" fill="#66493F"></path>
                        <path d="M32.2932,6.5546 C32.1102,6.5546 31.9252,6.5066 31.7552,6.4076 C31.2492,6.1096 31.0792,5.4576 31.3772,4.9506 L31.6082,4.5536 C31.7502,4.3096 31.9332,3.9916 32.0842,3.7206 C32.7422,2.5436 33.9862,2.0516 35.2552,2.4706 C35.8132,2.6546 36.1162,3.2556 35.9332,3.8136 C35.7492,4.3706 35.1472,4.6726 34.5892,4.4916 C34.2182,4.3676 34.0542,4.5586 33.9412,4.7596 C33.7842,5.0386 33.5962,5.3676 33.4492,5.6196 L33.2112,6.0296 C33.0132,6.3666 32.6582,6.5546 32.2932,6.5546" id="Fill-12" fill="#207D46"></path>
                    </g>
                </g>
                <g id="header-b-left-box-14" transform="translate(55.000000, 165.000000)">
                    <polygon id="Fill-1" fill="#66493F" points="0 55 55 55 55 0 0 0"></polygon>
                    <g id="Group-6" transform="translate(12.000000, 6.000000)">
                        <path d="M15.395,42.5619 C4.97,43.1629 -3.489,33.6549 2.4,20.2949 C4.842,14.7539 4.369,9.4409 4.369,9.4409 C6.904,10.7129 9.134,14.0389 9.613,15.1169 C9.613,15.1169 16.156,11.7909 15.779,0.4119 C15.779,0.4119 27.946,10.8899 24.808,23.9559 C24.808,23.9559 28.958,22.2019 29.947,18.4839 C29.947,18.4839 31.387,24.3609 29.768,30.2629 C28.205,35.9579 23.736,42.0809 15.395,42.5619" id="Fill-2" fill="#F3F2EB"></path>
                        <path d="M10.3794,24.6966 C10.3794,24.6966 12.2314,25.9726 12.2794,27.9936 C12.2794,27.9936 15.2114,27.3516 17.1964,18.5266 C17.1964,18.5266 22.1564,27.2206 19.8094,32.6806 C19.8094,32.6806 21.8044,32.7166 23.3664,30.2186 C23.3664,30.2186 23.2364,33.4276 21.8184,36.2846 C20.9674,37.9986 19.4114,39.5866 17.8184,40.2776 C14.9874,41.5076 10.0604,40.8886 8.3534,36.9216 C6.2484,32.0286 8.4914,28.9266 9.2124,27.5596 C9.9324,26.1926 10.3794,24.6966 10.3794,24.6966" id="Fill-4" fill="#BA8C5F"></path>
                    </g>
                </g>
                <rect id="header-b-left-box-15" fill="#BA8C5F" x="110" y="165" width="55" height="55"></rect>
                <g id="header-b-left-box-16" transform="translate(165.000000, 165.000000)">
                    <polygon id="Fill-1" fill="#207D46" points="0 0.0001 0 54.9991 54.999 0.0001"></polygon>
                    <polygon id="Fill-2" fill="#0E4E30" points="0 0.0001 0 54.9991 55 54.9991 0.001 0.0001"></polygon>
                </g>
                <path d="M231,209 L231,220 L220,220 L220,209 L231,209 Z M275,209 L275,220 L264,220 L264,209 L275,209 Z M253,209 L253,197.999 L264,197.999 L264,209 L253.001,209 L253.001,220 L242.001,220 L242.001,209 L253,209 Z M231,187 L231,197.999 L242.001,197.999 L242.001,209 L231,209 L231,197.999 L220,197.999 L220,187 L231,187 Z M253,187 L253,197.999 L242.001,197.999 L242.001,187 L253,187 Z M275,187 L275,197.999 L264,197.999 L264,187 L275,187 Z M242.001,176 L242.001,187 L231,187 L231,176 L242.001,176 Z M264,176 L264,187 L253,187 L253,176 L264,176 Z M275,165 L275,176 L264,176 L264,165 L275,165 Z M253,165 L253,176 L242.001,176 L242.001,165 L253,165 Z M231,165 L231,176 L220,176 L220,165 L231,165 Z" id="header-b-left-box-17" fill="#207D46"></path>
                <polygon id="header-b-left-box-18" fill="#207D46" points="0 110 55 165 55 110"></polygon>
                <rect id="header-b-left-box-19" fill="#0E4E30" x="110" y="110" width="55" height="55"></rect>
                <rect id="header-b-left-box-20" fill="#0E4E30" x="55" y="55" width="55" height="55"></rect>
                <rect id="header-b-left-box-21" fill="#0E4E30" x="0" y="0" width="55" height="55"></rect>
            </g>
        </g>
    </g>
</svg>