<?xml version="1.0" encoding="UTF-8"?>
<svg width="480px" height="240px" viewBox="0 0 480 240" version="1.1" xmlns="http://www.w3.org/2000/svg" xmlns:xlink="http://www.w3.org/1999/xlink">
    <title>header-m-bottom</title>
    <g id="Page-1" stroke="none" stroke-width="1" fill="none" fill-rule="evenodd">
        <g id="header-480x770" transform="translate(0.000000, -1000.000000)">
            <g id="header-m-bottom" transform="translate(0.000000, 1000.000000)">
                <g id="header-right-box-26-copy" transform="translate(280.000000, 40.000000)">
                    <polygon id="Fill-1" fill="#0E4E30" points="0 40 40 40 40 0 0 0"></polygon>
                    <polygon id="Fill-2" fill="#BA8C5F" points="16.072 9.71127273 23.9272727 9.71127273 23.9272727 5.93890909 16.072 5.93890909"></polygon>
                    <polygon id="Fill-3" fill="#BA8C5F" points="18.4989091 16.528 21.5010909 16.528 21.5010909 5.93890909 18.4989091 5.93890909"></polygon>
                    <path d="M31.4656727,23.2964364 C31.4656727,29.6288 26.3318545,34.7626182 19.9994909,34.7626182 C13.6671273,34.7626182 8.53476364,29.6288 8.53476364,23.2964364 C8.53476364,16.9648 13.6671273,11.8309818 19.9994909,11.8309818 C26.3318545,11.8309818 31.4656727,16.9648 31.4656727,23.2964364" id="Fill-4" fill="#207D46"></path>
                    <path d="M28.3285818,23.2964364 C28.3285818,27.8964364 24.5998545,31.6251636 19.9998545,31.6251636 C15.4005818,31.6251636 11.6711273,27.8964364 11.6711273,23.2964364 C11.6711273,18.6971636 15.4005818,14.9684364 19.9998545,14.9684364 C24.5998545,14.9684364 28.3285818,18.6971636 28.3285818,23.2964364" id="Fill-6" fill="#66493F"></path>
                    <polygon id="Fill-8" fill="#BA8C5F" points="23.0473455 18.4221818 18.0313455 22.0658182 16.9528 28.1712727 21.9695273 24.5283636"></polygon>
                    <polygon id="Fill-10" fill="#207D46" points="10.5534545 24.4327273 13.5287273 24.4327273 13.5287273 22.584 10.5534545 22.584"></polygon>
                    <polygon id="Fill-12" fill="#207D46" points="26.4712727 24.4327273 29.4458182 24.4327273 29.4458182 22.584 26.4712727 22.584"></polygon>
                </g>
                <rect id="header-b-left-box-01" fill="#0E4E30" x="0" y="200" width="40" height="40"></rect>
                <g id="header-b-left-box-02" transform="translate(80.000000, 200.000000)">
                    <polygon id="Fill-1" fill="#207D46" points="0 39.9992727 39.9978182 39.9992727 39.9978182 0 0 0"></polygon>
                    <polygon id="Fill-2" fill="#66493F" points="20 20.0007273 39.9992727 20.0007273 39.9992727 0.000727272727 20 0.000727272727"></polygon>
                    <polygon id="Fill-3" fill="#0E4E30" points="20.0007273 40 40 40 40 20 20.0007273 20"></polygon>
                    <polygon id="Fill-4" fill="#BA8C5F" points="11 29 29 29 29 11 11 11"></polygon>
                </g>
                <rect id="header-b-left-box-03" fill="#207D46" x="120" y="200" width="40" height="40"></rect>
                <polygon id="header-b-left-box-04" fill="#66493F" points="173.333818 200 173.333818 213.330909 160 213.330909 160 226.669091 173.333818 226.669091 173.333818 240 186.666909 240 186.666909 226.669091 200 226.669091 200 213.330909 186.666909 213.330909 186.666909 200"></polygon>
                <path d="M200,200 C200,222.091636 217.908364,240 240,240 L240,200 L200,200 Z" id="header-b-left-box-05" fill="#207D46"></path>
                <g id="header-b-left-box-06" transform="translate(0.000000, 160.000000)">
                    <polygon id="Fill-1" fill="#207D46" points="0 40 40 40 40 0 0 0"></polygon>
                    <path d="M31.4302545,17.0044364 C29.8877091,15.8982545 27.9138909,16.0240727 26.4222545,16.6989818 C26.7233455,16.2313455 27.0389818,15.7746182 27.3589818,15.3193455 C28.3880727,15.0473455 29.5364364,14.3411636 30.3800727,13.2851636 C31.2411636,12.2080727 31.4673455,10.4117091 31.2877091,9.33970909 C31.2215273,8.94261818 31.2338909,8.53752727 31.0695273,8.48589091 C30.8782545,8.4248 30.5146182,8.58989091 30.1284364,8.65243636 C29.1342545,8.81389091 27.8688,9.27207273 27.0768,10.2989818 C26.3058909,11.2997091 25.7873455,13.0444364 26.1335273,14.5826182 C25.7880727,15.0735273 25.4484364,15.5658909 25.1248,16.0720727 C24.8135273,14.2749818 23.5378909,13.0066182 22.3480727,12.5258909 C22.1851636,12.4597091 20.6295273,11.7637091 20.6033455,12.1280727 C20.5058909,13.4808 20.5058909,13.4808 20.4542545,14.1557091 C20.3771636,15.1528 20.4709818,16.2677091 20.9604364,17.1404364 C21.3335273,17.8066182 22.3051636,18.5302545 23.5211636,18.7738909 C23.0818909,19.5673455 22.6608,20.3688 22.2578909,21.1789818 C22.1029818,20.6371636 21.7997091,20.1128 21.2244364,19.4160727 C20.0128,17.9513455 18.5888,17.7564364 18.3298909,17.6968 C18.0709818,17.6364364 17.6935273,17.5295273 17.6826182,18.0095273 C17.6375273,19.9288 17.3429818,21.7200727 18.7982545,23.1368 C19.2178909,23.5440727 19.8797091,23.9018909 20.8957091,24.0393455 C20.5684364,24.7695273 20.2542545,25.5069818 19.9575273,26.2524364 C19.7117091,25.7469818 19.4113455,25.3062545 19.2266182,25.0938909 C18.3873455,24.1302545 17.1306182,23.7731636 15.9888,23.6575273 C15.6717091,23.6255273 15.0506182,23.6938909 15.0397091,24.0138909 C14.9989818,25.2648 15.2571636,26.9295273 16.3735273,28.0691636 C16.9153455,28.6226182 17.8324364,29.1586182 18.8949818,29.2378909 C18.5924364,30.2102545 18.3277091,31.1920727 18.1233455,32.1862545 C17.9386182,33.0858909 19.3189818,33.4713455 19.5044364,32.5673455 C19.6578909,31.8211636 19.8462545,31.0822545 20.0571636,30.3491636 C22.8724364,31.2088 25.2782545,29.7804364 26.4338909,27.6386182 C26.6317091,27.2720727 26.4142545,27.1462545 25.6731636,26.8175273 C24.2855273,26.2015273 22.6368,26.2160727 21.2593455,26.8429818 C21.4753455,26.2953455 21.6986182,25.7506182 21.9328,25.2109818 C23.0964364,25.6335273 24.3524364,25.9557091 25.4753455,25.6102545 C26.7822545,25.2088 27.6113455,24.3833455 28.5335273,23.5266182 C29.2266182,22.8822545 29.3800727,22.8640727 29.1226182,22.5578909 C28.9611636,22.3658909 28.3168,21.9353455 28.0848,21.8277091 C26.2840727,20.9891636 24.7851636,21.2488 23.4186182,22.0531636 C23.8273455,21.2277091 24.2557091,20.4102545 24.7015273,19.5993455 C25.8818909,20.3855273 27.4680727,20.6044364 28.5648,20.2313455 C30.0055273,19.7411636 30.8877091,18.9731636 31.8949818,17.7702545 C32.1335273,17.4851636 31.9473455,17.3753455 31.4302545,17.0044364" id="Fill-2" fill="#66493F"></path>
                    <path d="M19.7480727,17.8673455 C20.9720727,16.9626182 21.5793455,15.9626182 22.1735273,14.5109818 C22.3146182,14.1669818 22.1037091,14.1189818 21.4986182,13.9226182 C19.6877091,13.3364364 17.8397091,14.0608 16.6237091,15.1611636 C16.7684364,14.6258909 16.9211636,14.0935273 17.0877091,13.5648 C17.9924364,12.9953455 18.8818909,11.9691636 19.3684364,10.6978909 C19.8615273,9.40989091 19.5313455,7.62952727 19.0346182,6.66298182 C18.8513455,6.30516364 18.7400727,5.91534545 18.5677091,5.91534545 C18.3662545,5.91534545 18.0702545,6.18298182 17.7218909,6.36043636 C16.8237091,6.81643636 15.7568,7.63752727 15.3138909,8.85570909 C14.8855273,10.0360727 14.9182545,11.8418909 15.7015273,13.1997091 C15.5211636,13.7749818 15.3560727,14.3546182 15.2011636,14.9378909 C14.3575273,13.3284364 12.7618909,12.5102545 11.4848,12.4135273 C11.3095273,12.3997091 9.61643636,12.2091636 9.70225455,12.5640727 C10.0200727,13.8826182 10.0200727,13.8826182 10.1757091,14.5422545 C10.4048,15.5160727 10.8331636,16.5495273 11.5640727,17.2317091 C12.1211636,17.7517091 13.2608,18.1451636 14.4891636,18.0113455 C14.3131636,18.8971636 14.1582545,19.7866182 14.0208,20.6768 C13.7095273,20.2113455 13.2622545,19.8055273 12.5066182,19.3197091 C10.9080727,18.2920727 9.49207273,18.5386182 9.22734545,18.5604364 C8.96261818,18.5815273 8.56989091,18.5946182 8.70516364,19.0549818 C9.24552727,20.8978909 9.5088,22.6942545 11.3255273,23.6011636 C11.8498909,23.8622545 12.5895273,24.0026182 13.6011636,23.8237091 C13.5102545,24.6200727 13.4346182,25.4186182 13.3778909,26.2193455 C12.9902545,25.8128 12.5691636,25.4826182 12.3284364,25.3364364 C11.2353455,24.6724364 9.92989091,24.7138909 8.80770909,24.9509818 C8.49570909,25.0171636 7.92407273,25.2709818 8.01134545,25.5786182 C8.35243636,26.7829818 9.10370909,28.2906182 10.5138909,29.0375273 C11.1982545,29.3997091 12.2353455,29.6317091 13.2724364,29.3851636 C13.2789818,30.3931636 13.3248,31.3997091 13.4302545,32.3997091 C13.5269818,33.3073455 14.9604364,33.3175273 14.8629818,32.3997091 C14.7815273,31.6346182 14.7364364,30.8629818 14.7146182,30.0906182 C17.6586182,30.0557091 19.5175273,27.9640727 19.9684364,25.5720727 C20.0455273,25.1626182 19.7997091,25.1088 18.9938909,25.0208 C17.4840727,24.8542545 15.9160727,25.3698909 14.7938909,26.3866182 C14.8338909,25.7989818 14.8804364,25.2113455 14.9400727,24.6258909 C16.1771636,24.6746182 17.4724364,24.6004364 18.4382545,23.9306182 C19.5618909,23.1517091 20.1015273,22.1131636 20.7197091,21.0164364 C21.1844364,20.1917091 21.3248,20.1269818 20.9866182,19.9138909 C20.7742545,19.7800727 20.0295273,19.5662545 19.7764364,19.5335273 C17.7968,19.2804364 16.4440727,19.9895273 15.3844364,21.1815273 C15.5240727,20.2637091 15.6811636,19.3466182 15.8615273,18.4338909 C17.2280727,18.8309818 18.8135273,18.5582545 19.7480727,17.8673455" id="Fill-4" fill="#0E4E30"></path>
                </g>
                <g id="header-b-left-box-07" transform="translate(40.000000, 160.000000)">
                    <polygon id="Fill-1" fill="#0E4E30" points="0 40 40 40 40 0 0 0"></polygon>
                    <path d="M33.5000727,20.0001455 C33.5000727,27.4561455 27.4557091,33.4997818 20.0004364,33.4997818 C12.5444364,33.4997818 6.50007273,27.4561455 6.50007273,20.0001455 C6.50007273,12.5441455 12.5444364,6.50050909 20.0004364,6.50050909 C27.4557091,6.50050909 33.5000727,12.5441455 33.5000727,20.0001455" id="Fill-2" fill="#BA8C5F"></path>
                    <polygon id="Fill-4" fill="#66493F" points="20.0000727 13.1173091 22.2968 17.5856727 27.0000727 18.1856727 23.5513455 21.3834909 24.4917091 25.8824 20.0000727 23.7165818 15.5084364 25.8824 16.4488 21.3834909 13.0000727 18.1856727 17.7026182 17.5856727"></polygon>
                </g>
                <g id="header-b-left-box-08" transform="translate(80.000000, 160.000000)" fill="#207D46">
                    <path d="M39.9992727,20 L39.9992727,40 L20,40 L20,20 L39.9992727,20 Z M20,0.000727272727 L20,20 L0,20 L0,0.000727272727 L20,0.000727272727 Z" id="Combined-Shape"></path>
                </g>
                <rect id="header-b-left-box-09" fill="#0E4E30" x="120" y="160" width="40" height="40"></rect>
                <rect id="header-b-left-box-10" fill="#BA8C5F" x="0" y="120" width="40" height="40"></rect>
                <rect id="header-b-left-box-10" fill="#0E4E30" x="80" y="120" width="40" height="40"></rect>
                <g id="header-b-left-box-12" transform="translate(120.000000, 120.000000)">
                    <path d="M20,9.99992727 C20,15.5228364 15.5229091,19.9999273 10,19.9999273 C4.47709091,19.9999273 0,15.5228364 0,9.99992727 C0,4.47701818 4.47709091,-7.27272727e-05 10,-7.27272727e-05 C15.5229091,-7.27272727e-05 20,4.47701818 20,9.99992727" id="Fill-1" fill="#207D46"></path>
                    <path d="M40,9.99992727 C40,15.5228364 35.5229091,19.9999273 30,19.9999273 C24.4770909,19.9999273 20,15.5228364 20,9.99992727 C20,4.47701818 24.4770909,-7.27272727e-05 30,-7.27272727e-05 C35.5229091,-7.27272727e-05 40,4.47701818 40,9.99992727" id="Fill-4" fill="#BA8C5F"></path>
                    <path d="M20,29.9999273 C20,35.5228364 15.5229091,39.9999273 10,39.9999273 C4.47709091,39.9999273 0,35.5228364 0,29.9999273 C0,24.4770182 4.47709091,19.9999273 10,19.9999273 C15.5229091,19.9999273 20,24.4770182 20,29.9999273" id="Fill-7" fill="#66493F"></path>
                    <path d="M40,29.9999273 C40,35.5228364 35.5229091,39.9999273 30,39.9999273 C24.4770909,39.9999273 20,35.5228364 20,29.9999273 C20,24.4770182 24.4770909,19.9999273 30,19.9999273 C35.5229091,19.9999273 40,24.4770182 40,29.9999273" id="Fill-9" fill="#0E4E30"></path>
                </g>
                <g id="header-b-left-box-13" transform="translate(160.000000, 120.000000)">
                    <polygon id="Fill-1" fill="#0E4E30" points="0 40 40 40 40 0 0 0"></polygon>
                    <g id="Group-14" transform="translate(5.818182, 5.090909)">
                        <path d="M14.1813091,12.7044364 L0.499127273,12.7044364 C0.499127273,16.0695273 0.785672727,18.3211636 1.39585455,20.5997091 C1.94130909,22.6368 3.30130909,25.6309818 6.20821818,27.5218909 C8.0024,28.6891636 10.4074909,29.3618909 14.1813091,29.3618909 C17.9551273,29.3618909 20.3609455,28.6891636 22.1544,27.5218909 C25.0620364,25.6309818 26.4220364,22.6368 26.9674909,20.5997091 C27.5776727,18.3211636 27.8642182,16.0695273 27.8642182,12.7044364 L14.1813091,12.7044364 Z" id="Fill-2" fill="#66493F"></path>
                        <path d="M27.8645818,12.7044364 C27.8645818,16.7669818 21.7380364,19.3568 14.1816727,19.3568 C6.62458182,19.3568 0.498763636,16.6178909 0.498763636,12.7044364 C0.498763636,8.69134545 6.62458182,6.0528 14.1816727,6.0528 C21.7380364,6.0528 27.8645818,8.69134545 27.8645818,12.7044364" id="Fill-4" fill="#BA8C5F"></path>
                        <path d="M25.3652364,12.5524364 C25.3652364,15.5706182 20.1805091,17.3466182 14.1812364,17.3466182 C8.18196364,17.3466182 2.99723636,15.6702545 2.99723636,12.5524364 C2.99723636,9.53934545 8.18196364,7.60625455 14.1812364,7.60625455 C20.1805091,7.60625455 25.3652364,9.43970909 25.3652364,12.5524364" id="Fill-6" fill="#66493F"></path>
                        <path d="M14.1813091,17.4984727 C18.9580364,17.4984727 23.2082182,16.2737455 24.7464,14.2519273 C23.1274909,11.9072 19.0147636,10.3893818 14.1813091,10.3893818 C9.33476364,10.3893818 5.21185455,11.9166545 3.6024,14.2730182 C5.12967273,16.3304727 9.39149091,17.4984727 14.1813091,17.4984727" id="Fill-8" fill="#207D46"></path>
                        <path d="M21.9888,13.9416727 C22.0666182,13.8456727 22.1531636,13.7278545 22.2418909,13.5969455 C22.7146182,12.9002182 23.2818909,11.8274909 23.3451636,11.6973091 C24.7364364,8.85149091 24.9677091,8.45221818 26.4440727,4.74967273 C26.7589818,3.95985455 27.0928,3.10530909 27.0273455,2.22458182 C26.9197091,0.772218182 25.4913455,0.154763636 24.4106182,0.596218182 C23.2128,1.0864 22.7371636,2.0464 22.1197091,3.18312727 C20.6797091,5.83403636 20.0949818,6.8784 18.8949818,10.0820364 C18.4680727,11.2231273 18.0666182,12.2333091 17.7524364,13.4064 C17.5902545,14.0100364 17.9677091,13.9416727 17.9677091,13.9416727 L21.9888,13.9416727 Z" id="Fill-10" fill="#66493F"></path>
                        <path d="M23.4859636,4.76698182 C23.3528727,4.76698182 23.2183273,4.73207273 23.0946909,4.66007273 C22.7266909,4.44334545 22.6030545,3.96916364 22.8197818,3.60043636 L22.9877818,3.31170909 C23.0910545,3.13425455 23.2241455,2.90298182 23.3339636,2.70589091 C23.8125091,1.84989091 24.7172364,1.49207273 25.6401455,1.7968 C26.0459636,1.93061818 26.2663273,2.36770909 26.1332364,2.77352727 C25.9994182,3.17861818 25.5616,3.39825455 25.1557818,3.26661818 C24.8859636,3.17643636 24.7666909,3.31534545 24.6845091,3.46152727 C24.5703273,3.66443636 24.4336,3.90370909 24.3266909,4.08698182 L24.1536,4.38516364 C24.0096,4.63025455 23.7514182,4.76698182 23.4859636,4.76698182" id="Fill-12" fill="#207D46"></path>
                    </g>
                </g>
                <g id="header-b-left-box-14" transform="translate(40.000000, 80.000000)">
                    <polygon id="Fill-1" fill="#66493F" points="0 40 40 40 40 0 0 0"></polygon>
                    <g id="Group-6" transform="translate(8.727273, 4.363636)">
                        <path d="M11.1963636,30.9541091 C3.61454545,31.3912 -2.53745455,24.4762909 1.74545455,14.7599273 C3.52145455,10.7301091 3.17745455,6.86610909 3.17745455,6.86610909 C5.02109091,7.7912 6.64290909,10.2101091 6.99127273,10.9941091 C6.99127273,10.9941091 11.7498182,8.5752 11.4756364,0.299563636 C11.4756364,0.299563636 20.3243636,7.91992727 18.0421818,17.4224727 C18.0421818,17.4224727 21.0603636,16.1468364 21.7796364,13.4428364 C21.7796364,13.4428364 22.8269091,17.7170182 21.6494545,22.0093818 C20.5127273,26.1512 17.2625455,30.6042909 11.1963636,30.9541091" id="Fill-2" fill="#F3F2EB"></path>
                        <path d="M7.54865455,17.9611636 C7.54865455,17.9611636 8.89556364,18.8891636 8.93047273,20.3589818 C8.93047273,20.3589818 11.0628364,19.8920727 12.5064727,13.4738909 C12.5064727,13.4738909 16.1137455,19.7968 14.4068364,23.7677091 C14.4068364,23.7677091 15.8577455,23.7938909 16.9937455,21.9771636 C16.9937455,21.9771636 16.8992,24.3109818 15.8679273,26.3888 C15.2490182,27.6353455 14.1173818,28.7902545 12.9588364,29.2928 C10.8999273,30.1873455 7.31665455,29.7371636 6.0752,26.8520727 C4.54429091,23.2935273 6.17556364,21.0375273 6.69992727,20.0433455 C7.22356364,19.0491636 7.54865455,17.9611636 7.54865455,17.9611636" id="Fill-4" fill="#BA8C5F"></path>
                    </g>
                </g>
                <rect id="header-b-left-box-15" fill="#BA8C5F" x="80" y="80" width="40" height="40"></rect>
                <g id="header-b-left-box-16" transform="translate(120.000000, 80.000000)">
                    <polygon id="Fill-1" fill="#207D46" points="0 7.27272727e-05 0 39.9993455 39.9992727 7.27272727e-05"></polygon>
                    <polygon id="Fill-2" fill="#0E4E30" points="0 7.27272727e-05 0 39.9993455 40 39.9993455 0.000727272727 7.27272727e-05"></polygon>
                </g>
                <path d="M168,72 L168,80 L160,80 L160,72 L168,72 Z M184.000727,80 L176.000727,80 L176.000727,72 L168,72 L168,63.9992727 L176.000727,63.9992727 L176.000727,72 L184.000727,72 L184,63.9992727 L192,63.9992727 L192,71.999 L200,72 L200,80 L192,80 L191.999,72 L184,72 L184.000727,80 Z M168,56 L168,63.9992727 L160,63.9992727 L160,56 L168,56 Z M184,56 L184,63.9992727 L176.000727,63.9992727 L176.000727,56 L184,56 Z M200,56 L200,63.9992727 L192,63.9992727 L192,56 L200,56 Z M176.000727,48 L176.000727,56 L168,56 L168,48 L176.000727,48 Z M200,40 L200,48 L192,48 L192,40 L200,40 Z M184,40 L184,48 L176.000727,48 L176.000727,40 L184,40 Z M168,40 L168,48 L160,48 L160,40 L168,40 Z" id="header-b-left-box-17" fill="#207D46"></path>
                <polygon id="header-b-left-box-18" fill="#207D46" transform="translate(20.000000, 60.000000) rotate(-180.000000) translate(-20.000000, -60.000000) " points="0 40 40 80 40 40"></polygon>
                <polygon id="header-b-left-box-18-copy" fill="#0E4E30" transform="translate(380.000000, 180.000000) rotate(-270.000000) translate(-380.000000, -180.000000) " points="360 160 400 200 400 160"></polygon>
                <rect id="header-b-left-box-19" fill="#0E4E30" x="80" y="40" width="40" height="40"></rect>
                <rect id="header-b-left-box-19-copy" fill="#207D46" x="80" y="-1.0658141e-14" width="40" height="40"></rect>
                <rect id="header-b-left-box-19-copy-2" fill="#0E4E30" x="40" y="-1.0658141e-14" width="40" height="40"></rect>
                <rect id="header-b-right-box-01" fill="#0E4E30" x="440" y="200" width="40" height="40"></rect>
                <g id="header-b-right-box-02" transform="translate(400.000000, 200.000000)">
                    <polygon id="Fill-1" fill="#207D46" points="0.000654545455 7.27272727e-05 39.9999273 39.9993455 39.9999273 7.27272727e-05"></polygon>
                    <polygon id="Fill-2" fill="#0E4E30" points="0.000654545455 7.27272727e-05 0.000654545455 40.0000727 39.9999273 0.0008 39.9999273 7.27272727e-05"></polygon>
                </g>
                <rect id="header-b-right-box-04" fill="#207D46" x="320" y="160" width="40" height="40"></rect>
                <rect id="header-b-right-box-04-copy" fill="#0E4E30" x="320" y="120" width="40" height="40"></rect>
                <rect id="header-b-right-box-04-copy-2" fill="#207D46" x="280" y="120" width="40" height="40"></rect>
                <rect id="header-b-right-box-04-copy-3" fill="#207D46" x="200" y="120" width="40" height="40"></rect>
                <rect id="header-b-right-box-04-copy-7" fill="#207D46" x="240" y="80" width="40" height="40"></rect>
                <rect id="header-b-right-box-04-copy-9" fill="#66493F" x="280" y="80" width="40" height="40"></rect>
                <rect id="header-b-right-box-04-copy-10" fill="#BA8C5F" x="320" y="40" width="40" height="40"></rect>
                <rect id="header-b-right-box-04-copy-8" fill="#0E4E30" x="200" y="80" width="40" height="40"></rect>
                <rect id="header-b-right-box-04-copy-5" fill="#66493F" x="240" y="160" width="40" height="40"></rect>
                <rect id="header-b-right-box-04-copy-11" fill="#207D46" x="360" y="200" width="40" height="40"></rect>
                <rect id="header-b-right-box-04-copy-4" fill="#BA8C5F" x="160" y="160" width="40" height="40"></rect>
                <g id="header-b-right-box-05" transform="translate(440.000000, 120.000000)">
                    <polygon id="Fill-1" fill="#BA8C5F" points="0 39.9992727 40 39.9992727 40 0 0 0"></polygon>
                    <polygon id="Fill-2" fill="#207D46" points="39.9999273 7.27272727e-05 0.000654545455 40.0000727 39.9999273 40.0000727"></polygon>
                </g>
                <g id="header-b-right-box-06" transform="translate(400.000000, 120.000000)">
                    <path d="M34.1421818,5.85781818 C26.332,-1.95236364 13.6687273,-1.95236364 5.85781818,5.85781818 C-1.95236364,13.668 -1.95236364,26.3312727 5.85781818,34.1421818 C13.6687273,41.9523636 26.332,41.9523636 34.1421818,34.1421818 C41.9523636,26.3312727 41.9523636,13.668 34.1421818,5.85781818" id="Fill-1" fill="#66493F"></path>
                    <polygon id="Fill-3" fill="#BA8C5F" points="25.8289455 19.9984 31.6558545 14.1714909 25.8274909 8.34385455 20.0005818 14.1707636 14.1729455 8.34312727 8.3424 14.1722182 14.1707636 20.0005818 8.34385455 25.8282182 14.1722182 31.6558545 19.9984 25.8289455 25.8267636 31.6565818 31.6565818 25.8267636"></polygon>
                </g>
                <g id="header-b-right-box-07" transform="translate(360.000000, 120.000000)">
                    <polygon id="Fill-1" fill="#207D46" points="0 40 40 40 40 0 0 0"></polygon>
                    <g id="Group-24" transform="translate(5.090909, 6.545455)">
                        <path d="M11.8391273,26.7278545 C13.8631273,25.4696727 15.3664,24.3940364 16.8864,22.9642182 C18.4071273,21.5344 18.6791273,21.0725818 21.2558545,19.1838545 C23.5205818,17.5249455 24.5053091,16.9882182 26.7053091,15.3504 C27.8674909,14.4856727 28.4784,12.6754909 28.8907636,11.1860364 C29.3344,9.58530909 29.3096727,8.05658182 29.1925818,6.94603636 C29.1925818,6.94603636 27.5234909,6.14749091 27.5024,5.96785455 C27.4638545,5.64130909 28.2914909,3.56203636 28.2914909,3.56203636 C27.8274909,2.61003636 26.7962182,2.33658182 25.9613091,1.77076364 C24.6878545,0.907490909 22.4907636,0.999854545 21.1533091,1.73149091 C19.4885818,2.64203636 17.0216727,3.65367273 15.6616727,4.57658182 C14.3016727,5.50021818 13.8034909,5.27185455 12.1234909,5.80785455 C10.4427636,6.34458182 5.96203636,8.22094545 4.00494545,9.57512727 L11.8391273,26.7278545 Z" id="Fill-2" fill="#66493F"></path>
                        <path d="M24.9058909,11.3962182 C23.2717091,12.2245818 22.6826182,13.2544 21.1633455,14.2769455 C20.5735273,14.6747636 18.8971636,16.2042182 17.9378909,17.2754909 C19.0971636,17.1991273 20.5437091,15.6609455 21.3837091,15.6231273 C20.3378909,17.0682182 19.8535273,17.1605818 18.9240727,17.9314909 C17.6455273,18.9947636 16.2884364,19.9664 14.8709818,20.8362182 L10.5989818,22.2674909 L10.8418909,24.5445818 L11.8382545,26.7278545 C13.8629818,25.4696727 15.3662545,24.3940364 16.8869818,22.9642182 C18.4069818,21.5344 18.6789818,21.0725818 21.2557091,19.1838545 C23.5204364,17.5249455 24.5051636,16.9882182 26.7058909,15.3504 C27.8673455,14.4856727 28.4782545,12.6754909 28.8906182,11.1860364 C29.0869818,10.4776727 29.1902545,9.78530909 29.2353455,9.13658182 L24.9058909,11.3962182 Z" id="Fill-4" fill="#0E4E30"></path>
                        <path d="M10.2020364,9.9232 C11.2827636,10.6155636 12.5438545,11.6446545 13.1133091,12.7362909 C13.2609455,13.0192 13.6296727,13.5646545 13.7242182,13.8301091 C14.0638545,14.7879273 13.9147636,15.8250182 13.9053091,16.2526545 C13.8442182,18.8766545 15.2551273,19.0104727 15.2544003,21.2112 C15.2529455,23.1261091 14.6834909,24.2221091 13.4973091,25.6046545 C12.8238545,26.3908364 11.5693091,26.8642909 10.6311273,27.1559273 C9.7824,27.4213818 7.77512727,27.2861091 6.92349091,27.0337455 C5.76567273,26.6904727 5.14749091,26.4039273 4.15258182,25.6599273 C3.54821818,25.2082909 1.53585455,23.2999273 0.834036364,19.4242909 C0.364945455,16.8272 0.426036364,14.5384727 1.44858182,12.4061091 C3.8224,7.4592 8.77294545,9.00756364 10.2020364,9.9232" id="Fill-6" fill="#BA8C5F"></path>
                        <path d="M9.55432727,12.3109818 C10.3172364,12.8004364 11.2066909,13.5269818 11.6088727,14.2964364 C11.7136,14.4964364 11.9739636,14.8811636 12.0401455,15.0695273 C12.2801455,15.7458909 12.1754182,16.4775273 12.1681455,16.7800727 C12.1245091,18.6309818 13.1208727,18.7255273 13.1201459,20.2797091 C13.1194182,21.6309818 12.7179636,22.4048 11.8801455,23.3815273 C11.4052364,23.9349818 10.5186909,24.2695273 9.85687273,24.4768 C9.2576,24.6622545 7.8416,24.5684364 7.23941818,24.3895273 C6.42269091,24.1466182 5.98632727,23.9451636 5.28378182,23.4193455 C4.8576,23.1008 3.43650909,21.7531636 2.94123636,19.0186182 C2.6096,17.1851636 2.65323636,15.5691636 3.37541818,14.0637091 C5.05032727,10.5713455 8.5456,11.6651636 9.55432727,12.3109818" id="Fill-8" fill="#66493F"></path>
                        <path d="M8.89098182,14.3770182 C9.37316364,14.6912 9.93534545,15.1581091 10.1891636,15.6541091 C10.2553455,15.7828364 10.4197091,16.0301091 10.4618909,16.1508364 C10.6131636,16.5857455 10.5462545,17.0570182 10.5426182,17.2512 C10.5149818,18.4424727 11.1448,18.5035636 11.1440734,19.5028364 C11.1440734,20.3719273 10.8895273,20.8701091 10.3608,21.4977455 C10.0597091,21.8548364 9.50043636,22.0693818 9.08225455,22.2024727 C8.70334545,22.3224727 7.8088,22.2613818 7.42916364,22.1472 C6.9128,21.9908364 6.63716364,21.8606545 6.19352727,21.5224727 C5.92370909,21.3173818 5.02698182,20.4512 4.71425455,18.6919273 C4.5048,17.5122909 4.53170909,16.4730182 4.98770909,15.5042909 C6.04589091,13.2577455 8.25389091,13.9610182 8.89098182,14.3770182" id="Fill-10" fill="#BA8C5F"></path>
                        <path d="M8.0536,17.0460364 C8.20196364,17.1420364 8.38014545,17.2831273 8.45578182,17.4394909 C8.69796364,17.9434909 8.76487273,18.4402182 8.76996364,18.7544 C8.77432727,19.0278545 8.70087273,19.1842182 8.54378182,19.3849455 C8.45432727,19.4984 8.28705455,19.5747636 8.15978182,19.6133091 C7.89578182,19.6925818 7.46232727,19.6416727 7.22305455,19.3609455 C7.07541818,19.1871273 6.91469091,18.9740364 6.80923636,18.4234909 C6.73869091,18.0547636 6.74087273,17.7274909 6.87469091,17.4220364 C7.18305455,16.7100364 7.85723636,16.9187636 8.0536,17.0460364" id="Fill-12" fill="#66493F"></path>
                        <path d="M13.7439273,2.37556364 C13.6777455,3.64610909 14.1642909,4.24829091 12.9817455,5.52101818 C12.9817455,5.52101818 12.9817455,7.18938182 15.2239273,6.6832 C16.5824727,6.37629091 16.6362909,7.57483636 18.4333818,6.76247273 C19.8442909,6.12538182 20.3650182,5.00174545 20.1119273,4.49483636 C19.8588364,3.98865455 19.2362909,3.47956364 18.9606545,1.78792727 L13.7439273,2.37556364 Z" id="Fill-14" fill="#0E4E30"></path>
                        <path d="M18.3391273,0.870618182 C17.8089455,0.5448 17.0940364,0.552072727 16.4896727,0.745527273 L15.3245818,0.939709091 C14.5398545,1.06989091 13.7325818,1.63207273 13.7442182,2.34843636 C13.7514909,2.82552727 14.1551273,3.23498182 14.6220364,3.46334545 C15.5136727,3.90043636 16.6256727,3.81461818 17.5769455,3.49316364 C17.9929455,3.3528 18.4053091,3.1608 18.6794909,2.84734545 C19.1914909,2.25898182 19.0256727,1.29316364 18.3391273,0.870618182" id="Fill-16" fill="#BA8C5F"></path>
                        <path d="M17.3504727,1.34152727 C17.0857455,1.17861818 16.7279273,1.18152727 16.4261091,1.27898182 L15.8435636,1.37570909 C15.4508364,1.44116364 15.0464727,1.72189091 15.0530182,2.08043636 C15.0566545,2.31898182 15.2581091,2.52334545 15.4908364,2.63752727 C15.9381091,2.85643636 16.4930182,2.8128 16.9693818,2.6528 C17.1773818,2.58298182 17.3832,2.48698182 17.5199273,2.32989091 C17.7766545,2.03534545 17.6937455,1.55243636 17.3504727,1.34152727" id="Fill-18" fill="#66493F"></path>
                        <path d="M15.3284364,10.8819636 C15.6775273,10.0448727 16.7880727,9.60487273 16.7880727,9.60487273 C16.7880727,9.60487273 15.9938909,9.26669091 14.4935273,9.60487273 C12.9924364,9.94305455 11.1735273,10.6099636 11.1735273,10.6099636 C11.1495273,11.2783273 11.1109818,12.0565091 11.2069818,12.6986909 C11.3015273,13.3357818 10.7720727,12.7292364 10.8935273,13.8070545 C10.9495273,14.2943273 10.9989818,16.6463273 11.4855273,16.6463273 L13.0666182,12.7321455 C13.2629818,12.6768727 14.9800727,11.7183273 15.3284364,10.8819636" id="Fill-20" fill="#0E4E30"></path>
                        <path d="M29.1792727,6.94734545 L27.8738182,5.96770909 C27.8738182,5.96770909 28.1203636,4.25934545 28.2912727,3.56261818 L27.9181818,3.96407273 C25.2345455,5.62152727 22.5392727,7.66516364 20.3996364,9.45425455 C24.0236364,9.1248 26.4905455,7.37789091 29.1792727,6.94734545" id="Fill-22" fill="#0E4E30"></path>
                    </g>
                </g>
                <polygon id="header-b-right-box-09" fill="#207D46" transform="translate(340.000000, 100.000000) rotate(-180.000000) translate(-340.000000, -100.000000) " points="320 80 320 120 360 120 360 119.999273"></polygon>
                <path d="M440,120 C462.091636,120 480,102.091636 480,80 L440,80 L440,120 Z" id="header-b-right-box-10" fill="#207D46"></path>
                <rect id="header-b-right-box-11" fill="#0E4E30" x="440" y="40" width="40" height="40"></rect>
                <g id="header-box-01" transform="translate(200.054348, 159.956522)">
                    <polygon id="Fill-1" fill="#0E4E30" points="0 40 40 40 40 0 0 0"></polygon>
                    <g id="Group-8" transform="translate(8.000000, 6.545455)">
                        <path d="M17.8179636,18.0621091 C11.9554182,18.0621091 7.20341818,13.3093818 7.20341818,7.44756364 C7.20341818,5.02938182 8.01723636,2.80392727 9.37941818,1.01992727 C9.50523636,0.855563636 9.33650909,0.648290909 9.12341818,0.710836364 C3.88996364,2.25556364 0.0696,7.09410909 0.0696,12.8279273 C0.0696,19.8068364 5.72705455,25.4642909 12.7059636,25.4642909 C18.6266909,25.4642909 23.5932364,21.3901091 24.9634182,15.8926545 C25.0259636,15.6417455 24.8121455,15.4228364 24.6477818,15.5617455 C22.8019636,17.1188364 20.4223273,18.0621091 17.8179636,18.0621091" id="Fill-2" fill="#BA8C5F"></path>
                        <path d="M11.6872727,20.6512727 C7.81163636,20.012 2.93309091,18.3036364 0.072,12.9501818 C0.138181818,19.8723636 5.76727273,25.4643636 12.7054545,25.4643636 C18.0218182,25.4643636 22.5592727,22.1763636 24.4247273,17.5269091 C19.5010909,21.3465455 12.9098182,20.8527273 11.6872727,20.6512727" id="Fill-4" fill="#66493F"></path>
                        <path d="M12.7057455,25.4645091 C18.6272,25.4645091 23.5937455,21.3903273 24.9632,15.8928727 C25.0257455,15.6419636 24.8119273,15.4230545 24.6475636,15.5619636 C22.8977455,17.0383273 20.6650182,17.9517818 18.2192,18.0441455 C15.3872,21.9117818 8.86501818,23.4063273 5.79883636,23.4077818 C7.78429091,24.7066909 10.1559273,25.4645091 12.7057455,25.4645091" id="Fill-6" fill="#207D46"></path>
                    </g>
                </g>
                <g id="header-right-box-12" transform="translate(40.000000, 120.000000)" fill="#207D46">
                    <path d="M13.2850909,26.7149091 L13.2850909,40 L-1.2507167e-13,40 L-1.2507167e-13,26.7149091 L13.2850909,26.7149091 Z M40,26.7149091 L40,40 L26.7149091,40 L26.7149091,26.7149091 L40,26.7149091 Z M26.5709091,13.2850909 L26.5709091,26.5701818 L13.2850909,26.5701818 L13.2850909,13.2850909 L26.5709091,13.2850909 Z M13.2850909,0 L13.2850909,13.2850909 L-1.2507167e-13,13.2850909 L-1.2507167e-13,0 L13.2850909,0 Z M39.8567273,0 L39.8567273,13.2850909 L26.5709091,13.2850909 L26.5709091,0 L39.8567273,0 Z" id="Combined-Shape"></path>
                </g>
                <g id="header-left-box-13" transform="translate(420.000000, 100.000000) rotate(-180.000000) translate(-420.000000, -100.000000) translate(400.000000, 80.000000)">
                    <polygon id="Fill-1" fill="#BA8C5F" points="0 40 40 40 40 0 0 0"></polygon>
                    <polygon id="Fill-2" fill="#207D46" points="0 0 40 40 40 0"></polygon>
                    <polygon id="Fill-3" fill="#0E4E30" points="0 0 0 40 40 0"></polygon>
                </g>
                <g id="header-right-box-01" transform="translate(360.000000, 40.000000)">
                    <polygon id="Fill-1" fill="#207D46" points="0 40 40 40 40 0.000727272727 0 0.000727272727"></polygon>
                    <path d="M20.0004364,19.9999273 L34.1429818,5.85810909 C30.5240727,2.23847273 25.5240727,-7.27272727e-05 20.0004364,-7.27272727e-05 C8.95461818,-7.27272727e-05 0.000436363636,8.95410909 0.000436363636,19.9999273 C0.000436363636,31.0457455 8.95461818,39.9999273 20.0004364,39.9999273 C25.5240727,39.9999273 30.5240727,37.7613818 34.1429818,34.1417455 L20.0004364,19.9999273 Z" id="Fill-2" fill="#0E4E30"></path>
                </g>
                <g id="header-right-box-02" transform="translate(400.000000, 160.000000)" fill="#207D46">
                    <path d="M32,24.0247273 L32,32.0116364 L40,32.0116364 L40,40 L32,40 L32,32.0123636 L24,32.0123636 L24.0007273,40 L16,40 L16,32.0116364 L24.0007273,32.0116364 L24,24.0247273 L32,24.0247273 Z M8,32.0116364 L8,40 L0,40 L0,32.0116364 L8,32.0116364 Z M40,16.0363636 L40,24.024 L32,24.024 L32,16.0363636 L40,16.0363636 Z M16,16.0363636 L16,24.024 L8,24.024 L8,16.0363636 L16,16.0363636 Z M32,8.04872727 L32,16.0363636 L24,16.0363636 L24,8.04872727 L32,8.04872727 Z M40,5.24832703e-15 L40,7.98836364 L32,7.98836364 L32,5.24832703e-15 L40,5.24832703e-15 Z M24.0007273,5.24832703e-15 L24.0007273,7.98836364 L16,7.98836364 L16,5.24832703e-15 L24.0007273,5.24832703e-15 Z M8,5.24832703e-15 L8,7.98836364 L0,7.98836364 L0,5.24832703e-15 L8,5.24832703e-15 Z" id="Combined-Shape"></path>
                </g>
                <g id="header-left-box-08" transform="translate(240.000000, 200.000000)">
                    <polygon id="Fill-1" points="0 40 40 40 40 0 0 0"></polygon>
                    <polygon id="Fill-2" fill="#BA8C5F" points="20.0003276 29.8181818 10.1818182 20.0003276 20.0003276 10.1818182 29.8181818 20.0003276"></polygon>
                </g>
                <g id="header-left-box-27" transform="translate(300.000000, 220.000000) scale(-1, 1) translate(-300.000000, -220.000000) translate(280.000000, 200.000000)">
                    <polygon id="Fill-1" fill="#207D46" points="0.000654545455 7.27272727e-05 39.9999273 40.0000727 39.9999273 7.27272727e-05"></polygon>
                    <polygon id="Fill-2" fill="#0E4E30" points="0 30.0785455 40 30.0785455 40 0 0 0"></polygon>
                    <g id="Group-9" transform="translate(8.000000, 12.363636)" fill="#BA8C5F">
                        <path d="M18.8701818,2.67585455 C18.8701818,3.91803636 19.8774545,4.92603636 21.1203636,4.92603636 C22.3625455,4.92603636 23.3698182,3.91803636 23.3698182,2.67585455 C23.3698182,1.43294545 22.3625455,0.425672727 21.1203636,0.425672727 C19.8774545,0.425672727 18.8701818,1.43294545 18.8701818,2.67585455" id="Fill-3"></path>
                        <path d="M9.75018182,2.67585455 C9.75018182,3.91803636 10.7574545,4.92603636 12.0003636,4.92603636 C13.2425455,4.92603636 14.2498182,3.91803636 14.2498182,2.67585455 C14.2498182,1.43294545 13.2425455,0.425672727 12.0003636,0.425672727 C10.7574545,0.425672727 9.75018182,1.43294545 9.75018182,2.67585455" id="Fill-5"></path>
                        <path d="M0.629818182,2.67585455 C0.629818182,3.91803636 1.63709091,4.92603636 2.88,4.92603636 C4.12290909,4.92603636 5.12945455,3.91803636 5.12945455,2.67585455 C5.12945455,1.43294545 4.12290909,0.425672727 2.88,0.425672727 C1.63709091,0.425672727 0.629818182,1.43294545 0.629818182,2.67585455" id="Fill-7"></path>
                    </g>
                </g>
                <g id="header-left-box-09" transform="translate(300.000000, 180.000000) rotate(-360.000000) translate(-300.000000, -180.000000) translate(280.000000, 160.000000)">
                    <polygon id="Fill-1" fill="#0E4E30" points="0 40 40 40 40 0 0 0"></polygon>
                    <polygon id="Fill-2" fill="#207D46" points="0 40 40 40 0 0"></polygon>
                </g>
                <polygon id="header-b-left-box-18" fill="#0E4E30" transform="translate(420.000000, 20.000000) scale(-1, 1) rotate(-180.000000) translate(-420.000000, -20.000000) " points="400 -3.55271368e-15 440 40 440 -3.55271368e-15"></polygon>
            </g>
        </g>
    </g>
</svg>