<?xml version="1.0" encoding="UTF-8"?>
<svg width="768px" height="210px" viewBox="0 0 768 210" version="1.1" xmlns="http://www.w3.org/2000/svg" xmlns:xlink="http://www.w3.org/1999/xlink">
    <title>header-t-bottom</title>
    <g id="Page-1" stroke="none" stroke-width="1" fill="none" fill-rule="evenodd">
        <g id="header-768x850" transform="translate(0.000000, -640.000000)">
            <g id="header-t-bottom" transform="translate(0.000000, 640.000000)">
                <g id="Group-4">
                    <rect id="header-b-left-box-01" fill="#0E4E30" x="0" y="175" width="35" height="35"></rect>
                    <g id="header-b-left-box-02" transform="translate(70.000000, 175.000000)">
                        <polygon id="Fill-1" fill="#207D46" points="0 34.9993636 34.9980909 34.9993636 34.9980909 0 0 0"></polygon>
                        <polygon id="Fill-2" fill="#66493F" points="17.5 17.5006364 34.9993636 17.5006364 34.9993636 0.000636363636 17.5 0.000636363636"></polygon>
                        <polygon id="Fill-3" fill="#0E4E30" points="17.5006364 35 35 35 35 17.5 17.5006364 17.5"></polygon>
                        <polygon id="Fill-4" fill="#BA8C5F" points="9.625 25.375 25.375 25.375 25.375 9.625 9.625 9.625"></polygon>
                    </g>
                    <rect id="header-b-left-box-03" fill="#207D46" x="105" y="175" width="35" height="35"></rect>
                    <polygon id="header-b-left-box-04" fill="#66493F" points="151.667091 175 151.667091 186.664545 140 186.664545 140 198.335455 151.667091 198.335455 151.667091 210 163.333545 210 163.333545 198.335455 175 198.335455 175 186.664545 163.333545 186.664545 163.333545 175"></polygon>
                    <path d="M175,175 C175,194.330182 190.669818,210 210,210 L210,175 L175,175 Z" id="header-b-left-box-05" fill="#0E4E30"></path>
                    <g id="header-b-left-box-06" transform="translate(0.000000, 140.000000)">
                        <polygon id="Fill-1" fill="#207D46" points="0 35 35 35 35 0 0 0"></polygon>
                        <path d="M27.5014727,14.8788818 C26.1517455,13.9109727 24.4246545,14.0210636 23.1194727,14.6116091 C23.3829273,14.2024273 23.6591091,13.8027909 23.9391091,13.4044273 C24.8395636,13.1664273 25.8443818,12.5485182 26.5825636,11.6245182 C27.3360182,10.6820636 27.5339273,9.11024545 27.3767455,8.17224545 C27.3188364,7.82479091 27.3296545,7.47033636 27.1858364,7.42515455 C27.0184727,7.3717 26.7002909,7.51615455 26.3623818,7.57088182 C25.4924727,7.71215455 24.3852,8.11306364 23.6922,9.01160909 C23.0176545,9.88724545 22.5639273,11.4138818 22.8668364,12.7597909 C22.5645636,13.1893364 22.2673818,13.6201545 21.9842,14.0630636 C21.7118364,12.4906091 20.5956545,11.3807909 19.5545636,10.9601545 C19.4120182,10.9022455 18.0508364,10.2932455 18.0279273,10.6120636 C17.9426545,11.7957 17.9426545,11.7957 17.8974727,12.3862455 C17.8300182,13.2587 17.9121091,14.2342455 18.3403818,14.9978818 C18.6668364,15.5807909 19.5170182,16.2139727 20.5810182,16.4271545 C20.1966545,17.1214273 19.8282,17.8227 19.4756545,18.5316091 C19.3401091,18.0575182 19.0747455,17.5987 18.5713818,16.9890636 C17.5112,15.7074273 16.2652,15.5368818 16.0386545,15.4847 C15.8121091,15.4318818 15.4818364,15.3383364 15.4722909,15.7583364 C15.4328364,17.4377 15.1751091,19.0050636 16.4484727,20.2447 C16.8156545,20.6010636 17.3947455,20.9141545 18.2837455,21.0344273 C17.9973818,21.6733364 17.7224727,22.3186091 17.4628364,22.9708818 C17.2477455,22.5286091 16.9849273,22.1429727 16.8232909,21.9571545 C16.0889273,21.1139727 14.9892909,20.8015182 13.9902,20.7003364 C13.7127455,20.6723364 13.1692909,20.7321545 13.1597455,21.0121545 C13.1241091,22.1067 13.3500182,23.5633364 14.3268364,24.5605182 C14.8009273,25.0447909 15.6033818,25.5137909 16.5331091,25.5831545 C16.2683818,26.4339727 16.0367455,27.2930636 15.8579273,28.1629727 C15.6962909,28.9501545 16.9041091,29.2874273 17.0663818,28.4964273 C17.2006545,27.8435182 17.3654727,27.1969727 17.5500182,26.5555182 C20.0133818,27.3077 22.1184727,26.0578818 23.1296545,24.1837909 C23.3027455,23.8630636 23.1124727,23.7529727 22.4640182,23.4653364 C21.2498364,22.9263364 19.8072,22.9390636 18.6019273,23.4876091 C18.7909273,23.0084273 18.9862909,22.5317909 19.1912,22.0596091 C20.2093818,22.4293364 21.3083818,22.7112455 22.2909273,22.4089727 C23.4344727,22.0577 24.1599273,21.3354273 24.9668364,20.5857909 C25.5732909,20.0219727 25.7075636,20.0060636 25.4822909,19.7381545 C25.3410182,19.5701545 24.7772,19.1934273 24.5742,19.0992455 C22.9985636,18.3655182 21.6870182,18.5927 20.4912909,19.2965182 C20.8489273,18.5742455 21.2237455,17.8589727 21.6138364,17.1494273 C22.6466545,17.8373364 24.0345636,18.0288818 24.9942,17.7024273 C26.2548364,17.2735182 27.0267455,16.6015182 27.9081091,15.5489727 C28.1168364,15.2995182 27.9539273,15.2034273 27.5014727,14.8788818" id="Fill-2" fill="#66493F"></path>
                        <path d="M17.2795636,15.6339273 C18.3505636,14.8422909 18.8819273,13.9672909 19.4018364,12.6971091 C19.5252909,12.3961091 19.3407455,12.3541091 18.8112909,12.1822909 C17.2267455,11.6693818 15.6097455,12.3032 14.5457455,13.2660182 C14.6723818,12.7976545 14.8060182,12.3318364 14.9517455,11.8692 C15.7433818,11.3709273 16.5216545,10.4730182 16.9473818,9.36065455 C17.3788364,8.23365455 17.0899273,6.67583636 16.6552909,5.83010909 C16.4949273,5.51701818 16.3975636,5.17592727 16.2467455,5.17592727 C16.0704727,5.17592727 15.8114727,5.41010909 15.5066545,5.56538182 C14.7207455,5.96438182 13.7872,6.68283636 13.3996545,7.74874545 C13.0248364,8.78156364 13.0534727,10.3616545 13.7388364,11.5497455 C13.5810182,12.0531091 13.4365636,12.5602909 13.3010182,13.0706545 C12.5628364,11.6623818 11.1666545,10.9464727 10.0492,10.8618364 C9.89583636,10.8497455 8.41438182,10.6830182 8.48947273,10.9935636 C8.76756364,12.1472909 8.76756364,12.1472909 8.90374545,12.7244727 C9.1042,13.5765636 9.47901818,14.4808364 10.1185636,15.0777455 C10.6060182,15.5327455 11.6032,15.8770182 12.6780182,15.7599273 C12.5240182,16.5350182 12.3884727,17.3132909 12.2682,18.0922 C11.9958364,17.6849273 11.6044727,17.3298364 10.9432909,16.9047455 C9.54456364,16.0055636 8.30556364,16.2212909 8.07392727,16.2403818 C7.84229091,16.2588364 7.49865455,16.2702909 7.61701818,16.6731091 C8.08983636,18.2856545 8.3202,19.8574727 9.90983636,20.6510182 C10.3686545,20.8794727 11.0158364,21.0022909 11.9010182,20.8457455 C11.8214727,21.5425636 11.7552909,22.2412909 11.7056545,22.9419273 C11.3664727,22.5862 10.9980182,22.2972909 10.7873818,22.1693818 C9.83092727,21.5883818 8.68865455,21.6246545 7.70674545,21.8321091 C7.43374545,21.8900182 6.93356364,22.1121091 7.00992727,22.3812909 C7.30838182,23.4351091 7.96574545,24.7542909 9.19965455,25.4078364 C9.79847273,25.7247455 10.7059273,25.9277455 11.6133818,25.7120182 C11.6191091,26.5940182 11.6592,27.4747455 11.7514727,28.3497455 C11.8361091,29.1439273 13.0903818,29.1528364 13.0051091,28.3497455 C12.9338364,27.6802909 12.8943818,27.0051091 12.8752909,26.3292909 C15.4512909,26.2987455 17.0778364,24.4685636 17.4723818,22.3755636 C17.5398364,22.0172909 17.3247455,21.9702 16.6196545,21.8932 C15.2985636,21.7474727 13.9265636,22.1986545 12.9446545,23.0882909 C12.9796545,22.5741091 13.0203818,22.0599273 13.0725636,21.5476545 C14.1550182,21.5902909 15.2883818,21.5253818 16.1334727,20.9392909 C17.1166545,20.2577455 17.5888364,19.3490182 18.1297455,18.3893818 C18.5363818,17.6677455 18.6592,17.6111091 18.3632909,17.4246545 C18.1774727,17.3075636 17.5258364,17.1204727 17.3043818,17.0918364 C15.5722,16.8703818 14.3885636,17.4908364 13.4613818,18.5338364 C13.5835636,17.7307455 13.7210182,16.9282909 13.8788364,16.1296545 C15.0745636,16.4771091 16.4618364,16.2384727 17.2795636,15.6339273" id="Fill-4" fill="#0E4E30"></path>
                    </g>
                    <g id="header-b-left-box-07" transform="translate(35.000000, 140.000000)">
                        <polygon id="Fill-1" fill="#0E4E30" points="0 35 35 35 35 0 0 0"></polygon>
                        <path d="M29.3125636,17.5001273 C29.3125636,24.0241273 24.0237455,29.3123091 17.5003818,29.3123091 C10.9763818,29.3123091 5.68756364,24.0241273 5.68756364,17.5001273 C5.68756364,10.9761273 10.9763818,5.68794545 17.5003818,5.68794545 C24.0237455,5.68794545 29.3125636,10.9761273 29.3125636,17.5001273" id="Fill-2" fill="#BA8C5F"></path>
                        <polygon id="Fill-4" fill="#66493F" points="17.5000636 11.4776455 19.5097 15.3874636 23.6250636 15.9124636 20.6074273 18.7105545 21.4302455 22.6471 17.5000636 20.7520091 13.5698818 22.6471 14.3927 18.7105545 11.3750636 15.9124636 15.4897909 15.3874636"></polygon>
                    </g>
                    <g id="header-b-left-box-08" transform="translate(70.000000, 140.000000)" fill="#207D46">
                        <path d="M34.9993636,17.5 L34.9993636,35 L17.5,35 L17.5,17.5 L34.9993636,17.5 Z M17.5,0.000636363636 L17.5,17.5 L0,17.5 L0,0.000636363636 L17.5,0.000636363636 Z" id="Combined-Shape"></path>
                    </g>
                    <rect id="header-b-left-box-09" fill="#0E4E30" x="105" y="140" width="35" height="35"></rect>
                    <rect id="header-b-left-box-10" fill="#BA8C5F" x="0" y="105" width="35" height="35"></rect>
                    <polygon id="header-b-left-box-11" fill="#207D46" transform="translate(52.500000, 122.500000) rotate(-270.000000) translate(-52.500000, -122.500000) " points="35 105 35 140 70 140"></polygon>
                    <rect id="header-b-left-box-10" fill="#0E4E30" x="70" y="105" width="35" height="35"></rect>
                    <g id="header-b-left-box-12" transform="translate(105.000000, 105.000000)">
                        <path d="M17.5,8.74993636 C17.5,13.5824818 13.5825455,17.4999364 8.75,17.4999364 C3.91745455,17.4999364 0,13.5824818 0,8.74993636 C0,3.91739091 3.91745455,-6.36363636e-05 8.75,-6.36363636e-05 C13.5825455,-6.36363636e-05 17.5,3.91739091 17.5,8.74993636" id="Fill-1" fill="#207D46"></path>
                        <path d="M35,8.74993636 C35,13.5824818 31.0825455,17.4999364 26.25,17.4999364 C21.4174545,17.4999364 17.5,13.5824818 17.5,8.74993636 C17.5,3.91739091 21.4174545,-6.36363636e-05 26.25,-6.36363636e-05 C31.0825455,-6.36363636e-05 35,3.91739091 35,8.74993636" id="Fill-4" fill="#BA8C5F"></path>
                        <path d="M17.5,26.2499364 C17.5,31.0824818 13.5825455,34.9999364 8.75,34.9999364 C3.91745455,34.9999364 0,31.0824818 0,26.2499364 C0,21.4173909 3.91745455,17.4999364 8.75,17.4999364 C13.5825455,17.4999364 17.5,21.4173909 17.5,26.2499364" id="Fill-7" fill="#66493F"></path>
                        <path d="M35,26.2499364 C35,31.0824818 31.0825455,34.9999364 26.25,34.9999364 C21.4174545,34.9999364 17.5,31.0824818 17.5,26.2499364 C17.5,21.4173909 21.4174545,17.4999364 26.25,17.4999364 C31.0825455,17.4999364 35,21.4173909 35,26.2499364" id="Fill-9" fill="#0E4E30"></path>
                    </g>
                    <g id="header-b-left-box-13" transform="translate(140.000000, 105.000000)">
                        <polygon id="Fill-1" fill="#0E4E30" points="0 35 35 35 35 0 0 0"></polygon>
                        <g id="Group-14" transform="translate(5.090909, 4.454545)">
                            <path d="M12.4086455,11.1163818 L0.436736364,11.1163818 C0.436736364,14.0608364 0.687463636,16.0310182 1.22137273,18.0247455 C1.69864545,19.8072 2.88864545,22.4271091 5.43219091,24.0816545 C7.0021,25.1030182 9.10655455,25.6916545 12.4086455,25.6916545 C15.7107364,25.6916545 17.8158273,25.1030182 19.3851,24.0816545 C21.9292818,22.4271091 23.1192818,19.8072 23.5965545,18.0247455 C24.1304636,16.0310182 24.3811909,14.0608364 24.3811909,11.1163818 L12.4086455,11.1163818 Z" id="Fill-2" fill="#66493F"></path>
                            <path d="M24.3815091,11.1163818 C24.3815091,14.6711091 19.0207818,16.9372 12.4089636,16.9372 C5.79650909,16.9372 0.436418182,14.5406545 0.436418182,11.1163818 C0.436418182,7.60492727 5.79650909,5.2962 12.4089636,5.2962 C19.0207818,5.2962 24.3815091,7.60492727 24.3815091,11.1163818" id="Fill-4" fill="#BA8C5F"></path>
                            <path d="M22.1945818,10.9833818 C22.1945818,13.6242909 17.6579455,15.1782909 12.4085818,15.1782909 C7.15921818,15.1782909 2.62258182,13.7114727 2.62258182,10.9833818 C2.62258182,8.34692727 7.15921818,6.65547273 12.4085818,6.65547273 C17.6579455,6.65547273 22.1945818,8.25974545 22.1945818,10.9833818" id="Fill-6" fill="#66493F"></path>
                            <path d="M12.4086455,15.3111636 C16.5882818,15.3111636 20.3071909,14.2395273 21.6531,12.4704364 C20.2365545,10.4188 16.6379182,9.09070909 12.4086455,9.09070909 C8.16791818,9.09070909 4.56037273,10.4270727 3.1521,12.4888909 C4.48846364,14.2891636 8.21755455,15.3111636 12.4086455,15.3111636" id="Fill-8" fill="#207D46"></path>
                            <path d="M19.2402,12.1989636 C19.3082909,12.1149636 19.3840182,12.0118727 19.4616545,11.8973273 C19.8752909,11.2876909 20.3716545,10.3490545 20.4270182,10.2351455 C21.6443818,7.74505455 21.8467455,7.39569091 23.1385636,4.15596364 C23.4141091,3.46487273 23.7062,2.71714545 23.6489273,1.94650909 C23.5547455,0.675690909 22.3049273,0.135418182 21.3592909,0.521690909 C20.3112,0.9506 19.8950182,1.7906 19.3547455,2.78523636 C18.0947455,5.10478182 17.5831091,6.0186 16.5331091,8.82178182 C16.1595636,9.82023636 15.8082909,10.7041455 15.5333818,11.7306 C15.3914727,12.2587818 15.7217455,12.1989636 15.7217455,12.1989636 L19.2402,12.1989636 Z" id="Fill-10" fill="#66493F"></path>
                            <path d="M20.5502182,4.17110909 C20.4337636,4.17110909 20.3160364,4.14056364 20.2078545,4.07756364 C19.8858545,3.88792727 19.7776727,3.47301818 19.9673091,3.15038182 L20.1143091,2.89774545 C20.2046727,2.74247273 20.3211273,2.54010909 20.4172182,2.36765455 C20.8359455,1.61865455 21.6275818,1.30556364 22.4351273,1.5722 C22.7902182,1.68929091 22.9830364,2.07174545 22.8665818,2.42683636 C22.7494909,2.78129091 22.3664,2.97347273 22.0113091,2.85829091 C21.7752182,2.77938182 21.6708545,2.90092727 21.5989455,3.02883636 C21.4990364,3.20638182 21.3794,3.41574545 21.2858545,3.57610909 L21.1344,3.83701818 C21.0084,4.05147273 20.7824909,4.17110909 20.5502182,4.17110909" id="Fill-12" fill="#207D46"></path>
                        </g>
                    </g>
                    <g id="header-b-left-box-14" transform="translate(35.000000, 70.000000)">
                        <polygon id="Fill-1" fill="#66493F" points="0 35 35 35 35 0 0 0"></polygon>
                        <g id="Group-6" transform="translate(7.636364, 3.818182)">
                            <path d="M9.79681818,27.0848455 C3.16272727,27.4673 -2.22027273,21.4167545 1.52727273,12.9149364 C3.08127273,9.38884545 2.78027273,6.00784545 2.78027273,6.00784545 C4.39345455,6.8173 5.81254545,8.93384545 6.11736364,9.61984545 C6.11736364,9.61984545 10.2810909,7.5033 10.0411818,0.262118182 C10.0411818,0.262118182 17.7838182,6.92993636 15.7869091,15.2446636 C15.7869091,15.2446636 18.4278182,14.1284818 19.0571818,11.7624818 C19.0571818,11.7624818 19.9735455,15.5023909 18.9432727,19.2582091 C17.9486364,22.8823 15.1047273,26.7787545 9.79681818,27.0848455" id="Fill-2" fill="#F3F2EB"></path>
                            <path d="M6.60507273,15.7160182 C6.60507273,15.7160182 7.78361818,16.5280182 7.81416364,17.8141091 C7.81416364,17.8141091 9.67998182,17.4055636 10.9431636,11.7896545 C10.9431636,11.7896545 14.0995273,17.3222 12.6059818,20.7967455 C12.6059818,20.7967455 13.8755273,20.8196545 14.8695273,19.2300182 C14.8695273,19.2300182 14.7868,21.2721091 13.8844364,23.0902 C13.3428909,24.1809273 12.3527091,25.1914727 11.3389818,25.6312 C9.53743636,26.4139273 6.40207273,26.0200182 5.3158,23.4955636 C3.97625455,20.3818364 5.40361818,18.4078364 5.86243636,17.5379273 C6.32061818,16.6680182 6.60507273,15.7160182 6.60507273,15.7160182" id="Fill-4" fill="#BA8C5F"></path>
                        </g>
                    </g>
                    <rect id="header-b-left-box-15" fill="#BA8C5F" x="70" y="70" width="35" height="35"></rect>
                    <g id="header-b-left-box-16" transform="translate(105.000000, 70.000000)">
                        <polygon id="Fill-1" fill="#207D46" points="0 6.36363636e-05 0 34.9994273 34.9993636 6.36363636e-05"></polygon>
                        <polygon id="Fill-2" fill="#0E4E30" points="0 6.36363636e-05 0 34.9994273 35 34.9994273 0.000636363636 6.36363636e-05"></polygon>
                    </g>
                    <path d="M147,98 L147,105 L140,105 L140,98 L147,98 Z M175,98 L175,105 L168,105 L168,98 L175,98 Z M154.000636,90.9993636 L154.000636,98 L161.000636,98 L161.000636,105 L154.000636,105 L154.000636,98 L147,98 L147,90.9993636 L154.000636,90.9993636 Z M168,90.9993636 L168,98 L161,98 L161,90.9993636 L168,90.9993636 Z M161,70 L161,77 L168,77 L168,70 L175,70 L175,77 L168,77 L168,84 L161,84 L161,77 L154.000636,77 L154.000636,84 L161,84 L161,90.9993636 L154.000636,90.9993636 L154.000636,84 L147,84 L147,90.9993636 L140,90.9993636 L140,84 L147,84 L147,77 L154.000636,77 L154.000636,70 L161,70 Z M175,84 L175,90.9993636 L168,90.9993636 L168,84 L175,84 Z M147,70 L147,77 L140,77 L140,70 L147,70 Z" id="header-b-left-box-17" fill="#207D46"></path>
                    <polygon id="header-b-left-box-18" fill="#207D46" transform="translate(17.500000, 52.500000) rotate(-180.000000) translate(-17.500000, -52.500000) " points="0 35 35 70 35 35"></polygon>
                    <rect id="header-b-left-box-19" fill="#0E4E30" x="70" y="35" width="35" height="35"></rect>
                    <rect id="header-b-left-box-20" fill="#0E4E30" x="35" y="3.55271368e-15" width="35" height="35"></rect>
                    <rect id="header-b-left-box-21" fill="#207D46" x="70" y="3.55271368e-15" width="35" height="35"></rect>
                </g>
                <g id="Group-5" transform="translate(628.000000, 35.000000)">
                    <rect id="header-b-right-box-01" fill="#0E4E30" x="105" y="140" width="35" height="35"></rect>
                    <g id="header-b-right-box-02" transform="translate(70.000000, 140.000000)">
                        <polygon id="Fill-1" fill="#207D46" points="0.000572727273 6.36363636e-05 34.9999364 34.9994273 34.9999364 6.36363636e-05"></polygon>
                        <polygon id="Fill-2" fill="#0E4E30" points="0.000572727273 6.36363636e-05 0.000572727273 35.0000636 34.9999364 0.0007 34.9999364 6.36363636e-05"></polygon>
                    </g>
                    <g id="header-b-right-box-03" transform="translate(35.000000, 140.000000)">
                        <path d="M8.75019091,17.5 C13.5827364,17.5 17.5001909,21.4174545 17.5001909,26.25 C17.5001909,31.0825455 13.5827364,35 8.75019091,35 C3.91764545,35 0.000190909091,31.0825455 0.000190909091,26.25 C0.000190909091,21.4174545 3.91764545,17.5 8.75019091,17.5" id="Fill-1" fill="#0E4E30"></path>
                        <path d="M8.75019091,0 C13.5827364,0 17.5001909,3.91745455 17.5001909,8.75 C17.5001909,13.5825455 13.5827364,17.5 8.75019091,17.5 C3.91764545,17.5 0.000190909091,13.5825455 0.000190909091,8.75 C0.000190909091,3.91745455 3.91700909,0 8.75019091,0" id="Fill-3" fill="#BA8C5F"></path>
                        <path d="M26.2501909,17.5 C31.0827364,17.5 35.0001909,21.4174545 35.0001909,26.25 C35.0001909,31.0825455 31.0827364,35 26.2501909,35 C21.4176455,35 17.5001909,31.0825455 17.5001909,26.25 C17.5001909,21.4174545 21.4170091,17.5 26.2501909,17.5" id="Fill-5" fill="#66493F"></path>
                        <path d="M26.2501909,0 C31.0827364,0 35.0001909,3.91745455 35.0001909,8.75 C35.0001909,13.5825455 31.0827364,17.5 26.2501909,17.5 C21.4170091,17.5 17.5001909,13.5825455 17.5001909,8.75 C17.5001909,3.91745455 21.4170091,0 26.2501909,0" id="Fill-8" fill="#207D46"></path>
                    </g>
                    <rect id="header-b-right-box-04" fill="#0E4E30" x="35" y="105" width="35" height="35"></rect>
                    <g id="header-b-right-box-05" transform="translate(105.000000, 70.000000)">
                        <polygon id="Fill-1" fill="#BA8C5F" points="0 34.9993636 35 34.9993636 35 0 0 0"></polygon>
                        <polygon id="Fill-2" fill="#207D46" points="34.9999364 6.36363636e-05 0.000572727273 35.0000636 34.9999364 35.0000636"></polygon>
                    </g>
                    <g id="header-b-right-box-06" transform="translate(70.000000, 70.000000)">
                        <path d="M29.8744091,5.12559091 C23.0405,-1.70831818 11.9601364,-1.70831818 5.12559091,5.12559091 C-1.70831818,11.9595 -1.70831818,23.0398636 5.12559091,29.8744091 C11.9601364,36.7083182 23.0405,36.7083182 29.8744091,29.8744091 C36.7083182,23.0398636 36.7083182,11.9595 29.8744091,5.12559091" id="Fill-1" fill="#66493F"></path>
                        <polygon id="Fill-3" fill="#BA8C5F" points="22.6003273 17.4986 27.6988727 12.4000545 22.5990545 7.30087273 17.5005091 12.3994182 12.4013273 7.30023636 7.2996 12.4006909 12.3994182 17.5005091 7.30087273 22.5996909 12.4006909 27.6988727 17.4986 22.6003273 22.5984182 27.6995091 27.6995091 22.5984182"></polygon>
                    </g>
                    <g id="header-b-right-box-07" transform="translate(35.000000, 70.000000)">
                        <polygon id="Fill-1" fill="#207D46" points="0 35 35 35 35 0 0 0"></polygon>
                        <g id="Group-24" transform="translate(4.454545, 5.727273)">
                            <path d="M10.3592364,23.3868727 C12.1302364,22.2859636 13.4456,21.3447818 14.7756,20.0936909 C16.1062364,18.8426 16.3442364,18.4385091 18.5988727,16.7858727 C20.5805091,15.3343273 21.4421455,14.8646909 23.3671455,13.4316 C24.3840545,12.6749636 24.9186,11.0910545 25.2794182,9.78778182 C25.6676,8.38714545 25.6459636,7.04950909 25.5435091,6.07778182 C25.5435091,6.07778182 24.0830545,5.37905455 24.0646,5.22187273 C24.0308727,4.93614545 24.7550545,3.11678182 24.7550545,3.11678182 C24.3490545,2.28378182 23.4466909,2.04450909 22.7161455,1.54941818 C21.6018727,0.794054545 19.6794182,0.874872727 18.5091455,1.51505455 C17.0525091,2.31178182 14.8939636,3.19696364 13.7039636,4.00450909 C12.5139636,4.81269091 12.0780545,4.61287273 10.6080545,5.08187273 C9.13741818,5.55150909 5.21678182,7.19332727 3.50432727,8.37823636 L10.3592364,23.3868727 Z" id="Fill-2" fill="#66493F"></path>
                            <path d="M21.7926545,9.97169091 C20.3627455,10.6965091 19.8472909,11.5976 18.5179273,12.4923273 C18.0018364,12.8404182 16.5350182,14.1786909 15.6956545,15.1160545 C16.7100182,15.0492364 17.9757455,13.7033273 18.7107455,13.6702364 C17.7956545,14.9346909 17.3718364,15.0155091 16.5585636,15.6900545 C15.4398364,16.6204182 14.2523818,17.4706 13.0121091,18.2316909 L9.27410909,19.4840545 L9.48665455,21.4765091 L10.3584727,23.3868727 C12.1301091,22.2859636 13.4454727,21.3447818 14.7761091,20.0936909 C16.1061091,18.8426 16.3441091,18.4385091 18.5987455,16.7858727 C20.5803818,15.3343273 21.4420182,14.8646909 23.3676545,13.4316 C24.3839273,12.6749636 24.9184727,11.0910545 25.2792909,9.78778182 C25.4511091,9.16796364 25.5414727,8.56214545 25.5809273,7.99450909 L21.7926545,9.97169091 Z" id="Fill-4" fill="#0E4E30"></path>
                            <path d="M8.92678182,8.6828 C9.87241818,9.28861818 10.9758727,10.1890727 11.4741455,11.1442545 C11.6033273,11.3918 11.9259636,11.8690727 12.0086909,12.1013455 C12.3058727,12.9394364 12.1754182,13.8468909 12.1671455,14.2210727 C12.1136909,16.5170727 13.3482364,16.6341636 13.3476002,18.5598 C13.3463273,20.2353455 12.8480545,21.1943455 11.8101455,22.4040727 C11.2208727,23.0919818 10.1231455,23.5062545 9.30223636,23.7614364 C8.5596,23.9937091 6.80323636,23.8753455 6.05805455,23.6545273 C5.04496364,23.3541636 4.50405455,23.1034364 3.63350909,22.4524364 C3.10469091,22.0572545 1.34387273,20.3874364 0.729781818,16.9962545 C0.319327273,14.7238 0.372781818,12.7211636 1.26750909,10.8553455 C3.3446,6.5268 7.67632727,7.88161818 8.92678182,8.6828" id="Fill-6" fill="#BA8C5F"></path>
                            <path d="M8.36003636,10.7721091 C9.02758182,11.2003818 9.80585455,11.8361091 10.1577636,12.5093818 C10.2494,12.6843818 10.4772182,13.0210182 10.5351273,13.1858364 C10.7451273,13.7776545 10.6534909,14.4178364 10.6471273,14.6825636 C10.6089455,16.3021091 11.4807636,16.3848364 11.4801276,17.7447455 C11.4794909,18.9271091 11.1282182,19.6042 10.3951273,20.4588364 C9.97958182,20.9431091 9.20385455,21.2358364 8.62476364,21.4172 C8.1004,21.5794727 6.8614,21.4973818 6.33449091,21.3408364 C5.61985455,21.1282909 5.23803636,20.9520182 4.62330909,20.4919273 C4.2504,20.2132 3.00694545,19.0340182 2.57358182,16.6412909 C2.2834,15.0370182 2.32158182,13.6230182 2.95349091,12.3057455 C4.41903636,9.24992727 7.4774,10.2070182 8.36003636,10.7721091" id="Fill-8" fill="#66493F"></path>
                            <path d="M7.77960909,12.5798909 C8.20151818,12.8548 8.69342727,13.2633455 8.91551818,13.6973455 C8.97342727,13.8099818 9.11724545,14.0263455 9.15415455,14.1319818 C9.28651818,14.5125273 9.22797273,14.9248909 9.22479091,15.0948 C9.20060909,16.1371636 9.7517,16.1906182 9.75106419,17.0649818 C9.75106419,17.8254364 9.52833636,18.2613455 9.0657,18.8105273 C8.80224545,19.1229818 8.31288182,19.3107091 7.94697273,19.4271636 C7.61542727,19.5321636 6.8327,19.4787091 6.50051818,19.3788 C6.0487,19.2419818 5.80751818,19.1280727 5.41933636,18.8321636 C5.18324545,18.6527091 4.39860909,17.8948 4.12497273,16.3554364 C3.9417,15.3232545 3.96524545,14.4138909 4.36424545,13.5662545 C5.29015455,11.6005273 7.22215455,12.2158909 7.77960909,12.5798909" id="Fill-10" fill="#BA8C5F"></path>
                            <path d="M7.0469,14.9152818 C7.17671818,14.9992818 7.33262727,15.1227364 7.39880909,15.2595545 C7.61071818,15.7005545 7.66926364,16.1351909 7.67371818,16.4101 C7.67753636,16.6493727 7.61326364,16.7861909 7.47580909,16.9618273 C7.39753636,17.0611 7.25117273,17.1279182 7.13980909,17.1616455 C6.90880909,17.2310091 6.52953636,17.1864636 6.32017273,16.9408273 C6.19099091,16.7887364 6.05035455,16.6022818 5.95808182,16.1205545 C5.89635455,15.7979182 5.89826364,15.5115545 6.01535455,15.2442818 C6.28517273,14.6212818 6.87508182,14.8039182 7.0469,14.9152818" id="Fill-12" fill="#66493F"></path>
                            <path d="M12.0259364,2.07861818 C11.9680273,3.19034545 12.3937545,3.71725455 11.3590273,4.83089091 C11.3590273,4.83089091 11.3590273,6.29070909 13.3209364,5.8478 C14.5096636,5.57925455 14.5567545,6.62798182 16.1292091,5.91716364 C17.3637545,5.35970909 17.8193909,4.37652727 17.5979364,3.93298182 C17.3764818,3.49007273 16.8317545,3.04461818 16.5905727,1.56443636 L12.0259364,2.07861818 Z" id="Fill-14" fill="#0E4E30"></path>
                            <path d="M16.0467364,0.761790909 C15.5828273,0.4767 14.9572818,0.483063636 14.4284636,0.652336364 L13.4090091,0.822245455 C12.7223727,0.936154545 12.0160091,1.42806364 12.0261909,2.05488182 C12.0325545,2.47233636 12.3857364,2.83060909 12.7942818,3.03042727 C13.5744636,3.41288182 14.5474636,3.33779091 15.3798273,3.05651818 C15.7438273,2.9337 16.1046455,2.7657 16.3445545,2.49142727 C16.7925545,1.97660909 16.6474636,1.13151818 16.0467364,0.761790909" id="Fill-16" fill="#BA8C5F"></path>
                            <path d="M15.1816636,1.17383636 C14.9500273,1.03129091 14.6369364,1.03383636 14.3728455,1.11910909 L13.8631182,1.20374545 C13.5194818,1.26101818 13.1656636,1.50665455 13.1713909,1.82038182 C13.1745727,2.02910909 13.3508455,2.20792727 13.5544818,2.30783636 C13.9458455,2.49938182 14.4313909,2.4612 14.8482091,2.3212 C15.0302091,2.26010909 15.2103,2.17610909 15.3299364,2.03865455 C15.5545727,1.78092727 15.4820273,1.35838182 15.1816636,1.17383636" id="Fill-18" fill="#66493F"></path>
                            <path d="M13.4123818,9.52171818 C13.7178364,8.78926364 14.6895636,8.40426364 14.6895636,8.40426364 C14.6895636,8.40426364 13.9946545,8.10835455 12.6818364,8.40426364 C11.3683818,8.70017273 9.77683636,9.28371818 9.77683636,9.28371818 C9.75583636,9.86853636 9.72210909,10.5494455 9.80610909,11.1113545 C9.88883636,11.6688091 9.42556364,11.1380818 9.53183636,12.0811727 C9.58083636,12.5075364 9.62410909,14.5655364 10.0498364,14.5655364 L11.4332909,11.1406273 C11.6051091,11.0922636 13.1075636,10.2535364 13.4123818,9.52171818" id="Fill-20" fill="#0E4E30"></path>
                            <path d="M25.5318636,6.07892727 L24.3895909,5.22174545 C24.3895909,5.22174545 24.6053182,3.72692727 24.7548636,3.11729091 L24.4284091,3.46856364 C22.0802273,4.91883636 19.7218636,6.70701818 17.8496818,8.27247273 C21.0206818,7.9842 23.1792273,6.45565455 25.5318636,6.07892727" id="Fill-22" fill="#0E4E30"></path>
                        </g>
                    </g>
                    <rect id="header-b-right-box-08" fill="#0E4E30" x="0" y="70" width="35" height="35"></rect>
                    <polygon id="header-b-right-box-09" fill="#0E4E30" points="35 35 35 70 70 70 70 69.9993636"></polygon>
                    <path d="M105,70 C124.330182,70 140,54.3301818 140,35 L105,35 L105,70 Z" id="header-b-right-box-10" fill="#207D46"></path>
                    <rect id="header-b-right-box-11" fill="#0E4E30" x="70" y="-3.55271368e-15" width="35" height="35"></rect>
                </g>
            </g>
        </g>
    </g>
</svg>