<?xml version="1.0" encoding="UTF-8"?>
<svg width="550px" height="1000px" viewBox="0 0 550 1000" version="1.1" xmlns="http://www.w3.org/2000/svg" xmlns:xlink="http://www.w3.org/1999/xlink">
    <title>header-right</title>
    <defs>
        <polygon id="path-1" points="0 55 55 55 55 0 0 0"></polygon>
    </defs>
    <g id="Page-1" stroke="none" stroke-width="1" fill="none" fill-rule="evenodd">
        <g id="header-1920x920-copy" transform="translate(-1370.000000, 0.000000)">
            <g id="header-right" transform="translate(1370.000000, 0.000000)">
                <g id="header-t-right-box">
                    <g id="header-right-box-01" transform="translate(495.000200, 0.000000)">
                        <polygon id="Fill-1" fill="#207D46" points="0 55 55 55 55 0.001 0 0.001"></polygon>
                        <path d="M27.5006,27.4999 L46.9466,8.0549 C41.9706,3.0779 35.0956,-0.0001 27.5006,-0.0001 C12.3126,-0.0001 0.0006,12.3119 0.0006,27.4999 C0.0006,42.6879 12.3126,54.9999 27.5006,54.9999 C35.0956,54.9999 41.9706,51.9219 46.9466,46.9449 L27.5006,27.4999 Z" id="Fill-2" fill="#0E4E30"></path>
                    </g>
                    <g id="header-right-box-02" transform="translate(385.000200, 0.000000)" fill="#207D46">
                        <path d="M55,44.016 L55,55 L44,55 L44,44.016 L55,44.016 Z M44,33.034 L44,44.017 L33.001,44.016 L33.001,55 L22,55 L22,44.016 L33,44.017 L33,33.034 L44,33.034 Z M11,44.016 L11,55 L0,55 L0,44.016 L11,44.016 Z M55,22.05 L55,33.033 L44,33.033 L44,22.05 L55,22.05 Z M22,22.05 L22,33.033 L11,33.033 L11,22.05 L22,22.05 Z M44,11.067 L44,22.05 L33,22.05 L33,11.067 L44,11.067 Z M55,7.10542736e-15 L55,10.984 L44,10.984 L44,7.10542736e-15 L55,7.10542736e-15 Z M33.001,7.10542736e-15 L33.001,10.984 L22,10.984 L22,7.10542736e-15 L33.001,7.10542736e-15 Z M11,7.10542736e-15 L11,10.984 L0,10.984 L0,7.10542736e-15 L11,7.10542736e-15 Z" id="Combined-Shape"></path>
                    </g>
                    <rect id="header-right-box-03" fill="#BA8C5F" x="330.0002" y="0" width="55" height="55"></rect>
                    <g id="header-right-box-04" transform="translate(275.000000, 0.000000)">
                        <polygon id="Fill-1" fill="#207D46" points="0 55 55 55 55 0 0 0"></polygon>
                        <polygon id="Fill-2" fill="#66493F" points="37.4824 45.6039 17.5174 45.6039 15.7724 16.0959 39.2274 16.0959"></polygon>
                        <path d="M32.4482,27.017 C32.4482,29.749 30.2322,31.964 27.5002,31.964 C24.7672,31.964 22.5522,29.749 22.5522,27.017 C22.5522,24.284 24.7672,22.069 27.5002,22.069 C30.2322,22.069 32.4482,24.284 32.4482,27.017" id="Fill-3" fill="#207D46"></path>
                        <polygon id="Fill-5" fill="#0E4E30" points="27.5 23.935 28.515 25.909 30.593 26.174 29.069 27.587 29.484 29.575 27.5 28.618 25.516 29.575 25.932 27.587 24.407 26.174 26.485 25.909"></polygon>
                        <polygon id="Fill-7" fill="#66493F" points="39.2275 13.641 15.7725 13.641 16.8395 9.397 38.1625 9.397"></polygon>
                        <polygon id="Fill-9" fill="#BA8C5F" points="14.08 16.434 40.92 16.434 40.92 13.302 14.08 13.302"></polygon>
                    </g>
                    <rect id="header-right-box-05" fill="#0E4E30" x="220.0002" y="0" width="55" height="55"></rect>
                    <rect id="header-right-box-06" fill="#0E4E30" x="110.0002" y="0" width="55" height="55"></rect>
                    <g id="header-right-box-07" transform="translate(440.000200, 55.000000)">
                        <polygon id="Fill-1" fill="#0E4E30" points="0 55 55 55 55 0.001 0 0.001"></polygon>
                        <polygon id="Fill-2" fill="#207D46" points="0 27.5 54.999 27.5 54.999 0.001 0 0.001"></polygon>
                        <polygon id="Fill-3" fill="#BA8C5F" points="15.125 39.875 39.874 39.875 39.874 15.125 15.125 15.125"></polygon>
                    </g>
                    <polygon id="header-right-box-08" fill="#0E4E30" points="385.0002 55 330.0002 110 385.0002 110"></polygon>
                    <g id="header-right-box-09" transform="translate(275.000200, 55.000000)">
                        <polygon id="Fill-1" fill="#66493F" points="0 55 55 55 55 0 0 0"></polygon>
                        <g id="Group-16">
                            <path d="M21.6648,10.1052 C21.6648,10.1052 29.6478,13.1512 29.6478,16.3842 L27.5078,22.6332 L25.7258,20.4702 C25.7258,20.4702 25.1378,14.3692 21.6648,10.1052" id="Fill-2" fill="#0E4E30"></path>
                            <path d="M25.7253,23.8357 C25.7253,23.8357 26.0373,14.5567 38.0223,8.5707 C38.0223,8.5707 33.3113,15.6017 33.3113,23.2957 L32.3233,34.8277 L26.5663,34.8277 L25.7253,23.8357 Z" id="Fill-4" fill="#207D46"></path>
                            <path d="M13.4743,11.5759 C13.4743,11.5759 29.1563,15.6099 29.1563,26.9519 L21.9733,33.6899 L19.9233,28.2489 C19.9233,28.2489 21.6693,18.8259 13.4743,11.5759" id="Fill-6" fill="#0E4E30"></path>
                            <path d="M24.2976,35.8718 C24.2976,35.8718 27.4666,20.3368 43.6476,18.1458 C43.6476,18.1458 34.5636,26.1788 34.5636,38.7928 L25.1116,38.7928 L24.2976,35.8718 Z" id="Fill-8" fill="#0E4E30"></path>
                            <path d="M9.0896,18.8601 C9.0896,18.8601 19.4296,24.7631 19.4296,33.6901 L29.1546,33.6901 C29.1546,33.6901 29.5936,18.8601 9.0896,18.8601" id="Fill-10" fill="#207D46"></path>
                            <mask id="mask-2" fill="white">
                                <use xlink:href="#path-1"></use>
                            </mask>
                            <g id="Clip-13"></g>
                            <polygon id="Fill-12" fill="#BA8C5F" mask="url(#mask-2)" points="14.695 36.863 39.896 36.863 39.896 31.572 14.695 31.572"></polygon>
                            <polygon id="Fill-14" fill="#BA8C5F" mask="url(#mask-2)" points="37.1863 47.3816 17.4063 47.3816 16.8083 36.8626 37.7843 36.8626"></polygon>
                            <polygon id="Fill-15" fill="#66493F" mask="url(#mask-2)" points="37.7068 38.2156 37.7838 36.8626 16.8078 36.8626 16.8848 38.2156"></polygon>
                        </g>
                    </g>
                    <g id="header-right-box-10" transform="translate(220.000200, 55.000000)">
                        <path d="M55.0003,27.4998 C55.0003,42.6878 42.6873,54.9998 27.5003,54.9998 C12.3123,54.9998 0.0003,42.6878 0.0003,27.4998 C0.0003,12.3118 12.3123,-0.0002 27.5003,-0.0002 C42.6873,-0.0002 55.0003,12.3118 55.0003,27.4998" id="Fill-1" fill="#0E4E30"></path>
                        <path d="M27.5003,27.4998 L46.9453,46.9448 C51.9223,41.9688 55.0003,35.0938 55.0003,27.4998 C55.0003,19.9058 51.9223,13.0308 46.9453,8.0548 L27.5003,27.4998 Z" id="Fill-4" fill="#207D46"></path>
                    </g>
                    <g id="header-right-box-11" transform="translate(165.000200, 55.000000)">
                        <polygon id="Fill-1" fill="#0E4E30" points="0 55 55 55 55 0 0 0"></polygon>
                        <polygon id="Fill-2" fill="#BA8C5F" points="11.344 43.656 43.657 43.656 43.657 11.343 11.344 11.343"></polygon>
                        <path d="M30.8714,20.9817 C29.5354,20.9817 28.3394,22.0777 27.5094,22.9967 L27.5004,22.9877 L27.4914,22.9967 C26.6614,22.0777 25.4644,20.9817 24.1294,20.9817 C21.6244,20.9817 19.5944,23.0117 19.5944,25.5167 C19.5944,26.6737 19.9434,27.6027 20.7434,28.5277 L20.7434,28.5337 L27.5004,35.3937 L34.2564,28.5337 L34.2564,28.5277 C35.0564,27.6027 35.4064,26.6737 35.4064,25.5167 C35.4064,23.0117 33.3754,20.9817 30.8714,20.9817" id="Fill-3" fill="#66493F"></path>
                    </g>
                    <g id="header-right-box-12" transform="translate(110.000200, 55.000000)" fill="#207D46">
                        <path d="M18.267,36.733 L18.267,55 L-1.72306613e-13,55 L-1.72306613e-13,36.733 L18.267,36.733 Z M55,36.733 L55,55 L36.733,55 L36.733,36.733 L55,36.733 Z M36.535,18.267 L36.535,36.534 L18.267,36.534 L18.267,18.267 L36.535,18.267 Z M18.267,0 L18.267,18.267 L-1.72306613e-13,18.267 L-1.72306613e-13,0 L18.267,0 Z M54.803,0 L54.803,18.267 L36.535,18.267 L36.535,0 L54.803,0 Z" id="Combined-Shape"></path>
                    </g>
                    <path d="M0,110.0002 C0,79.6242 24.625,55.0002 55,55.0002 L55,110.0002 L0,110.0002 Z" id="header-right-box-13" fill="#BA8C5F"></path>
                    <rect id="header-right-box-14" fill="#207D46" x="495.0002" y="110" width="55" height="55"></rect>
                    <g id="header-right-box-15" transform="translate(330.000200, 110.000000)">
                        <polygon id="Fill-1" fill="#207D46" points="0 110 110 110 110 0 0 0"></polygon>
                        <path d="M89.3902,60.1403 L83.4282,60.1403 C83.3282,62.6403 82.8302,64.7643 82.0262,66.5703 L87.3422,69.6393 C87.7962,69.9013 87.9522,70.4823 87.6902,70.9363 C87.4272,71.3903 86.8472,71.5453 86.3932,71.2843 L81.1362,68.2483 C75.8262,76.7723 62.6272,76.7733 54.9992,76.7733 C47.3712,76.7733 34.1732,76.7723 28.8642,68.2483 L23.6072,71.2843 C23.1532,71.5453 22.5722,71.3903 22.3102,70.9363 C22.0472,70.4823 22.2022,69.9013 22.6572,69.6393 L27.9732,66.5703 C27.1682,64.7643 26.6712,62.6403 26.5712,60.1403 L20.6092,60.1403 C20.0842,60.1403 19.6602,59.7153 19.6602,59.1913 C19.6602,58.6663 20.0842,58.2423 20.6092,58.2423 L26.5732,58.2423 C26.8272,51.9033 29.6302,47.9793 33.5332,45.5523 C34.7462,43.3243 38.0772,37.2083 39.7802,34.0803 C40.4072,32.9303 41.2072,32.9513 41.7902,34.0813 C42.9382,36.3083 44.8132,39.9473 45.8422,41.9433 C49.1852,41.6113 52.4122,41.6113 54.9982,41.6113 L54.9992,41.6113 L55.0002,41.6113 C57.5872,41.6113 60.8142,41.6113 64.1572,41.9433 C65.1862,39.9483 67.0592,36.3123 68.2072,34.0853 C68.7912,32.9523 69.5942,32.9333 70.2232,34.0873 C71.9272,37.2173 75.2532,43.3253 76.4662,45.5523 C80.3692,47.9793 83.1722,51.9033 83.4272,58.2423 L89.3902,58.2423 C89.9142,58.2423 90.3402,58.6663 90.3402,59.1913 C90.3402,59.7153 89.9142,60.1403 89.3902,60.1403" id="Fill-2" fill="#0E4E30"></path>
                        <path d="M44.4005,62.8143 C44.6705,62.3973 45.2335,62.2923 45.6335,62.5863 L45.6335,62.5863 L45.6885,62.6263 C46.0475,62.8913 46.1405,63.3833 45.9125,63.7673 C45.5785,64.3293 45.4005,64.9613 45.4005,65.6043 C45.4005,67.7533 47.3475,69.5023 49.7405,69.5023 C51.8355,69.5023 53.5885,67.7053 53.9935,65.5743 C54.0835,65.0993 54.5035,64.7593 54.9845,64.7593 L54.9845,64.7593 L55.0145,64.7593 C55.4965,64.7593 55.9155,65.0993 56.0065,65.5743 C56.4115,67.7053 58.1645,69.5023 60.2585,69.5023 C62.6515,69.5023 64.5995,67.7533 64.5995,65.6043 C64.5995,64.9583 64.4285,64.3413 64.1005,63.7863 C63.8725,63.4013 63.9675,62.9073 64.3285,62.6443 L64.3285,62.6443 L64.3825,62.6053 C64.7825,62.3133 65.3475,62.4193 65.6135,62.8363 C66.1495,63.6743 66.4385,64.6313 66.4385,65.6043 C66.4385,68.6633 63.6655,71.1533 60.2585,71.1533 C58.0955,71.1533 56.1885,70.1493 55.0845,68.3793 C55.0455,68.3173 54.9545,68.3173 54.9155,68.3793 C53.8115,70.1493 51.9035,71.1533 49.7405,71.1533 C46.3335,71.1533 43.5625,68.6633 43.5625,65.6043 C43.5625,64.6213 43.8555,63.6563 44.4005,62.8143 Z M62.0965,51.3003 L67.9125,51.5023 C67.9195,54.4413 68.4255,56.7023 69.1305,56.7263 C69.8355,56.7503 70.4975,54.5313 70.7095,51.6003 L70.7095,51.6003 L76.5615,51.8053 C76.4255,55.6983 73.1595,58.7433 69.2675,58.6073 L69.2675,58.6073 L68.8985,58.5943 C65.0065,58.4573 61.9605,55.1933 62.0965,51.3003 L62.0965,51.3003 Z M47.9025,51.3003 C48.0385,55.1933 44.9935,58.4573 41.1015,58.5943 L41.1015,58.5943 L40.7315,58.6073 C36.8395,58.7433 33.5735,55.6983 33.4385,51.8053 L33.4385,51.8053 L39.2725,51.6013 C39.4835,54.5323 40.1465,56.7513 40.8515,56.7273 C41.5565,56.7033 42.0625,54.4423 42.0685,51.5033 L42.0685,51.5033 Z" id="Fill-4" fill="#207D46"></path>
                    </g>
                    <g id="header-right-box-16" transform="translate(220.000200, 110.000000)">
                        <polygon id="Fill-1" fill="#207D46" points="0 55 55 55 55 0 0 0"></polygon>
                        <path d="M34.4426,11.067 C37.8286,11.783 42.4806,14.088 44.4346,19.207 C44.8856,20.387 45.1926,21.718 45.3076,23.214 C45.7726,29.274 48.2216,31.078 46.4706,36.596 C44.7606,41.987 40.1916,44.515 33.8376,44.165 C30.8776,44.002 28.2316,41.937 25.3186,41.442 C23.5626,41.144 21.7456,41.361 19.9676,41.194 C15.2236,40.748 11.1016,37.427 9.3796,33.251 C7.6566,29.074 7.0836,24.229 9.6666,20.421 C11.4416,17.802 13.3736,16.832 15.2666,16.213 C17.4216,15.51 19.6196,14.431 21.5666,12.831 C26.2266,8.998 33.1266,10.789 34.4426,11.067" id="Fill-2" fill="#F3F2EB"></path>
                        <path d="M27.0862,17.8678 C30.8202,17.5448 34.3962,19.5048 35.8052,22.9768 C37.2152,26.4488 36.2322,30.8578 33.3482,33.2518 C30.9052,35.2788 27.3252,35.6778 23.8082,34.3838 C19.5062,32.8008 18.6642,29.0478 18.5222,27.6428 C18.1642,24.1008 19.6922,21.5358 22.5822,19.4578 C23.8722,18.5298 25.7212,17.9848 27.0862,17.8678" id="Fill-4" fill="#BA8C5F"></path>
                        <path d="M27.8674,32.8434 C27.5624,32.8434 27.2824,32.8194 27.0374,32.7714 C26.3894,32.6444 25.9684,32.0164 26.0954,31.3684 C26.2214,30.7224 26.8464,30.2994 27.4964,30.4264 C28.0194,30.5294 29.2314,30.3754 30.0624,29.8304 C30.8414,29.3204 31.3494,28.6074 31.4964,27.8224 C31.6174,27.1734 32.2414,26.7454 32.8884,26.8664 C33.5374,26.9884 33.9654,27.6124 33.8444,28.2604 C33.5774,29.6914 32.6994,30.9574 31.3724,31.8274 C30.2954,32.5334 28.9384,32.8434 27.8674,32.8434" id="Fill-6" fill="#66493F"></path>
                    </g>
                    <g id="header-right-box-17" transform="translate(165.000200, 110.000000)">
                        <polygon id="Fill-1" fill="#66493F" points="0 55 55 55 55 0 0 0"></polygon>
                        <g id="Group-12" transform="translate(8.000000, 13.000000)">
                            <path d="M12.6412,13.893 L19.5002,15.182 L18.2102,18.559 C18.0152,19.456 18.9582,20.131 18.6402,20.994 C18.1792,22.239 18.4432,22.346 17.9562,23.99 C17.5972,25.202 16.2722,26.979 14.7912,27.639 C13.2582,28.322 11.5872,28.44 10.1502,28.017 C8.7752,27.612 7.8402,26.781 7.2892,25.457 C6.7382,24.134 6.8572,22.883 7.1322,21.806 C7.3912,20.789 7.9672,19.706 8.4042,18.753 L12.6412,13.893 Z M26.3583,13.893 L30.5963,18.753 C31.0323,19.706 31.6083,20.789 31.8673,21.806 C32.1433,22.883 32.2613,24.134 31.7103,25.457 C31.1603,26.781 30.2243,27.612 28.8503,28.017 C27.4133,28.44 25.7413,28.322 24.2083,27.639 C22.7273,26.979 21.4023,25.202 21.0433,23.99 C20.5563,22.346 20.8203,22.239 20.3603,20.994 C20.0413,20.131 20.9853,19.456 20.7893,18.559 L20.7893,18.559 L19.5003,15.182 L26.3583,13.893 Z" id="Combined-Shape" fill="#BA8C5F"></path>
                            <path d="M8.6445,0.6757 C12.4045,1.8517 18.1495,7.9427 19.0925,11.9737 L19.0305,19.9857 C16.2945,21.4387 9.4835,20.5577 6.7525,18.7797 C5.5235,17.9797 4.1745,17.1317 3.1585,15.9957 C1.9195,14.6097 1.3285,13.6257 0.5575,11.2237 C-0.6225,7.5467 0.3725,2.3877 2.9105,0.9897 C5.2145,-0.2813 6.7505,0.0837 8.6445,0.6757 Z M30.355,0.6757 C32.249,0.0837 33.785,-0.2813 36.09,0.9897 C38.627,2.3877 39.622,7.5467 38.443,11.2237 C37.672,13.6257 37.081,14.6097 35.842,15.9957 C34.826,17.1317 33.476,17.9797 32.247,18.7797 C29.517,20.5577 22.705,21.4387 19.969,19.9857 L19.969,19.9857 L19.908,11.9737 C20.85,7.9427 26.596,1.8517 30.355,0.6757 Z" id="Combined-Shape" fill="#207D46"></path>
                            <path d="M21.4377,11.184 C21.3547,14.44 21.3827,18.532 21.2997,21.787 C21.2587,23.373 21.2277,24.829 20.3967,25.727 C20.0547,26.096 19.3197,26.144 18.8927,25.797 C18.0387,25.104 17.9427,24.214 17.8487,22.743 C17.5797,18.474 17.5397,13.359 17.5397,9.075 C17.5397,7.142 18.1427,6.069 19.2687,5.98 C20.5007,5.882 20.9297,6.528 21.1667,7.347 C21.4377,8.285 21.4777,9.623 21.4377,11.184" id="Fill-10" fill="#0E4E30"></path>
                        </g>
                    </g>
                    <g id="header-right-box-18" transform="translate(55.000000, 110.000000)">
                        <polygon id="Fill-1" fill="#0E4E30" points="0 55 55 55 55 0 0 0"></polygon>
                        <polygon id="Fill-2" fill="#207D46" points="0 55 18.333 55 18.333 36.667 0 36.667"></polygon>
                        <polygon id="Fill-3" fill="#207D46" points="36.666 55 55 55 55 36.667 36.666 36.667"></polygon>
                    </g>
                    <g id="header-right-box-19" transform="translate(495.000200, 165.000000)">
                        <polygon id="Fill-1" fill="#66493F" points="0 55 55 55 55 0 0 0"></polygon>
                        <g id="Group-8" transform="translate(14.000000, 6.000000)">
                            <path d="M22.2512,15.1122 C20.1672,12.8232 17.8762,11.6372 17.9392,7.3352 L17.9392,6.4422 L13.5002,6.4422 L9.0632,6.4422 L9.0632,7.3352 C9.1252,11.6372 6.8342,12.8232 4.7502,15.1122 C1.8342,18.3172 0.0662,20.2222 0.0662,23.2182 C0.0662,25.0972 0.3982,26.9772 1.4992,29.1812 C4.4902,35.1742 3.9582,33.8452 7.3182,40.2732 C7.6792,40.9622 8.2382,41.5512 8.9092,41.8712 C9.4212,42.1142 9.9962,42.1402 10.5552,42.1622 C12.6292,42.2432 14.3722,42.2432 16.4452,42.1622 C17.0052,42.1402 17.5792,42.1142 18.0912,41.8712 C18.7622,41.5512 19.3312,40.9662 19.6822,40.2732 C22.9672,33.7712 22.8082,35.0292 25.5022,29.1812 C26.6262,26.7412 26.9352,26.0922 26.9342024,23.7852 C26.9332,20.1272 25.1672,18.3172 22.2512,15.1122" id="Fill-2" fill="#207D46"></path>
                            <polygon id="Fill-4" fill="#BA8C5F" points="9.174 4.716 17.827 4.716 17.827 0.09 9.174 0.09"></polygon>
                            <polygon id="Fill-6" fill="#0E4E30" points="5.982 9.737 21.019 9.737 21.019 3.753 5.982 3.753"></polygon>
                            <path d="M21.7971,24.7528 C21.2221,24.7528 20.7211,24.3278 20.6401,23.7418 C20.3631,21.7398 18.9941,19.9118 17.1501,19.0858 C16.5601,18.8208 16.2961,18.1288 16.5611,17.5388 C16.8251,16.9488 17.5171,16.6838 18.1081,16.9488 C20.6711,18.0988 22.5751,20.6398 22.9591,23.4218 C23.0471,24.0628 22.6001,24.6528 21.9591,24.7408 C21.9041,24.7488 21.8511,24.7528 21.7971,24.7528" id="Fill-7" fill="#66493F"></path>
                        </g>
                    </g>
                    <rect id="header-right-box-20" fill="#0E4E30" x="440.0002" y="165" width="55" height="55"></rect>
                    <g id="header-right-box-21" transform="translate(275.000200, 165.000000)">
                        <polygon id="Fill-1" fill="#0E4E30" points="0 55 55 55 55 0 0 0"></polygon>
                        <g id="Group-16" transform="translate(8.000000, 6.000000)">
                            <path d="M14.168,23.8118 L14.168,39.3888 L16.834,39.3888 C16.834,40.8618 18.027,42.0548 19.5,42.0548 C20.973,42.0548 22.166,40.8618 22.166,39.3888 L24.832,39.3888 L24.832,23.8118 L14.168,23.8118 Z" id="Fill-2" fill="#207D46"></path>
                            <path d="M30.5869,19.4924 C30.2399,13.6694 25.4099,9.0534 19.4999,9.0534 C13.5899,9.0534 8.7599,13.6694 8.4129,19.4924 C8.4129,19.4924 8.3919,20.1384 8.3919,20.1614 C8.3919,20.2184 8.3949,20.2734 8.3959,20.3294 C8.4259,22.7024 9.1529,24.6514 11.8599,28.5284 C14.0309,31.6374 14.1679,33.1804 14.1679,34.9454 L19.4999,34.9454 L24.8319,34.9454 C24.8319,33.1804 24.9689,31.6374 27.1389,28.5284 C29.8469,24.6514 30.5739,22.7024 30.6049,20.3294 C30.6059,20.2734 30.6079,20.2184 30.6079,20.1614 C30.6079,20.1384 30.5869,19.4924 30.5869,19.4924" id="Fill-4" fill="#BA8C5F"></path>
                            <path d="M38.8721,20.2737 C38.8721,21.5487 37.8381,22.5837 36.5611,22.5837 C35.2861,22.5837 34.2521,21.5487 34.2521,20.2737 C34.2521,18.9977 35.2861,17.9627 36.5611,17.9627 C37.8381,17.9627 38.8721,18.9977 38.8721,20.2737" id="Fill-6" fill="#BA8C5F"></path>
                            <path d="M4.748,20.2737 C4.748,21.5487 3.714,22.5837 2.438,22.5837 C1.162,22.5837 0.128,21.5487 0.128,20.2737 C0.128,18.9977 1.162,17.9627 2.438,17.9627 C3.714,17.9627 4.748,18.9977 4.748,20.2737" id="Fill-8" fill="#BA8C5F"></path>
                            <path d="M21.8105,2.7825 C21.8105,4.0575 20.7755,5.0925 19.4995,5.0925 C18.2235,5.0925 17.1895,4.0575 17.1895,2.7825 C17.1895,1.5065 18.2235,0.4715 19.4995,0.4715 C20.7755,0.4715 21.8105,1.5065 21.8105,2.7825" id="Fill-10" fill="#BA8C5F"></path>
                            <polygon id="Fill-12" fill="#BA8C5F" points="35.8242 8.1946 33.0182 10.9996 30.2142 8.1946 33.0182 5.3886"></polygon>
                            <polygon id="Fill-14" fill="#BA8C5F" points="8.7861 8.1946 5.9801 10.9996 3.1761 8.1946 5.9801 5.3886"></polygon>
                        </g>
                    </g>
                    <polygon id="header-right-box-22" fill="#0E4E30" points="220.0002 165 220.0002 220 275.0002 165"></polygon>
                    <rect id="header-right-box-23" fill="#0E4E30" x="495.0002" y="220" width="55" height="55"></rect>
                    <polygon id="header-right-box-24" fill="#0E4E30" points="403.3342 220 403.3342 238.33 385.0002 238.33 385.0002 256.67 403.3342 256.67 403.3342 275 421.6672 275 421.6672 256.67 440.0002 256.67 440.0002 238.33 421.6672 238.33 421.6672 220"></polygon>
                    <g id="header-right-box-25" transform="translate(275.000200, 220.000000)" fill="#207D46">
                        <path d="M55,41.25 L55,55 L41.251,55 L41.251,41.25 L55,41.25 Z M13.75,41.25 L13.75,55 L0,55 L0,41.25 L13.75,41.25 Z M27.5,27.5 L27.5,41.25 L13.75,41.25 L13.75,27.5 L27.5,27.5 Z M41.25,13.75 L41.25,27.5 L27.5,27.5 L27.5,13.75 L41.25,13.75 Z M13.75,13.75 L13.75,27.5 L0,27.5 L0,13.75 L13.75,13.75 Z M55,2.13162821e-14 L55,13.749 L41.251,13.749 L41.251,2.13162821e-14 L55,2.13162821e-14 Z M27.5,2.13162821e-14 L27.5,13.749 L13.75,13.749 L13.75,2.13162821e-14 L27.5,2.13162821e-14 Z" id="Combined-Shape"></path>
                    </g>
                    <g id="header-right-box-26" transform="translate(220.000200, 220.000000)">
                        <polygon id="Fill-1" fill="#0E4E30" points="0 55 55 55 55 0 0 0"></polygon>
                        <polygon id="Fill-2" fill="#BA8C5F" points="22.099 13.353 32.9 13.353 32.9 8.166 22.099 8.166"></polygon>
                        <polygon id="Fill-3" fill="#BA8C5F" points="25.436 22.726 29.564 22.726 29.564 8.166 25.436 8.166"></polygon>
                        <path d="M43.2653,32.0326 C43.2653,40.7396 36.2063,47.7986 27.4993,47.7986 C18.7923,47.7986 11.7353,40.7396 11.7353,32.0326 C11.7353,23.3266 18.7923,16.2676 27.4993,16.2676 C36.2063,16.2676 43.2653,23.3266 43.2653,32.0326" id="Fill-4" fill="#207D46"></path>
                        <path d="M38.9518,32.0326 C38.9518,38.3576 33.8248,43.4846 27.4998,43.4846 C21.1758,43.4846 16.0478,38.3576 16.0478,32.0326 C16.0478,25.7086 21.1758,20.5816 27.4998,20.5816 C33.8248,20.5816 38.9518,25.7086 38.9518,32.0326" id="Fill-6" fill="#66493F"></path>
                        <polygon id="Fill-8" fill="#BA8C5F" points="31.6901 25.3305 24.7931 30.3405 23.3101 38.7355 30.2081 33.7265"></polygon>
                        <polygon id="Fill-10" fill="#207D46" points="14.511 33.595 18.602 33.595 18.602 31.053 14.511 31.053"></polygon>
                        <polygon id="Fill-12" fill="#207D46" points="36.398 33.595 40.488 33.595 40.488 31.053 36.398 31.053"></polygon>
                    </g>
                    <g id="header-right-box-27" transform="translate(440.000200, 275.000000)">
                        <path d="M55.0004,27.5001 C55.0004,42.6881 42.6874,55.0001 27.5004,55.0001 C12.3124,55.0001 0.0004,42.6881 0.0004,27.5001 C0.0004,12.3121 12.3124,0.0001 27.5004,0.0001 C42.6874,0.0001 55.0004,12.3121 55.0004,27.5001" id="Fill-1" fill="#0E4E30"></path>
                        <path d="M44.6879,27.5001 C44.6879,36.9921 36.9929,44.6871 27.4999,44.6871 C18.0069,44.6871 10.3129,36.9921 10.3129,27.5001 C10.3129,18.0081 18.0069,10.3121 27.4999,10.3121 C36.9929,10.3121 44.6879,18.0081 44.6879,27.5001" id="Fill-4" fill="#207D46"></path>
                    </g>
                    <rect id="header-right-box-28" fill="#207D46" x="385.0002" y="275" width="55" height="55"></rect>
                    <g id="header-right-box-29" transform="translate(330.000200, 275.000000)">
                        <polygon id="Fill-1" fill="#0E4E30" points="0 55 55 55 55 0 0 0"></polygon>
                        <path d="M37.4443,17.7202 C41.5833,20.2562 43.4153,25.4072 43.1463,29.5212 C42.4283,40.5182 37.2763,42.7212 36.1063,43.4712 C34.2043,44.6902 31.7043,45.2762 29.9943,44.5392 C28.7823,44.0182 28.4963,43.5222 27.5843,43.7292 C27.0393,43.8532 26.6193,44.2502 25.9503,44.5322 C23.3733,45.6202 19.8123,44.1582 17.9883,42.4892 C13.2353,38.1382 11.0673,32.7602 11.9383,25.7482 C12.5043,21.1992 15.0163,18.3292 18.7353,16.7762 C19.7133,16.3662 21.6223,15.7122 23.7913,16.0932 C24.5963,16.2342 25.4333,16.7342 26.2643,16.9622 C27.4653,17.2922 28.6553,16.2892 30.6303,16.0182 C33.0903,15.6802 35.2723,16.3882 37.4443,17.7202" id="Fill-2" fill="#BA8C5F"></path>
                        <path d="M27.7841,22.2885 C28.5771,22.0775 28.5551,21.3355 28.6411,20.5575 C28.8751,18.4555 28.2541,15.0815 27.9341,12.8065 C27.5791,10.2755 26.1831,8.2855 24.5421,8.7145 C23.0461,9.1055 22.2861,9.3995 20.9991,10.2555 C20.8371,10.3635 20.6641,10.4945 20.6291,10.6855 C20.6001,10.8435 20.6731,10.9985 20.7431,11.1415 C21.0151,11.6955 21.1021,12.3925 21.5971,12.7635 C21.9321,13.0145 22.5441,13.0325 22.8841,13.2765 C23.7551,13.9045 23.9951,15.1545 24.3411,16.1715 C25.1951,18.6825 25.7741,20.0795 26.2821,21.4835 C26.3651,21.7125 26.7621,22.5615 27.7841,22.2885" id="Fill-4" fill="#66493F"></path>
                        <path d="M43.249,12.3032 C42.005,16.1312 38.95,18.8102 35.876,19.5802 C32.802,20.3502 29.733,19.4542 27.02,17.9142 C26.874,17.8312 26.714,17.7232 26.683,17.5172 C26.646,17.2822 26.794,17.0462 26.932,16.8612 C28.411,14.8582 31.017,11.9162 33.884,10.9742 C38.129,9.5792 43.249,12.3032 43.249,12.3032" id="Fill-6" fill="#207D46"></path>
                        <path d="M24.0097,40.7387 C23.9577,40.7387 23.9057,40.7347 23.8537,40.7277 C19.5667,40.1677 16.6907,36.6527 16.0647,33.4697 C15.9377,32.8227 16.3597,32.1947 17.0067,32.0677 C17.6517,31.9397 18.2807,32.3617 18.4087,33.0097 C18.8587,35.2977 21.0287,37.9497 24.1627,38.3597 C24.8177,38.4457 25.2787,39.0447 25.1927,39.6987 C25.1137,40.3007 24.6007,40.7387 24.0097,40.7387" id="Fill-8" fill="#66493F"></path>
                    </g>
                    <polygon id="header-right-box-30" fill="#207D46" points="220.0002 275 220.0002 330 274.9992 275"></polygon>
                    <g id="header-right-box-31" transform="translate(165.000000, 275.000000)">
                        <polygon id="Fill-1" fill="#BA8C5F" points="0 55 55 55 55 0 0 0"></polygon>
                        <path d="M47.276,27.5 C47.276,38.422 38.422,47.275 27.501,47.275 C16.58,47.275 7.726,38.422 7.726,27.5 C7.726,16.578 16.58,7.725 27.501,7.725 C38.422,7.725 47.276,16.578 47.276,27.5" id="Fill-2" fill="#0E4E30"></path>
                        <path d="M41.7965,27.5 C41.7965,35.442 35.3575,41.882 27.4145,41.882 C19.4715,41.882 13.0325,35.442 13.0325,27.5 C13.0325,19.557 19.4715,13.118 27.4145,13.118 C35.3575,13.118 41.7965,19.557 41.7965,27.5" id="Fill-4" fill="#207D46"></path>
                        <path d="M36.4898,27.5 C36.4898,32.465 32.4658,36.489 27.5008,36.489 C22.5368,36.489 18.5118,32.465 18.5118,27.5 C18.5118,22.536 22.5368,18.512 27.5008,18.512 C32.4658,18.512 36.4898,22.536 36.4898,27.5" id="Fill-6" fill="#66493F"></path>
                        <path d="M31.0963,27.5 C31.0963,29.485 29.4873,31.096 27.5003,31.096 C25.5153,31.096 23.9053,29.485 23.9053,27.5 C23.9053,25.514 25.5153,23.904 27.5003,23.904 C29.4873,23.904 31.0963,25.514 31.0963,27.5" id="Fill-8" fill="#BA8C5F"></path>
                    </g>
                    <rect id="header-right-box-32" fill="#207D46" x="495.0002" y="330" width="55" height="55"></rect>
                    <g id="header-right-box-33" transform="translate(440.000200, 330.000000)">
                        <polygon id="Fill-1" points="0 55 55 55 55 0 0 0"></polygon>
                        <polygon id="Fill-2" fill="#BA8C5F" points="27.5004504 41 14 27.5004504 27.5004504 14 41 27.5004504"></polygon>
                    </g>
                    <g id="header-right-box-34" transform="translate(385.000200, 330.000000)">
                        <polygon id="Fill-1" fill="#BA8C5F" points="0 55 55 55 55 0 0 0"></polygon>
                        <polygon id="Fill-2" fill="#207D46" points="0 0.0001 0 55.0001 55 55.0001"></polygon>
                        <polygon id="Fill-3" fill="#0E4E30" points="54.9999 0.0001 -0.0001 55.0001 54.9999 55.0001"></polygon>
                    </g>
                    <rect id="header-right-box-35" fill="#BA8C5F" x="495.0002" y="385" width="55" height="55"></rect>
                    <g id="header-right-box-36" transform="translate(440.000200, 385.000000)">
                        <polygon id="Fill-1" fill="#207D46" points="0 55 55 55 55 0 0 0"></polygon>
                        <polygon id="Fill-2" fill="#0E4E30" points="0 55 18.333 55 18.333 36.667 0 36.667"></polygon>
                        <polygon id="Fill-3" fill="#0E4E30" points="36.666 55 55 55 55 36.667 36.666 36.667"></polygon>
                    </g>
                    <g id="header-right-box-37" transform="translate(330.000200, 385.000000)">
                        <polygon id="Fill-1" fill="#66493F" points="0 55 55 55 55 0 0 0"></polygon>
                        <polygon id="Fill-2" fill="#BA8C5F" points="27.5002 47.4379 7.5632 27.4999 27.5002 7.5629 47.4372 27.4999"></polygon>
                        <polygon id="Fill-3" fill="#66493F" points="20.968 34.032 34.031 34.032 34.031 20.969 20.968 20.969"></polygon>
                    </g>
                    <g id="header-right-box-38" transform="translate(220.000200, 385.000000)">
                        <polygon id="Fill-1" fill="#207D46" points="0 0.0001 0 55.0001 55 0.0001"></polygon>
                        <polygon id="Fill-2" fill="#0E4E30" points="0 41.358 55 41.358 55 0 0 0"></polygon>
                        <path d="M14.9594,17.5851 C16.6684,17.5851 18.0534,18.9701 18.0534,20.6791 C18.0534,22.3881 16.6684,23.7731 14.9594,23.7731 C13.2514,23.7731 11.8664,22.3881 11.8664,20.6791 C11.8664,18.9701 13.2514,17.5851 14.9594,17.5851 Z M27.4994,17.5851 C29.2084,17.5851 30.5934,18.9701 30.5934,20.6791 C30.5934,22.3881 29.2084,23.7731 27.4994,23.7731 C25.7914,23.7731 24.4064,22.3881 24.4064,20.6791 C24.4064,18.9701 25.7914,17.5851 27.4994,17.5851 Z M40.0395,17.5851 C41.7485,17.5851 43.1335,18.9701 43.1335,20.6791 C43.1335,22.3881 41.7485,23.7731 40.0395,23.7731 C38.3315,23.7731 36.9465,22.3881 36.9465,20.6791 C36.9465,18.9701 38.3315,17.5851 40.0395,17.5851 Z" id="Combined-Shape" fill="#BA8C5F"></path>
                    </g>
                    <path d="M385.0002,495 C415.3762,495 440.0002,470.376 440.0002,440 L385.0002,440 L385.0002,495 Z" id="header-right-box-39" fill="#207D46"></path>
                </g>
                <g id="header-b-right-box" transform="translate(330.000000, 725.000000)">
                    <rect id="header-b-right-box-01" fill="#0E4E30" x="165" y="220" width="55" height="55"></rect>
                    <g id="header-b-right-box-02" transform="translate(110.000000, 220.000000)">
                        <polygon id="Fill-1" fill="#207D46" points="0.0009 0.0001 54.9999 54.9991 54.9999 0.0001"></polygon>
                        <polygon id="Fill-2" fill="#0E4E30" points="0.0009 0.0001 0.0009 55.0001 54.9999 0.0011 54.9999 0.0001"></polygon>
                    </g>
                    <g id="header-b-right-box-03" transform="translate(55.000000, 220.000000)">
                        <path d="M13.7503,27.5 C21.3443,27.5 27.5003,33.656 27.5003,41.25 C27.5003,48.844 21.3443,55 13.7503,55 C6.1563,55 0.0003,48.844 0.0003,41.25 C0.0003,33.656 6.1563,27.5 13.7503,27.5" id="Fill-1" fill="#0E4E30"></path>
                        <path d="M13.7503,0 C21.3443,0 27.5003,6.156 27.5003,13.75 C27.5003,21.344 21.3443,27.5 13.7503,27.5 C6.1563,27.5 0.0003,21.344 0.0003,13.75 C0.0003,6.156 6.1553,0 13.7503,0" id="Fill-3" fill="#BA8C5F"></path>
                        <path d="M41.2503,27.5 C48.8443,27.5 55.0003,33.656 55.0003,41.25 C55.0003,48.844 48.8443,55 41.2503,55 C33.6563,55 27.5003,48.844 27.5003,41.25 C27.5003,33.656 33.6553,27.5 41.2503,27.5" id="Fill-5" fill="#66493F"></path>
                        <path d="M41.2503,0 C48.8443,0 55.0003,6.156 55.0003,13.75 C55.0003,21.344 48.8443,27.5 41.2503,27.5 C33.6553,27.5 27.5003,21.344 27.5003,13.75 C27.5003,6.156 33.6553,0 41.2503,0" id="Fill-8" fill="#207D46"></path>
                    </g>
                    <rect id="header-b-right-box-04" fill="#0E4E30" x="55" y="165" width="55" height="55"></rect>
                    <g id="header-b-right-box-05" transform="translate(165.000000, 110.000000)">
                        <polygon id="Fill-1" fill="#BA8C5F" points="0 54.999 55 54.999 55 0 0 0"></polygon>
                        <polygon id="Fill-2" fill="#207D46" points="54.9999 0.0001 0.0009 55.0001 54.9999 55.0001"></polygon>
                    </g>
                    <g id="header-b-right-box-06" transform="translate(110.000000, 110.000000)">
                        <path d="M46.9455,8.0545 C36.2065,-2.6845 18.7945,-2.6845 8.0545,8.0545 C-2.6845,18.7935 -2.6845,36.2055 8.0545,46.9455 C18.7945,57.6845 36.2065,57.6845 46.9455,46.9455 C57.6845,36.2055 57.6845,18.7935 46.9455,8.0545" id="Fill-1" fill="#66493F"></path>
                        <polygon id="Fill-3" fill="#BA8C5F" points="35.5148 27.4978 43.5268 19.4858 35.5128 11.4728 27.5008 19.4848 19.4878 11.4718 11.4708 19.4868 19.4848 27.5008 11.4728 35.5138 19.4868 43.5268 27.4978 35.5148 35.5118 43.5278 43.5278 35.5118"></polygon>
                    </g>
                    <g id="header-b-right-box-07" transform="translate(55.000000, 110.000000)">
                        <polygon id="Fill-1" fill="#207D46" points="0 55 55 55 55 0 0 0"></polygon>
                        <g id="Group-24" transform="translate(7.000000, 9.000000)">
                            <path d="M16.2788,36.7508 C19.0618,35.0208 21.1288,33.5418 23.2188,31.5758 C25.3098,29.6098 25.6838,28.9748 29.2268,26.3778 C32.3408,24.0968 33.6948,23.3588 36.7198,21.1068 C38.3178,19.9178 39.1578,17.4288 39.7248,15.3808 C40.3348,13.1798 40.3008,11.0778 40.1398,9.5508 C40.1398,9.5508 37.8448,8.4528 37.8158,8.2058 C37.7628,7.7568 38.9008,4.8978 38.9008,4.8978 C38.2628,3.5888 36.8448,3.2128 35.6968,2.4348 C33.9458,1.2478 30.9248,1.3748 29.0858,2.3808 C26.7968,3.6328 23.4048,5.0238 21.5348,6.2928 C19.6648,7.5628 18.9798,7.2488 16.6698,7.9858 C14.3588,8.7238 8.1978,11.3038 5.5068,13.1658 L16.2788,36.7508 Z" id="Fill-2" fill="#66493F"></path>
                            <path d="M34.2456,15.6698 C31.9986,16.8088 31.1886,18.2248 29.0996,19.6308 C28.2886,20.1778 25.9836,22.2808 24.6646,23.7538 C26.2586,23.6488 28.2476,21.5338 29.4026,21.4818 C27.9646,23.4688 27.2986,23.5958 26.0206,24.6558 C24.2626,26.1178 22.3966,27.4538 20.4476,28.6498 L14.5736,30.6178 L14.9076,33.7488 L16.2776,36.7508 C19.0616,35.0208 21.1286,33.5418 23.2196,31.5758 C25.3096,29.6098 25.6836,28.9748 29.2266,26.3778 C32.3406,24.0968 33.6946,23.3588 36.7206,21.1068 C38.3176,19.9178 39.1576,17.4288 39.7246,15.3808 C39.9946,14.4068 40.1366,13.4548 40.1986,12.5628 L34.2456,15.6698 Z" id="Fill-4" fill="#0E4E30"></path>
                            <path d="M14.0278,13.6444 C15.5138,14.5964 17.2478,16.0114 18.0308,17.5124 C18.2338,17.9014 18.7408,18.6514 18.8708,19.0164 C19.3378,20.3334 19.1328,21.7594 19.1198,22.3474 C19.0358,25.9554 20.9758,26.1394 20.9748004,29.1654 C20.9728,31.7984 20.1898,33.3054 18.5588,35.2064 C17.6328,36.2874 15.9078,36.9384 14.6178,37.3394 C13.4508,37.7044 10.6908,37.5184 9.5198,37.1714 C7.9278,36.6994 7.0778,36.3054 5.7098,35.2824 C4.8788,34.6614 2.1118,32.0374 1.1468,26.7084 C0.5018,23.1374 0.5858,19.9904 1.9918,17.0584 C5.2558,10.2564 12.0628,12.3854 14.0278,13.6444" id="Fill-6" fill="#BA8C5F"></path>
                            <path d="M13.1372,16.9276 C14.1862,17.6006 15.4092,18.5996 15.9622,19.6576 C16.1062,19.9326 16.4642,20.4616 16.5552,20.7206 C16.8852,21.6506 16.7412,22.6566 16.7312,23.0726 C16.6712,25.6176 18.0412,25.7476 18.0402005,27.8846 C18.0392,29.7426 17.4872,30.8066 16.3352,32.1496 C15.6822,32.9106 14.4632,33.3706 13.5532,33.6556 C12.7292,33.9106 10.7822,33.7816 9.9542,33.5356 C8.8312,33.2016 8.2312,32.9246 7.2652,32.2016 C6.6792,31.7636 4.7252,29.9106 4.0442,26.1506 C3.5882,23.6296 3.6482,21.4076 4.6412,19.3376 C6.9442,14.5356 11.7502,16.0396 13.1372,16.9276" id="Fill-8" fill="#66493F"></path>
                            <path d="M12.2251,19.7684 C12.8881,20.2004 13.6611,20.8424 14.0101,21.5244 C14.1011,21.7014 14.3271,22.0414 14.3851,22.2074 C14.5931,22.8054 14.5011,23.4534 14.4961,23.7204 C14.4581,25.3584 15.3241,25.4424 15.3231009,26.8164 C15.3231009,28.0114 14.9731,28.6964 14.2461,29.5594 C13.8321,30.0504 13.0631,30.3454 12.4881,30.5284 C11.9671,30.6934 10.7371,30.6094 10.2151,30.4524 C9.5051,30.2374 9.1261,30.0584 8.5161,29.5934 C8.1451,29.3114 6.9121,28.1204 6.4821,25.7014 C6.1941,24.0794 6.2311,22.6504 6.8581,21.3184 C8.3131,18.2294 11.3491,19.1964 12.2251,19.7684" id="Fill-10" fill="#BA8C5F"></path>
                            <path d="M11.0737,23.4383 C11.2777,23.5703 11.5227,23.7643 11.6267,23.9793 C11.9597,24.6723 12.0517,25.3553 12.0587,25.7873 C12.0647,26.1633 11.9637,26.3783 11.7477,26.6543 C11.6247,26.8103 11.3947,26.9153 11.2197,26.9683 C10.8567,27.0773 10.2607,27.0073 9.9317,26.6213 C9.7287,26.3823 9.5077,26.0893 9.3627,25.3323 C9.2657,24.8253 9.2687,24.3753 9.4527,23.9553 C9.8767,22.9763 10.8037,23.2633 11.0737,23.4383" id="Fill-12" fill="#66493F"></path>
                            <path d="M18.8979,3.2664 C18.8069,5.0134 19.4759,5.8414 17.8499,7.5914 C17.8499,7.5914 17.8499,9.8854 20.9329,9.1894 C22.8009,8.7674 22.8749,10.4154 25.3459,9.2984 C27.2859,8.4224 28.0019,6.8774 27.6539,6.1804 C27.3059,5.4844 26.4499,4.7844 26.0709,2.4584 L18.8979,3.2664 Z" id="Fill-14" fill="#0E4E30"></path>
                            <path d="M25.2163,1.1971 C24.4873,0.7491 23.5043,0.7591 22.6733,1.0251 L21.0713,1.2921 C19.9923,1.4711 18.8823,2.2441 18.8983,3.2291 C18.9083,3.8851 19.4633,4.4481 20.1053,4.7621 C21.3313,5.3631 22.8603,5.2451 24.1683,4.8031 C24.7403,4.6101 25.3073,4.3461 25.6843,3.9151 C26.3883,3.1061 26.1603,1.7781 25.2163,1.1971" id="Fill-16" fill="#BA8C5F"></path>
                            <path d="M23.8569,1.8446 C23.4929,1.6206 23.0009,1.6246 22.5859,1.7586 L21.7849,1.8916 C21.2449,1.9816 20.6889,2.3676 20.6979,2.8606 C20.7029,3.1886 20.9799,3.4696 21.2999,3.6266 C21.9149,3.9276 22.6779,3.8676 23.3329,3.6476 C23.6189,3.5516 23.9019,3.4196 24.0899,3.2036 C24.4429,2.7986 24.3289,2.1346 23.8569,1.8446" id="Fill-18" fill="#66493F"></path>
                            <path d="M21.0766,14.9627 C21.5566,13.8117 23.0836,13.2067 23.0836,13.2067 C23.0836,13.2067 21.9916,12.7417 19.9286,13.2067 C17.8646,13.6717 15.3636,14.5887 15.3636,14.5887 C15.3306,15.5077 15.2776,16.5777 15.4096,17.4607 C15.5396,18.3367 14.8116,17.5027 14.9786,18.9847 C15.0556,19.6547 15.1236,22.8887 15.7926,22.8887 L17.9666,17.5067 C18.2366,17.4307 20.5976,16.1127 21.0766,14.9627" id="Fill-20" fill="#0E4E30"></path>
                            <path d="M40.1215,9.5526 L38.3265,8.2056 C38.3265,8.2056 38.6655,5.8566 38.9005,4.8986 L38.3875,5.4506 C34.6975,7.7296 30.9915,10.5396 28.0495,12.9996 C33.0325,12.5466 36.4245,10.1446 40.1215,9.5526" id="Fill-22" fill="#0E4E30"></path>
                        </g>
                    </g>
                    <rect id="header-b-right-box-08" fill="#0E4E30" x="0" y="110" width="55" height="55"></rect>
                    <polygon id="header-b-right-box-09" fill="#0E4E30" points="55 55 55 110 110 110 110 109.999"></polygon>
                    <path d="M164.9998,109.9996 C195.3758,109.9996 219.9998,85.3756 219.9998,54.9996 L164.9998,54.9996 L164.9998,109.9996 Z" id="header-b-right-box-10" fill="#207D46"></path>
                    <rect id="header-b-right-box-11" fill="#0E4E30" x="110" y="0" width="55" height="55"></rect>
                </g>
            </g>
        </g>
    </g>
</svg>