<?xml version="1.0" encoding="utf-8"?>
<!-- Generator: Adobe Illustrator 25.1.0, SVG Export Plug-In . SVG Version: 6.00 Build 0)  -->
<svg version="1.1" id="레이어_1" xmlns="http://www.w3.org/2000/svg" xmlns:xlink="http://www.w3.org/1999/xlink" x="0px"
	 y="0px" viewBox="0 0 684 106" style="enable-background:new 0 0 684 106;" xml:space="preserve">
<style type="text/css">
	.st0{enable-background:new    ;}
	.st1{fill:#FFFFFF;}
</style>
<g id="Page-1">
	<g id="header" transform="translate(-618.000000, -234.000000)">
		<g id="Group" transform="translate(618.000000, 234.000000)">
			<g class="st0">
				<path class="st1" d="M55.7,13.1l-9.8,30.1h-7l-6-18.4l-6,18.4h-7L10,13.1h7.9l5.6,18.6l6.3-18.6H36l6.3,18.6l5.6-18.6H55.7z"/>
				<path class="st1" d="M76.1,34H60.6c0.5,2.2,1.9,3.9,4.8,3.9c1.6,0,2.5-0.4,3.2-1.1h7.2c-1.3,4.2-5.2,6.8-10.3,6.8
					c-7,0-11.7-4.8-11.7-11.3s4.5-11.2,11.1-11.2c6.4,0,11.1,4,11.1,10.5C76.2,32.4,76.2,33.2,76.1,34z M60.7,29.9h8.8
					c-0.4-2.5-1.9-3.6-4.3-3.6C62.8,26.4,61.3,27.8,60.7,29.9z"/>
				<path class="st1" d="M127.4,30.8V43h-7.1V32c0-3-1.5-4.4-3.8-4.4c-1.1,0-2.2,0.4-3.3,1.7c0,0.5,0.1,1,0.1,1.5V43h-7.1V32
					c0-3-1.5-4.4-3.8-4.4c-1.1,0-2.2,0.5-3.2,1.8V43H92V21.7h7.2v1.2c1.4-1.2,2.9-1.8,5.2-1.8c2.7,0,5,1,6.6,2.8
					c2.3-2,4.4-2.8,7.6-2.8C123.7,21.1,127.4,24.7,127.4,30.8z"/>
				<path class="st1" d="M154.4,21.7V43h-7.2v-1.1c-1.6,1.1-3.5,1.7-5.9,1.7c-5.8,0-10.6-4.9-10.6-11.3s4.8-11.2,10.6-11.2
					c2.4,0,4.3,0.6,5.9,1.7v-1.1C147.2,21.7,154.4,21.7,154.4,21.7z M147.2,35.6V29c-1.4-1.5-2.9-1.9-4.4-1.9
					c-2.9,0-5.1,2.2-5.1,5.2s2.2,5.2,5.1,5.2C144.4,37.5,145.9,37.1,147.2,35.6z"/>
				<path class="st1" d="M169.4,35.6l-2.9,3.2V43h-7.2V11.8h7.2v17.9l7.4-8h8.5l-8.1,8.7L183,43h-8.5L169.4,35.6z"/>
				<path class="st1" d="M205.1,34h-15.4c0.5,2.2,1.9,3.9,4.8,3.9c1.6,0,2.5-0.4,3.2-1.1h7.2c-1.3,4.2-5.2,6.8-10.3,6.8
					c-7,0-11.7-4.8-11.7-11.3s4.5-11.2,11.1-11.2c6.4,0,11.1,4,11.1,10.5C205.2,32.4,205.2,33.2,205.1,34z M189.8,29.9h8.8
					c-0.4-2.5-1.9-3.6-4.3-3.6C191.9,26.4,190.4,27.8,189.8,29.9z"/>
				<path class="st1" d="M245.9,24c0,7-5.1,11.4-13.2,11.4h-4V43h-7.5V13.1h12.1C241.1,13.1,245.9,17.3,245.9,24z M238.6,24
					c0-2.7-2.2-4.4-5.4-4.4h-4.5v9.3h4.5C236.4,28.9,238.6,27,238.6,24z"/>
				<path class="st1" d="M271.2,36.4V43h-22.2V13.1h7.4v23.3H271.2z"/>
				<path class="st1" d="M295.2,37.9h-12.7l-2,5.1h-7.9l12.7-29.9h7.1L305.2,43h-8L295.2,37.9z M292.9,31.6L289,21.5l-3.9,10.1
					H292.9z"/>
				<path class="st1" d="M331.2,13.1L319.5,34v9H312v-9l-11.8-20.9h8.2l7.3,13l7.3-13H331.2z"/>
				<path class="st1" d="M369.4,32.4c0,6.4-4.8,11.2-10.6,11.2c-2.3,0-4.2-0.6-5.8-1.6v1h-7.2V11.8h7.2v11c1.6-1,3.5-1.6,5.8-1.6
					C364.5,21.2,369.4,26,369.4,32.4z M362.4,32.4c0-2.9-2.1-5.1-5-5.1c-1.5,0-3.1,0.4-4.4,1.8v6.7c1.3,1.5,2.9,1.8,4.4,1.8
					C360.2,37.6,362.4,35.3,362.4,32.4z"/>
				<path class="st1" d="M394.4,34H379c0.5,2.2,1.9,3.9,4.8,3.9c1.6,0,2.5-0.4,3.2-1.1h7.2c-1.3,4.2-5.2,6.8-10.3,6.8
					c-7,0-11.7-4.8-11.7-11.3s4.5-11.2,11.1-11.2c6.4,0,11.1,4,11.1,10.5C394.5,32.4,394.5,33.2,394.4,34z M379,29.9h8.8
					c-0.4-2.5-1.9-3.6-4.3-3.6C381,26.4,379.6,27.8,379,29.9z"/>
				<path class="st1" d="M413.4,34.2h6.7c-0.5,5.5-5.1,9.3-11,9.3c-6.7,0-11.7-4.7-11.7-11.2s5-11.2,11.7-11.2
					c5.9,0,10.4,3.8,11,9.3h-6.7c-0.4-1.9-2-3.3-4.2-3.3c-3.1,0-4.9,2.3-4.9,5.2s1.8,5.2,4.9,5.2C411.2,37.5,413,36.2,413.4,34.2z"
					/>
				<path class="st1" d="M446.4,32.3c0,6.5-5,11.3-11.7,11.3c-6.8,0-11.8-4.8-11.8-11.3c0-6.4,5-11.2,11.8-11.2
					C441.5,21.1,446.4,25.9,446.4,32.3z M439.6,32.4c0-2.9-2-5.2-4.9-5.2c-3,0-5,2.3-5,5.2c0,3,2,5.2,5,5.2
					C437.6,37.5,439.6,35.3,439.6,32.4z"/>
				<path class="st1" d="M485.2,30.8V43h-7.1V32c0-3-1.5-4.4-3.8-4.4c-1.1,0-2.2,0.4-3.3,1.7c0,0.5,0.1,1,0.1,1.5V43h-7.1V32
					c0-3-1.5-4.4-3.8-4.4c-1.1,0-2.2,0.5-3.2,1.8V43h-7.2V21.7h7.2v1.2c1.4-1.2,2.9-1.8,5.2-1.8c2.7,0,5,1,6.6,2.8
					c2.3-2,4.4-2.8,7.6-2.8C481.5,21.1,485.2,24.7,485.2,30.8z"/>
				<path class="st1" d="M510.9,34h-15.4c0.5,2.2,1.9,3.9,4.8,3.9c1.6,0,2.5-0.4,3.2-1.1h7.2c-1.3,4.2-5.2,6.8-10.3,6.8
					c-7,0-11.7-4.8-11.7-11.3s4.5-11.2,11.1-11.2c6.4,0,11.1,4,11.1,10.5C511,32.4,511,33.2,510.9,34z M495.5,29.9h8.8
					c-0.4-2.5-1.9-3.6-4.3-3.6C497.5,26.4,496,27.8,495.5,29.9z"/>
				<path class="st1" d="M552,22.4h-7.5c-0.4-2.2-1.8-3.8-4.9-3.8c-2.6,0-4.4,1-4.4,2.9c0,1.7,1.2,2.5,3.6,2.9l4.2,0.9
					c5.5,1.1,9,3.4,9,8.5c0,6-4.9,9.7-12.4,9.7c-6.7,0-12.8-3.2-13.5-10.6h7.5c0.5,2.6,2.7,4.3,6.2,4.3c2.6,0,4.2-1,4.2-2.7
					c0-1.1-0.6-2.2-3.2-2.6l-4.9-1.1c-5.9-1.3-8.7-4-8.7-8.7c0-6,4.8-9.7,11.9-9.7C544,12.5,551.2,14.3,552,22.4z"/>
				<path class="st1" d="M580.3,19.7h-9.5V43h-7.4V19.7h-9.5v-6.6h26.5L580.3,19.7L580.3,19.7z"/>
				<path class="st1" d="M612.8,28c0,8.7-6.8,15.5-15.8,15.5s-15.8-6.8-15.8-15.5S588,12.5,597,12.5S612.8,19.3,612.8,28z M605.2,28
					c0-4.7-3.5-8.6-8.3-8.6s-8.3,3.9-8.3,8.6s3.5,8.6,8.3,8.6S605.2,32.7,605.2,28z"/>
				<path class="st1" d="M636.2,43l-5.7-8.7l0,0h-5.6V43h-7.4V13.1h13.1c7.4,0,12.4,4,12.4,10.5c0,3.9-1.9,7.1-5.1,8.9l7,10.5H636.2
					z M624.8,27.6h5.5c2.9,0,5.1-1.6,5.1-4s-2.2-4-5.1-4h-5.5V27.6z"/>
				<path class="st1" d="M674,13.1L662.2,34v9h-7.5v-9l-11.8-20.9h8.2l7.3,13l7.3-13H674z"/>
			</g>
			<g class="st0">
				<path class="st1" d="M128.9,61.8V93h-2.1v-2.7c-1.9,2.1-4.6,3.3-7.8,3.3c-5.9,0-10.6-4.7-10.6-10.6s4.7-10.6,10.6-10.6
					c3.2,0,5.9,1.2,7.8,3.2V61.8H128.9z M126.8,87.5v-9.2c-1.8-2.6-4.5-4-7.6-4c-4.8,0-8.6,3.8-8.6,8.6c0,4.8,3.7,8.6,8.6,8.6
					C122.3,91.5,125,90.2,126.8,87.5z"/>
				<path class="st1" d="M154.4,83.6l-0.2-0.1v0.1h-17.7c0.3,4.4,3.4,8,8.2,8c3.1,0,5.5-1.2,6.5-3.4h2.4c-1.2,3.3-4.6,5.3-8.9,5.3
					c-6.1,0-10.4-4.7-10.4-10.6s4.3-10.6,10.3-10.6c5.9,0,9.8,4.4,9.9,10.5C154.6,83.1,154.6,83.4,154.4,83.6z M136.6,82h15.8
					c-0.4-4.6-3.3-7.7-7.7-7.7C140.1,74.3,136.9,77.6,136.6,82z"/>
				<path class="st1" d="M177.4,72.9L167.8,93h-2.1l-9.7-20.1h2.3l8.4,17.4l8.4-17.4H177.4z"/>
				<path class="st1" d="M207.6,82.9h2.3c-1.5,6.3-6.9,10.7-14.1,10.7c-8.6,0-15.5-6.9-15.5-15.6c0-8.8,6.9-15.5,15.5-15.5
					c7.2,0,12.6,4.3,14.1,10.6h-2.3c-1.3-5.1-5.7-8.5-11.7-8.5c-7.4,0-13.3,5.9-13.3,13.4s5.9,13.5,13.3,13.5
					C201.9,91.5,206.4,88,207.6,82.9z"/>
				<path class="st1" d="M234.1,83.5h-16.2l-4.4,9.5h-2.4L225,63.1h2.2L240.9,93h-2.4L234.1,83.5z M233.2,81.5l-7.2-15.8l-7.2,15.8
					H233.2z"/>
				<path class="st1" d="M263.8,65.1h-11.5V93h-2.2V65.1h-11.5v-2h25.1v2H263.8z"/>
				<path class="st1" d="M307.2,93H305V67.8l-11.1,18.8h-1.7l-11.1-18.9V93h-2.2V63.1h1.8L293,84l12.3-20.9h1.8V93H307.2z"/>
				<path class="st1" d="M333.6,72.9V93h-2.1v-2.7c-1.9,2-4.6,3.2-7.8,3.2c-5.9,0-10.6-4.7-10.6-10.6s4.7-10.6,10.6-10.6
					c3.2,0,5.9,1.2,7.8,3.3v-2.7C331.5,72.9,333.6,72.9,333.6,72.9z M331.5,87.6v-9.2c-1.8-2.6-4.5-4-7.6-4c-4.8,0-8.6,3.9-8.6,8.6
					c0,4.8,3.7,8.6,8.6,8.6C327,91.5,329.8,90.2,331.5,87.6z"/>
				<path class="st1" d="M360.6,82.9c0,5.9-4.7,10.6-10.6,10.6c-3.2,0-5.9-1.2-7.8-3.3V93h-2.1V61.8h2.1v13.8c1.9-2,4.6-3.2,7.8-3.2
					C356,72.4,360.6,77,360.6,82.9z M358.5,82.9c0-4.8-3.7-8.6-8.6-8.6c-3.1,0-5.8,1.3-7.6,4v9.2c1.8,2.6,4.5,4,7.6,4
					C354.6,91.5,358.5,87.7,358.5,82.9z"/>
				<path class="st1" d="M365.6,65.1c0-0.9,0.7-1.6,1.6-1.6s1.6,0.7,1.6,1.6s-0.7,1.6-1.6,1.6S365.6,66,365.6,65.1z M368.4,72.9V93
					h-2.1V72.9H368.4z"/>
				<path class="st1" d="M394,81.2V93h-2.1V81.2c0-4.5-2.7-6.9-6.6-6.9c-2.9,0-5.9,1.4-7.7,4V93h-2.1V72.9h2.1v2.7
					c1.9-2.1,4.8-3.3,8-3.3C390.5,72.4,394,75.6,394,81.2z"/>
				<path class="st1" d="M419.6,83c0,6-4.7,10.6-10.6,10.6c-6,0-10.7-4.6-10.7-10.6s4.8-10.6,10.7-10.6S419.6,77,419.6,83z
					 M417.5,83c0-4.8-3.7-8.6-8.5-8.6s-8.5,3.8-8.5,8.6s3.7,8.6,8.5,8.6C413.8,91.5,417.5,87.8,417.5,83z"/>
				<path class="st1" d="M444.1,72.9v21.6c0,5.7-3.9,9.2-9.9,9.2c-5.4,0-9.3-2.9-10.1-7.1h2.2c0.7,3,3.6,5.1,7.8,5.1
					c4.7,0,7.8-2.7,7.8-7.2V90c-2,2-4.9,3.2-8.1,3.2c-5.8,0-10.2-4.6-10.2-10.3c0-5.9,4.4-10.5,10.2-10.5c3.3,0,6.1,1.2,8.1,3.3V73
					L444.1,72.9L444.1,72.9z M442,87.2v-8.9c-1.8-2.7-4.8-4.1-7.9-4.1c-4.8,0-8.2,3.8-8.2,8.6c0,4.6,3.4,8.4,8.2,8.4
					C437.2,91.3,440.1,89.9,442,87.2z"/>
				<path class="st1" d="M450.6,65.1c0-0.9,0.7-1.6,1.6-1.6s1.6,0.7,1.6,1.6s-0.7,1.6-1.6,1.6S450.6,66,450.6,65.1z M453.4,72.9V93
					h-2.1V72.9H453.4z"/>
				<path class="st1" d="M500,93h-2.2V67.8l-11.1,18.8H485l-11.1-18.9V93h-2.2V63.1h1.8L486,84l12.3-20.9h1.8V93z"/>
				<path class="st1" d="M527.5,83c0,6-4.7,10.6-10.6,10.6c-6,0-10.7-4.6-10.7-10.6s4.8-10.6,10.7-10.6
					C522.8,72.4,527.5,77,527.5,83z M525.2,83c0-4.8-3.7-8.6-8.5-8.6s-8.5,3.8-8.5,8.6s3.7,8.6,8.5,8.6
					C521.5,91.5,525.2,87.8,525.2,83z"/>
				<path class="st1" d="M553.2,82.9c0,5.9-4.7,10.6-10.6,10.6c-3.2,0-5.9-1.2-7.8-3.3V93h-2.1V61.8h2.1v13.8c1.9-2,4.6-3.2,7.8-3.2
					C548.5,72.4,553.2,77,553.2,82.9z M551,82.9c0-4.8-3.7-8.6-8.6-8.6c-3.1,0-5.8,1.3-7.6,4v9.2c1.8,2.6,4.5,4,7.6,4
					C547.2,91.5,551,87.7,551,82.9z"/>
				<path class="st1" d="M558.2,65.1c0-0.9,0.7-1.6,1.6-1.6s1.6,0.7,1.6,1.6s-0.7,1.6-1.6,1.6S558.2,66,558.2,65.1z M560.8,72.9V93
					h-2.2V72.9H560.8z"/>
				<path class="st1" d="M570,61.8V93H568V61.8H570z"/>
				<path class="st1" d="M595.5,83.6l-0.2-0.1v0.1h-17.7c0.3,4.4,3.4,8,8.2,8c3.1,0,5.5-1.2,6.5-3.4h2.4c-1.2,3.3-4.6,5.3-8.9,5.3
					c-6.1,0-10.4-4.7-10.4-10.6s4.3-10.6,10.3-10.6c5.9,0,9.8,4.4,9.9,10.5C595.5,83.1,595.5,83.4,595.5,83.6z M577.7,82h15.8
					c-0.4-4.6-3.3-7.7-7.7-7.7C581.2,74.3,578,77.6,577.7,82z"/>
			</g>
		</g>
	</g>
</g>
</svg>
