<?xml version="1.0" encoding="UTF-8"?>
<svg width="480px" height="280px" viewBox="0 0 480 280" version="1.1" xmlns="http://www.w3.org/2000/svg" xmlns:xlink="http://www.w3.org/1999/xlink">
    <title>header-m-top</title>
    <defs>
        <polygon id="path-1" points="0 40 40 40 40 0 0 0"></polygon>
    </defs>
    <g id="Page-1" stroke="none" stroke-width="1" fill="none" fill-rule="evenodd">
        <g id="header-480x770" transform="translate(0.000000, -120.000000)">
            <g id="header-m-top" transform="translate(0.000000, 120.000000)">
                <g id="header-left-box-02" transform="translate(120.000000, 0.000000)">
                    <polygon id="Fill-1" fill="#207D46" points="0 40 40 40 40 0 0 0"></polygon>
                    <polygon id="Fill-2" fill="#66493F" points="27.0946909 9.92203636 27.0946909 13.6500364 24.9470545 11.2267636"></polygon>
                    <path d="M32.8525091,19.0477818 L33.9514182,17.0565091 C33.9514182,17.0565091 33.9114182,24.0943273 33.9114182,24.5816 C33.9114182,25.5496 33.7841455,26.1881455 33.4619636,26.7081455 C33.2306909,27.0826909 32.6488727,27.6979636 32.6488727,27.6979636 L32.8525091,19.0477818 Z" id="Fill-3" fill="#0E4E30"></path>
                    <path d="M6.12414545,20.3304 C6.12414545,20.3304 6.66014545,27.5333091 6.66014545,28.4584 C6.66014545,29.3820364 6.87614545,29.3056727 7.45214545,29.3056727 C8.02741818,29.3056727 30.5554182,28.0009455 31.7786909,27.9231273 C33.0026909,27.8467636 32.8725091,27.3311273 32.8434182,26.6147636 C32.8201455,26.0147636 32.8521455,19.0474909 32.8521455,19.0474909 L6.12414545,20.3304 Z" id="Fill-5" fill="#66493F"></path>
                    <path d="M32.5083636,19.0434909 C22.8472727,19.5038545 14.8814545,19.9547636 6.72,20.4107636 C6.08290909,20.4464 5.71854545,20.0253091 6.46254545,19.5133091 C12.0683636,15.6594909 17.0712727,12.2027636 23.2094545,8.86312727 C23.2094545,8.86312727 24.296,8.44203636 25.624,9.08494545 C26.0501818,9.29076364 26.4930909,9.53149091 26.9592727,9.77149091 C27.5018182,10.0514909 26.2887273,10.3627636 26.1352727,11.2507636 C25.9396364,12.3860364 26.9258182,13.1700364 28.3352727,13.0747636 C29.6123636,12.9882182 30.5723636,12.1358545 31.0821818,12.5882182 C32.4458182,13.7998545 33.5367273,15.1860364 33.9112727,16.6980364 C34.1490909,17.6609455 33.2821818,19.0064 32.5083636,19.0434909" id="Fill-7" fill="#BA8C5F"></path>
                    <path d="M12.5498909,20.0484364 C12.5498909,20.0484364 12.9426182,18.8557091 14.0138909,18.4389818 C15.0851636,18.0222545 16.0720727,18.0491636 16.8146182,18.7109818 C17.2589818,19.1073455 17.2582545,19.8608 17.2582545,19.8608 C17.2582545,19.8608 17.2582545,21.2048 16.4633455,21.8637091 C15.8117091,22.4033455 14.5651636,22.8215273 13.6931636,22.2957091 C12.3811636,21.5022545 12.5498909,20.0484364 12.5498909,20.0484364" id="Fill-9" fill="#0E4E30"></path>
                    <path d="M27.6141818,22.1628364 C28.0956364,22.5235636 28.492,23.0959273 28.4789091,23.6864727 C28.4658182,24.2762909 28.1741818,24.9955636 27.7989091,25.4595636 C27.4643636,25.8748364 27.0410909,25.9977455 26.5232727,26.1555636 C25.9181818,26.3395636 25.228,26.2013818 24.7218182,25.8297455 C24.2163636,25.4581091 23.8985455,24.8697455 23.8221818,24.2588364 C23.6410909,22.8079273 25.0141818,21.9344727 26.1450909,21.7999273 C26.668,21.7373818 27.1167273,21.7904727 27.6141818,22.1628364" id="Fill-11" fill="#0E4E30"></path>
                    <path d="M20.3531636,12.1613818 C21.1582545,12.0493818 22.1771636,12.2995636 22.4586182,13.0624727 C22.7393455,13.8253818 22.0077091,15.6137455 19.6404364,15.9402909 C18.1109818,16.1512 17.5138909,15.4355636 17.4164364,14.8173818 C17.1858909,13.3613818 19.1269818,12.3315636 20.3531636,12.1613818" id="Fill-13" fill="#66493F"></path>
                    <path d="M29.6536,15.1570909 C30.1445091,15.3505455 30.4463273,15.7425455 30.4085091,16.2683636 C30.3706909,16.7949091 29.7234182,17.9134545 28.1394182,18.0574545 C27.4208727,18.1229091 26.5488727,17.9221818 26.3925091,17.2174545 C26.2492364,16.5781818 26.6317818,16.0465455 27.1379636,15.6298182 C27.5517818,15.2894545 28.8230545,14.8312727 29.6536,15.1570909" id="Fill-15" fill="#66493F"></path>
                    <path d="M12.5158545,24.3261818 C13.2911273,25.0381818 13.2082182,26.0781818 12.6271273,26.7443636 C12.0460364,27.4098182 11.0009455,27.6396364 10.2162182,27.2309091 C9.43221818,26.8236364 8.96458182,25.7654545 9.35585455,24.9734545 C10.0780364,23.5109091 11.6533091,23.5341818 12.5158545,24.3261818" id="Fill-17" fill="#0E4E30"></path>
                </g>
                <rect id="header-left-box-03" fill="#BA8C5F" x="200" y="1.42108547e-14" width="40" height="40"></rect>
                <rect id="header-left-box-03-copy" fill="#207D46" x="400" y="1.42108547e-14" width="40" height="40"></rect>
                <rect id="header-left-box-03-copy-3" fill="#0E4E30" x="320" y="160" width="40" height="40"></rect>
                <rect id="header-left-box-03-copy-6" fill="#0E4E30" x="280" y="120" width="40" height="40"></rect>
                <rect id="header-left-box-03-copy-5" fill="#0E4E30" x="400" y="120" width="40" height="40"></rect>
                <rect id="header-left-box-03-copy-4" fill="#BA8C5F" x="320" y="120" width="40" height="40"></rect>
                <g id="header-left-box-04" transform="translate(240.000000, 0.000000)">
                    <polygon id="Fill-1" fill="#0E4E30" points="0 40 40 40 40 0 0 0"></polygon>
                    <polygon id="Fill-2" fill="#BA8C5F" points="9.66363636 18.8034182 20.7930909 20.1823273 30.9596364 8.08487273 20.9130909 7.38887273"></polygon>
                    <polygon id="Fill-3" fill="#207D46" points="9.66363636 18.8034182 6.19818182 28.4456 22.3756364 30.3765091 20.7930909 20.1823273"></polygon>
                    <polygon id="Fill-4" fill="#66493F" points="20.7932364 20.1826909 22.3757818 30.3768727 34.4237818 14.9325091 30.9597818 8.08450909"></polygon>
                    <polygon id="Fill-5" fill="#0E4E30" points="27.9864 11.7785455 26.7187636 23.2425455 28.9907636 20.3109091 30.2765818 8.95963636"></polygon>
                    <polygon id="Fill-6" fill="#0E4E30" points="31.3145455 8.7864 30.1843636 18.8911273 31.2389091 17.5325818 32.1269091 10.3922182"></polygon>
                </g>
                <g id="header-left-box-06" transform="translate(0.000000, 80.000000)">
                    <polygon id="Fill-1" fill="#207D46" points="0 40 40 40 40 0 0 0"></polygon>
                    <path d="M25.9429818,34.8725818 L14.4717091,34.8725818 C14.0360727,34.8725818 11.6644364,32.6434909 11.6644364,32.2078545 L11.6644364,8.17367273 C11.6644364,7.73803636 14.7262545,6.91621818 15.1618909,6.91621818 L24.7349818,6.91621818 C25.1706182,6.91621818 28.3357091,7.73803636 28.3357091,8.17367273 L28.3357091,32.5824 C28.3357091,33.0173091 26.3786182,34.8725818 25.9429818,34.8725818" id="Fill-2" fill="#66493F"></path>
                    <path d="M28.3354182,9.70778182 L28.3354182,6.7456 C28.3354182,5.85178182 27.6110545,5.12741818 26.7172364,5.12741818 L13.2823273,5.12741818 C12.3892364,5.12741818 11.6648727,5.85178182 11.6648727,6.7456 L11.6648727,9.70778182 L28.3354182,9.70778182 Z" id="Fill-4" fill="#BA8C5F"></path>
                    <path d="M11.6645818,30.2915636 L11.6645818,33.2537455 C11.6645818,34.1482909 12.3889455,34.8726545 13.2827636,34.8726545 L26.7176727,34.8726545 C27.6107636,34.8726545 28.3351273,34.1482909 28.3351273,33.2537455 L28.3351273,30.2915636 L11.6645818,30.2915636 Z" id="Fill-6" fill="#BA8C5F"></path>
                    <path d="M21.1660364,32.5856 C21.1660364,33.2306909 20.6424,33.7536 19.9973091,33.7536 C19.3522182,33.7536 18.8293091,33.2306909 18.8293091,32.5856 C18.8293091,31.9397818 19.3522182,31.4176 19.9973091,31.4176 C20.6424,31.4176 21.1660364,31.9397818 21.1660364,32.5856" id="Fill-8" fill="#66493F"></path>
                    <path d="M22.0637091,6.91585455 C22.0397091,6.91585455 22.0164364,6.92021818 21.9931636,6.92312727 C21.9822545,6.91876364 21.9706182,6.91585455 21.9575273,6.91585455 L18.0353455,6.91585455 C18.0229818,6.91585455 18.0113455,6.91876364 18.0004364,6.92312727 C17.9771636,6.92021818 17.9538909,6.91585455 17.9298909,6.91585455 C17.5822545,6.91585455 17.3008,7.19730909 17.3008,7.54421818 C17.3008,7.89185455 17.5822545,8.17330909 17.9298909,8.17330909 C17.9538909,8.17330909 17.9771636,8.16967273 18.0004364,8.16676364 C18.0113455,8.17112727 18.0229818,8.17330909 18.0353455,8.17330909 L21.9575273,8.17330909 C21.9706182,8.17330909 21.9822545,8.17112727 21.9931636,8.16676364 C22.0164364,8.16967273 22.0397091,8.17330909 22.0637091,8.17330909 C22.4113455,8.17330909 22.6928,7.89185455 22.6928,7.54421818 C22.6928,7.19730909 22.4113455,6.91585455 22.0637091,6.91585455" id="Fill-10" fill="#66493F"></path>
                </g>
                <polygon id="header-left-box-07" fill="#0E4E30" transform="translate(140.000000, 60.000000) rotate(-270.000000) translate(-140.000000, -60.000000) " points="120 40 160 80 160 40"></polygon>
                <g id="header-left-box-08" transform="translate(120.000000, 80.000000)">
                    <polygon id="Fill-1" points="0 40 40 40 40 0 0 0"></polygon>
                    <polygon id="Fill-2" fill="#BA8C5F" points="20.0003276 29.8181818 10.1818182 20.0003276 20.0003276 10.1818182 29.8181818 20.0003276"></polygon>
                </g>
                <g id="header-left-box-10" transform="translate(160.000000, 40.000000)">
                    <polygon id="Fill-1" fill="#207D46" points="0 40 40 40 40 0 0 0"></polygon>
                    <path d="M40,20 C40,31.0453333 31.0453333,40 20,40 C8.954,40 0,31.0453333 0,20 C0,8.954 8.954,0 20,0 C31.0453333,0 40,8.954 40,20" id="Fill-2" fill="#0E4E30"></path>
                    <polygon id="Fill-5" fill="#207D46" points="12.3636364 27.6363636 27.6363636 27.6363636 27.6363636 12.3636364 12.3636364 12.3636364"></polygon>
                </g>
                <g id="header-left-box-11" transform="translate(200.000000, 40.000000)">
                    <polygon id="Fill-1" fill="#0E4E30" points="0 40 40 40 40 0 0 0"></polygon>
                    <g id="Group-6" transform="translate(7.272727, 5.818182)">
                        <path d="M3.68967273,23.5040727 C5.90712727,24.6568 10.9929455,23.8408 9.56603636,23.0509818 C8.4744,22.4466182 7.82858182,21.7658909 7.70785455,21.1338909 C7.61549091,20.6531636 7.85185455,20.4851636 7.85185455,20.4851636 C8.88458182,20.6684364 10.0154909,21.3477091 11.1827636,21.4808 C12.0511273,21.5797091 12.4940364,21.4313455 13.0889455,20.9557091 C14.0104,20.2182545 16.0613091,17.9098909 18.1013091,15.2931636 C18.6460364,14.5942545 17.9224,14.6262545 17.2089455,14.5695273 C15.7260364,14.4502545 15.2322182,13.7477091 15.0271273,13.1491636 C14.8220364,12.5498909 15.2424,12.5368 15.2424,12.5368 C16.1725818,12.6589818 18.6591273,12.5280727 19.5973091,12.5040727 C19.7696727,12.4989818 19.9485818,12.4902545 20.1020364,12.4117091 C20.3427636,12.2880727 20.4693091,12.0211636 20.5769455,11.7724364 C20.8111273,11.2298909 22.1129455,9.14261818 22.0700364,8.45098182 C22.0540364,8.19352727 19.3885818,9.16734545 18.7893091,8.70189091 C18.4576727,8.44443636 18.5660364,8.12952727 18.5813091,8.0088 C18.7013091,7.02916364 22.4845818,7.48007273 22.8751273,6.46261818 C23.4031273,5.08952727 24.4358545,3.33389091 25.9369455,1.85970909 C27.3740364,0.449527273 24.9398545,0.560072727 23.6176727,0.549163636 C21.1056727,0.528072727 18.6954909,0.6328 15.3027636,1.6728 C14.0424,2.05970909 12.8874909,2.51643636 11.8678545,3.35134545 C11.3616727,3.76516364 11.3398545,5.30334545 11.0554909,6.2488 C10.7711273,7.19570909 10.1064,8.18189091 9.12021818,8.24807273 C8.90349091,7.45098182 9.17185455,5.90552727 9.24894545,4.90843636 C9.30785455,4.13970909 5.70058182,7.22625455 5.2184,8.58189091 C4.56021818,10.4313455 5.53985455,12.2822545 5.37549091,14.2386182 C4.76458182,14.8211636 3.73476364,12.5026182 2.95221818,12.2095273 C2.64458182,12.0946182 2.06058182,13.4553455 1.91149091,13.8197091 C0.9864,16.0742545 0.670036364,19.7738909 2.44385455,22.7906182 L3.68967273,23.5040727 Z" id="Fill-2" fill="#BA8C5F"></path>
                        <path d="M14.4372364,8.56021818 C10.7194182,12.3347636 4.56014545,20.9049455 3.40450909,26.0751273 C3.29905455,26.5471273 3.19287273,27.0329455 2.92523636,27.4365818 C2.45105455,28.1522182 1.48450909,28.5565818 0.668509091,28.8256727 C-0.146763636,29.0954909 0.1776,27.8482182 0.226327273,27.4976727 C1.26778182,20.0758545 9.52596364,10.5507636 15.3470545,6.28894545 C16.5783273,5.38785455 16.9492364,6.15003636 16.3652364,6.75076364 C15.7819636,7.35149091 15.4074182,7.57476364 14.4372364,8.56021818" id="Fill-4" fill="#66493F"></path>
                    </g>
                </g>
                <g id="header-left-box-12" transform="translate(240.000000, 40.000000)" fill="#207D46">
                    <circle id="Oval" cx="6.66666667" cy="6.66666667" r="6.66666667"></circle>
                    <circle id="Oval-Copy-3" cx="6.66666667" cy="20" r="6.66666667"></circle>
                    <circle id="Oval-Copy-6" cx="6.66666667" cy="33.3333333" r="6.66666667"></circle>
                    <circle id="Oval-Copy" cx="20" cy="6.66666667" r="6.66666667"></circle>
                    <circle id="Oval-Copy-4" cx="20" cy="20" r="6.66666667"></circle>
                    <circle id="Oval-Copy-7" cx="20" cy="33.3333333" r="6.66666667"></circle>
                    <circle id="Oval-Copy-2" cx="33.3333333" cy="6.66666667" r="6.66666667"></circle>
                    <circle id="Oval-Copy-5" cx="33.3333333" cy="20" r="6.66666667"></circle>
                    <circle id="Oval-Copy-8" cx="33.3333333" cy="33.3333333" r="6.66666667"></circle>
                </g>
                <g id="header-left-box-13" transform="translate(260.000000, 100.000000) rotate(-270.000000) translate(-260.000000, -100.000000) translate(240.000000, 80.000000)">
                    <polygon id="Fill-1" fill="#BA8C5F" points="0 40 40 40 40 0 0 0"></polygon>
                    <polygon id="Fill-2" fill="#207D46" points="0 0 40 40 40 0"></polygon>
                    <polygon id="Fill-3" fill="#0E4E30" points="0 0 0 40 40 0"></polygon>
                </g>
                <g id="header-left-box-14" transform="translate(40.000000, 80.000000)">
                    <path d="M40,20 C40,31.0453333 31.0453333,40 20,40 C8.95466667,40 0,31.0453333 0,20 C0,8.95466667 8.95466667,0 20,0 C31.0453333,0 40,8.95466667 40,20" id="Fill-1" fill="#0E4E30"></path>
                    <path d="M27.6363636,20 C27.6363636,24.2173091 24.2173091,27.6363636 20,27.6363636 C15.7826909,27.6363636 12.3636364,24.2173091 12.3636364,20 C12.3636364,15.7826909 15.7826909,12.3636364 20,12.3636364 C24.2173091,12.3636364 27.6363636,15.7826909 27.6363636,20" id="Fill-4" fill="#207D46"></path>
                </g>
                <g id="header-left-box-15" transform="translate(80.000000, 80.000000)" fill="#207D46">
                    <path d="M24,40 L16,40 L16,32 L24,32 L24,24 L32,24 L32,16 L40,16 L40,24 L32,24 L32,31.999 L40,32 L40,40 L32,40 L31.999,32 L24,32 L24,40 Z M8,32 L8,40 L0,40 L0,32 L8,32 Z M24,16 L24,24 L16,24 L16,16 L24,16 Z M8,16 L8,24 L0,24 L0,16 L8,16 Z M16,8 L16,16 L8,16 L8,8 L16,8 Z M8,0 L8,8 L0,8 L0,0 L8,0 Z M32,0 L32,8 L24,8 L24,0 L32,0 Z" id="Combined-Shape"></path>
                </g>
                <g id="header-left-box-16" transform="translate(160.000000, 80.000000)">
                    <polygon id="Fill-1" fill="#0E4E30" points="0 40 40 40 40 0 0 0"></polygon>
                    <path d="M32.3870676,16.2626235 C31.3330905,13.883354 29.7092344,10.1818182 26.484131,10.1818182 C23.7185217,10.1818182 20.8977199,12.0629598 19.7499821,12.0629598 C19.7154037,12.0629598 19.6741755,12.0548601 19.6362723,12.0501353 C19.598369,12.0548601 19.5578058,12.0629598 19.5225624,12.0629598 C18.3754896,12.0629598 15.5540228,10.1818182 12.7890785,10.1818182 C9.56331016,10.1818182 7.94011895,13.883354 6.88614186,16.2626235 C5.8314998,18.641893 4.86396879,22.2631075 5.13793633,26.6443382 C5.2529761,28.4822817 7.22793632,33.0106559 11.3813375,28.8197667 C15.1357568,25.0311597 17.3268322,24.7294481 19.0890021,24.7220234 L19.0890021,24.7274232 C19.2313057,24.7274232 19.3762691,24.7253983 19.5225624,24.7240483 C19.5611307,24.7247233 19.598369,24.7247233 19.6362723,24.7247233 C19.6748405,24.7247233 19.7114138,24.7247233 19.7499821,24.7240483 C19.8969404,24.7253983 20.0412388,24.7274232 20.1835424,24.7274232 L20.1835424,24.7220234 C21.9457123,24.7294481 24.1367877,25.0311597 27.891872,28.8197667 C32.0452732,33.0106559 34.0195684,28.4822817 34.1346082,26.6443382 C34.4092407,22.2631075 33.4410447,18.641893 32.3870676,16.2626235" id="Fill-2" fill="#F3F2EB"></path>
                    <polygon id="Fill-4" fill="#207D46" points="15.030303 17.6965161 15.030303 15.2727273 12.6060606 15.2727273 12.6060606 17.6965161 10.1818182 17.6965161 10.1818182 20.1216658 12.6060606 20.1216658 12.6060606 22.5454545 15.030303 22.5454545 15.030303 20.1216658 17.4545455 20.1216658 17.4545455 17.6965161"></polygon>
                    <path d="M27.2099634,17.0280681 C26.6421307,17.5967046 25.7216809,17.5967046 25.1531472,17.0280681 C24.5853146,16.4601328 24.5853146,15.5395166 25.1531472,14.9708802 C25.7216809,14.403646 26.6421307,14.403646 27.2099634,14.9708802 C27.7784971,15.5395166 27.7784971,16.4601328 27.2099634,17.0280681" id="Fill-6" fill="#BA8C5F"></path>
                    <path d="M30.1195031,19.9376849 C29.5515677,20.5056202 28.6302504,20.5056202 28.0623151,19.9376849 C27.4943798,19.3690484 27.4943798,18.4484323 28.0623151,17.8804969 C28.6302504,17.3125616 29.5515677,17.3125616 30.1195031,17.8804969 C30.6874384,18.4484323 30.6874384,19.3690484 30.1195031,19.9376849" id="Fill-8" fill="#BA8C5F"></path>
                    <path d="M24.3013212,19.9376849 C23.7333859,20.5056202 22.8120686,20.5056202 22.2441333,19.9376849 C21.676198,19.3690484 21.676198,18.4484323 22.2441333,17.8804969 C22.8120686,17.3125616 23.7333859,17.3125616 24.3013212,17.8804969 C24.8692566,18.4484323 24.8692566,19.3690484 24.3013212,19.9376849" id="Fill-10" fill="#BA8C5F"></path>
                    <path d="M27.2099634,22.8467758 C26.6421307,23.4147111 25.7216809,23.4147111 25.1531472,22.8467758 C24.5853146,22.2781393 24.5853146,21.3575232 25.1531472,20.7895879 C25.7216809,20.2216525 26.6421307,20.2216525 27.2099634,20.7895879 C27.7784971,21.3575232 27.7784971,22.2781393 27.2099634,22.8467758" id="Fill-12" fill="#BA8C5F"></path>
                </g>
                <g id="header-left-box-17" transform="translate(200.000000, 80.000000)">
                    <polygon id="Fill-1" fill="#207D46" points="0 40 40 40 40 0 0 0"></polygon>
                    <polygon id="Fill-2" fill="#0E4E30" points="0 40 40 40 20 13.0909091"></polygon>
                </g>
                <g id="header-left-box-18" transform="translate(360.000000, 120.000000)">
                    <polygon id="Fill-1" fill="#207D46" points="0 40 40 40 40 0 0 0"></polygon>
                    <path d="M32.6494477,10.0229493 C32.6494477,10.0229493 32.504925,10.0149514 31.713427,10.0149514 C27.8018603,10.0149514 21.5975157,8.21675618 20.0003377,5.09090909 C18.4031596,8.21675618 12.1981397,10.0149514 8.28657296,10.0149514 C7.49507499,10.0149514 7.35055233,10.0229493 7.35055233,10.0229493 C7.30260322,13.1434644 7.15875589,16.9378029 7.45117792,19.5304564 C8.97947135,33.0862355 20.0003377,34.9090909 20.0003377,34.9090909 C20.0003377,34.9090909 31.021204,33.0862355 32.5488221,19.5304564 C32.8412441,16.9378029 32.6973968,13.1434644 32.6494477,10.0229493" id="Fill-2" fill="#0E4E30"></path>
                    <path d="M29.735668,13.1804939 C22.2372724,13.1804939 19.9998534,10.1818182 19.9998534,10.1818182 C19.9998534,10.1818182 17.7631103,13.1804939 10.2640387,13.1804939 C10.2640387,13.1804939 10.0396209,17.252041 10.3323104,19.3394465 C11.1062817,24.8466297 13.7823971,30.6327595 19.9998534,32 C26.2173097,30.5905151 28.8934251,24.8466297 29.6673963,19.3394465 C29.9607618,17.252041 29.735668,13.1804939 29.735668,13.1804939" id="Fill-4" fill="#66493F"></path>
                    <path d="M24.1532534,20.3580245 C24.1605158,19.7380787 24.6107853,19.3663752 24.8062102,19.0184397 C25.1330187,18.4361264 25.0240825,17.4438169 25.0240825,17.4438169 C24.5566473,17.7897718 23.5002966,17.7349736 23.0308807,17.4438169 C22.5865532,17.1678453 22.4003714,16.7585093 22.2828524,15.8051528 C22.173256,14.9085751 21.5044539,14.5454545 21.5044539,14.5454545 C21.2601728,15.6724487 20.155626,15.8876802 19.5719923,15.859951 L19.5719923,15.8606112 C18.9540271,15.8573101 18.586285,15.3984578 18.2409903,15.200392 C17.664619,14.8696222 16.6841934,14.9798788 16.6841934,14.9798788 C17.0268472,15.4525957 16.972049,16.5208304 16.6841934,16.995528 C16.4108627,17.4444771 16.0068085,17.63396 15.0640155,17.7521393 C14.1766809,17.8630561 13.8181818,18.5391206 13.8181818,18.5391206 C14.8824552,18.775479 15.1240954,19.8021199 15.1188137,20.4088614 C15.0930651,21.0050393 14.6612818,21.3694803 14.4704784,21.7094932 C14.1430097,22.2924668 14.2519458,23.2847763 14.2519458,23.2847763 C14.719381,22.937501 15.776392,22.9929594 16.2451476,23.2847763 C16.6894752,23.5600877 16.8763172,23.9694236 16.993176,24.9221199 C17.1027724,25.8193578 17.7715745,26.1818182 17.7715745,26.1818182 C18.0165158,25.0561444 19.1184217,24.8402527 19.7020554,24.8679819 C20.3193604,24.8732637 20.6871025,25.3307956 21.0317369,25.5288614 C21.6081083,25.8596312 22.5891941,25.7493746 22.5891941,25.7493746 C22.2465403,25.2766576 22.3006783,24.208423 22.5891941,23.7330651 C22.8618646,23.2847763 23.266579,23.0952934 24.2087118,22.9777743 C25.0960464,22.8661973 25.4545455,22.1901328 25.4545455,22.1901328 C24.4133798,21.9590561 24.1591954,20.9687273 24.1532534,20.3580245" id="Fill-6" fill="#BA8C5F"></path>
                </g>
                <path d="M340,80 L320,80 L320,120 L340,120 C351.046,120 360,111.046 360,100.000667 C360,88.9546667 351.046,80 340,80" id="header-left-box-19" fill="#0E4E30"></path>
                <rect id="header-left-box-20" fill="#0E4E30" x="0" y="120" width="40" height="40"></rect>
                <rect id="header-left-box-21" fill="#0E4E30" x="80" y="120" width="40" height="40"></rect>
                <g id="header-left-box-22" transform="translate(160.000000, 120.000000)">
                    <polygon id="Fill-1" fill="#66493F" points="0 40 40 40 40 0 0 0"></polygon>
                    <path d="M22.8384,23.2213818 C23.7438545,22.9617455 24.5605818,22.6002909 25.2064,22.1988364 C27.3991273,20.8322909 28.6347636,18.6424727 28.9176727,17.4293818 C29.2405818,16.0439273 29.7162182,12.4686545 29.7162182,12.4686545 L29.7162182,11.4424727 L19.9998545,11.4424727 L10.2834909,11.4424727 L10.2834909,12.4686545 C10.2834909,12.4686545 10.7591273,16.0439273 11.0820364,17.4293818 C11.3656727,18.6424727 12.6005818,20.8322909 14.7933091,22.1988364 C15.4391273,22.6002909 16.2565818,22.9617455 17.1613091,23.2213818 C17.6827636,23.4606545 17.7911273,23.7784727 17.7911273,24.1297455 L17.7911273,25.8817455 C17.7911273,26.3428364 17.5351273,26.2672 17.2464,26.4352 C16.4522182,26.8962909 14.0754909,27.0395636 12.0260364,28.8730182 L11.6733091,29.7501091 L10.8733091,30.1646545 C10.8733091,30.1646545 10.2282182,30.5792 10.8733091,30.9021091 C11.5191273,31.2250182 14.5584,32.2388364 19.9998545,32.2388364 C25.4420364,32.2388364 28.4813091,31.2250182 29.1264,30.9021091 C29.7722182,30.5792 29.1264,30.1646545 29.1264,30.1646545 L28.3271273,29.7501091 L27.9744,28.8730182 C25.9911273,26.8446545 23.5482182,26.8962909 22.7533091,26.4352 C22.4645818,26.2672 22.2085818,26.3428364 22.2085818,25.8817455 L22.2085818,24.1297455 C22.2085818,23.7784727 22.3169455,23.4606545 22.8384,23.2213818" id="Fill-2" fill="#207D46"></path>
                    <path d="M8.35505455,10.6709091 C8.45614545,11.9203636 8.50632727,12.1225455 8.55723636,12.5269091 C8.60814545,12.9312727 9.08523636,13.38 9.41614545,13.54 C11.5776,14.5865455 14.0845091,15.3334545 20.0001455,15.3334545 L20.0001455,12.6010909 L8.35505455,10.6709091 Z" id="Fill-4" fill="#66493F"></path>
                    <path d="M31.6448727,10.6709091 C31.5437818,11.9203636 31.4936,12.1225455 31.4426909,12.5269091 C31.3917818,12.9312727 30.9146909,13.38 30.5837818,13.54 C28.4223273,14.5865455 25.9161455,15.3334545 19.9997818,15.3334545 L19.9997818,12.6010909 L31.6448727,10.6709091 Z" id="Fill-6" fill="#66493F"></path>
                    <path d="M31.6448727,10.6709091 C31.6448727,12.3210909 26.5590545,13.5807273 19.9997818,13.5807273 C13.4412364,13.5807273 8.35541818,12.3210909 8.35541818,10.6709091 C8.35541818,9.02072727 13.4412364,7.76109091 19.9997818,7.76109091 C26.5590545,7.76109091 31.6448727,9.02072727 31.6448727,10.6709091" id="Fill-8" fill="#BA8C5F"></path>
                    <path d="M29.1292364,10.5807273 C29.1292364,11.6861818 24.7590545,12.3705455 19.9997818,12.3705455 C15.2412364,12.3705455 10.8710545,11.6861818 10.8710545,10.5807273 C10.8710545,9.47527273 15.2412364,8.86145455 19.9997818,8.86145455 C24.7590545,8.86145455 29.1292364,9.47527273 29.1292364,10.5807273" id="Fill-10" fill="#66493F"></path>
                    <path d="M11.9800727,11.4656727 C13.5749818,12.0387636 16.6913455,12.3704 19.9997091,12.3704 C23.3088,12.3704 26.4251636,12.0387636 28.0200727,11.4656727 C26.4251636,10.9136727 23.3088,10.6162182 19.9997091,10.6162182 C16.6913455,10.6162182 13.5749818,10.9136727 11.9800727,11.4656727" id="Fill-12" fill="#0E4E30"></path>
                    <path d="M22.8192,24.3918545 L20.0002909,25.1053091 L17.1813818,24.3918545 L17.0395636,24.5285818 C17.0039273,24.9729455 17.4104727,25.7045818 17.8010182,25.8958545 C18.4890182,26.2340364 19.4461091,26.3067636 20.0002909,26.3067636 C20.7050182,26.3067636 21.5108364,26.2340364 22.1988364,25.8958545 C22.5901091,25.7045818 22.9966545,24.9729455 22.9602909,24.5285818 L22.8192,24.3918545 Z" id="Fill-14" fill="#66493F"></path>
                    <path d="M22.2467636,23.8136727 C21.6271273,24.1933091 20.2969455,24.2682182 20.0002182,24.2682182 C19.7034909,24.2682182 18.3725818,24.1933091 17.7529455,23.8136727 C17.7529455,23.8136727 17.2453091,24.0711273 17.0394909,24.5285818 C17.0293091,24.5525818 18.0714909,25.2558545 20.0002182,25.2558545 C21.9289455,25.2558545 22.9711273,24.5525818 22.9602182,24.5285818 C22.7551273,24.0711273 22.2467636,23.8136727 22.2467636,23.8136727" id="Fill-16" fill="#BA8C5F"></path>
                    <path d="M29.1264,30.1645818 L28.3271273,29.7500364 L27.9736727,28.8736727 C27.1940364,29.5565818 23.4202182,30.2584 19.9998545,30.2584 C16.5802182,30.2584 12.8056727,29.5565818 12.0260364,28.8736727 L11.6733091,29.7500364 L10.8733091,30.1645818 C10.8733091,30.1645818 10.2282182,30.5791273 10.8733091,30.9020364 C11.5191273,31.2249455 14.5584,32.2394909 19.9998545,32.2394909 C25.4420364,32.2394909 28.4805818,31.2249455 29.1264,30.9020364 C29.7714909,30.5791273 29.1264,30.1645818 29.1264,30.1645818" id="Fill-18" fill="#0E4E30"></path>
                    <path d="M21.6469818,21.8790545 C21.2157091,21.8790545 20.8418909,21.5583273 20.7858909,21.1183273 C20.7262545,20.6426909 21.0637091,20.2077818 21.5400727,20.1481455 C22.6324364,20.0106909 24.1648,19.3292364 24.8869818,17.8616 C25.0993455,17.4310545 25.6193455,17.2543273 26.0498909,17.4652364 C26.4804364,17.6776 26.6578909,18.1976 26.4462545,18.6281455 C25.6004364,20.3466909 23.7597091,21.6201455 21.7568,21.8717818 C21.7197091,21.8768727 21.6833455,21.8790545 21.6469818,21.8790545" id="Fill-20" fill="#0E4E30"></path>
                </g>
                <path d="M240,160 C262.091398,160 280,142.091699 280,120 L240,120 L240,160 Z" id="header-left-box-23" fill="#0E4E30"></path>
                <g id="header-left-box-24" transform="translate(60.000000, 180.000000) scale(-1, 1) translate(-60.000000, -180.000000) translate(40.000000, 160.000000)">
                    <polygon id="Fill-1" fill="#BA8C5F" points="40 0 0 40 40 40"></polygon>
                    <polygon id="Fill-2" fill="#207D46" points="0 0 0 40 40 40"></polygon>
                </g>
                <g id="header-left-box-25" transform="translate(80.000000, 160.000000)">
                    <path d="M34.1420244,5.85790237 C26.3313903,-1.95263412 13.6681097,-1.95263412 5.85747559,5.85790237 C-1.95249186,13.6684389 -1.95249186,26.3315611 5.85747559,34.1420976 C13.6681097,41.9526341 26.3313903,41.9526341 34.1420244,34.1420976 C41.9526585,26.3315611 41.9526585,13.6684389 34.1420244,5.85790237" id="Fill-1" fill="#207D46"></path>
                    <polygon id="Fill-4" fill="#0E4E30" points="25.9552163 20.135022 31.7713856 14.3181818 25.9545455 8.50067084 20.1377053 14.317511 14.3201943 8.5 8.5 14.3195235 14.3181818 20.1370345 8.50134168 25.9538746 14.3188527 31.7713856 20.1356928 25.9545455 25.9532038 31.7727273 31.7727273 25.9525329"></polygon>
                </g>
                <g id="header-left-box-26" transform="translate(200.000000, 160.000000)">
                    <polygon id="Fill-1" fill="#0E4E30" points="0 40 40 40 40 0 0 0"></polygon>
                    <polygon id="Fill-2" fill="#207D46" points="20 40 39.9992727 40 39.9992727 0 20 0"></polygon>
                    <polygon id="Fill-3" fill="#BA8C5F" points="11 29 29 29 29 11 11 11"></polygon>
                </g>
                <g id="header-left-box-27" transform="translate(240.000000, 160.000000)">
                    <polygon id="Fill-1" fill="#207D46" points="0.000654545455 7.27272727e-05 39.9999273 40.0000727 39.9999273 7.27272727e-05"></polygon>
                    <polygon id="Fill-2" fill="#0E4E30" points="0 30.0785455 40 30.0785455 40 0 0 0"></polygon>
                    <g id="Group-9" transform="translate(8.000000, 12.363636)" fill="#BA8C5F">
                        <path d="M18.8701818,2.67585455 C18.8701818,3.91803636 19.8774545,4.92603636 21.1203636,4.92603636 C22.3625455,4.92603636 23.3698182,3.91803636 23.3698182,2.67585455 C23.3698182,1.43294545 22.3625455,0.425672727 21.1203636,0.425672727 C19.8774545,0.425672727 18.8701818,1.43294545 18.8701818,2.67585455" id="Fill-3"></path>
                        <path d="M9.75018182,2.67585455 C9.75018182,3.91803636 10.7574545,4.92603636 12.0003636,4.92603636 C13.2425455,4.92603636 14.2498182,3.91803636 14.2498182,2.67585455 C14.2498182,1.43294545 13.2425455,0.425672727 12.0003636,0.425672727 C10.7574545,0.425672727 9.75018182,1.43294545 9.75018182,2.67585455" id="Fill-5"></path>
                        <path d="M0.629818182,2.67585455 C0.629818182,3.91803636 1.63709091,4.92603636 2.88,4.92603636 C4.12290909,4.92603636 5.12945455,3.91803636 5.12945455,2.67585455 C5.12945455,1.43294545 4.12290909,0.425672727 2.88,0.425672727 C1.63709091,0.425672727 0.629818182,1.43294545 0.629818182,2.67585455" id="Fill-7"></path>
                    </g>
                </g>
                <g id="Group" transform="translate(280.000000, 160.000000)" fill="#207D46">
                    <rect id="Rectangle" x="0" y="0" width="20" height="20"></rect>
                    <rect id="Rectangle-Copy" x="20" y="20" width="20" height="20"></rect>
                </g>
                <g id="header-left-box-29" transform="translate(40.000000, 200.000000)">
                    <polygon id="Fill-1" fill="#66493F" points="0 40 40 40 40 0 0 0"></polygon>
                    <g id="Group-14" transform="translate(5.818182, 3.636364)">
                        <path d="M15.6361455,15.4249455 C18.3743273,14.7434909 21.2441455,14.2285818 24.0310545,14.6809455 C25.5001455,14.9187636 27.0303273,15.5413091 27.7045091,16.7885818 C28.4434182,18.1558545 27.9052364,19.8802182 26.8739636,21.0758545 C25.8419636,22.2707636 24.3983273,23.0736727 23.0448727,23.9413091 C21.2157818,25.1129455 19.5016,26.4445818 17.6048727,27.5173091 C14.0237818,29.5427636 9.82014545,30.6940364 5.64923636,30.6038545 C4.50596364,30.5798545 3.21723636,30.3493091 2.24123636,29.7951273 C0.576509091,28.8496727 0.0150545455,26.7711273 0.465963636,24.9893091 C0.916872727,23.2082182 2.30741818,21.7347636 3.93505455,20.7224 C5.56196364,19.7107636 7.63978182,18.6802182 9.3896,17.8678545 C11.3306909,16.9674909 12.8986909,16.1064 15.6361455,15.4249455" id="Fill-2" fill="#BA8C5F"></path>
                        <path d="M17.7871273,4.48392727 C17.1820364,4.04610909 12.7711273,0.382109091 12.7711273,0.382109091 L9.48821818,1.55374545 L9.04967273,3.29992727 L10.3362182,6.54792727 L13.1827636,3.2432 C13.1827636,3.2432 16.2554909,4.66792727 17.2700364,5.04974545 C17.9696727,5.31374545 18.0962182,4.70792727 17.7871273,4.48392727" id="Fill-4" fill="#0E4E30"></path>
                        <path d="M11.3066182,4.57694545 C12.0818909,5.8264 12.4637091,6.77330909 13.4804364,8.56167273 C15.1742545,11.5434909 18.2840727,15.2053091 19.9706182,17.8460364 C20.4338909,18.5711273 20.7844364,18.9907636 20.3662545,19.8264 C19.1684364,22.2169455 17.1073455,23.8038545 14.7888,24.4714909 C11.6535273,25.3769455 9.90952727,25.5289455 7.59025455,24.6554909 C7.03534545,24.4467636 6.81861818,24.1042182 6.83970909,23.3071273 C6.8688,22.1878545 7.50807273,20.4591273 7.5168,19.3514909 C7.57352727,11.7216727 8.09134545,8.12530909 8.63825455,5.05549091 C8.74807273,4.43730909 9.51607273,1.43294545 9.51389091,1.4510451 C9.51316364,1.45549091 10.6338909,3.49403636 11.3066182,4.57694545" id="Fill-6" fill="#207D46"></path>
                        <path d="M10.0044364,21.3560727 L10.9222545,21.9582545 L10.7048,23.1335273 L11.7564364,22.2578909 L13.0335273,22.8564364 L12.5346182,21.7924364 C12.5346182,21.7924364 13.2466182,20.9131636 13.2648,20.8949818 C13.2771636,20.8826182 12.1826182,20.9626182 12.1826182,20.9626182 L11.4386182,19.9160727 L11.0938909,21.0971636 L10.0044364,21.3560727 Z" id="Fill-8" fill="#0E4E30"></path>
                        <path d="M8.77716364,16.1237818 L8.50589091,15.0081455 L9.4048,13.9543273 L8.23461818,14.0081455 C8.23461818,14.0081455 7.82734545,13.4103273 7.66443636,13.1143273 C7.62952727,13.8510545 7.60043636,14.6350545 7.57570909,15.4626909 L8.77716364,16.1237818 Z" id="Fill-10" fill="#0E4E30"></path>
                        <polygon id="Fill-12" fill="#0E4E30" points="11.7696727 16.3276364 13.3209455 16.7945455 13.5929455 18.3749091 14.5594909 16.9298182 16.2671273 17.044 15.3514909 15.9421818 15.9245818 14.4432727 14.5405818 15.1087273 13.0394909 13.788 13.1849455 15.5872727"></polygon>
                    </g>
                </g>
                <path d="M40,280 C62.0913978,280 80,262.091699 80,240 L40,240 L40,280 Z" id="header-left-box-30" fill="#0E4E30"></path>
                <rect id="header-left-box-31-copy" fill="#BA8C5F" x="120" y="160" width="40" height="40"></rect>
                <rect id="header-left-box-33" fill="#0E4E30" x="0" y="200" width="40" height="40"></rect>
                <polygon id="header-left-box-34" fill="#0E4E30" transform="translate(180.000000, 220.000000) scale(-1, 1) translate(-180.000000, -220.000000) " points="160 200 160 240 200 200"></polygon>
                <g id="header-right-box-09" transform="translate(320.000000, 0.000000)">
                    <polygon id="Fill-1" fill="#66493F" points="0 40 40 40 40 0 0 0"></polygon>
                    <g id="Group-16">
                        <path d="M15.7562182,7.34923636 C15.7562182,7.34923636 21.5620364,9.56450909 21.5620364,11.9157818 L20.0056727,16.4605091 L18.7096727,14.8874182 C18.7096727,14.8874182 18.2820364,10.4503273 15.7562182,7.34923636" id="Fill-2" fill="#0E4E30"></path>
                        <path d="M18.7093091,17.3350545 C18.7093091,17.3350545 18.9362182,10.5866909 27.6525818,6.23323636 C27.6525818,6.23323636 24.2264,11.3466909 24.2264,16.9423273 L23.5078545,25.3292364 L19.3209455,25.3292364 L18.7093091,17.3350545 Z" id="Fill-4" fill="#207D46"></path>
                        <path d="M9.79949091,8.41883636 C9.79949091,8.41883636 21.2045818,11.3526545 21.2045818,19.6013818 L15.9805818,24.5017455 L14.4896727,20.5446545 C14.4896727,20.5446545 15.7594909,13.6915636 9.79949091,8.41883636" id="Fill-6" fill="#0E4E30"></path>
                        <path d="M17.6709818,26.0885818 C17.6709818,26.0885818 19.9757091,14.7904 31.7437091,13.1969455 C31.7437091,13.1969455 25.1371636,19.0391273 25.1371636,28.2129455 L18.2629818,28.2129455 L17.6709818,26.0885818 Z" id="Fill-8" fill="#0E4E30"></path>
                        <path d="M6.61061818,13.7164364 C6.61061818,13.7164364 14.1306182,18.0095273 14.1306182,24.5018909 L21.2033455,24.5018909 C21.2033455,24.5018909 21.5226182,13.7164364 6.61061818,13.7164364" id="Fill-10" fill="#207D46"></path>
                        <mask id="mask-2" fill="white">
                            <use xlink:href="#path-1"></use>
                        </mask>
                        <g id="Clip-13"></g>
                        <polygon id="Fill-12" fill="#BA8C5F" mask="url(#mask-2)" points="10.6872727 26.8094545 29.0152727 26.8094545 29.0152727 22.9614545 10.6872727 22.9614545"></polygon>
                        <polygon id="Fill-14" fill="#BA8C5F" mask="url(#mask-2)" points="27.0445818 34.4593455 12.6591273 34.4593455 12.2242182 26.8091636 27.4794909 26.8091636"></polygon>
                        <polygon id="Fill-15" fill="#66493F" mask="url(#mask-2)" points="27.4231273 27.7931636 27.4791273 26.8091636 12.2238545 26.8091636 12.2798545 27.7931636"></polygon>
                    </g>
                </g>
                <g id="header-right-box-10" transform="translate(360.000000, 0.000000)">
                    <path d="M40.0002182,19.9998545 C40.0002182,31.0456727 31.0453091,39.9998545 20.0002182,39.9998545 C8.9544,39.9998545 0.000218181818,31.0456727 0.000218181818,19.9998545 C0.000218181818,8.95403636 8.9544,-0.000145454545 20.0002182,-0.000145454545 C31.0453091,-0.000145454545 40.0002182,8.95403636 40.0002182,19.9998545" id="Fill-1" fill="#0E4E30"></path>
                    <path d="M20.0002182,19.9998545 L34.1420364,34.1416727 C37.7616727,30.5227636 40.0002182,25.5227636 40.0002182,19.9998545 C40.0002182,14.4769455 37.7616727,9.47694545 34.1420364,5.85803636 L20.0002182,19.9998545 Z" id="Fill-4" fill="#207D46"></path>
                </g>
                <g id="header-right-box-11" transform="translate(280.000000, 40.000000)">
                    <polygon id="Fill-1" fill="#0E4E30" points="0 40 40 40 40 0 0 0"></polygon>
                    <polygon id="Fill-2" fill="#BA8C5F" points="8.25018182 31.7498182 31.7505455 31.7498182 31.7505455 8.24945455 8.25018182 8.24945455"></polygon>
                    <path d="M22.4519273,15.2594182 C21.4802909,15.2594182 20.6104727,16.0565091 20.0068364,16.7248727 L20.0002909,16.7183273 L19.9937455,16.7248727 C19.3901091,16.0565091 18.5195636,15.2594182 17.5486545,15.2594182 C15.7268364,15.2594182 14.2504727,16.7357818 14.2504727,18.5576 C14.2504727,19.3990545 14.5042909,20.0746909 15.0861091,20.7474182 L15.0861091,20.7517818 L20.0002909,25.7408727 L24.9137455,20.7517818 L24.9137455,20.7474182 C25.4955636,20.0746909 25.7501091,19.3990545 25.7501091,18.5576 C25.7501091,16.7357818 24.2730182,15.2594182 22.4519273,15.2594182" id="Fill-3" fill="#66493F"></path>
                </g>
                <g id="header-right-box-16" transform="translate(280.000000, 0.000000)">
                    <polygon id="Fill-1" fill="#207D46" points="0 40 40 40 40 0 0 0"></polygon>
                    <path d="M25.0491636,8.04872727 C27.5117091,8.56945455 30.8949818,10.2458182 32.3160727,13.9687273 C32.6440727,14.8269091 32.8673455,15.7949091 32.9509818,16.8829091 C33.2891636,21.2901818 35.0702545,22.6021818 33.7968,26.6152727 C32.5531636,30.536 29.2302545,32.3745455 24.6091636,32.12 C22.4564364,32.0014545 20.5320727,30.4996364 18.4135273,30.1396364 C17.1364364,29.9229091 15.8149818,30.0807273 14.5218909,29.9592727 C11.0717091,29.6349091 8.07389091,27.2196364 6.82152727,24.1825455 C5.56843636,21.1447273 5.15170909,17.6210909 7.03025455,14.8516364 C8.32116364,12.9469091 9.72625455,12.2414545 11.1029818,11.7912727 C12.6702545,11.28 14.2688,10.4952727 15.6848,9.33163636 C19.0738909,6.544 24.0920727,7.84654545 25.0491636,8.04872727" id="Fill-2" fill="#F3F2EB"></path>
                    <path d="M19.6990545,12.9947636 C22.4146909,12.7598545 25.0154182,14.1853091 26.0401455,16.7104 C27.0656,19.2354909 26.3506909,22.4420364 24.2532364,24.1831273 C22.4765091,25.6573091 19.8728727,25.9474909 17.3150545,25.0064 C14.1863273,23.8551273 13.5739636,21.1256727 13.4706909,20.1038545 C13.2103273,17.5278545 14.3216,15.6624 16.4234182,14.1511273 C17.3616,13.4762182 18.7063273,13.0798545 19.6990545,12.9947636" id="Fill-4" fill="#BA8C5F"></path>
                    <path d="M20.2672,23.8861091 C20.0453818,23.8861091 19.8417455,23.8686545 19.6635636,23.8337455 C19.1922909,23.7413818 18.8861091,23.2846545 18.9784727,22.8133818 C19.0701091,22.3435636 19.5246545,22.0359273 19.9973818,22.1282909 C20.3777455,22.2032 21.2592,22.0912 21.8635636,21.6948364 C22.4301091,21.3239273 22.7995636,20.8053818 22.9064727,20.2344727 C22.9944727,19.7624727 23.4482909,19.4512 23.9188364,19.5392 C24.3908364,19.6279273 24.7021091,20.0817455 24.6141091,20.5530182 C24.4199273,21.5937455 23.7813818,22.5144727 22.8162909,23.1472 C22.0330182,23.6606545 21.0461091,23.8861091 20.2672,23.8861091" id="Fill-6" fill="#66493F"></path>
                </g>
                <g id="header-right-box-17" transform="translate(280.000000, 80.000000)">
                    <polygon id="Fill-1" fill="#66493F" points="0 40 40 40 40 0 0 0"></polygon>
                    <g id="Group-12" transform="translate(5.818182, 9.454545)">
                        <path d="M9.1936,10.104 L14.1819636,11.0414545 L13.2437818,13.4974545 C13.1019636,14.1498182 13.7877818,14.6407273 13.5565091,15.2683636 C13.2212364,16.1738182 13.4132364,16.2516364 13.0590545,17.4472727 C12.7979636,18.3287273 11.8343273,19.6210909 10.7572364,20.1010909 C9.64232727,20.5978182 8.42705455,20.6836364 7.38196364,20.376 C6.38196364,20.0814545 5.70196364,19.4770909 5.30123636,18.5141818 C4.90050909,17.552 4.98705455,16.6421818 5.18705455,15.8589091 C5.37541818,15.1192727 5.79432727,14.3316364 6.11214545,13.6385455 L9.1936,10.104 Z M19.1696727,10.104 L22.2518545,13.6385455 C22.5689455,14.3316364 22.9878545,15.1192727 23.1762182,15.8589091 C23.3769455,16.6421818 23.4627636,17.552 23.0620364,18.5141818 C22.6620364,19.4770909 21.9813091,20.0814545 20.9820364,20.376 C19.9369455,20.6836364 18.7209455,20.5978182 17.6060364,20.1010909 C16.5289455,19.6210909 15.5653091,18.3287273 15.3042182,17.4472727 C14.9500364,16.2516364 15.1420364,16.1738182 14.8074909,15.2683636 C14.5754909,14.6407273 15.2620364,14.1498182 15.1194909,13.4974545 L15.1194909,13.4974545 L14.1820364,11.0414545 L19.1696727,10.104 Z" id="Combined-Shape" fill="#BA8C5F"></path>
                        <path d="M22.0763636,0.491418182 C23.4538182,0.0608727273 24.5709091,-0.204581818 26.2472727,0.719781818 C28.0923636,1.73650909 28.816,5.48850909 27.9585455,8.16269091 C27.3978182,9.9096 26.968,10.6252364 26.0669091,11.6332364 C25.328,12.4594182 24.3461818,13.0761455 23.4523636,13.6579636 C21.4669091,14.9510545 16.5127273,15.5917818 14.5229091,14.5350545 L14.5229091,14.5350545 L14.4785455,8.70814545 C15.1636364,5.77650909 19.3425455,1.34669091 22.0763636,0.491418182 Z M6.28690909,0.491418182 C9.02145455,1.34669091 13.1996364,5.77650909 13.8854545,8.70814545 L13.8403636,14.5350545 C11.8505455,15.5917818 6.89709091,14.9510545 4.91090909,13.6579636 C4.01709091,13.0761455 3.036,12.4594182 2.29709091,11.6332364 C1.396,10.6252364 0.966181818,9.9096 0.405454545,8.16269091 C-0.452727273,5.48850909 0.270909091,1.73650909 2.11672727,0.719781818 C3.79236364,-0.204581818 4.90945455,0.0608727273 6.28690909,0.491418182 Z" id="Combined-Shape" fill="#207D46"></path>
                        <path d="M15.5910545,8.13381818 C15.5306909,10.5018182 15.5510545,13.4778182 15.4906909,15.8450909 C15.4608727,16.9985455 15.4383273,18.0574545 14.8339636,18.7105455 C14.5852364,18.9789091 14.0506909,19.0138182 13.7401455,18.7614545 C13.1190545,18.2574545 13.0492364,17.6101818 12.9808727,16.5403636 C12.7852364,13.4356364 12.7561455,9.71563636 12.7561455,6.6 C12.7561455,5.19418182 13.1946909,4.41381818 14.0136,4.34909091 C14.9096,4.27781818 15.2216,4.74763636 15.3939636,5.34327273 C15.5910545,6.02545455 15.6201455,6.99854545 15.5910545,8.13381818" id="Fill-10" fill="#0E4E30"></path>
                    </g>
                </g>
                <g id="header-right-box-18" transform="translate(400.000000, 80.000000)">
                    <polygon id="Fill-1" fill="#0E4E30" points="0 40 40 40 40 0 0 0"></polygon>
                    <polygon id="Fill-2" fill="#207D46" points="0 40 13.3330909 40 13.3330909 26.6669091 0 26.6669091"></polygon>
                    <polygon id="Fill-3" fill="#207D46" points="26.6661818 40 40 40 40 26.6669091 26.6661818 26.6669091"></polygon>
                </g>
                <g id="header-right-box-19-copy" transform="translate(440.000000, 120.000000)">
                    <polygon id="Fill-1" fill="#66493F" points="0 40 40 40 40 0 0 0"></polygon>
                    <g id="Group-8" transform="translate(10.181818, 4.363636)">
                        <path d="M16.1826909,10.9906909 C14.6670545,9.32596364 13.0008727,8.46341818 13.0466909,5.33469091 L13.0466909,4.68523636 L9.81832727,4.68523636 L6.59141818,4.68523636 L6.59141818,5.33469091 C6.63650909,8.46341818 4.97032727,9.32596364 3.45469091,10.9906909 C1.33396364,13.3216 0.0481454545,14.7070545 0.0481454545,16.8859636 C0.0481454545,18.2525091 0.2896,19.6197818 1.09032727,21.2226909 C3.2656,25.5812364 2.87869091,24.6146909 5.32232727,29.2896 C5.58487273,29.7906909 5.99141818,30.2190545 6.47941818,30.4517818 C6.85178182,30.6285091 7.26996364,30.6474182 7.67650909,30.6634182 C9.18487273,30.7223273 10.4525091,30.7223273 11.9601455,30.6634182 C12.3674182,30.6474182 12.7848727,30.6285091 13.1572364,30.4517818 C13.6452364,30.2190545 14.0590545,29.7936 14.3143273,29.2896 C16.7034182,24.5608727 16.5877818,25.4757818 18.5470545,21.2226909 C19.3645091,19.4481455 19.5892364,18.9761455 19.5885108,17.2983273 C19.5877818,14.6379636 18.3034182,13.3216 16.1826909,10.9906909" id="Fill-2" fill="#207D46"></path>
                        <polygon id="Fill-4" fill="#BA8C5F" points="6.672 3.42981818 12.9650909 3.42981818 12.9650909 0.0654545455 6.672 0.0654545455"></polygon>
                        <polygon id="Fill-6" fill="#0E4E30" points="4.35054545 7.08145455 15.2865455 7.08145455 15.2865455 2.72945455 4.35054545 2.72945455"></polygon>
                        <path d="M15.8524364,18.0020364 C15.4342545,18.0020364 15.0698909,17.6929455 15.0109818,17.2667636 C14.8095273,15.8107636 13.8138909,14.4813091 12.4728,13.8805818 C12.0437091,13.6878545 11.8517091,13.1845818 12.0444364,12.7554909 C12.2364364,12.3264 12.7397091,12.1336727 13.1695273,12.3264 C15.0335273,13.1627636 16.4182545,15.0107636 16.6975273,17.0340364 C16.7615273,17.5002182 16.4364364,17.9293091 15.9702545,17.9933091 C15.9302545,17.9991273 15.8917091,18.0020364 15.8524364,18.0020364" id="Fill-7" fill="#66493F"></path>
                    </g>
                </g>
                <g id="header-right-box-21" transform="translate(440.000000, 0.000000)">
                    <polygon id="Fill-1" fill="#0E4E30" points="0 40 40 40 40 0 0 0"></polygon>
                    <g id="Group-16" transform="translate(5.818182, 4.363636)">
                        <path d="M10.304,17.3176727 L10.304,28.6464 L12.2429091,28.6464 C12.2429091,29.7176727 13.1105455,30.5853091 14.1818182,30.5853091 C15.2530909,30.5853091 16.1207273,29.7176727 16.1207273,28.6464 L18.0596364,28.6464 L18.0596364,17.3176727 L10.304,17.3176727 Z" id="Fill-2" fill="#207D46"></path>
                        <path d="M22.2450182,14.1762909 C21.9926545,9.94138182 18.4799273,6.58429091 14.1817455,6.58429091 C9.88356364,6.58429091 6.37083636,9.94138182 6.11847273,14.1762909 C6.11847273,14.1762909 6.1032,14.6461091 6.1032,14.6628364 C6.1032,14.7042909 6.10538182,14.7442909 6.10610909,14.7850182 C6.12792727,16.5108364 6.65665455,17.9282909 8.62538182,20.7479273 C10.2042909,23.0090182 10.3039273,24.1312 10.3039273,25.4148364 L14.1817455,25.4148364 L18.0595636,25.4148364 C18.0595636,24.1312 18.1592,23.0090182 19.7373818,20.7479273 C21.7068364,17.9282909 22.2355636,16.5108364 22.2581091,14.7850182 C22.2588364,14.7442909 22.2602909,14.7042909 22.2602909,14.6628364 C22.2602909,14.6461091 22.2450182,14.1762909 22.2450182,14.1762909" id="Fill-4" fill="#BA8C5F"></path>
                        <path d="M28.2706182,14.7445091 C28.2706182,15.6717818 27.5186182,16.4245091 26.5898909,16.4245091 C25.6626182,16.4245091 24.9106182,15.6717818 24.9106182,14.7445091 C24.9106182,13.8165091 25.6626182,13.0637818 26.5898909,13.0637818 C27.5186182,13.0637818 28.2706182,13.8165091 28.2706182,14.7445091" id="Fill-6" fill="#BA8C5F"></path>
                        <path d="M3.45309091,14.7445091 C3.45309091,15.6717818 2.70109091,16.4245091 1.77309091,16.4245091 C0.845090909,16.4245091 0.0930909091,15.6717818 0.0930909091,14.7445091 C0.0930909091,13.8165091 0.845090909,13.0637818 1.77309091,13.0637818 C2.70109091,13.0637818 3.45309091,13.8165091 3.45309091,14.7445091" id="Fill-8" fill="#BA8C5F"></path>
                        <path d="M15.8621818,2.02363636 C15.8621818,2.95090909 15.1094545,3.70363636 14.1814545,3.70363636 C13.2534545,3.70363636 12.5014545,2.95090909 12.5014545,2.02363636 C12.5014545,1.09563636 13.2534545,0.342909091 14.1814545,0.342909091 C15.1094545,0.342909091 15.8621818,1.09563636 15.8621818,2.02363636" id="Fill-10" fill="#BA8C5F"></path>
                        <polygon id="Fill-12" fill="#BA8C5F" points="26.0539636 5.95970909 24.0132364 7.99970909 21.9739636 5.95970909 24.0132364 3.91898182"></polygon>
                        <polygon id="Fill-14" fill="#BA8C5F" points="6.38989091 5.95970909 4.34916364 7.99970909 2.30989091 5.95970909 4.34916364 3.91898182"></polygon>
                    </g>
                </g>
                <polygon id="header-right-box-24-copy" fill="#0E4E30" points="413.333818 160 413.333818 173.330909 400 173.330909 400 186.669091 413.333818 186.669091 413.333818 200 426.666909 200 426.666909 186.669091 440 186.669091 440 173.330909 426.666909 173.330909 426.666909 160"></polygon>
                <g id="header-right-box-25" transform="translate(440.000000, 40.000000)" fill="#207D46">
                    <path d="M40,30 L40,40 L30.0007273,40 L30.0007273,30 L40,30 Z M10,30 L10,20 L0,20 L0,10 L10,10 L10,20 L20,20 L20,30 L10,30 L10,40 L0,40 L0,30 L10,30 Z M30,10 L30,20 L20,20 L20,10 L30,10 Z M40,1.57449811e-14 L40,9.99927273 L30.0007273,9.99927273 L30.0007273,1.57449811e-14 L40,1.57449811e-14 Z M20,1.57449811e-14 L20,9.99927273 L10,9.99927273 L10,1.57449811e-14 L20,1.57449811e-14 Z" id="Combined-Shape"></path>
                </g>
                <g id="header-right-box-04" transform="translate(120.000000, 120.000000)">
                    <polygon id="Fill-1" fill="#207D46" points="0 40 40 40 40 0 0 0"></polygon>
                    <polygon id="Fill-2" fill="#66493F" points="27.2599273 33.1664727 12.7399273 33.1664727 11.4708364 11.7061091 28.5290182 11.7061091"></polygon>
                    <path d="M23.5986909,19.6487273 C23.5986909,21.6356364 21.9870545,23.2465455 20.0001455,23.2465455 C18.0125091,23.2465455 16.4016,21.6356364 16.4016,19.6487273 C16.4016,17.6610909 18.0125091,16.0501818 20.0001455,16.0501818 C21.9870545,16.0501818 23.5986909,17.6610909 23.5986909,19.6487273" id="Fill-3" fill="#207D46"></path>
                    <polygon id="Fill-5" fill="#0E4E30" points="20 17.4072727 20.7381818 18.8429091 22.2494545 19.0356364 21.1410909 20.0632727 21.4429091 21.5090909 20 20.8130909 18.5570909 21.5090909 18.8596364 20.0632727 17.7505455 19.0356364 19.2618182 18.8429091"></polygon>
                    <polygon id="Fill-7" fill="#66493F" points="28.5290909 9.92072727 11.4709091 9.92072727 12.2469091 6.83418182 27.7545455 6.83418182"></polygon>
                    <polygon id="Fill-9" fill="#BA8C5F" points="10.24 11.952 29.76 11.952 29.76 9.67418182 10.24 9.67418182"></polygon>
                </g>
                <g id="header-right-box-31" transform="translate(400.000000, 40.000000)">
                    <polygon id="Fill-1" fill="#BA8C5F" points="0 40 40 40 40 0 0 0"></polygon>
                    <path d="M34.3825455,20 C34.3825455,27.9432727 27.9432727,34.3818182 20.0007273,34.3818182 C12.0581818,34.3818182 5.61890909,27.9432727 5.61890909,20 C5.61890909,12.0567273 12.0581818,5.61818182 20.0007273,5.61818182 C27.9432727,5.61818182 34.3825455,12.0567273 34.3825455,20" id="Fill-2" fill="#0E4E30"></path>
                    <path d="M30.3974545,20 C30.3974545,25.776 25.7145455,30.4596364 19.9378182,30.4596364 C14.1610909,30.4596364 9.47818182,25.776 9.47818182,20 C9.47818182,14.2232727 14.1610909,9.54036364 19.9378182,9.54036364 C25.7145455,9.54036364 30.3974545,14.2232727 30.3974545,20" id="Fill-4" fill="#207D46"></path>
                    <path d="M26.5380364,20 C26.5380364,23.6109091 23.6114909,26.5374545 20.0005818,26.5374545 C16.3904,26.5374545 13.4631273,23.6109091 13.4631273,20 C13.4631273,16.3898182 16.3904,13.4632727 20.0005818,13.4632727 C23.6114909,13.4632727 26.5380364,16.3898182 26.5380364,20" id="Fill-6" fill="#66493F"></path>
                    <path d="M22.6154909,20 C22.6154909,21.4436364 21.4453091,22.6152727 20.0002182,22.6152727 C18.5565818,22.6152727 17.3856727,21.4436364 17.3856727,20 C17.3856727,18.5556364 18.5565818,17.3847273 20.0002182,17.3847273 C21.4453091,17.3847273 22.6154909,18.5556364 22.6154909,20" id="Fill-8" fill="#BA8C5F"></path>
                </g>
                <g id="header-right-box-29" transform="translate(360.000000, 40.000000)">
                    <polygon id="Fill-1" fill="#0E4E30" points="0 40 40 40 40 0 0 0"></polygon>
                    <path d="M27.2322182,12.8874182 C30.2424,14.7317818 31.5747636,18.4779636 31.3791273,21.4699636 C30.8569455,29.4677818 27.1100364,31.0699636 26.2591273,31.6154182 C24.8758545,32.5019636 23.0576727,32.9281455 21.8140364,32.3921455 C20.9325818,32.0132364 20.7245818,31.6525091 20.0613091,31.8030545 C19.6649455,31.8932364 19.3594909,32.1819636 18.8729455,32.3870545 C16.9987636,33.1783273 14.4089455,32.1150545 13.0824,30.9012364 C9.62567273,27.7368727 8.04894545,23.8256 8.6824,18.7259636 C9.09403636,15.4176 10.9209455,13.3303273 13.6256727,12.2008727 C14.3369455,11.9026909 15.7253091,11.4270545 17.3027636,11.7041455 C17.8882182,11.8066909 18.4969455,12.1703273 19.1013091,12.3361455 C19.9747636,12.5761455 20.8402182,11.8466909 22.2765818,11.6496 C24.0656727,11.4037818 25.6525818,11.9186909 27.2322182,12.8874182" id="Fill-2" fill="#BA8C5F"></path>
                    <path d="M20.2066182,16.2098182 C20.7833455,16.0563636 20.7673455,15.5167273 20.8298909,14.9509091 C21.0000727,13.4221818 20.5484364,10.9683636 20.3157091,9.31381818 C20.0575273,7.47309091 19.0422545,6.02581818 17.8488,6.33781818 C16.7608,6.62218182 16.2080727,6.836 15.2720727,7.45854545 C15.1542545,7.53709091 15.0284364,7.63236364 15.0029818,7.77127273 C14.9818909,7.88618182 15.0349818,7.99890909 15.0858909,8.10290909 C15.2837091,8.50581818 15.3469818,9.01272727 15.7069818,9.28254545 C15.9506182,9.46509091 16.3957091,9.47818182 16.6429818,9.65563636 C17.2764364,10.1123636 17.4509818,11.0214545 17.7026182,11.7610909 C18.3237091,13.5872727 18.7448,14.6032727 19.1142545,15.6243636 C19.1746182,15.7909091 19.4633455,16.4083636 20.2066182,16.2098182" id="Fill-4" fill="#66493F"></path>
                    <path d="M31.4538182,8.94778182 C30.5490909,11.7317818 28.3272727,13.6801455 26.0916364,14.2401455 C23.856,14.8001455 21.624,14.1485091 19.6509091,13.0285091 C19.5447273,12.9681455 19.4283636,12.8896 19.4058182,12.7397818 C19.3789091,12.5688727 19.4865455,12.3972364 19.5869091,12.2626909 C20.6625455,10.8059636 22.5578182,8.66632727 24.6429091,7.98123636 C27.7301818,6.96669091 31.4538182,8.94778182 31.4538182,8.94778182" id="Fill-6" fill="#207D46"></path>
                    <path d="M17.4616,29.6281455 C17.4237818,29.6281455 17.3859636,29.6252364 17.3481455,29.6201455 C14.2303273,29.2128727 12.1386909,26.6565091 11.6834182,24.3416 C11.5910545,23.8710545 11.8979636,23.4143273 12.3685091,23.3219636 C12.8376,23.2288727 13.2950545,23.5357818 13.3881455,24.0070545 C13.7154182,25.6710545 15.2936,27.5997818 17.5728727,27.8979636 C18.0492364,27.9605091 18.3845091,28.3961455 18.3219636,28.8717818 C18.2645091,29.3096 17.8914182,29.6281455 17.4616,29.6281455" id="Fill-8" fill="#66493F"></path>
                </g>
                <g id="header-left-box-09" transform="translate(460.000000, 180.000000) rotate(-360.000000) translate(-460.000000, -180.000000) translate(440.000000, 160.000000)">
                    <polygon id="Fill-1" fill="#0E4E30" points="0 40 40 40 40 0 0 0"></polygon>
                    <polygon id="Fill-2" fill="#207D46" points="0 40 40 40 0 0"></polygon>
                </g>
            </g>
        </g>
    </g>
</svg>