<?xml version="1.0" encoding="UTF-8"?>
<svg width="768px" height="315px" viewBox="0 0 768 315" version="1.1" xmlns="http://www.w3.org/2000/svg" xmlns:xlink="http://www.w3.org/1999/xlink">
    <title>header-t-top</title>
    <defs>
        <polygon id="path-1" points="0 35 35 35 35 0 0 0"></polygon>
    </defs>
    <g id="Page-1" stroke="none" stroke-width="1" fill="none" fill-rule="evenodd">
        <g id="header-768x850" transform="translate(1.000000, 0.000000)">
            <g id="header-t-top" transform="translate(-1.000000, 0.000000)">
                <g id="Group">
                    <g id="header-left-box-02" transform="translate(105.000000, 0.000000)">
                        <polygon id="Fill-1" fill="#207D46" points="0 35 35 35 35 0 0 0"></polygon>
                        <polygon id="Fill-2" fill="#66493F" points="23.7078545 8.68178182 23.7078545 11.9437818 21.8286727 9.82341818"></polygon>
                        <path d="M28.7459455,16.6668091 L29.7074909,14.9244455 C29.7074909,14.9244455 29.6724909,21.0825364 29.6724909,21.5089 C29.6724909,22.3559 29.5611273,22.9146273 29.2792182,23.3696273 C29.0768545,23.6973545 28.5677636,24.2357182 28.5677636,24.2357182 L28.7459455,16.6668091 Z" id="Fill-3" fill="#0E4E30"></path>
                        <path d="M5.35862727,17.7891 C5.35862727,17.7891 5.82762727,24.0916455 5.82762727,24.9011 C5.82762727,25.7092818 6.01662727,25.6424636 6.52062727,25.6424636 C7.02399091,25.6424636 26.7359909,24.5008273 27.8063545,24.4327364 C28.8773545,24.3659182 28.7634455,23.9147364 28.7379909,23.2879182 C28.7176273,22.7629182 28.7456273,16.6665545 28.7456273,16.6665545 L5.35862727,17.7891 Z" id="Fill-5" fill="#66493F"></path>
                        <path d="M28.4448182,16.6630545 C19.9913636,17.0658727 13.0212727,17.4604182 5.88,17.8594182 C5.32254545,17.8906 5.00372727,17.5221455 5.65472727,17.0741455 C10.5598182,13.7020545 14.9373636,10.6774182 20.3082727,7.75523636 C20.3082727,7.75523636 21.259,7.38678182 22.421,7.94932727 C22.7939091,8.12941818 23.1814545,8.34005455 23.5893636,8.55005455 C24.0640909,8.79505455 23.0026364,9.06741818 22.8683636,9.84441818 C22.6971818,10.8377818 23.5600909,11.5237818 24.7933636,11.4404182 C25.9108182,11.3646909 26.7508182,10.6188727 27.1969091,11.0146909 C28.3900909,12.0748727 29.3446364,13.2877818 29.6723636,14.6107818 C29.8804545,15.4533273 29.1219091,16.6306 28.4448182,16.6630545" id="Fill-7" fill="#BA8C5F"></path>
                        <path d="M10.9811545,17.5423818 C10.9811545,17.5423818 11.3247909,16.4987455 12.2621545,16.1341091 C13.1995182,15.7694727 14.0630636,15.7930182 14.7127909,16.3721091 C15.1016091,16.7189273 15.1009727,17.3782 15.1009727,17.3782 C15.1009727,17.3782 15.1009727,18.5542 14.4054273,19.1307455 C13.8352455,19.6029273 12.7445182,19.9688364 11.9815182,19.5087455 C10.8335182,18.8144727 10.9811545,17.5423818 10.9811545,17.5423818" id="Fill-9" fill="#0E4E30"></path>
                        <path d="M24.1624091,19.3924818 C24.5836818,19.7081182 24.9305,20.2089364 24.9190455,20.7256636 C24.9075909,21.2417545 24.6524091,21.8711182 24.3240455,22.2771182 C24.0313182,22.6404818 23.6609545,22.7480273 23.2078636,22.8861182 C22.6784091,23.0471182 22.0745,22.9262091 21.6315909,22.6010273 C21.1893182,22.2758455 20.9112273,21.7610273 20.8444091,21.2264818 C20.6859545,19.9569364 21.8874091,19.1926636 22.8769545,19.0749364 C23.3345,19.0202091 23.7271364,19.0666636 24.1624091,19.3924818" id="Fill-11" fill="#0E4E30"></path>
                        <path d="M17.8090182,10.6412091 C18.5134727,10.5432091 19.4050182,10.7621182 19.6512909,11.4296636 C19.8969273,12.0972091 19.2567455,13.6620273 17.1853818,13.9477545 C15.8471091,14.1323 15.3246545,13.5061182 15.2393818,12.9652091 C15.0376545,11.6912091 16.7361091,10.7901182 17.8090182,10.6412091" id="Fill-13" fill="#66493F"></path>
                        <path d="M25.9469,13.2624545 C26.3764455,13.4317273 26.6405364,13.7747273 26.6074455,14.2348182 C26.5743545,14.6955455 26.0079909,15.6742727 24.6219909,15.8002727 C23.9932636,15.8575455 23.2302636,15.6819091 23.0934455,15.0652727 C22.9680818,14.5059091 23.3028091,14.0407273 23.7457182,13.6760909 C24.1078091,13.3782727 25.2201727,12.9773636 25.9469,13.2624545" id="Fill-15" fill="#66493F"></path>
                        <path d="M10.9513727,21.2854091 C11.6297364,21.9084091 11.5571909,22.8184091 11.0487364,23.4013182 C10.5402818,23.9835909 9.62582727,24.1846818 8.93919091,23.8270455 C8.25319091,23.4706818 7.84400909,22.5447727 8.18637273,21.8517727 C8.81828182,20.5720455 10.1966455,20.5924091 10.9513727,21.2854091" id="Fill-17" fill="#0E4E30"></path>
                    </g>
                    <rect id="header-left-box-03" fill="#BA8C5F" x="175" y="0" width="35" height="35"></rect>
                    <g id="header-left-box-04" transform="translate(210.000000, 0.000000)">
                        <polygon id="Fill-1" fill="#0E4E30" points="0 35 35 35 35 0 0 0"></polygon>
                        <polygon id="Fill-2" fill="#BA8C5F" points="8.45568182 16.4529909 18.1939545 17.6595364 27.0896818 7.07426364 18.2989545 6.46526364"></polygon>
                        <polygon id="Fill-3" fill="#207D46" points="8.45568182 16.4529909 5.42340909 24.8899 19.5786818 26.5794455 18.1939545 17.6595364"></polygon>
                        <polygon id="Fill-4" fill="#66493F" points="18.1940818 17.6598545 19.5788091 26.5797636 30.1208091 13.0659455 27.0898091 7.07394545"></polygon>
                        <polygon id="Fill-5" fill="#0E4E30" points="24.4881 10.3062273 23.3789182 20.3372273 25.3669182 17.7720455 26.4920091 7.83968182"></polygon>
                        <polygon id="Fill-6" fill="#0E4E30" points="27.4002273 7.6881 26.4113182 16.5297364 27.3340455 15.3410091 28.1110455 9.09319091"></polygon>
                    </g>
                    <rect id="header-left-box-05" fill="#207D46" x="245" y="0" width="35" height="35"></rect>
                    <g id="header-left-box-06" transform="translate(0.000000, 70.000000)">
                        <polygon id="Fill-1" fill="#207D46" points="0 35 35 35 35 0 0 0"></polygon>
                        <path d="M22.7001091,30.5135091 L12.6627455,30.5135091 C12.2815636,30.5135091 10.2063818,28.5630545 10.2063818,28.1818727 L10.2063818,7.15196364 C10.2063818,6.77078182 12.8854727,6.05169091 13.2666545,6.05169091 L21.6431091,6.05169091 C22.0242909,6.05169091 24.7937455,6.77078182 24.7937455,7.15196364 L24.7937455,28.5096 C24.7937455,28.8901455 23.0812909,30.5135091 22.7001091,30.5135091" id="Fill-2" fill="#66493F"></path>
                        <path d="M24.7934909,8.49430909 L24.7934909,5.9024 C24.7934909,5.12030909 24.1596727,4.48649091 23.3775818,4.48649091 L11.6220364,4.48649091 C10.8405818,4.48649091 10.2067636,5.12030909 10.2067636,5.9024 L10.2067636,8.49430909 L24.7934909,8.49430909 Z" id="Fill-4" fill="#BA8C5F"></path>
                        <path d="M10.2065091,26.5051182 L10.2065091,29.0970273 C10.2065091,29.8797545 10.8403273,30.5135727 11.6224182,30.5135727 L23.3779636,30.5135727 C24.1594182,30.5135727 24.7932364,29.8797545 24.7932364,29.0970273 L24.7932364,26.5051182 L10.2065091,26.5051182 Z" id="Fill-6" fill="#BA8C5F"></path>
                        <path d="M18.5202818,28.5124 C18.5202818,29.0768545 18.0621,29.5344 17.4976455,29.5344 C16.9331909,29.5344 16.4756455,29.0768545 16.4756455,28.5124 C16.4756455,27.9473091 16.9331909,27.4904 17.4976455,27.4904 C18.0621,27.4904 18.5202818,27.9473091 18.5202818,28.5124" id="Fill-8" fill="#66493F"></path>
                        <path d="M19.3057455,6.05137273 C19.2847455,6.05137273 19.2643818,6.05519091 19.2440182,6.05773636 C19.2344727,6.05391818 19.2242909,6.05137273 19.2128364,6.05137273 L15.7809273,6.05137273 C15.7701091,6.05137273 15.7599273,6.05391818 15.7503818,6.05773636 C15.7300182,6.05519091 15.7096545,6.05137273 15.6886545,6.05137273 C15.3844727,6.05137273 15.1382,6.29764545 15.1382,6.60119091 C15.1382,6.90537273 15.3844727,7.15164545 15.6886545,7.15164545 C15.7096545,7.15164545 15.7300182,7.14846364 15.7503818,7.14591818 C15.7599273,7.14973636 15.7701091,7.15164545 15.7809273,7.15164545 L19.2128364,7.15164545 C19.2242909,7.15164545 19.2344727,7.14973636 19.2440182,7.14591818 C19.2643818,7.14846364 19.2847455,7.15164545 19.3057455,7.15164545 C19.6099273,7.15164545 19.8562,6.90537273 19.8562,6.60119091 C19.8562,6.29764545 19.6099273,6.05137273 19.3057455,6.05137273" id="Fill-10" fill="#66493F"></path>
                    </g>
                    <polygon id="header-left-box-07" fill="#0E4E30" transform="translate(122.500000, 52.500000) rotate(-270.000000) translate(-122.500000, -52.500000) " points="105 35 140 70 140 35"></polygon>
                    <g id="header-left-box-08" transform="translate(105.000000, 70.000000)">
                        <polygon id="Fill-1" points="0 35 35 35 35 0 0 0"></polygon>
                        <polygon id="Fill-2" fill="#BA8C5F" points="17.5002866 26.0909091 8.90909091 17.5002866 17.5002866 8.90909091 26.0909091 17.5002866"></polygon>
                    </g>
                    <g id="header-left-box-09" transform="translate(87.500000, 192.500000) rotate(-360.000000) translate(-87.500000, -192.500000) translate(70.000000, 175.000000)">
                        <polygon id="Fill-1" fill="#0E4E30" points="0 35 35 35 35 0 0 0"></polygon>
                        <polygon id="Fill-2" fill="#207D46" points="0 35 35 35 0 0"></polygon>
                    </g>
                    <g id="header-left-box-10" transform="translate(140.000000, 35.000000)">
                        <polygon id="Fill-1" fill="#207D46" points="0 35 35 35 35 0 0 0"></polygon>
                        <path d="M35,17.5 C35,27.1646667 27.1646667,35 17.5,35 C7.83475,35 0,27.1646667 0,17.5 C0,7.83475 7.83475,0 17.5,0 C27.1646667,0 35,7.83475 35,17.5" id="Fill-2" fill="#0E4E30"></path>
                        <polygon id="Fill-5" fill="#207D46" points="10.8181818 24.1818182 24.1818182 24.1818182 24.1818182 10.8181818 10.8181818 10.8181818"></polygon>
                    </g>
                    <g id="header-left-box-11" transform="translate(175.000000, 35.000000)">
                        <polygon id="Fill-1" fill="#0E4E30" points="0 35 35 35 35 0 0 0"></polygon>
                        <g id="Group-6" transform="translate(6.363636, 5.090909)">
                            <path d="M3.22846364,20.5660636 C5.16873636,21.5747 9.61882727,20.8607 8.37028182,20.1696091 C7.4151,19.6407909 6.85000909,19.0451545 6.74437273,18.4921545 C6.66355455,18.0715182 6.87037273,17.9245182 6.87037273,17.9245182 C7.77400909,18.0848818 8.76355455,18.6792455 9.78491818,18.7957 C10.5447364,18.8822455 10.9322818,18.7524273 11.4528273,18.3362455 C12.2591,17.6909727 14.0536455,15.6711545 15.8386455,13.3815182 C16.3152818,12.7699727 15.6821,12.7979727 15.0578273,12.7483364 C13.7602818,12.6439727 13.3281909,12.0292455 13.1487364,11.5055182 C12.9692818,10.9811545 13.3371,10.9697 13.3371,10.9697 C14.1510091,11.0766091 16.3267364,10.9620636 17.1476455,10.9410636 C17.2984636,10.9366091 17.4550091,10.9289727 17.5892818,10.8602455 C17.7999182,10.7520636 17.9106455,10.5185182 18.0048273,10.3008818 C18.2097364,9.82615455 19.3488273,7.99979091 19.3112818,7.39460909 C19.2972818,7.16933636 16.9650091,8.02142727 16.4406455,7.61415455 C16.1504636,7.38888182 16.2452818,7.11333636 16.2586455,7.0077 C16.3636455,6.15051818 19.6740091,6.54506364 20.0157364,5.65479091 C20.4777364,4.45333636 21.3813727,2.91715455 22.6948273,1.62724545 C23.9522818,0.393336364 21.8223727,0.490063636 20.6654636,0.480518182 C18.4674636,0.462063636 16.3585545,0.5537 13.3899182,1.4637 C12.2871,1.80224545 11.2765545,2.20188182 10.3843727,2.93242727 C9.94146364,3.29451818 9.92237273,4.64042727 9.67355455,5.4677 C9.42473636,6.29624545 8.8431,7.15915455 7.98019091,7.21706364 C7.79055455,6.51960909 8.02537273,5.16733636 8.09282727,4.29488182 C8.14437273,3.62224545 4.98800909,6.32297273 4.5661,7.50915455 C3.99019091,9.12742727 4.84737273,10.7469727 4.70355455,12.4587909 C4.16900909,12.9685182 3.26791818,10.9397909 2.58319091,10.6833364 C2.31400909,10.5827909 1.80300909,11.7734273 1.67255455,12.0922455 C0.8631,14.0649727 0.586281818,17.3021545 2.13837273,19.9417909 L3.22846364,20.5660636 Z" id="Fill-2" fill="#BA8C5F"></path>
                            <path d="M12.6325818,7.49019091 C9.37949091,10.7929182 3.99012727,18.2918273 2.97894545,22.8157364 C2.88667273,23.2287364 2.79376364,23.6538273 2.55958182,24.0070091 C2.14467273,24.6331909 1.29894545,24.9870091 0.584945455,25.2224636 C-0.128418182,25.4585545 0.1554,24.3671909 0.198036364,24.0604636 C1.10930909,17.5663727 8.33521818,9.23191818 13.4286727,5.50282727 C14.5060364,4.71437273 14.8305818,5.38128182 14.3195818,5.90691818 C13.8092182,6.43255455 13.4814909,6.62791818 12.6325818,7.49019091" id="Fill-4" fill="#66493F"></path>
                        </g>
                    </g>
                    <g id="header-left-box-13" transform="translate(227.500000, 87.500000) rotate(-270.000000) translate(-227.500000, -87.500000) translate(210.000000, 70.000000)">
                        <polygon id="Fill-1" fill="#BA8C5F" points="0 35 35 35 35 0 0 0"></polygon>
                        <polygon id="Fill-2" fill="#207D46" points="0 0 35 35 35 0"></polygon>
                        <polygon id="Fill-3" fill="#0E4E30" points="0 0 0 35 35 0"></polygon>
                    </g>
                    <g id="header-left-box-14" transform="translate(35.000000, 70.000000)">
                        <path d="M35,17.5 C35,27.1646667 27.1646667,35 17.5,35 C7.83533333,35 0,27.1646667 0,17.5 C0,7.83533333 7.83533333,0 17.5,0 C27.1646667,0 35,7.83533333 35,17.5" id="Fill-1" fill="#0E4E30"></path>
                        <path d="M24.1818182,17.5 C24.1818182,21.1901455 21.1901455,24.1818182 17.5,24.1818182 C13.8098545,24.1818182 10.8181818,21.1901455 10.8181818,17.5 C10.8181818,13.8098545 13.8098545,10.8181818 17.5,10.8181818 C21.1901455,10.8181818 24.1818182,13.8098545 24.1818182,17.5" id="Fill-4" fill="#207D46"></path>
                    </g>
                    <g id="header-left-box-15" transform="translate(70.000000, 70.000000)" fill="#207D46">
                        <path d="M35,28 L35,35 L28,35 L28,28 L35,28 Z M7,28 L7,35 L0,35 L0,28 L7,28 Z M21,28 L21,35 L14,35 L14,28 L21,28 Z M28,21 L28,28 L21,28 L21,21 L28,21 Z M21,14 L21,21 L14,21 L14,14 L21,14 Z M7,14 L7,21 L0,21 L0,14 L7,14 Z M35,14 L35,21 L28,21 L28,14 L35,14 Z M14,7 L14,14 L7,14 L7,7 L14,7 Z M7,0 L7,7 L0,7 L0,0 L7,0 Z M28,0 L28,7 L21,7 L21,0 L28,0 Z" id="Combined-Shape"></path>
                    </g>
                    <g id="header-left-box-16" transform="translate(140.000000, 70.000000)">
                        <polygon id="Fill-1" fill="#0E4E30" points="0 35 35 35 35 0 0 0"></polygon>
                        <path d="M28.3386842,14.2297956 C27.4164542,12.1479348 25.9955801,8.90909091 23.1736146,8.90909091 C20.7537065,8.90909091 18.2855049,10.5550898 17.2812343,10.5550898 C17.2509782,10.5550898 17.2149036,10.5480026 17.1817382,10.5438684 C17.1485729,10.5480026 17.1130801,10.5550898 17.0822421,10.5550898 C16.0785534,10.5550898 13.60977,8.90909091 11.1904437,8.90909091 C8.36789639,8.90909091 6.94760408,12.1479348 6.02537413,14.2297956 C5.10256233,16.3116564 4.25597269,19.480219 4.49569429,23.3137959 C4.59635409,24.9219965 6.32444428,28.8843239 9.95867033,25.2172959 C13.2437872,21.9022648 15.1609782,21.6382671 16.7028769,21.6317705 L16.7028769,21.6364953 C16.8273925,21.6364953 16.9542354,21.6347235 17.0822421,21.6335423 C17.1159893,21.6341329 17.1485729,21.6341329 17.1817382,21.6341329 C17.2154854,21.6341329 17.2474871,21.6341329 17.2812343,21.6335423 C17.4098229,21.6347235 17.536084,21.6364953 17.6605996,21.6364953 L17.6605996,21.6317705 C19.2024982,21.6382671 21.1196892,21.9022648 24.405388,25.2172959 C28.039614,28.8843239 29.7671224,24.9219965 29.8677822,23.3137959 C30.1080856,19.480219 29.2609141,16.3116564 28.3386842,14.2297956" id="Fill-2" fill="#F3F2EB"></path>
                        <polygon id="Fill-4" fill="#207D46" points="13.1515152 15.4844516 13.1515152 13.3636364 11.030303 13.3636364 11.030303 15.4844516 8.90909091 15.4844516 8.90909091 17.6064575 11.030303 17.6064575 11.030303 19.7272727 13.1515152 19.7272727 13.1515152 17.6064575 15.2727273 17.6064575 15.2727273 15.4844516"></polygon>
                        <path d="M23.8087179,14.8995596 C23.3118644,15.3971165 22.5064708,15.3971165 22.0090038,14.8995596 C21.5121502,14.4026162 21.5121502,13.5970771 22.0090038,13.0995201 C22.5064708,12.6031903 23.3118644,12.6031903 23.8087179,13.0995201 C24.3061849,13.5970771 24.3061849,14.4026162 23.8087179,14.8995596" id="Fill-6" fill="#BA8C5F"></path>
                        <path d="M26.3545652,17.4454743 C25.8576218,17.9424177 25.0514691,17.9424177 24.5545257,17.4454743 C24.0575823,16.9479174 24.0575823,16.1423782 24.5545257,15.6454348 C25.0514691,15.1484914 25.8576218,15.1484914 26.3545652,15.6454348 C26.8515086,16.1423782 26.8515086,16.9479174 26.3545652,17.4454743" id="Fill-8" fill="#BA8C5F"></path>
                        <path d="M21.2636561,17.4454743 C20.7667127,17.9424177 19.96056,17.9424177 19.4636166,17.4454743 C18.9666732,16.9479174 18.9666732,16.1423782 19.4636166,15.6454348 C19.96056,15.1484914 20.7667127,15.1484914 21.2636561,15.6454348 C21.7605995,16.1423782 21.7605995,16.9479174 21.2636561,17.4454743" id="Fill-10" fill="#BA8C5F"></path>
                        <path d="M23.8087179,19.9909288 C23.3118644,20.4878722 22.5064708,20.4878722 22.0090038,19.9909288 C21.5121502,19.4933719 21.5121502,18.6878328 22.0090038,18.1908894 C22.5064708,17.693946 23.3118644,17.693946 23.8087179,18.1908894 C24.3061849,18.6878328 24.3061849,19.4933719 23.8087179,19.9909288" id="Fill-12" fill="#BA8C5F"></path>
                    </g>
                    <g id="header-left-box-17" transform="translate(175.000000, 70.000000)">
                        <polygon id="Fill-1" fill="#207D46" points="0 35 35 35 35 0 0 0"></polygon>
                        <polygon id="Fill-2" fill="#0E4E30" points="0 35 35 35 17.5 11.4545455"></polygon>
                    </g>
                    <g id="header-left-box-18" transform="translate(245.000000, 70.000000)">
                        <polygon id="Fill-1" fill="#207D46" points="0 35 35 35 35 0 0 0"></polygon>
                        <path d="M28.5682667,8.77008061 C28.5682667,8.77008061 28.4418094,8.76308244 27.7492487,8.76308244 C24.3266278,8.76308244 18.8978263,7.18966165 17.5002955,4.45454545 C16.1027647,7.18966165 10.6733722,8.76308244 7.25075134,8.76308244 C6.55819062,8.76308244 6.43173328,8.77008061 6.43173328,8.77008061 C6.38977781,11.5005314 6.2639114,14.8205775 6.51978068,17.0891494 C7.85703743,28.9504561 17.5002955,30.5454545 17.5002955,30.5454545 C17.5002955,30.5454545 27.1435535,28.9504561 28.4802193,17.0891494 C28.7360886,14.8205775 28.6102222,11.5005314 28.5682667,8.77008061" id="Fill-2" fill="#0E4E30"></path>
                        <path d="M26.0187095,11.5329321 C19.4576134,11.5329321 17.4998717,8.90909091 17.4998717,8.90909091 C17.4998717,8.90909091 15.5427215,11.5329321 8.98103388,11.5329321 C8.98103388,11.5329321 8.78466825,15.0955358 9.04077162,16.9220157 C9.71799645,21.740801 12.0595974,26.8036645 17.4998717,28 C22.940146,26.7667008 25.2817469,21.740801 25.9589718,16.9220157 C26.2156666,15.0955358 26.0187095,11.5329321 26.0187095,11.5329321" id="Fill-4" fill="#66493F"></path>
                        <path d="M21.1340967,17.8132714 C21.1404513,17.2708188 21.5344371,16.9455783 21.7054339,16.6411348 C21.9913914,16.1316106 21.8960722,15.2633398 21.8960722,15.2633398 C21.4870664,15.5660503 20.5627595,15.5181019 20.1520206,15.2633398 C19.763234,15.0218646 19.600325,14.6636957 19.4974958,13.8295087 C19.401599,13.0450032 18.8163972,12.7272727 18.8163972,12.7272727 C18.6026512,13.7133926 17.6361728,13.9017202 17.1254932,13.8774571 L17.1254932,13.8780348 C16.5847737,13.8751464 16.2629994,13.4736505 15.9608665,13.300343 C15.4565416,13.0109194 14.5986692,13.1073939 14.5986692,13.1073939 C14.8984913,13.5210213 14.8505429,14.4557266 14.5986692,14.871087 C14.3595048,15.2639175 14.0059574,15.429715 13.1810135,15.5331219 C12.4045957,15.6301741 12.0909091,16.2217305 12.0909091,16.2217305 C13.0221483,16.4285442 13.2335835,17.3268549 13.228962,17.8577537 C13.206432,18.3794094 12.8286215,18.6982953 12.6616686,18.9958066 C12.3751335,19.5059084 12.4704526,20.3741792 12.4704526,20.3741792 C12.8794584,20.0703133 13.804343,20.1188395 14.2145042,20.3741792 C14.6032908,20.6150767 14.7667776,20.9732456 14.869029,21.8068549 C14.9649259,22.5919381 15.5501277,22.9090909 15.5501277,22.9090909 C15.7644513,21.9241264 16.728619,21.7352211 17.2392985,21.7594842 C17.7794404,21.7641057 18.1012147,22.1644462 18.4027698,22.3377537 C18.9070948,22.6271773 19.7655448,22.5307028 19.7655448,22.5307028 C19.4657228,22.1170754 19.5130935,21.1823701 19.7655448,20.766432 C20.0041315,20.3741792 20.3582566,20.2083817 21.1826228,20.1055525 C21.9590406,20.0079226 22.2727273,19.4163662 22.2727273,19.4163662 C21.3617073,19.2141741 21.1392959,18.3476364 21.1340967,17.8132714" id="Fill-6" fill="#BA8C5F"></path>
                    </g>
                    <path d="M297.5,35 L280,35 L280,70 L297.5,70 C307.16525,70 315,62.16525 315,52.5005833 C315,42.8353333 307.16525,35 297.5,35" id="header-left-box-19" fill="#0E4E30"></path>
                    <rect id="header-left-box-20" fill="#BA8C5F" x="0" y="105" width="35" height="35"></rect>
                    <rect id="header-left-box-21" fill="#0E4E30" x="70" y="105" width="35" height="35"></rect>
                    <g id="header-left-box-22" transform="translate(140.000000, 105.000000)">
                        <polygon id="Fill-1" fill="#66493F" points="0 35 35 35 35 0 0 0"></polygon>
                        <path d="M19.9836,20.3187091 C20.7758727,20.0915273 21.4905091,19.7752545 22.0556,19.4239818 C23.9742364,18.2282545 25.0554182,16.3121636 25.3029636,15.2507091 C25.5855091,14.0384364 26.0016909,10.9100727 26.0016909,10.9100727 L26.0016909,10.0121636 L17.4998727,10.0121636 L8.99805455,10.0121636 L8.99805455,10.9100727 C8.99805455,10.9100727 9.41423636,14.0384364 9.69678182,15.2507091 C9.94496364,16.3121636 11.0255091,18.2282545 12.9441455,19.4239818 C13.5092364,19.7752545 14.2245091,20.0915273 15.0161455,20.3187091 C15.4724182,20.5280727 15.5672364,20.8061636 15.5672364,21.1135273 L15.5672364,22.6465273 C15.5672364,23.0499818 15.3432364,22.9838 15.0906,23.1308 C14.3956909,23.5342545 12.3160545,23.6596182 10.5227818,25.2638909 L10.2141455,26.0313455 L9.51414545,26.3940727 C9.51414545,26.3940727 8.94969091,26.7568 9.51414545,27.0393455 C10.0792364,27.3218909 12.7386,28.2089818 17.4998727,28.2089818 C22.2617818,28.2089818 24.9211455,27.3218909 25.4856,27.0393455 C26.0506909,26.7568 25.4856,26.3940727 25.4856,26.3940727 L24.7862364,26.0313455 L24.4776,25.2638909 C22.7422364,23.4890727 20.6046909,23.5342545 19.9091455,23.1308 C19.6565091,22.9838 19.4325091,23.0499818 19.4325091,22.6465273 L19.4325091,21.1135273 C19.4325091,20.8061636 19.5273273,20.5280727 19.9836,20.3187091" id="Fill-2" fill="#207D46"></path>
                        <path d="M7.31067273,9.33704545 C7.39912727,10.4303182 7.44303636,10.6072273 7.48758182,10.9610455 C7.53212727,11.3148636 7.94958182,11.7075 8.23912727,11.8475 C10.1304,12.7632273 12.3239455,13.4167727 17.5001273,13.4167727 L17.5001273,11.0259545 L7.31067273,9.33704545 Z" id="Fill-4" fill="#66493F"></path>
                        <path d="M27.6892636,9.33704545 C27.6008091,10.4303182 27.5569,10.6072273 27.5123545,10.9610455 C27.4678091,11.3148636 27.0503545,11.7075 26.7608091,11.8475 C24.8695364,12.7632273 22.6766273,13.4167727 17.4998091,13.4167727 L17.4998091,11.0259545 L27.6892636,9.33704545 Z" id="Fill-6" fill="#66493F"></path>
                        <path d="M27.6892636,9.33704545 C27.6892636,10.7809545 23.2391727,11.8831364 17.4998091,11.8831364 C11.7610818,11.8831364 7.31099091,10.7809545 7.31099091,9.33704545 C7.31099091,7.89313636 11.7610818,6.79095455 17.4998091,6.79095455 C23.2391727,6.79095455 27.6892636,7.89313636 27.6892636,9.33704545" id="Fill-8" fill="#BA8C5F"></path>
                        <path d="M25.4880818,9.25813636 C25.4880818,10.2254091 21.6641727,10.8242273 17.4998091,10.8242273 C13.3360818,10.8242273 9.51217273,10.2254091 9.51217273,9.25813636 C9.51217273,8.29086364 13.3360818,7.75377273 17.4998091,7.75377273 C21.6641727,7.75377273 25.4880818,8.29086364 25.4880818,9.25813636" id="Fill-10" fill="#66493F"></path>
                        <path d="M10.4825636,10.0324636 C11.8781091,10.5339182 14.6049273,10.8241 17.4997455,10.8241 C20.3952,10.8241 23.1220182,10.5339182 24.5175636,10.0324636 C23.1220182,9.54946364 20.3952,9.28919091 17.4997455,9.28919091 C14.6049273,9.28919091 11.8781091,9.54946364 10.4825636,10.0324636" id="Fill-12" fill="#0E4E30"></path>
                        <path d="M19.9668,21.3428727 L17.5002545,21.9671455 L15.0337091,21.3428727 L14.9096182,21.4625091 C14.8784364,21.8513273 15.2341636,22.4915091 15.5758909,22.6588727 C16.1778909,22.9547818 17.0153455,23.0184182 17.5002545,23.0184182 C18.1168909,23.0184182 18.8219818,22.9547818 19.4239818,22.6588727 C19.7663455,22.4915091 20.1220727,21.8513273 20.0902545,21.4625091 L19.9668,21.3428727 Z" id="Fill-14" fill="#66493F"></path>
                        <path d="M19.4659182,20.8369636 C18.9237364,21.1691455 17.7598273,21.2346909 17.5001909,21.2346909 C17.2405545,21.2346909 16.0760091,21.1691455 15.5338273,20.8369636 C15.5338273,20.8369636 15.0896455,21.0622364 14.9095545,21.4625091 C14.9006455,21.4835091 15.8125545,22.0988727 17.5001909,22.0988727 C19.1878273,22.0988727 20.0997364,21.4835091 20.0901909,21.4625091 C19.9107364,21.0622364 19.4659182,20.8369636 19.4659182,20.8369636" id="Fill-16" fill="#BA8C5F"></path>
                        <path d="M25.4856,26.3940091 L24.7862364,26.0312818 L24.4769636,25.2644636 C23.7947818,25.8620091 20.4926909,26.4761 17.4998727,26.4761 C14.5076909,26.4761 11.2049636,25.8620091 10.5227818,25.2644636 L10.2141455,26.0312818 L9.51414545,26.3940091 C9.51414545,26.3940091 8.94969091,26.7567364 9.51414545,27.0392818 C10.0792364,27.3218273 12.7386,28.2095545 17.4998727,28.2095545 C22.2617818,28.2095545 24.9205091,27.3218273 25.4856,27.0392818 C26.0500545,26.7567364 25.4856,26.3940091 25.4856,26.3940091" id="Fill-18" fill="#0E4E30"></path>
                        <path d="M18.9411091,19.1441727 C18.5637455,19.1441727 18.2366545,18.8635364 18.1876545,18.4785364 C18.1354727,18.0623545 18.4307455,17.6818091 18.8475636,17.6296273 C19.8033818,17.5093545 21.1442,16.9130818 21.7761091,15.6289 C21.9619273,15.2521727 22.4169273,15.0975364 22.7936545,15.2820818 C23.1703818,15.4679 23.3256545,15.9229 23.1404727,16.2996273 C22.4003818,17.8033545 20.7897455,18.9176273 19.0372,19.1378091 C19.0047455,19.1422636 18.9729273,19.1441727 18.9411091,19.1441727" id="Fill-20" fill="#0E4E30"></path>
                    </g>
                    <path d="M210,140 C229.329973,140 245,124.330236 245,105 L210,105 L210,140 Z" id="header-left-box-23" fill="#0E4E30"></path>
                    <g id="header-left-box-24" transform="translate(35.000000, 140.000000)">
                        <polygon id="Fill-1" fill="#BA8C5F" points="35 0 0 35 35 35"></polygon>
                        <polygon id="Fill-2" fill="#207D46" points="0 0 0 35 35 35"></polygon>
                    </g>
                    <g id="header-left-box-25" transform="translate(70.000000, 140.000000)">
                        <path d="M29.8742714,5.12566457 C23.0399665,-1.70855486 11.959596,-1.70855486 5.12529114,5.12566457 C-1.70843038,11.959884 -1.70843038,23.040116 5.12529114,29.8743354 C11.959596,36.7085549 23.0399665,36.7085549 29.8742714,29.8743354 C36.7085762,23.040116 36.7085762,11.959884 29.8742714,5.12566457" id="Fill-1" fill="#207D46"></path>
                        <polygon id="Fill-4" fill="#0E4E30" points="22.5005765 17.498847 27.498847 12.5 22.5 7.5005765 17.501153 12.4994235 12.5017295 7.5 7.5 12.501153 12.5 17.5005765 7.501153 22.4994235 12.5005765 27.498847 17.4994235 22.5 22.498847 27.5 27.5 22.4982705"></polygon>
                    </g>
                    <g id="header-left-box-26" transform="translate(175.000000, 140.000000)">
                        <polygon id="Fill-1" fill="#0E4E30" points="0 35 35 35 35 0 0 0"></polygon>
                        <polygon id="Fill-2" fill="#207D46" points="17.5 35 34.9993636 35 34.9993636 0 17.5 0"></polygon>
                        <polygon id="Fill-3" fill="#BA8C5F" points="9.625 25.375 25.375 25.375 25.375 9.625 9.625 9.625"></polygon>
                    </g>
                    <g id="header-left-box-27" transform="translate(210.000000, 140.000000)">
                        <polygon id="Fill-1" fill="#207D46" points="0.000572727273 6.36363636e-05 34.9999364 35.0000636 34.9999364 6.36363636e-05"></polygon>
                        <polygon id="Fill-2" fill="#0E4E30" points="0 26.3187273 35 26.3187273 35 0 0 0"></polygon>
                        <g id="Group-9" transform="translate(7.000000, 10.818182)" fill="#BA8C5F">
                            <path d="M16.5114091,2.34137273 C16.5114091,3.42828182 17.3927727,4.31028182 18.4803182,4.31028182 C19.5672273,4.31028182 20.4485909,3.42828182 20.4485909,2.34137273 C20.4485909,1.25382727 19.5672273,0.372463636 18.4803182,0.372463636 C17.3927727,0.372463636 16.5114091,1.25382727 16.5114091,2.34137273" id="Fill-3"></path>
                            <path d="M8.53140909,2.34137273 C8.53140909,3.42828182 9.41277273,4.31028182 10.5003182,4.31028182 C11.5872273,4.31028182 12.4685909,3.42828182 12.4685909,2.34137273 C12.4685909,1.25382727 11.5872273,0.372463636 10.5003182,0.372463636 C9.41277273,0.372463636 8.53140909,1.25382727 8.53140909,2.34137273" id="Fill-5"></path>
                            <path d="M0.551090909,2.34137273 C0.551090909,3.42828182 1.43245455,4.31028182 2.52,4.31028182 C3.60754545,4.31028182 4.48827273,3.42828182 4.48827273,2.34137273 C4.48827273,1.25382727 3.60754545,0.372463636 2.52,0.372463636 C1.43245455,0.372463636 0.551090909,1.25382727 0.551090909,2.34137273" id="Fill-7"></path>
                        </g>
                    </g>
                    <g id="header-left-box-28" transform="translate(245.000000, 140.000000)" fill="#207D46">
                        <polygon id="Fill-1" points="0 17.1818182 17.1818182 17.1818182 17.1818182 0 0 0"></polygon>
                        <polygon id="Fill-2" points="17.1818182 34.3636364 34.3636364 34.3636364 34.3636364 17.1818182 17.1818182 17.1818182"></polygon>
                    </g>
                    <g id="header-left-box-29" transform="translate(0.000000, 175.000000)">
                        <polygon id="Fill-1" fill="#66493F" points="0 35 35 35 35 0 0 0"></polygon>
                        <g id="Group-14" transform="translate(5.090909, 3.181818)">
                            <path d="M13.6816273,13.4968273 C16.0775364,12.9005545 18.5886273,12.4500091 21.0271727,12.8458273 C22.3126273,13.0539182 23.6515364,13.5986455 24.2414455,14.6900091 C24.8879909,15.8863727 24.4170818,17.3951909 23.5147182,18.4413727 C22.6117182,19.4869182 21.3485364,20.1894636 20.1642636,20.9486455 C18.5638091,21.9738273 17.0639,23.1390091 15.4042636,24.0776455 C12.2708091,25.8499182 8.59262727,26.8572818 4.94308182,26.7783727 C3.94271818,26.7573727 2.81508182,26.5556455 1.96108182,26.0707364 C0.504445455,25.2434636 0.0131727273,23.4247364 0.407718182,21.8656455 C0.802263636,20.3071909 2.01899091,19.0179182 3.44317273,18.1321 C4.86671818,17.2469182 6.68480909,16.3451909 8.2159,15.6343727 C9.91435455,14.8465545 11.2863545,14.0931 13.6816273,13.4968273" id="Fill-2" fill="#BA8C5F"></path>
                            <path d="M15.5637364,3.92343636 C15.0342818,3.54034545 11.1747364,0.334345455 11.1747364,0.334345455 L8.30219091,1.35952727 L7.91846364,2.88743636 L9.04419091,5.72943636 L11.5349182,2.8378 C11.5349182,2.8378 14.2235545,4.08443636 15.1112818,4.41852727 C15.7234636,4.64952727 15.8341909,4.11943636 15.5637364,3.92343636" id="Fill-4" fill="#0E4E30"></path>
                            <path d="M9.89329091,4.00482727 C10.5716545,5.0981 10.9057455,5.92664545 11.7953818,7.49146364 C13.2774727,10.1005545 15.9985636,13.3046455 17.4742909,15.6152818 C17.8796545,16.2497364 18.1863818,16.6169182 17.8204727,17.3481 C16.7723818,19.4398273 14.9689273,20.8283727 12.9402,21.4125545 C10.1968364,22.2048273 8.67083636,22.3378273 6.64147273,21.5735545 C6.15592727,21.3909182 5.96629091,21.0911909 5.98474545,20.3937364 C6.0102,19.4143727 6.56956364,17.9017364 6.5772,16.9325545 C6.62683636,10.2564636 7.07992727,7.10964545 7.55847273,4.42355455 C7.65456364,3.88264545 8.32656364,1.25382727 8.32465455,1.26966446 C8.32401818,1.27355455 9.30465455,3.05728182 9.89329091,4.00482727" id="Fill-6" fill="#207D46"></path>
                            <path d="M8.75388182,18.6865636 L9.55697273,19.2134727 L9.3667,20.2418364 L10.2868818,19.4756545 L11.4043364,19.9993818 L10.9677909,19.0683818 C10.9677909,19.0683818 11.5907909,18.2990182 11.6067,18.2831091 C11.6175182,18.2722909 10.6597909,18.3422909 10.6597909,18.3422909 L10.0087909,17.4265636 L9.70715455,18.4600182 L8.75388182,18.6865636 Z" id="Fill-8" fill="#0E4E30"></path>
                            <path d="M7.68001818,14.1083091 L7.44265455,13.1321273 L8.2292,12.2100364 L7.20529091,12.2571273 C7.20529091,12.2571273 6.84892727,11.7340364 6.70638182,11.4750364 C6.67583636,12.1196727 6.65038182,12.8056727 6.62874545,13.5298545 L7.68001818,14.1083091 Z" id="Fill-10" fill="#0E4E30"></path>
                            <polygon id="Fill-12" fill="#0E4E30" points="10.2984636 14.2866818 11.6558273 14.6952273 11.8938273 16.0780455 12.7395545 14.8135909 14.2337364 14.9135 13.4325545 13.9494091 13.9340091 12.6378636 12.7230091 13.2201364 11.4095545 12.0645 11.5368273 13.6388636"></polygon>
                        </g>
                    </g>
                    <path d="M35,210 C54.3299731,210 70,194.330236 70,175 L35,175 L35,210 Z" id="header-left-box-30" fill="#0E4E30"></path>
                    <rect id="header-left-box-31" fill="#0E4E30" x="105" y="210" width="35" height="35"></rect>
                    <rect id="header-left-box-31-copy-2" fill="#207D46" x="105" y="175" width="35" height="35"></rect>
                    <rect id="header-left-box-31-copy-3" fill="#BA8C5F" x="140" y="175" width="35" height="35"></rect>
                    <rect id="header-left-box-31-copy" fill="#0E4E30" x="105" y="140" width="35" height="35"></rect>
                    <g id="header-left-box-32" transform="translate(227.500000, 192.500000) scale(-1, 1) translate(-227.500000, -192.500000) translate(210.000000, 175.000000)">
                        <polygon id="Fill-1" fill="#0E4E30" points="0 35 35 35 35 0 0 0"></polygon>
                        <polygon id="Fill-2" fill="#BA8C5F" points="0 0 0 35 23.5454545 17.499412"></polygon>
                    </g>
                    <rect id="header-left-box-33" fill="#0E4E30" x="0" y="210" width="35" height="35"></rect>
                    <polygon id="header-left-box-34" fill="#66493F" points="140 245 140 280 175 245"></polygon>
                    <g id="header-left-box-12" transform="translate(210.000000, 35.000000)" fill="#207D46">
                        <circle id="Oval" cx="5.83333333" cy="5.83333333" r="5.83333333"></circle>
                        <circle id="Oval-Copy-3" cx="5.83333333" cy="17.5" r="5.83333333"></circle>
                        <circle id="Oval-Copy-6" cx="5.83333333" cy="29.1666667" r="5.83333333"></circle>
                        <circle id="Oval-Copy" cx="17.5" cy="5.83333333" r="5.83333333"></circle>
                        <circle id="Oval-Copy-4" cx="17.5" cy="17.5" r="5.83333333"></circle>
                        <circle id="Oval-Copy-7" cx="17.5" cy="29.1666667" r="5.83333333"></circle>
                        <circle id="Oval-Copy-2" cx="29.1666667" cy="5.83333333" r="5.83333333"></circle>
                        <circle id="Oval-Copy-5" cx="29.1666667" cy="17.5" r="5.83333333"></circle>
                        <circle id="Oval-Copy-8" cx="29.1666667" cy="29.1666667" r="5.83333333"></circle>
                    </g>
                </g>
                <g id="Group-3" transform="translate(418.000000, 0.000000)">
                    <g id="header-right-box-01" transform="translate(315.000000, -0.000000)">
                        <polygon id="Fill-1" fill="#207D46" points="0 35 35 35 35 0.000636363636 0 0.000636363636"></polygon>
                        <path d="M17.5003818,17.4999364 L29.8751091,5.12584545 C26.7085636,1.95866364 22.3335636,-6.36363636e-05 17.5003818,-6.36363636e-05 C7.83529091,-6.36363636e-05 0.000381818182,7.83484545 0.000381818182,17.4999364 C0.000381818182,27.1650273 7.83529091,34.9999364 17.5003818,34.9999364 C22.3335636,34.9999364 26.7085636,33.0412091 29.8751091,29.8740273 L17.5003818,17.4999364 Z" id="Fill-2" fill="#0E4E30"></path>
                    </g>
                    <g id="header-right-box-02" transform="translate(245.000000, -0.000000)" fill="#207D46">
                        <path d="M35,28.0101818 L35,35 L28,35 L28,28.0101818 L35,28.0101818 Z M21.0006364,28.0101818 L21.0006364,35 L14,35 L14,28.0101818 L21.0006364,28.0101818 Z M7,28.0101818 L7,35 L0,35 L0,28.0101818 L7,28.0101818 Z M28,21.0216364 L28,28.0108182 L21,28.0108182 L21,21.0216364 L28,21.0216364 Z M35,14.0318182 L35,21.021 L28,21.021 L28,14.0318182 L35,14.0318182 Z M14,14.0318182 L14,21.021 L7,21.021 L7,14.0318182 L14,14.0318182 Z M28,7.04263636 L28,14.0318182 L21,14.0318182 L21,7.04263636 L28,7.04263636 Z M35,4.48126384e-15 L35,6.98981818 L28,6.98981818 L28,4.48126384e-15 L35,4.48126384e-15 Z M21.0006364,4.48126384e-15 L21.0006364,6.98981818 L14,6.98981818 L14,4.48126384e-15 L21.0006364,4.48126384e-15 Z M7,4.48126384e-15 L7,6.98981818 L0,6.98981818 L0,4.48126384e-15 L7,4.48126384e-15 Z" id="Combined-Shape"></path>
                    </g>
                    <rect id="header-right-box-03" fill="#BA8C5F" x="210" y="-3.55271368e-15" width="35" height="35"></rect>
                    <g id="header-right-box-04" transform="translate(175.000000, -0.000000)">
                        <polygon id="Fill-1" fill="#207D46" points="0 35 35 35 35 0 0 0"></polygon>
                        <polygon id="Fill-2" fill="#66493F" points="23.8524364 29.0206636 11.1474364 29.0206636 10.0369818 10.2428455 24.9628909 10.2428455"></polygon>
                        <path d="M20.6488545,17.1926364 C20.6488545,18.9311818 19.2386727,20.3407273 17.5001273,20.3407273 C15.7609455,20.3407273 14.3514,18.9311818 14.3514,17.1926364 C14.3514,15.4534545 15.7609455,14.0439091 17.5001273,14.0439091 C19.2386727,14.0439091 20.6488545,15.4534545 20.6488545,17.1926364" id="Fill-3" fill="#207D46"></path>
                        <polygon id="Fill-5" fill="#0E4E30" points="17.5 15.2313636 18.1459091 16.4875455 19.4682727 16.6561818 18.4984545 17.5553636 18.7625455 18.8204545 17.5 18.2114545 16.2374545 18.8204545 16.5021818 17.5553636 15.5317273 16.6561818 16.8540909 16.4875455"></polygon>
                        <polygon id="Fill-7" fill="#66493F" points="24.9629545 8.68063636 10.0370455 8.68063636 10.7160455 5.97990909 24.2852273 5.97990909"></polygon>
                        <polygon id="Fill-9" fill="#BA8C5F" points="8.96 10.458 26.04 10.458 26.04 8.46490909 8.96 8.46490909"></polygon>
                    </g>
                    <rect id="header-right-box-05" fill="#0E4E30" x="140" y="-3.55271368e-15" width="35" height="35"></rect>
                    <rect id="header-right-box-06" fill="#0E4E30" x="70" y="0" width="35" height="35"></rect>
                    <g id="header-right-box-07" transform="translate(280.000000, 35.000000)">
                        <polygon id="Fill-1" fill="#0E4E30" points="0 35 35 35 35 0.000636363636 0 0.000636363636"></polygon>
                        <polygon id="Fill-2" fill="#207D46" points="0 17.5 34.9993636 17.5 34.9993636 0.000636363636 0 0.000636363636"></polygon>
                        <polygon id="Fill-3" fill="#BA8C5F" points="9.625 25.375 25.3743636 25.375 25.3743636 9.625 9.625 9.625"></polygon>
                    </g>
                    <polygon id="header-right-box-08" fill="#0E4E30" points="245 35 210 70 245 70"></polygon>
                    <g id="header-right-box-09" transform="translate(175.000000, 35.000000)">
                        <polygon id="Fill-1" fill="#66493F" points="0 35 35 35 35 0 0 0"></polygon>
                        <g id="Group-16">
                            <path d="M13.7866909,6.43058182 C13.7866909,6.43058182 18.8667818,8.36894545 18.8667818,10.4263091 L17.5049636,14.4029455 L16.3709636,13.0264909 C16.3709636,13.0264909 15.9967818,9.14403636 13.7866909,6.43058182" id="Fill-2" fill="#0E4E30"></path>
                            <path d="M16.3706455,15.1681727 C16.3706455,15.1681727 16.5691909,9.26335455 24.1960091,5.45408182 C24.1960091,5.45408182 21.1981,9.92835455 21.1981,14.8245364 L20.5693727,22.1630818 L16.9058273,22.1630818 L16.3706455,15.1681727 Z" id="Fill-4" fill="#207D46"></path>
                            <path d="M8.57455455,7.36648182 C8.57455455,7.36648182 18.5540091,9.93357273 18.5540091,17.1512091 L13.9830091,21.4390273 L12.6784636,17.9765727 C12.6784636,17.9765727 13.7895545,11.9801182 8.57455455,7.36648182" id="Fill-6" fill="#0E4E30"></path>
                            <path d="M15.4621091,22.8275091 C15.4621091,22.8275091 17.4787455,12.9416 27.7757455,11.5473273 C27.7757455,11.5473273 21.9950182,16.6592364 21.9950182,24.6863273 L15.9801091,24.6863273 L15.4621091,22.8275091 Z" id="Fill-8" fill="#0E4E30"></path>
                            <path d="M5.78429091,12.0018818 C5.78429091,12.0018818 12.3642909,15.7583364 12.3642909,21.4391545 L18.5529273,21.4391545 C18.5529273,21.4391545 18.8322909,12.0018818 5.78429091,12.0018818" id="Fill-10" fill="#207D46"></path>
                            <mask id="mask-2" fill="white">
                                <use xlink:href="#path-1"></use>
                            </mask>
                            <g id="Clip-13"></g>
                            <polygon id="Fill-12" fill="#BA8C5F" mask="url(#mask-2)" points="9.35136364 23.4582727 25.3883636 23.4582727 25.3883636 20.0912727 9.35136364 20.0912727"></polygon>
                            <polygon id="Fill-14" fill="#BA8C5F" mask="url(#mask-2)" points="23.6640091 30.1519273 11.0767364 30.1519273 10.6961909 23.4580182 24.0445545 23.4580182"></polygon>
                            <polygon id="Fill-15" fill="#66493F" mask="url(#mask-2)" points="23.9952364 24.3190182 24.0442364 23.4580182 10.6958727 23.4580182 10.7448727 24.3190182"></polygon>
                        </g>
                    </g>
                    <g id="header-right-box-10" transform="translate(140.000000, 35.000000)">
                        <path d="M35.0001909,17.4998727 C35.0001909,27.1649636 27.1646455,34.9998727 17.5001909,34.9998727 C7.8351,34.9998727 0.000190909091,27.1649636 0.000190909091,17.4998727 C0.000190909091,7.83478182 7.8351,-0.000127272727 17.5001909,-0.000127272727 C27.1646455,-0.000127272727 35.0001909,7.83478182 35.0001909,17.4998727" id="Fill-1" fill="#0E4E30"></path>
                        <path d="M17.5001909,17.4998727 L29.8742818,29.8739636 C33.0414636,26.7074182 35.0001909,22.3324182 35.0001909,17.4998727 C35.0001909,12.6673273 33.0414636,8.29232727 29.8742818,5.12578182 L17.5001909,17.4998727 Z" id="Fill-4" fill="#207D46"></path>
                    </g>
                    <g id="header-right-box-11" transform="translate(105.000000, 35.000000)">
                        <polygon id="Fill-1" fill="#0E4E30" points="0 35 35 35 35 0 0 0"></polygon>
                        <polygon id="Fill-2" fill="#BA8C5F" points="7.21890909 27.7810909 27.7817273 27.7810909 27.7817273 7.21827273 7.21890909 7.21827273"></polygon>
                        <path d="M19.6454364,13.3519909 C18.7952545,13.3519909 18.0341636,14.0494455 17.5059818,14.6342636 L17.5002545,14.6285364 L17.4945273,14.6342636 C16.9663455,14.0494455 16.2046182,13.3519909 15.3550727,13.3519909 C13.7609818,13.3519909 12.4691636,14.6438091 12.4691636,16.2379 C12.4691636,16.9741727 12.6912545,17.5653545 13.2003455,18.1539909 L13.2003455,18.1578091 L17.5002545,22.5232636 L21.7995273,18.1578091 L21.7995273,18.1539909 C22.3086182,17.5653545 22.5313455,16.9741727 22.5313455,16.2379 C22.5313455,14.6438091 21.2388909,13.3519909 19.6454364,13.3519909" id="Fill-3" fill="#66493F"></path>
                    </g>
                    <g id="header-right-box-12" transform="translate(70.000000, 35.000000)" fill="#207D46">
                        <path d="M11.6244545,23.3755455 L11.6244545,35 L-1.09326689e-13,35 L-1.09326689e-13,23.3755455 L11.6244545,23.3755455 Z M35,23.3755455 L35,35 L23.3755455,35 L23.3755455,23.3755455 L35,23.3755455 Z M23.2495455,11.6244545 L23.2495455,23.2489091 L11.6244545,23.2489091 L11.6244545,11.6244545 L23.2495455,11.6244545 Z M11.6244545,0 L11.6244545,11.6244545 L-1.09326689e-13,11.6244545 L-1.09326689e-13,0 L11.6244545,0 Z M34.8746364,0 L34.8746364,11.6244545 L23.2495455,11.6244545 L23.2495455,0 L34.8746364,0 Z" id="Combined-Shape"></path>
                    </g>
                    <path d="M0,70 C0,50.6698182 15.6704545,35 35,35 L35,70 L0,70 Z" id="header-right-box-13" fill="#BA8C5F"></path>
                    <rect id="header-right-box-14" fill="#207D46" x="315" y="70" width="35" height="35"></rect>
                    <g id="header-right-box-15" transform="translate(210.000000, 70.000000)">
                        <polygon id="Fill-1" fill="#207D46" points="0 70 70 70 70 0 0 0"></polygon>
                        <path d="M56.8846727,38.2711 L53.0906727,38.2711 C53.0270364,39.8620091 52.7101273,41.2136455 52.1984909,42.3629182 L55.5814,44.3159182 C55.8703091,44.4826455 55.9695818,44.8523727 55.8028545,45.1412818 C55.6354909,45.4301909 55.2664,45.5288273 54.9774909,45.3627364 L51.6321273,43.4307364 C48.2530364,48.8551 39.8536727,48.8557364 34.9994909,48.8557364 C30.1453091,48.8557364 21.7465818,48.8551 18.3681273,43.4307364 L15.0227636,45.3627364 C14.7338545,45.5288273 14.3641273,45.4301909 14.1974,45.1412818 C14.0300364,44.8523727 14.1286727,44.4826455 14.4182182,44.3159182 L17.8011273,42.3629182 C17.2888545,41.2136455 16.9725818,39.8620091 16.9089455,38.2711 L13.1149455,38.2711 C12.7808545,38.2711 12.5110364,38.0006455 12.5110364,37.6671909 C12.5110364,37.3331 12.7808545,37.0632818 13.1149455,37.0632818 L16.9102182,37.0632818 C17.0718545,33.0293727 18.8555818,30.5322818 21.3393091,28.9878273 C22.1112182,27.5700091 24.2309455,23.6780091 25.3146727,21.6874636 C25.7136727,20.9556455 26.2227636,20.9690091 26.5937636,21.6881 C27.3243091,23.1052818 28.5174909,25.4210091 29.1723091,26.6911909 C31.2996727,26.4799182 33.3532182,26.4799182 34.9988545,26.4799182 L34.9994909,26.4799182 L35.0001273,26.4799182 C36.6464,26.4799182 38.6999455,26.4799182 40.8273091,26.6911909 C41.4821273,25.4216455 42.6740364,23.1078273 43.4045818,21.6906455 C43.7762182,20.9696455 44.2872182,20.9575545 44.6874909,21.6919182 C45.7718545,23.6837364 47.8884,27.5706455 48.6603091,28.9878273 C51.1440364,30.5322818 52.9277636,33.0293727 53.0900364,37.0632818 L56.8846727,37.0632818 C57.2181273,37.0632818 57.4892182,37.3331 57.4892182,37.6671909 C57.4892182,38.0006455 57.2181273,38.2711 56.8846727,38.2711" id="Fill-2" fill="#0E4E30"></path>
                        <path d="M28.2548636,39.9727364 C28.4266818,39.7073727 28.7849545,39.6405545 29.0395,39.8276455 L29.0395,39.8276455 L29.0745,39.8531 C29.3029545,40.0217364 29.3621364,40.3348273 29.2170455,40.5791909 C29.0045,40.9368273 28.8912273,41.3390091 28.8912273,41.7481909 C28.8912273,43.1157364 30.1302273,44.2287364 31.6530455,44.2287364 C32.9862273,44.2287364 34.1017727,43.0851909 34.3595,41.7291 C34.4167727,41.4268273 34.6840455,41.2104636 34.9901364,41.2104636 L34.9901364,41.2104636 L35.0092273,41.2104636 C35.3159545,41.2104636 35.5825909,41.4268273 35.6405,41.7291 C35.8982273,43.0851909 37.0137727,44.2287364 38.3463182,44.2287364 C39.8691364,44.2287364 41.1087727,43.1157364 41.1087727,41.7481909 C41.1087727,41.3371 40.9999545,40.9444636 40.7912273,40.5912818 C40.6461364,40.3462818 40.7065909,40.0319182 40.9363182,39.8645545 L40.9363182,39.8645545 L40.9706818,39.8397364 C41.2252273,39.6539182 41.5847727,39.7213727 41.7540455,39.9867364 C42.0951364,40.5200091 42.2790455,41.1290091 42.2790455,41.7481909 C42.2790455,43.6948273 40.5144091,45.2793727 38.3463182,45.2793727 C36.9698636,45.2793727 35.7563182,44.6404636 35.0537727,43.5141 C35.0289545,43.4746455 34.9710455,43.4746455 34.9462273,43.5141 C34.2436818,44.6404636 33.0295,45.2793727 31.6530455,45.2793727 C29.4849545,45.2793727 27.7215909,43.6948273 27.7215909,41.7481909 C27.7215909,41.1226455 27.9080455,40.5085545 28.2548636,39.9727364 Z M39.5159545,32.6456455 L43.2170455,32.7741909 C43.2215,34.6444636 43.5435,36.0832818 43.9921364,36.0985545 C44.4407727,36.1138273 44.8620455,34.7017364 44.9969545,32.8365545 L44.9969545,32.8365545 L48.7209545,32.9670091 C48.6344091,35.4443727 46.5560455,37.3821 44.0793182,37.2955545 L44.0793182,37.2955545 L43.8445,37.2872818 C41.3677727,37.2001 39.4294091,35.1230091 39.5159545,32.6456455 L39.5159545,32.6456455 Z M30.4834091,32.6456455 C30.5699545,35.1230091 28.6322273,37.2001 26.1555,37.2872818 L26.1555,37.2872818 L25.9200455,37.2955545 C23.4433182,37.3821 21.3649545,35.4443727 21.2790455,32.9670091 L21.2790455,32.9670091 L24.9915909,32.8371909 C25.1258636,34.7023727 25.5477727,36.1144636 25.9964091,36.0991909 C26.4450455,36.0839182 26.7670455,34.6451 26.7708636,32.7748273 L26.7708636,32.7748273 Z" id="Fill-4" fill="#207D46"></path>
                    </g>
                    <g id="header-right-box-16" transform="translate(140.000000, 70.000000)">
                        <polygon id="Fill-1" fill="#207D46" points="0 35 35 35 35 0 0 0"></polygon>
                        <path d="M21.9180182,7.04263636 C24.0727455,7.49827273 27.0331091,8.96509091 28.2765636,12.2226364 C28.5635636,12.9735455 28.7589273,13.8205455 28.8321091,14.7725455 C29.1280182,18.6289091 30.6864727,19.7769091 29.5722,23.2883636 C28.4840182,26.719 25.5764727,28.3277273 21.5330182,28.105 C19.6493818,28.0012727 17.9655636,26.6871818 16.1118364,26.3721818 C14.9943818,26.1825455 13.8381091,26.3206364 12.7066545,26.2143636 C9.68774545,25.9305455 7.06465455,23.8171818 5.96883636,21.1597273 C4.87238182,18.5016364 4.50774545,15.4184545 6.15147273,12.9951818 C7.28101818,11.3285455 8.51047273,10.7112727 9.71510909,10.3173636 C11.0864727,9.87 12.4852,9.18336364 13.7242,8.16518182 C16.6896545,5.726 21.0805636,6.86572727 21.9180182,7.04263636" id="Fill-2" fill="#F3F2EB"></path>
                        <path d="M17.2366727,11.3704182 C19.6128545,11.1648727 21.8884909,12.4121455 22.7851273,14.6216 C23.6824,16.8310545 23.0568545,19.6367818 21.2215818,21.1602364 C19.6669455,22.4501455 17.3887636,22.7040545 15.1506727,21.8806 C12.4130364,20.8732364 11.8772182,18.4849636 11.7868545,17.5908727 C11.5590364,15.3368727 12.5314,13.7046 14.3704909,12.3822364 C15.1914,11.7916909 16.3680364,11.4448727 17.2366727,11.3704182" id="Fill-4" fill="#BA8C5F"></path>
                        <path d="M17.7338,20.9003455 C17.5397091,20.9003455 17.3615273,20.8850727 17.2056182,20.8545273 C16.7932545,20.7737091 16.5253455,20.3740727 16.6061636,19.9617091 C16.6863455,19.5506182 17.0840727,19.2814364 17.4977091,19.3622545 C17.8305273,19.4278 18.6018,19.3298 19.1306182,18.9829818 C19.6263455,18.6584364 19.9496182,18.2047091 20.0431636,17.7051636 C20.1201636,17.2921636 20.5172545,17.0198 20.9289818,17.0968 C21.3419818,17.1744364 21.6143455,17.5715273 21.5373455,17.9838909 C21.3674364,18.8945273 20.8087091,19.7001636 19.9642545,20.2538 C19.2788909,20.7030727 18.4153455,20.9003455 17.7338,20.9003455" id="Fill-6" fill="#66493F"></path>
                    </g>
                    <g id="header-right-box-17" transform="translate(105.000000, 70.000000)">
                        <polygon id="Fill-1" fill="#66493F" points="0 35 35 35 35 0 0 0"></polygon>
                        <g id="Group-12" transform="translate(5.090909, 8.272727)">
                            <path d="M8.0444,8.841 L12.4092182,9.66127273 L11.5883091,11.8102727 C11.4642182,12.3810909 12.0643091,12.8106364 11.8619455,13.3598182 C11.5685818,14.1520909 11.7365818,14.2201818 11.4266727,15.2663636 C11.1982182,16.0376364 10.3550364,17.1684545 9.41258182,17.5884545 C8.43703636,18.0230909 7.37367273,18.0981818 6.45921818,17.829 C5.58421818,17.5712727 4.98921818,17.0424545 4.63858182,16.1999091 C4.28794545,15.358 4.36367273,14.5619091 4.53867273,13.8765455 C4.70349091,13.2293636 5.07003636,12.5401818 5.34812727,11.9337273 L8.0444,8.841 Z M16.7734636,8.841 L19.4703727,11.9337273 C19.7478273,12.5401818 20.1143727,13.2293636 20.2791909,13.8765455 C20.4548273,14.5619091 20.5299182,15.358 20.1792818,16.1999091 C19.8292818,17.0424545 19.2336455,17.5712727 18.3592818,17.829 C17.4448273,18.0981818 16.3808273,18.0230909 15.4052818,17.5884545 C14.4628273,17.1684545 13.6196455,16.0376364 13.3911909,15.2663636 C13.0812818,14.2201818 13.2492818,14.1520909 12.9565545,13.3598182 C12.7535545,12.8106364 13.3542818,12.3810909 13.2295545,11.8102727 L13.2295545,11.8102727 L12.4092818,9.66127273 L16.7734636,8.841 Z" id="Combined-Shape" fill="#BA8C5F"></path>
                            <path d="M5.50104545,0.429990909 C7.89377273,1.17835455 11.5496818,5.05444545 12.1497727,7.61962727 L12.1103182,12.7181727 C10.3692273,13.6428091 6.03495455,13.0821727 4.29704545,11.9507182 C3.51495455,11.4416273 2.6565,10.9019909 2.00995455,10.1790818 C1.2215,9.29708182 0.845409091,8.6709 0.354772727,7.14235455 C-0.396136364,4.80244545 0.237045455,1.51944545 1.85213636,0.629809091 C3.31831818,-0.179009091 4.29577273,0.0532636364 5.50104545,0.429990909 Z M19.3168182,0.429990909 C20.5220909,0.0532636364 21.4995455,-0.179009091 22.9663636,0.629809091 C24.5808182,1.51944545 25.214,4.80244545 24.4637273,7.14235455 C23.9730909,8.6709 23.597,9.29708182 22.8085455,10.1790818 C22.162,10.9019909 21.3029091,11.4416273 20.5208182,11.9507182 C18.7835455,13.0821727 14.4486364,13.6428091 12.7075455,12.7181727 L12.7075455,12.7181727 L12.6687273,7.61962727 C13.2681818,5.05444545 16.9247273,1.17835455 19.3168182,0.429990909 Z" id="Combined-Shape" fill="#207D46"></path>
                            <path d="M13.6421727,7.11709091 C13.5893545,9.18909091 13.6071727,11.7930909 13.5543545,13.8644545 C13.5282636,14.8737273 13.5085364,15.8002727 12.9797182,16.3717273 C12.7620818,16.6065455 12.2943545,16.6370909 12.0226273,16.4162727 C11.4791727,15.9752727 11.4180818,15.4089091 11.3582636,14.4728182 C11.1870818,11.7561818 11.1616273,8.50118182 11.1616273,5.775 C11.1616273,4.54490909 11.5453545,3.86209091 12.2619,3.80545455 C13.0459,3.74309091 13.3189,4.15418182 13.4697182,4.67536364 C13.6421727,5.27227273 13.6676273,6.12372727 13.6421727,7.11709091" id="Fill-10" fill="#0E4E30"></path>
                        </g>
                    </g>
                    <g id="header-right-box-18" transform="translate(35.000000, 70.000000)">
                        <polygon id="Fill-1" fill="#0E4E30" points="0 35 35 35 35 0 0 0"></polygon>
                        <polygon id="Fill-2" fill="#207D46" points="0 35 11.6664545 35 11.6664545 23.3335455 0 23.3335455"></polygon>
                        <polygon id="Fill-3" fill="#207D46" points="23.3329091 35 35 35 35 23.3335455 23.3329091 23.3335455"></polygon>
                    </g>
                    <g id="header-right-box-19" transform="translate(315.000000, 105.000000)">
                        <polygon id="Fill-1" fill="#66493F" points="0 35 35 35 35 0 0 0"></polygon>
                        <g id="Group-8" transform="translate(8.909091, 3.818182)">
                            <path d="M14.1598545,9.61685455 C12.8336727,8.16021818 11.3757636,7.40549091 11.4158545,4.66785455 L11.4158545,4.09958182 L8.59103636,4.09958182 L5.76749091,4.09958182 L5.76749091,4.66785455 C5.80694545,7.40549091 4.34903636,8.16021818 3.02285455,9.61685455 C1.16721818,11.6564 0.0421272727,12.8686727 0.0421272727,14.7752182 C0.0421272727,15.9709455 0.2534,17.1673091 0.954036364,18.5698545 C2.8574,22.3835818 2.51885455,21.5378545 4.65703636,25.6284 C4.88676364,26.0668545 5.24249091,26.4416727 5.66949091,26.6453091 C5.99530909,26.7999455 6.36121818,26.8164909 6.71694545,26.8304909 C8.03676364,26.8820364 9.14594545,26.8820364 10.4651273,26.8304909 C10.8214909,26.8164909 11.1867636,26.7999455 11.5125818,26.6453091 C11.9395818,26.4416727 12.3016727,26.0694 12.5250364,25.6284 C14.6154909,21.4907636 14.5143091,22.2913091 16.2286727,18.5698545 C16.9439455,17.0171273 17.1405818,16.6041273 17.139947,15.1360364 C17.1393091,12.8082182 16.0154909,11.6564 14.1598545,9.61685455" id="Fill-2" fill="#207D46"></path>
                            <polygon id="Fill-4" fill="#BA8C5F" points="5.838 3.00109091 11.3444545 3.00109091 11.3444545 0.0572727273 5.838 0.0572727273"></polygon>
                            <polygon id="Fill-6" fill="#0E4E30" points="3.80672727 6.19627273 13.3757273 6.19627273 13.3757273 2.38827273 3.80672727 2.38827273"></polygon>
                            <path d="M13.8708818,15.7517818 C13.5049727,15.7517818 13.1861545,15.4813273 13.1346091,15.1084182 C12.9583364,13.8344182 12.0871545,12.6711455 10.9137,12.1455091 C10.5382455,11.9768727 10.3702455,11.5365091 10.5388818,11.1610545 C10.7068818,10.7856 11.1472455,10.6169636 11.5233364,10.7856 C13.1543364,11.5174182 14.3659727,13.1344182 14.6103364,14.9047818 C14.6663364,15.3126909 14.3818818,15.6881455 13.9739727,15.7441455 C13.9389727,15.7492364 13.9052455,15.7517818 13.8708818,15.7517818" id="Fill-7" fill="#66493F"></path>
                        </g>
                    </g>
                    <rect id="header-right-box-20" fill="#0E4E30" x="280" y="105" width="35" height="35"></rect>
                    <g id="header-right-box-21" transform="translate(175.000000, 105.000000)">
                        <polygon id="Fill-1" fill="#0E4E30" points="0 35 35 35 35 0 0 0"></polygon>
                        <g id="Group-16" transform="translate(5.090909, 3.818182)">
                            <path d="M9.016,15.1529636 L9.016,25.0656 L10.7125455,25.0656 C10.7125455,26.0029636 11.4717273,26.7621455 12.4090909,26.7621455 C13.3464545,26.7621455 14.1056364,26.0029636 14.1056364,25.0656 L15.8021818,25.0656 L15.8021818,15.1529636 L9.016,15.1529636 Z" id="Fill-2" fill="#207D46"></path>
                            <path d="M19.4643909,12.4042545 C19.2435727,8.69870909 16.1699364,5.76125455 12.4090273,5.76125455 C8.64811818,5.76125455 5.57448182,8.69870909 5.35366364,12.4042545 C5.35366364,12.4042545 5.3403,12.8153455 5.3403,12.8299818 C5.3403,12.8662545 5.34220909,12.9012545 5.34284545,12.9368909 C5.36193636,14.4469818 5.82457273,15.6872545 7.54720909,18.1544364 C8.92875455,20.1328909 9.01593636,21.1148 9.01593636,22.2379818 L12.4090273,22.2379818 L15.8021182,22.2379818 C15.8021182,21.1148 15.8893,20.1328909 17.2702091,18.1544364 C18.9934818,15.6872545 19.4561182,14.4469818 19.4758455,12.9368909 C19.4764818,12.9012545 19.4777545,12.8662545 19.4777545,12.8299818 C19.4777545,12.8153455 19.4643909,12.4042545 19.4643909,12.4042545" id="Fill-4" fill="#BA8C5F"></path>
                            <path d="M24.7367909,12.9014455 C24.7367909,13.7128091 24.0787909,14.3714455 23.2661545,14.3714455 C22.4547909,14.3714455 21.7967909,13.7128091 21.7967909,12.9014455 C21.7967909,12.0894455 22.4547909,11.4308091 23.2661545,11.4308091 C24.0787909,11.4308091 24.7367909,12.0894455 24.7367909,12.9014455" id="Fill-6" fill="#BA8C5F"></path>
                            <path d="M3.02145455,12.9014455 C3.02145455,13.7128091 2.36345455,14.3714455 1.55145455,14.3714455 C0.739454545,14.3714455 0.0814545455,13.7128091 0.0814545455,12.9014455 C0.0814545455,12.0894455 0.739454545,11.4308091 1.55145455,11.4308091 C2.36345455,11.4308091 3.02145455,12.0894455 3.02145455,12.9014455" id="Fill-8" fill="#BA8C5F"></path>
                            <path d="M13.8794091,1.77068182 C13.8794091,2.58204545 13.2207727,3.24068182 12.4087727,3.24068182 C11.5967727,3.24068182 10.9387727,2.58204545 10.9387727,1.77068182 C10.9387727,0.958681818 11.5967727,0.300045455 12.4087727,0.300045455 C13.2207727,0.300045455 13.8794091,0.958681818 13.8794091,1.77068182" id="Fill-10" fill="#BA8C5F"></path>
                            <polygon id="Fill-12" fill="#BA8C5F" points="22.7972182 5.21474545 21.0115818 6.99974545 19.2272182 5.21474545 21.0115818 3.42910909"></polygon>
                            <polygon id="Fill-14" fill="#BA8C5F" points="5.59115455 5.21474545 3.80551818 6.99974545 2.02115455 5.21474545 3.80551818 3.42910909"></polygon>
                        </g>
                    </g>
                    <polygon id="header-right-box-22" fill="#0E4E30" points="140 105 140 140 175 105"></polygon>
                    <rect id="header-right-box-23" fill="#0E4E30" x="315" y="140" width="35" height="35"></rect>
                    <polygon id="header-right-box-24" fill="#0E4E30" points="256.667091 140 256.667091 151.664545 245 151.664545 245 163.335455 256.667091 163.335455 256.667091 175 268.333545 175 268.333545 163.335455 280 163.335455 280 151.664545 268.333545 151.664545 268.333545 140"></polygon>
                    <g id="header-right-box-25" transform="translate(175.000000, 140.000000)" fill="#207D46">
                        <path d="M35,26.25 L35,35 L26.2506364,35 L26.2506364,26.25 L35,26.25 Z M8.75,26.25 L8.75,35 L0,35 L0,26.25 L8.75,26.25 Z M17.5,17.5 L17.5,26.25 L8.75,26.25 L8.75,17.5 L17.5,17.5 Z M26.25,8.75 L26.25,17.5 L17.5,17.5 L17.5,8.75 L26.25,8.75 Z M8.75,8.75 L8.75,17.5 L0,17.5 L0,8.75 L8.75,8.75 Z M35,1.38878807e-14 L35,8.74936364 L26.2506364,8.74936364 L26.2506364,1.38878807e-14 L35,1.38878807e-14 Z M17.5,1.38878807e-14 L17.5,8.74936364 L8.75,8.74936364 L8.75,1.38878807e-14 L17.5,1.38878807e-14 Z" id="Combined-Shape"></path>
                    </g>
                    <g id="header-right-box-26" transform="translate(140.000000, 140.000000)">
                        <polygon id="Fill-1" fill="#0E4E30" points="0 35 35 35 35 0 0 0"></polygon>
                        <polygon id="Fill-2" fill="#BA8C5F" points="14.063 8.49736364 20.9363636 8.49736364 20.9363636 5.19654545 14.063 5.19654545"></polygon>
                        <polygon id="Fill-3" fill="#BA8C5F" points="16.1865455 14.462 18.8134545 14.462 18.8134545 5.19654545 16.1865455 5.19654545"></polygon>
                        <path d="M27.5324636,20.3843818 C27.5324636,25.9252 23.0403727,30.4172909 17.4995545,30.4172909 C11.9587364,30.4172909 7.46791818,25.9252 7.46791818,20.3843818 C7.46791818,14.8442 11.9587364,10.3521091 17.4995545,10.3521091 C23.0403727,10.3521091 27.5324636,14.8442 27.5324636,20.3843818" id="Fill-4" fill="#207D46"></path>
                        <path d="M24.7875091,20.3843818 C24.7875091,24.4093818 21.5248727,27.6720182 17.4998727,27.6720182 C13.4755091,27.6720182 10.2122364,24.4093818 10.2122364,20.3843818 C10.2122364,16.3600182 13.4755091,13.0973818 17.4998727,13.0973818 C21.5248727,13.0973818 24.7875091,16.3600182 24.7875091,20.3843818" id="Fill-6" fill="#66493F"></path>
                        <polygon id="Fill-8" fill="#BA8C5F" points="20.1664273 16.1194091 15.7774273 19.3075909 14.8337 24.6498636 19.2233364 21.4623182"></polygon>
                        <polygon id="Fill-10" fill="#207D46" points="9.23427273 21.3786364 11.8376364 21.3786364 11.8376364 19.761 9.23427273 19.761"></polygon>
                        <polygon id="Fill-12" fill="#207D46" points="23.1623636 21.3786364 25.7650909 21.3786364 25.7650909 19.761 23.1623636 19.761"></polygon>
                    </g>
                    <g id="header-right-box-27" transform="translate(280.000000, 175.000000)">
                        <path d="M35.0002545,17.5000636 C35.0002545,27.1651545 27.1647091,35.0000636 17.5002545,35.0000636 C7.83516364,35.0000636 0.000254545455,27.1651545 0.000254545455,17.5000636 C0.000254545455,7.83497273 7.83516364,6.36363636e-05 17.5002545,6.36363636e-05 C27.1647091,6.36363636e-05 35.0002545,7.83497273 35.0002545,17.5000636" id="Fill-1" fill="#0E4E30"></path>
                        <path d="M28.4377545,17.5000636 C28.4377545,23.5404273 23.5409364,28.4372455 17.4999364,28.4372455 C11.4589364,28.4372455 6.56275455,23.5404273 6.56275455,17.5000636 C6.56275455,11.4597 11.4589364,6.56224545 17.4999364,6.56224545 C23.5409364,6.56224545 28.4377545,11.4597 28.4377545,17.5000636" id="Fill-4" fill="#207D46"></path>
                    </g>
                    <rect id="header-right-box-28" fill="#207D46" x="245" y="175" width="35" height="35"></rect>
                    <g id="header-right-box-29" transform="translate(210.000000, 175.000000)">
                        <polygon id="Fill-1" fill="#0E4E30" points="0 35 35 35 35 0 0 0"></polygon>
                        <path d="M23.8281909,11.2764909 C26.4621,12.8903091 27.6279182,16.1682182 27.4567364,18.7862182 C26.9998273,25.7843091 23.7212818,27.1862182 22.9767364,27.6634909 C21.7663727,28.4392182 20.1754636,28.8121273 19.0872818,28.3431273 C18.3160091,28.0115818 18.1340091,27.6959455 17.5536455,27.8276727 C17.2068273,27.9065818 16.9395545,28.1592182 16.5138273,28.3386727 C14.8739182,29.0310364 12.6078273,28.1006727 11.4471,27.0385818 C8.42246364,24.2697636 7.04282727,20.8474 7.5971,16.3852182 C7.95728182,13.4904 9.55582727,11.6640364 11.9224636,10.6757636 C12.5448273,10.4148545 13.7596455,9.99867273 15.1399182,10.2411273 C15.6521909,10.3308545 16.1848273,10.6490364 16.7136455,10.7941273 C17.4779182,11.0041273 18.2351909,10.3658545 19.4920091,10.1934 C21.0574636,9.97830909 22.4460091,10.4288545 23.8281909,11.2764909" id="Fill-2" fill="#BA8C5F"></path>
                        <path d="M17.6807909,14.1835909 C18.1854273,14.0493182 18.1714273,13.5771364 18.2261545,13.0820455 C18.3750636,11.7444091 17.9798818,9.59731818 17.7762455,8.14959091 C17.5503364,6.53895455 16.6619727,5.27259091 15.6177,5.54559091 C14.6657,5.79440909 14.1820636,5.9815 13.3630636,6.52622727 C13.2599727,6.59495455 13.1498818,6.67831818 13.1276091,6.79986364 C13.1091545,6.90040909 13.1556091,6.99904545 13.2001545,7.09004545 C13.3732455,7.44259091 13.4286091,7.88613636 13.7436091,8.12222727 C13.9567909,8.28195455 14.3462455,8.29340909 14.5626091,8.44868182 C15.1168818,8.84831818 15.2696091,9.64377273 15.4897909,10.2909545 C16.0332455,11.8888636 16.4017,12.7778636 16.7249727,13.6713182 C16.7777909,13.8170455 17.0304273,14.3573182 17.6807909,14.1835909" id="Fill-4" fill="#66493F"></path>
                        <path d="M27.5220909,7.82930909 C26.7304545,10.2653091 24.7863636,11.9701273 22.8301818,12.4601273 C20.874,12.9501273 18.921,12.3799455 17.1945455,11.3999455 C17.1016364,11.3471273 16.9998182,11.2784 16.9800909,11.1473091 C16.9565455,10.9977636 17.0507273,10.8475818 17.1385455,10.7298545 C18.0797273,9.45521818 19.7380909,7.58303636 21.5625455,6.98358182 C24.2639091,6.09585455 27.5220909,7.82930909 27.5220909,7.82930909" id="Fill-6" fill="#207D46"></path>
                        <path d="M15.2789,25.9246273 C15.2458091,25.9246273 15.2127182,25.9220818 15.1796273,25.9176273 C12.4515364,25.5612636 10.6213545,23.3244455 10.2229909,21.2989 C10.1421727,20.8871727 10.4107182,20.4875364 10.8224455,20.4067182 C11.2329,20.3252636 11.6331727,20.5938091 11.7146273,21.0061727 C12.0009909,22.4621727 13.3819,24.1498091 15.3762636,24.4107182 C15.7930818,24.4654455 16.0864455,24.8466273 16.0317182,25.2628091 C15.9814455,25.6459 15.6549909,25.9246273 15.2789,25.9246273" id="Fill-8" fill="#66493F"></path>
                    </g>
                    <polygon id="header-right-box-30" fill="#207D46" transform="translate(157.500000, 192.500318) rotate(-90.000000) translate(-157.500000, -192.500318) " points="140 175 140 210.000636 175 175"></polygon>
                    <g id="header-right-box-31" transform="translate(105.000000, 140.000000)">
                        <polygon id="Fill-1" fill="#BA8C5F" points="0 35 35 35 35 0 0 0"></polygon>
                        <path d="M30.0847273,17.5 C30.0847273,24.4503636 24.4503636,30.0840909 17.5006364,30.0840909 C10.5509091,30.0840909 4.91654545,24.4503636 4.91654545,17.5 C4.91654545,10.5496364 10.5509091,4.91590909 17.5006364,4.91590909 C24.4503636,4.91590909 30.0847273,10.5496364 30.0847273,17.5" id="Fill-2" fill="#0E4E30"></path>
                        <path d="M26.5977727,17.5 C26.5977727,22.554 22.5002273,26.6521818 17.4455909,26.6521818 C12.3909545,26.6521818 8.29340909,22.554 8.29340909,17.5 C8.29340909,12.4453636 12.3909545,8.34781818 17.4455909,8.34781818 C22.5002273,8.34781818 26.5977727,12.4453636 26.5977727,17.5" id="Fill-4" fill="#207D46"></path>
                        <path d="M23.2207818,17.5 C23.2207818,20.6595455 20.6600545,23.2202727 17.5005091,23.2202727 C14.3416,23.2202727 11.7802364,20.6595455 11.7802364,17.5 C11.7802364,14.3410909 14.3416,11.7803636 17.5005091,11.7803636 C20.6600545,11.7803636 23.2207818,14.3410909 23.2207818,17.5" id="Fill-6" fill="#66493F"></path>
                        <path d="M19.7885545,17.5 C19.7885545,18.7631818 18.7646455,19.7883636 17.5001909,19.7883636 C16.2370091,19.7883636 15.2124636,18.7631818 15.2124636,17.5 C15.2124636,16.2361818 16.2370091,15.2116364 17.5001909,15.2116364 C18.7646455,15.2116364 19.7885545,16.2361818 19.7885545,17.5" id="Fill-8" fill="#BA8C5F"></path>
                    </g>
                    <rect id="header-right-box-32" fill="#207D46" x="315" y="210" width="35" height="35"></rect>
                    <g id="header-right-box-33" transform="translate(280.000000, 210.000000)">
                        <polygon id="Fill-1" points="0 35 35 35 35 0 0 0"></polygon>
                        <polygon id="Fill-2" fill="#BA8C5F" points="17.5002866 26.0909091 8.90909091 17.5002866 17.5002866 8.90909091 26.0909091 17.5002866"></polygon>
                    </g>
                    <g id="header-right-box-34" transform="translate(245.000000, 210.000000)">
                        <polygon id="Fill-1" fill="#BA8C5F" points="0 35 35 35 35 0 0 0"></polygon>
                        <polygon id="Fill-2" fill="#207D46" points="0 6.36363636e-05 0 35.0000636 35 35.0000636"></polygon>
                        <polygon id="Fill-3" fill="#0E4E30" points="34.9999364 6.36363636e-05 -6.36363636e-05 35.0000636 34.9999364 35.0000636"></polygon>
                    </g>
                    <rect id="header-right-box-35" fill="#BA8C5F" x="315" y="245" width="35" height="35"></rect>
                    <g id="header-right-box-36" transform="translate(280.000000, 245.000000)">
                        <polygon id="Fill-1" fill="#207D46" points="0 35 35 35 35 0 0 0"></polygon>
                        <polygon id="Fill-2" fill="#0E4E30" points="0 35 11.6664545 35 11.6664545 23.3335455 0 23.3335455"></polygon>
                        <polygon id="Fill-3" fill="#0E4E30" points="23.3329091 35 35 35 35 23.3335455 23.3329091 23.3335455"></polygon>
                    </g>
                    <g id="header-right-box-37" transform="translate(210.000000, 245.000000)">
                        <polygon id="Fill-1" fill="#66493F" points="0 35 35 35 35 0 0 0"></polygon>
                        <polygon id="Fill-2" fill="#BA8C5F" points="17.5001273 30.1877545 4.81294545 17.4999364 17.5001273 4.81275455 30.1873091 17.4999364"></polygon>
                        <polygon id="Fill-3" fill="#66493F" points="13.3432727 21.6567273 21.6560909 21.6567273 21.6560909 13.3439091 13.3432727 13.3439091"></polygon>
                    </g>
                    <g id="header-right-box-38" transform="translate(105.000000, 175.000000)">
                        <polygon id="Fill-1" fill="#207D46" points="0 6.36363636e-05 0 35.0000636 35 6.36363636e-05"></polygon>
                        <polygon id="Fill-2" fill="#0E4E30" points="0 26.3187273 35 26.3187273 35 0 0 0"></polygon>
                        <path d="M9.51961818,11.1905182 C10.6071636,11.1905182 11.4885273,12.0718818 11.4885273,13.1594273 C11.4885273,14.2469727 10.6071636,15.1283364 9.51961818,15.1283364 C8.43270909,15.1283364 7.55134545,14.2469727 7.55134545,13.1594273 C7.55134545,12.0718818 8.43270909,11.1905182 9.51961818,11.1905182 Z M17.4996182,11.1905182 C18.5871636,11.1905182 19.4685273,12.0718818 19.4685273,13.1594273 C19.4685273,14.2469727 18.5871636,15.1283364 17.4996182,15.1283364 C16.4127091,15.1283364 15.5313455,14.2469727 15.5313455,13.1594273 C15.5313455,12.0718818 16.4127091,11.1905182 17.4996182,11.1905182 Z M25.4796818,11.1905182 C26.5672273,11.1905182 27.4485909,12.0718818 27.4485909,13.1594273 C27.4485909,14.2469727 26.5672273,15.1283364 25.4796818,15.1283364 C24.3927727,15.1283364 23.5114091,14.2469727 23.5114091,13.1594273 C23.5114091,12.0718818 24.3927727,11.1905182 25.4796818,11.1905182 Z" id="Combined-Shape" fill="#BA8C5F"></path>
                    </g>
                    <path d="M245,315 C264.330182,315 280,299.330182 280,280 L245,280 L245,315 Z" id="header-right-box-39" fill="#207D46"></path>
                    <g id="header-box-02" transform="translate(175.000000, 175.000000)">
                        <polygon id="Fill-1" fill="#66493F" points="0 35 35 35 35 0 0 0"></polygon>
                        <g id="Group-8" transform="translate(6.000000, 6.000000)">
                            <path d="M23.4865351,11.7388216 C23.4865351,18.2210108 18.2320622,23.4754838 11.749873,23.4754838 C5.26768378,23.4754838 0.0138459459,18.2210108 0.0138459459,11.7388216 C0.0138459459,5.25663243 5.26768378,0.00215945946 11.749873,0.00215945946 C18.2320622,0.00215945946 23.4865351,5.25663243 23.4865351,11.7388216" id="Fill-2" fill="#0E4E30"></path>
                            <path d="M18.0339,1.82849054 C19.2355757,3.67038243 19.9361297,5.86858514 19.9361297,8.23192297 C19.9361297,14.7141122 14.6822919,19.9685851 8.2001027,19.9685851 C5.88757568,19.9685851 3.7331973,19.2966122 1.91671081,18.1425716 C4.01075135,21.3519095 7.63165676,23.4751662 11.749873,23.4751662 C18.2320622,23.4751662 23.4865351,18.2206932 23.4865351,11.7391392 C23.4865351,7.56947703 21.309927,3.91046351 18.0339,1.82849054" id="Fill-4" fill="#207D46"></path>
                            <path d="M3.4977527,4.39602432 C3.14207703,5.61357838 2.97249595,7.14933514 2.97249595,8.2659027 C2.97249595,8.2659027 0.944509459,9.40342973 0.35827973,11.0027 C0.35827973,11.0027 1.30082027,11.6162405 2.71463108,11.9604838 C2.71463108,11.9604838 3.05760405,15.6233081 4.44855,17.9167811 C4.51841486,18.0323757 4.88742838,18.9444297 5.20880676,17.3877135 C5.72771216,14.8744838 6.44160405,14.071673 6.44160405,14.071673 C6.44160405,14.071673 9.51883378,15.0370784 13.0800365,14.1967946 C13.2483473,14.1574162 13.4001446,13.9751324 13.0800365,13.7375919 C11.9107527,12.873173 9.10917162,10.3224703 8.34573919,9.15318649 C8.34573919,9.15318649 8.68617162,7.26365946 10.5102797,4.78663243 C10.6646176,4.5764027 10.3540365,4.48430811 10.0701311,4.57195676 C9.21905,4.83617297 7.3498473,5.49607838 6.01479324,6.55294324 C6.01479324,6.55294324 4.05857703,4.41698378 3.86041486,4.06956486 C3.6622527,3.72278108 3.57396892,4.13625405 3.4977527,4.39602432" id="Fill-6" fill="#BA8C5F"></path>
                        </g>
                    </g>
                    <polygon id="header-box-04" fill="#207D46" transform="translate(332.500000, 192.500000) scale(-1, 1) rotate(-90.000000) translate(-332.500000, -192.500000) " points="350 175 315 210 350 210"></polygon>
                </g>
            </g>
        </g>
    </g>
</svg>