<?xml version="1.0" encoding="UTF-8"?>
<svg width="54px" height="51px" viewBox="0 0 54 51" version="1.1" xmlns="http://www.w3.org/2000/svg" xmlns:xlink="http://www.w3.org/1999/xlink">
    <title>logo</title>
    <g id="Page-1" stroke="none" stroke-width="1" fill="none" fill-rule="evenodd">
        <g id="header" transform="translate(-32.000000, -32.000000)">
            <g id="logo" transform="translate(32.000000, 32.000000)">
                <path d="M45.311027,39.3799992 L45.311027,40.2954046 L49.1341622,40.2954046 L49.1341622,50.1806479 L50.1768649,50.1806479 L50.1768649,40.2954046 L54,40.2954046 L54,39.3799992 L45.311027,39.3799992 Z M37.2379459,46.3972425 L39.8447027,40.4783236 L42.3723243,46.3972425 L37.2379459,46.3972425 Z M39.354973,39.3799992 L34.4732432,50.1806479 L35.5632973,50.1806479 L36.8271892,47.3126479 L42.7514595,47.3126479 L43.968,50.1806479 L45.137027,50.1806479 L40.4292973,39.3799992 L39.354973,39.3799992 Z M32.4630811,48.53681 C32.2039459,48.7421073 31.9316757,48.9122154 31.6465946,49.0474587 C31.3615135,49.1825398 31.0686486,49.282756 30.7678378,49.347783 C30.4671892,49.4129722 30.1770811,49.4454046 29.897027,49.4454046 C29.1815676,49.4454046 28.5363243,49.3252425 27.9608108,49.0850803 C27.3854595,48.844756 26.8954054,48.5142695 26.490973,48.093783 C26.0867027,47.6734587 25.7756757,47.177729 25.5578919,46.6070803 C25.3402703,46.0364317 25.2314595,45.4207019 25.2314595,44.7600533 C25.2314595,44.0992425 25.3402703,43.4835127 25.5578919,42.9128641 C25.7756757,42.3422154 26.0867027,41.8464857 26.490973,41.4261614 C26.8954054,41.0055127 27.3854595,40.6751884 27.9608108,40.4348641 C28.5363243,40.1947019 29.1815676,40.0745398 29.897027,40.0745398 C30.4568108,40.0745398 31.0036216,40.1896749 31.5377838,40.4199452 C32.0716216,40.6503776 32.5099459,41.015729 32.8519459,41.5161614 L33.6917838,40.8404317 C33.2043243,40.239783 32.6367568,39.8116749 31.9889189,39.5564317 C31.3407568,39.3011884 30.6436216,39.1735668 29.897027,39.1735668 C29.0573514,39.1735668 28.2874054,39.3138371 27.5875135,39.5938911 C26.8877838,39.8744317 26.2889189,40.2621614 25.7912432,40.7578911 C25.2937297,41.2534587 24.9047027,41.8416208 24.624973,42.5223776 C24.3449189,43.2032965 24.204973,43.9490803 24.204973,44.7600533 C24.204973,45.5708641 24.3449189,46.3194046 24.624973,47.0050263 C24.9047027,47.6909722 25.2937297,48.2815668 25.7912432,48.7771344 C26.2889189,49.2727019 26.8877838,49.6581614 27.5875135,49.9335127 C28.2874054,50.2087019 29.0573514,50.3463776 29.897027,50.3463776 C30.7058919,50.3463776 31.4573514,50.1962154 32.1522162,49.8958911 C32.8467568,49.5955668 33.4584324,49.0999992 33.9872432,48.4091884 L33.1474054,47.7934587 C32.9503784,48.0838911 32.7222162,48.3318371 32.4630811,48.53681 L32.4630811,48.53681 Z M19.9114054,49.17281 L17.4784865,43.1165398 L16.4041622,43.1165398 L19.3900541,50.1642695 L20.3695135,50.1642695 L23.2448108,43.1165398 L22.2810811,43.1165398 L19.9114054,49.17281 Z M9.80643243,46.061729 C9.80643243,45.9702695 9.84827027,45.7999992 9.93275676,45.5505938 C10.0170811,45.3016749 10.1591351,45.0449722 10.3594054,44.7803236 C10.5591892,44.5159992 10.8306486,44.2821614 11.172973,44.0786479 C11.5151351,43.8752965 11.9443784,43.7734587 12.4605405,43.7734587 C12.8080541,43.7734587 13.1372432,43.8344317 13.4479459,43.9565398 C13.7584865,44.0786479 14.027027,44.2440533 14.2535676,44.4522695 C14.4799459,44.66081 14.658973,44.9022695 14.7908108,45.1769722 C14.9224865,45.4515127 14.9883243,45.7466479 14.9883243,46.061729 L9.80643243,46.061729 Z M15.0593514,43.9794046 C14.7695676,43.6693506 14.4116757,43.4202695 13.985027,43.2318371 C13.5583784,43.0438911 13.0660541,42.9496749 12.5078919,42.9496749 C11.9706486,42.9496749 11.4810811,43.0438911 11.0387027,43.2318371 C10.5963243,43.4202695 10.2118378,43.6795668 9.88540541,44.0098911 C9.55881081,44.3405398 9.30616216,44.7295668 9.12713514,45.1769722 C8.94794595,45.6245398 8.85859459,46.11281 8.85859459,46.6414587 C8.85859459,47.1905398 8.94551351,47.6916208 9.11918919,48.1440533 C9.29302703,48.5966479 9.54308108,48.9882695 9.86967568,49.318756 C10.1959459,49.6492425 10.5856216,49.9059452 11.0387027,50.0890263 C11.4914595,50.2721073 11.9969189,50.3635668 12.5554054,50.3635668 C13.2082703,50.3635668 13.8058378,50.2466479 14.3482703,50.01281 C14.8907027,49.77881 15.3462162,49.3925398 15.714973,48.8533506 L15.0197838,48.2888641 C14.7775135,48.6756208 14.4298378,48.9806479 13.9770811,49.2042695 C13.5241622,49.4280533 13.0555135,49.539783 12.5711351,49.539783 C12.0126486,49.539783 11.5574595,49.4382695 11.2045946,49.234756 C10.8515676,49.0314046 10.5700541,48.7873506 10.3594054,48.5024317 C10.1485946,48.2178371 10.0037838,47.9254587 9.92481081,47.6252965 C9.846,47.3254587 9.80643243,47.07881 9.80643243,46.8855127 L15.936,46.8855127 L15.936,46.24481 C15.936,45.8381073 15.8622162,45.4362695 15.714973,45.0396208 C15.5674054,44.6429722 15.3488108,44.289783 15.0593514,43.9794046 L15.0593514,43.9794046 Z M6.79248649,47.7616749 C6.63454054,48.1125938 6.41854054,48.4176208 6.14481081,48.6770803 C5.87075676,48.9363776 5.54967568,49.1423236 5.18108108,49.2949181 C4.81232432,49.4473506 4.41227027,49.523729 3.98043243,49.523729 C3.53805405,49.523729 3.13783784,49.4473506 2.77978378,49.2949181 C2.42172973,49.1423236 2.11637838,48.9363776 1.86340541,48.6770803 C1.61075676,48.4176208 1.41843243,48.1125938 1.28691892,47.7616749 C1.15508108,47.410756 1.08940541,47.0371344 1.08940541,46.6404857 C1.08940541,46.2438371 1.15508108,45.8700533 1.28691892,45.5191344 C1.41843243,45.1683776 1.61075676,44.8631884 1.86340541,44.6038911 C2.11637838,44.3445938 2.42172973,44.1386479 2.77978378,43.9860533 C3.13783784,43.8334587 3.53805405,43.7572425 3.98043243,43.7572425 C4.41227027,43.7572425 4.81232432,43.8334587 5.18108108,43.9860533 C5.54967568,44.1386479 5.87075676,44.3445938 6.14481081,44.6038911 C6.41854054,44.8631884 6.63454054,45.1683776 6.79248649,45.5191344 C6.95043243,45.8700533 7.02956757,46.2438371 7.02956757,46.6404857 C7.02956757,47.0371344 6.95043243,47.410756 6.79248649,47.7616749 L6.79248649,47.7616749 Z M6.9347027,44.3522154 L6.90308108,44.3522154 C6.75551351,44.1081614 6.5712973,43.8971884 6.35010811,43.7191344 C6.12908108,43.5414046 5.88924324,43.3936749 5.63140541,43.276756 C5.37324324,43.1599992 5.10210811,43.0734046 4.81783784,43.0174587 C4.53340541,42.9616749 4.25416216,42.9334587 3.98043243,42.9334587 C3.42210811,42.9334587 2.90627027,43.0250803 2.43227027,43.2079992 C1.95827027,43.3910803 1.5527027,43.6481073 1.21572973,43.9784317 C0.878594595,44.3090803 0.615405405,44.7007019 0.425837838,45.1531344 C0.23627027,45.605729 0.141405405,46.1014587 0.141405405,46.6404857 C0.141405405,47.1796749 0.23627027,47.6754046 0.425837838,48.1278371 C0.615405405,48.5804317 0.878594595,48.9720533 1.21572973,49.3023776 C1.5527027,49.6330263 1.95827027,49.889729 2.43227027,50.07281 C2.90627027,50.2558911 3.42210811,50.3473506 3.98043243,50.3473506 C4.25416216,50.3473506 4.53340541,50.3192965 4.81783784,50.2635127 C5.10210811,50.2075668 5.37324324,50.1212965 5.63140541,50.0042154 C5.88924324,49.8872965 6.12908108,49.7398911 6.35010811,49.5618371 C6.5712973,49.3839452 6.75551351,49.17281 6.90308108,48.928756 L6.9347027,48.928756 L6.9347027,50.1642695 L7.88254054,50.1642695 L7.88254054,39.3923236 L6.9347027,39.3923236 L6.9347027,44.3522154 Z" id="wordmark" fill="#FFFFFF"></path>
                <g id="symbol" transform="translate(1.928571, 0.845315)">
                    <path d="M49.4452202,19.2277995 L45.2193821,19.2277995 C45.1485635,20.9998937 44.7959354,22.5051562 44.2256418,23.7844503 L47.9935194,25.9598037 C48.3153779,26.145723 48.4255945,26.5572852 48.239838,26.8791437 C48.0539187,27.2010022 47.6423566,27.3112188 47.3204981,27.1252995 L43.5946233,24.9742035 C39.831467,31.015441 30.4768937,31.016255 25.0707448,31.016255 C19.6645959,31.016255 10.3098598,31.015441 6.54686633,24.9742035 L2.82099156,27.1252995 C2.49913302,27.3112188 2.08757087,27.2010022 1.90181438,26.8791437 C1.71589508,26.5572852 1.82627449,26.145723 2.14797022,25.9598037 L5.91584777,23.7844503 C5.34555417,22.5051562 4.99292616,20.9998937 4.92227032,19.2277995 L0.696432189,19.2277995 C0.324756401,19.2277995 0.0235736549,18.926454 0.0235736549,18.554941 C0.0235736549,18.1832652 0.324756401,17.8819197 0.696432189,17.8819197 L4.92308432,17.8819197 C5.10346837,13.3899011 7.09062328,10.6087634 9.8564577,8.88860288 C10.7165379,7.30894007 13.0766711,2.97483896 14.2838441,0.758133952 C14.7278037,-0.0570130798 15.2954925,-0.0426865492 15.7086827,0.758947959 C16.5220389,2.33698275 17.8511502,4.91559545 18.5805008,6.33082876 C20.9499136,6.09541781 23.2371117,6.09541781 25.0702564,6.09541781 L25.0707448,6.09541781 L25.0712332,6.09541781 C26.9045407,6.09541781 29.1917388,6.09541781 31.5609888,6.33082876 C32.2900138,4.91624666 33.6181483,2.33942477 34.4315045,0.761389981 C34.8453459,-0.0417097403 35.4148255,-0.0548966605 35.8604132,0.763017996 C37.0682374,2.98118822 39.4256029,7.31007968 40.2850319,8.88860288 C43.0510291,10.6087634 45.038184,13.3899011 45.2184053,17.8819197 L49.4452202,17.8819197 C49.8167332,17.8819197 50.1180788,18.1832652 50.1180788,18.554941 C50.1180788,18.926454 49.8167332,19.2277995 49.4452202,19.2277995" id="Fill-44" fill="#FF641E"></path>
                    <path d="M17.5587099,21.1225321 C17.749676,20.827373 18.1493537,20.7532983 18.4324654,20.9616842 L18.4324654,20.9616842 L18.471375,20.9900116 C18.7259965,21.177559 18.7919311,21.5266053 18.6304321,21.7984838 C18.3938815,22.1965334 18.2673847,22.6447259 18.2673847,23.1005701 C18.2673847,24.6237408 19.6472901,25.8631485 21.3438444,25.8631485 C22.8281055,25.8631485 24.0702808,24.5897153 24.3577883,23.0785919 C24.4216064,22.7427324 24.7187192,22.5017862 25.0606023,22.5017862 L25.0606023,22.5017862 L25.0811153,22.5017862 C25.4231612,22.5017862 25.7201111,22.7427324 25.7839293,23.0785919 C26.0714367,24.5897153 27.313612,25.8631485 28.7978731,25.8631485 C30.4942646,25.8631485 31.8744956,24.6237408 31.8744956,23.1005701 C31.8744956,22.6427723 31.7533713,22.2051619 31.5208908,21.8115079 C31.3597173,21.5386526 31.4264659,21.1887923 31.6827154,21.002059 L31.6827154,21.002059 L31.720811,20.9743827 C32.0047368,20.767462 32.4044144,20.8431647 32.5937526,21.138975 C32.9732428,21.7323864 33.1775587,22.4106174 33.1775587,23.1005701 C33.1775587,25.2689231 31.2127076,27.0330399 28.7978731,27.0330399 C27.2647716,27.0330399 25.9133564,26.3212718 25.1307697,25.067212 C25.1030935,25.0227672 25.0386241,25.0227672 25.0109478,25.067212 C24.2283611,26.3212718 22.876946,27.0330399 21.3438444,27.0330399 C18.9288472,27.0330399 16.9643217,25.2689231 16.9643217,23.1005701 C16.9643217,22.4037797 17.1722192,21.7196879 17.5587099,21.1225321 Z M30.1007599,12.9622534 L34.2224975,13.1061876 C34.2274888,15.188396 34.5862813,16.7906734 35.0856147,16.8081105 C35.5852735,16.825559 36.0547984,15.2522071 36.2050251,13.175419 L36.2050251,13.175419 L40.3526324,13.3202567 C40.2562937,16.079037 37.9418556,18.2372854 35.1830752,18.1409467 L35.1830752,18.1409467 L34.9216126,18.1318162 C32.162995,18.0354832 30.0044211,15.7210337 30.1007599,12.9622534 L30.1007599,12.9622534 Z M20.0407949,12.9622534 C20.1371336,15.7210337 17.9788852,18.0354718 15.2201048,18.1318106 L15.2201048,18.1318106 L14.9584795,18.1409467 C12.1996991,18.2372854 9.88526105,16.079037 9.78892232,13.3202567 L9.78892232,13.3202567 L13.9236761,13.1758679 C14.0739028,15.2526559 14.5434278,16.8260079 15.0429239,16.8085651 C15.54242,16.7911223 15.9012124,15.1888449 15.9062038,13.1066365 L15.9062038,13.1066365 Z" id="Fill-45" fill="#FFFFFF"></path>
                </g>
            </g>
        </g>
    </g>
</svg>