<?xml version="1.0" encoding="UTF-8"?>
<svg width="55px" height="55px" viewBox="0 0 55 55" version="1.1" xmlns="http://www.w3.org/2000/svg" xmlns:xlink="http://www.w3.org/1999/xlink">
    <title>header-box-01</title>
    <g id="Page-1" stroke="none" stroke-width="1" fill="none" fill-rule="evenodd">
        <g id="header" transform="translate(-471.000000, -304.000000)">
            <g id="header-box-01" transform="translate(471.000000, 304.000000)">
                <polygon id="Fill-1" fill="#0E4E30" points="0 55 55 55 55 0 0 0"></polygon>
                <g id="Group-8" transform="translate(11.000000, 9.000000)">
                    <path d="M24.4997,24.8354 C16.4387,24.8354 9.9047,18.3004 9.9047,10.2404 C9.9047,6.9154 11.0237,3.8554 12.8967,1.4024 C13.0697,1.1764 12.8377,0.8914 12.5447,0.9774 C5.3487,3.1014 0.0957,9.7544 0.0957,17.6384 C0.0957,27.2344 7.8747,35.0134 17.4707,35.0134 C25.6117,35.0134 32.4407,29.4114 34.3247,21.8524 C34.4107,21.5074 34.1167,21.2064 33.8907,21.3974 C31.3527,23.5384 28.0807,24.8354 24.4997,24.8354" id="Fill-2" fill="#BA8C5F"></path>
                    <path d="M16.07,28.3955 C10.741,27.5165 4.033,25.1675 0.099,17.8065 C0.19,27.3245 7.93,35.0135 17.47,35.0135 C24.78,35.0135 31.019,30.4925 33.584,24.0995 C26.814,29.3515 17.751,28.6725 16.07,28.3955" id="Fill-4" fill="#66493F"></path>
                    <path d="M17.4704,35.0137 C25.6124,35.0137 32.4414,29.4117 34.3244,21.8527 C34.4104,21.5077 34.1164,21.2067 33.8904,21.3977 C31.4844,23.4277 28.4144,24.6837 25.0514,24.8107 C21.1574,30.1287 12.1894,32.1837 7.9734,32.1857 C10.7034,33.9717 13.9644,35.0137 17.4704,35.0137" id="Fill-6" fill="#207D46"></path>
                </g>
            </g>
        </g>
    </g>
</svg>