<?xml version="1.0" encoding="UTF-8"?>
<svg width="55px" height="55px" viewBox="0 0 55 55" version="1.1" xmlns="http://www.w3.org/2000/svg" xmlns:xlink="http://www.w3.org/1999/xlink">
    <title>header-box-02</title>
    <g id="Page-1" stroke="none" stroke-width="1" fill="none" fill-rule="evenodd">
        <g id="header" transform="translate(-639.000000, -29.000000)">
            <g id="header-box-02" transform="translate(639.000000, 29.000000)">
                <polygon id="Fill-1" fill="#66493F" points="0 55 55 55 55 0 0 0"></polygon>
                <g id="Group-8" transform="translate(9.000000, 10.000000)">
                    <path d="M36.9788,18.4824 C36.9788,28.6884 28.7058,36.9614 18.4998,36.9614 C8.2938,36.9614 0.0218,28.6884 0.0218,18.4824 C0.0218,8.2764 8.2938,0.0034 18.4998,0.0034 C28.7058,0.0034 36.9788,8.2764 36.9788,18.4824" id="Fill-2" fill="#0E4E30"></path>
                    <path d="M28.3938,2.8789 C30.2858,5.7789 31.3888,9.2399 31.3888,12.9609 C31.3888,23.1669 23.1168,31.4399 12.9108,31.4399 C9.2698,31.4399 5.8778,30.3819 3.0178,28.5649 C6.3148,33.6179 12.0158,36.9609 18.4998,36.9609 C28.7058,36.9609 36.9788,28.6879 36.9788,18.4829 C36.9788,11.9179 33.5518,6.1569 28.3938,2.8789" id="Fill-4" fill="#207D46"></path>
                    <path d="M5.5071,6.9214 C4.9471,8.8384 4.6801,11.2564 4.6801,13.0144 C4.6801,13.0144 1.4871,14.8054 0.5641,17.3234 C0.5641,17.3234 2.0481,18.2894 4.2741,18.8314 C4.2741,18.8314 4.8141,24.5984 7.0041,28.2094 C7.1141,28.3914 7.6951,29.8274 8.2011,27.3764 C9.0181,23.4194 10.1421,22.1554 10.1421,22.1554 C10.1421,22.1554 14.9871,23.6754 20.5941,22.3524 C20.8591,22.2904 21.0981,22.0034 20.5941,21.6294 C18.7531,20.2684 14.3421,16.2524 13.1401,14.4114 C13.1401,14.4114 13.6761,11.4364 16.5481,7.5364 C16.7911,7.2054 16.3021,7.0604 15.8551,7.1984 C14.5151,7.6144 11.5721,8.6534 9.4701,10.3174 C9.4701,10.3174 6.3901,6.9544 6.0781,6.4074 C5.7661,5.8614 5.6271,6.5124 5.5071,6.9214" id="Fill-6" fill="#BA8C5F"></path>
                </g>
            </g>
        </g>
    </g>
</svg>