<?xml version="1.0" encoding="UTF-8"?>
<svg width="80px" height="80px" viewBox="0 0 80 80" version="1.1" xmlns="http://www.w3.org/2000/svg" xmlns:xlink="http://www.w3.org/1999/xlink">
    <title>job-01</title>
    <g id="Page-1" stroke="none" stroke-width="1" fill="none" fill-rule="evenodd">
        <g id="pc_web" transform="translate(-964.000000, -552.000000)">
            <g id="job-01" transform="translate(964.000000, 552.000000)">
                <circle id="Oval" fill="#0E4E30" cx="40" cy="40" r="40"></circle>
                <g id="Group" transform="translate(16.000000, 23.000000)">
                    <path d="M45.0386616,10.0333289 C43.2995994,6.10753418 40.6202367,-3.9532014e-13 35.2988161,-3.9532014e-13 C30.7355608,-3.9532014e-13 26.0812379,3.10388362 24.1874704,3.10388362 C24.130416,3.10388362 24.0623896,3.09051921 23.9998492,3.08272331 C23.9373088,3.09051921 23.8703796,3.10388362 23.812228,3.10388362 C21.9195578,3.10388362 17.2641377,-3.9532014e-13 12.7019796,-3.9532014e-13 C7.37946176,-3.9532014e-13 4.70119626,6.10753418 2.96213407,10.0333289 C1.22197468,13.9591235 -0.374451503,19.9341273 0.0775949477,27.163158 C0.267410569,30.1957648 3.52609493,37.6675822 10.3792069,30.7526151 C16.5739988,24.5014136 20.1892732,24.0035894 23.0968535,23.9913387 L23.0968535,24.0002483 C23.3316543,24.0002483 23.570844,23.9969072 23.812228,23.9946798 C23.8758656,23.9957935 23.9373088,23.9957935 23.9998492,23.9957935 C24.0634868,23.9957935 24.1238328,23.9957935 24.1874704,23.9946798 C24.4299517,23.9969072 24.6680441,24.0002483 24.9028449,24.0002483 L24.9028449,23.9913387 C27.8104252,24.0035894 31.4256997,24.5014136 37.6215887,30.7526151 C44.4747007,37.6675822 47.7322879,30.1957648 47.9221035,27.163158 C48.3752472,19.9341273 46.7777238,13.9591235 45.0386616,10.0333289" id="Fill-2" fill="#F3F2EB"></path>
                    <polygon id="Fill-4" fill="#207D46" points="16.4 12.3992515 16.4 8.4 12.4 8.4 12.4 12.3992515 8.4 12.3992515 8.4 16.4007485 12.4 16.4007485 12.4 20.4 16.4 20.4 16.4 16.4007485 20.4 16.4007485 20.4 12.3992515"></polygon>
                    <path d="M36.4964395,11.2963124 C35.5595156,12.2345625 34.0407735,12.2345625 33.1026929,11.2963124 C32.165769,10.3592191 32.165769,8.84020246 33.1026929,7.90195228 C34.0407735,6.96601591 35.5595156,6.96601591 36.4964395,7.90195228 C37.4345202,8.84020246 37.4345202,10.3592191 36.4964395,11.2963124" id="Fill-6" fill="#BA8C5F"></path>
                    <path d="M41.29718,16.09718 C40.3600868,17.0342733 38.8399132,17.0342733 37.90282,16.09718 C36.9657267,15.1589299 36.9657267,13.6399132 37.90282,12.70282 C38.8399132,11.7657267 40.3600868,11.7657267 41.29718,12.70282 C42.2342733,13.6399132 42.2342733,15.1589299 41.29718,16.09718" id="Fill-8" fill="#BA8C5F"></path>
                    <path d="M31.69718,16.09718 C30.7600868,17.0342733 29.2399132,17.0342733 28.30282,16.09718 C27.3657267,15.1589299 27.3657267,13.6399132 28.30282,12.70282 C29.2399132,11.7657267 30.7600868,11.7657267 31.69718,12.70282 C32.6342733,13.6399132 32.6342733,15.1589299 31.69718,16.09718" id="Fill-10" fill="#BA8C5F"></path>
                    <path d="M36.4964395,20.89718 C35.5595156,21.8342733 34.0407735,21.8342733 33.1026929,20.89718 C32.165769,19.9589299 32.165769,18.4399132 33.1026929,17.50282 C34.0407735,16.5657267 35.5595156,16.5657267 36.4964395,17.50282 C37.4345202,18.4399132 37.4345202,19.9589299 36.4964395,20.89718" id="Fill-12" fill="#BA8C5F"></path>
                </g>
            </g>
        </g>
    </g>
</svg>