<?xml version="1.0" encoding="UTF-8"?>
<svg width="20px" height="23px" viewBox="0 0 20 23" version="1.1" xmlns="http://www.w3.org/2000/svg" xmlns:xlink="http://www.w3.org/1999/xlink">
    <title>join-share-kakao</title>
    <g id="Page-1" stroke="none" stroke-width="1" fill="none" fill-rule="evenodd">
        <g id="08" transform="translate(-1393.000000, -648.000000)">
            <g id="join-share-kakao" transform="translate(1393.000000, 648.000000)">
                <rect id="Rectangle" fill="#FFFFFF" x="0" y="0" width="20" height="21"></rect>
                <path d="M9.91703614,4.00004819 C4.43992771,4.00004819 -7.22891566e-05,7.50968675 -7.22891566e-05,11.8400482 C-7.22891566e-05,14.6581205 1.88113253,17.128 4.70474699,18.5099277 C4.49727711,19.2846265 3.95366265,21.3157108 3.84426506,21.7501687 C3.71028916,22.2894458 4.04233735,22.2822169 4.25968675,22.1369157 C4.43004819,22.0234217 6.97727711,20.2920964 8.07631325,19.5446265 C8.67245783,19.6330602 9.28787952,19.6800482 9.91703614,19.6800482 C15.3939036,19.6800482 19.8341446,16.1694458 19.8341446,11.8400482 C19.8341446,7.50968675 15.3939036,4.00004819 9.91703614,4.00004819" id="Fill-1" fill="#888888"></path>
            </g>
        </g>
    </g>
</svg>