<?xml version="1.0" encoding="UTF-8"?>
<svg width="20px" height="22px" viewBox="0 0 20 22" version="1.1" xmlns="http://www.w3.org/2000/svg" xmlns:xlink="http://www.w3.org/1999/xlink">
    <title>join-share-linkedin</title>
    <g id="Page-1" stroke="none" stroke-width="1" fill="none" fill-rule="evenodd">
        <g id="08" transform="translate(-1502.000000, -649.000000)">
            <g id="join-share-linkedin" transform="translate(1502.000000, 649.000000)">
                <rect id="Rectangle-Copy-2" fill="#FFFFFF" x="0" y="0" width="20" height="22"></rect>
                <path d="M16.3385939,17.3380118 L13.6690382,17.3380118 L13.6690382,13.1607917 C13.6690382,12.1648018 13.652157,10.883578 12.2818705,10.883578 C10.8929565,10.883578 10.6810685,11.9686307 10.6810685,13.0897743 L10.6810685,17.3380118 L8.01442339,17.3380118 L8.01442339,8.7483992 L10.5733782,8.7483992 L10.5733782,9.92251471 L10.6100511,9.92251471 C10.9663023,9.24726732 11.8371386,8.53476489 13.1358256,8.53476489 C15.8391437,8.53476489 16.3385939,10.3136925 16.3385939,12.626997 L16.3385939,17.3380118 Z M5.00433348,7.57486579 C4.14688571,7.57486579 3.45533924,6.88099088 3.45533924,6.02645366 C3.45533924,5.17191643 4.14688571,4.47804152 5.00433348,4.47804152 C5.8582886,4.47804152 6.5515814,5.17191643 6.5515814,6.02645366 C6.5515814,6.88099088 5.8582886,7.57486579 5.00433348,7.57486579 L5.00433348,7.57486579 Z M3.66722722,17.3380118 L6.33969342,17.3380118 L6.33969342,8.7483992 L3.66722722,8.7483992 L3.66722722,17.3380118 Z M17.6681327,2 L2.32779251,2 C1.59549835,2 1,2.58094561 1,3.29810491 L1,18.701313 C1,19.4178902 1.59549835,20 2.32779251,20 L17.6681327,20 C18.4015911,20 18.9994179,19.4178902 18.9994179,18.701313 L18.9994179,3.29810491 C18.9994179,2.58094561 18.4015911,2 17.6681327,2 L17.6681327,2 Z" fill="#888888"></path>
            </g>
        </g>
    </g>
</svg>