<?xml version="1.0" encoding="UTF-8"?>
<svg width="18px" height="22px" viewBox="0 0 18 22" version="1.1" xmlns="http://www.w3.org/2000/svg" xmlns:xlink="http://www.w3.org/1999/xlink">
    <title>join-share-linkedin</title>
    <g id="Page-1" stroke="none" stroke-width="1" fill="none" fill-rule="evenodd">
        <g id="08" transform="translate(-1503.000000, -649.000000)">
            <g id="join-share-linkedin" transform="translate(1503.000000, 649.000000)">
                <rect id="Rectangle-Copy-2" fill="#FFFFFF" x="0" y="0" width="18" height="22"></rect>
                <path d="M15.3385939,17.3380118 L12.6690382,17.3380118 L12.6690382,13.1607917 C12.6690382,12.1648018 12.652157,10.883578 11.2818705,10.883578 C9.89295647,10.883578 9.68106849,11.9686307 9.68106849,13.0897743 L9.68106849,17.3380118 L7.01442339,17.3380118 L7.01442339,8.7483992 L9.57337818,8.7483992 L9.57337818,9.92251471 L9.6100511,9.92251471 C9.96630231,9.24726732 10.8371386,8.53476489 12.1358256,8.53476489 C14.8391437,8.53476489 15.3385939,10.3136925 15.3385939,12.626997 L15.3385939,17.3380118 Z M4.00433348,7.57486579 C3.14688571,7.57486579 2.45533924,6.88099088 2.45533924,6.02645366 C2.45533924,5.17191643 3.14688571,4.47804152 4.00433348,4.47804152 C4.8582886,4.47804152 5.5515814,5.17191643 5.5515814,6.02645366 C5.5515814,6.88099088 4.8582886,7.57486579 4.00433348,7.57486579 L4.00433348,7.57486579 Z M2.66722722,17.3380118 L5.33969342,17.3380118 L5.33969342,8.7483992 L2.66722722,8.7483992 L2.66722722,17.3380118 Z M16.6681327,2 L1.32779251,2 C0.595498351,2 0,2.58094561 0,3.29810491 L0,18.701313 C0,19.4178902 0.595498351,20 1.32779251,20 L16.6681327,20 C17.4015911,20 17.9994179,19.4178902 17.9994179,18.701313 L17.9994179,3.29810491 C17.9994179,2.58094561 17.4015911,2 16.6681327,2 L16.6681327,2 Z" fill="#888888"></path>
            </g>
        </g>
    </g>
</svg>