<?xml version="1.0" encoding="UTF-8"?>
<svg width="20px" height="22px" viewBox="0 0 20 22" version="1.1" xmlns="http://www.w3.org/2000/svg" xmlns:xlink="http://www.w3.org/1999/xlink">
    <title>join-share-kakao</title>
    <g id="Page-1" stroke="none" stroke-width="1" fill="none" fill-rule="evenodd">
        <g id="08" transform="translate(-1393.000000, -649.000000)">
            <g id="join-share-kakao" transform="translate(1393.000000, 649.000000)">
                <rect id="Rectangle" fill="#FFFFFF" x="0" y="0" width="20" height="22"></rect>
                <path d="M9.91703614,3.00004819 C4.43992771,3.00004819 -7.22891566e-05,6.50968675 -7.22891566e-05,10.8400482 C-7.22891566e-05,13.6581205 1.88113253,16.128 4.70474699,17.5099277 C4.49727711,18.2846265 3.95366265,20.3157108 3.84426506,20.7501687 C3.71028916,21.2894458 4.04233735,21.2822169 4.25968675,21.1369157 C4.43004819,21.0234217 6.97727711,19.2920964 8.07631325,18.5446265 C8.67245783,18.6330602 9.28787952,18.6800482 9.91703614,18.6800482 C15.3939036,18.6800482 19.8341446,15.1694458 19.8341446,10.8400482 C19.8341446,6.50968675 15.3939036,3.00004819 9.91703614,3.00004819" id="Fill-1" fill="#888888"></path>
            </g>
        </g>
    </g>
</svg>