<?xml version="1.0" encoding="UTF-8"?>
<svg width="20px" height="22px" viewBox="0 0 20 22" version="1.1" xmlns="http://www.w3.org/2000/svg" xmlns:xlink="http://www.w3.org/1999/xlink">
    <title>join-share-twitter</title>
    <g id="Page-1" stroke="none" stroke-width="1" fill="none" fill-rule="evenodd">
        <g id="08" transform="translate(-1463.000000, -649.000000)">
            <g id="join-share-twitter" transform="translate(1463.000000, 649.000000)">
                <rect id="Rectangle-Copy" fill="#FFFFFF" x="0" y="0" width="20" height="22"></rect>
                <path d="M19.6864738,4.89405786 C18.9616888,5.21579359 18.1825645,5.43275997 17.3655199,5.53166536 C18.1997654,5.0308835 18.8405004,4.2365129 19.1415168,3.29671618 C18.3623925,3.75801407 17.4960907,4.0938233 16.5774042,4.27599687 C15.8401095,3.4910086 14.7904613,3 13.6313526,3 C11.3983581,3 9.59030493,4.80805317 9.59030493,7.03870211 C9.59030493,7.3573104 9.62627052,7.66419077 9.69390149,7.96090696 C6.33698202,7.79202502 3.36395622,6.18295543 1.36942924,3.74120407 C1.02267396,4.3354183 0.823690383,5.0308835 0.823690383,5.77052385 C0.823690383,7.17200938 1.5359656,8.40774042 2.61962471,9.13252541 C1.95817045,9.11063331 1.33698202,8.92885066 0.791243159,8.62666145 L0.791243159,8.67826427 C0.791243159,10.6344801 2.18491009,12.2670055 4.0308835,12.6391712 C3.69194683,12.7290852 3.33385457,12.7791243 2.96833464,12.7791243 C2.70406568,12.7791243 2.45387021,12.7548866 2.20641126,12.707975 C2.72009382,14.3123534 4.21344801,15.4804535 5.98123534,15.5125098 C4.59655981,16.5961689 2.85535575,17.2408131 0.962861611,17.2408131 C0.639171228,17.2408131 0.315480844,17.2224394 9.23705556e-14,17.1856919 C1.78733385,18.3318999 3.91047694,19 6.19116497,19 C13.6200156,19 17.6802189,12.8451916 17.6802189,7.50781861 C17.6802189,7.33463643 17.6770915,7.15832682 17.668491,6.98592651 C18.4573886,6.41438624 19.1438624,5.70406568 19.6864738,4.89405786" fill="#888888"></path>
            </g>
        </g>
    </g>
</svg>