<?xml version="1.0" encoding="UTF-8"?>
<svg width="20px" height="16px" viewBox="0 0 20 16" version="1.1" xmlns="http://www.w3.org/2000/svg" xmlns:xlink="http://www.w3.org/1999/xlink">
    <title>join-share-twitter</title>
    <g id="Page-1" stroke="none" stroke-width="1" fill="none" fill-rule="evenodd">
        <g id="08" transform="translate(-1463.000000, -652.000000)" fill="#888888">
            <path d="M1482.68647,653.894058 C1481.96169,654.215794 1481.18256,654.43276 1480.36552,654.531665 C1481.19977,654.030884 1481.8405,653.236513 1482.14152,652.296716 C1481.36239,652.758014 1480.49609,653.093823 1479.5774,653.275997 C1478.84011,652.491009 1477.79046,652 1476.63135,652 C1474.39836,652 1472.5903,653.808053 1472.5903,656.038702 C1472.5903,656.35731 1472.62627,656.664191 1472.6939,656.960907 C1469.33698,656.792025 1466.36396,655.182955 1464.36943,652.741204 C1464.02267,653.335418 1463.82369,654.030884 1463.82369,654.770524 C1463.82369,656.172009 1464.53597,657.40774 1465.61962,658.132525 C1464.95817,658.110633 1464.33698,657.928851 1463.79124,657.626661 L1463.79124,657.678264 C1463.79124,659.63448 1465.18491,661.267005 1467.03088,661.639171 C1466.69195,661.729085 1466.33385,661.779124 1465.96833,661.779124 C1465.70407,661.779124 1465.45387,661.754887 1465.20641,661.707975 C1465.72009,663.312353 1467.21345,664.480453 1468.98124,664.51251 C1467.59656,665.596169 1465.85536,666.240813 1463.96286,666.240813 C1463.63917,666.240813 1463.31548,666.222439 1463,666.185692 C1464.78733,667.3319 1466.91048,668 1469.19116,668 C1476.62002,668 1480.68022,661.845192 1480.68022,656.507819 C1480.68022,656.334636 1480.67709,656.158327 1480.66849,655.985927 C1481.45739,655.414386 1482.14386,654.704066 1482.68647,653.894058" id="join-share-twitter"></path>
        </g>
    </g>
</svg>