<?xml version="1.0" encoding="UTF-8"?>
<svg width="18px" height="22px" viewBox="0 0 18 22" version="1.1" xmlns="http://www.w3.org/2000/svg" xmlns:xlink="http://www.w3.org/1999/xlink">
    <title>join-share-link</title>
    <g id="Page-1" stroke="none" stroke-width="1" fill="none" fill-rule="evenodd">
        <g id="08" transform="translate(-1542.000000, -649.000000)">
            <g id="join-share-link" transform="translate(1542.000000, 649.000000)">
                <rect id="Rectangle-Copy-32" fill="#FFFFFF" x="0" y="0" width="18" height="22"></rect>
                <g transform="translate(0.000000, 2.000000)" fill="#888888">
                    <path d="M6.57451579,4.68400345 C4.48272632,6.81079655 4.93935789,10.3403483 7.33525263,11.9035552 C7.4142,11.9550724 7.51904211,11.944831 7.58693684,11.879969 C8.09125263,11.3955207 8.5182,10.9262793 8.89177895,10.3297966 C8.94893684,10.2382448 8.91325263,10.1200034 8.81756842,10.0691069 C8.45188421,9.87452069 8.08841053,9.50955517 7.88377895,9.1241069 L7.88346316,9.12441724 C7.63809474,8.64431379 7.55472632,8.10648621 7.68451579,7.55096897 L7.68483158,7.55096897 C7.8342,6.83965862 8.61135789,6.17800345 9.20472632,5.56600345 C9.20346316,5.5656931 9.2022,5.56538276 9.20093684,5.56476207 L11.4244105,3.33462414 C12.3105158,2.4461069 13.7678842,2.43865862 14.6631474,3.31848621 C15.5675684,4.18931379 15.5824105,5.6286931 14.6963053,6.51752069 L13.3497789,7.87838276 C13.2872526,7.9416931 13.2670421,8.03324483 13.2964105,8.11641724 C13.6065158,9.00027931 13.6826211,10.2463138 13.4748316,11.1875897 C13.4691474,11.213969 13.5019895,11.2313483 13.5212526,11.2121069 L16.3876737,8.33707241 C18.2186211,6.50045172 18.2031474,3.50996897 16.3532526,1.69196897 C14.4651474,-0.163582759 11.3915684,-0.148065517 9.52272632,1.7261069 L6.58588421,4.6719 C6.58209474,4.67593448 6.57830526,4.67996897 6.57451579,4.68400345" id="Fill-1"></path>
                    <path d="M11.9330842,12.3086793 C11.9330842,12.3086793 11.9330842,12.3086793 11.9330842,12.3089897 C11.9346632,12.308369 11.9365579,12.3074379 11.9384526,12.3068172 C12.5232947,11.255369 12.6382421,10.0499897 12.3641368,8.87471379 L12.3628737,8.87564483 L12.3616105,8.87533448 C12.1014,7.82854138 11.3870842,6.78888621 10.4169789,6.14895517 C10.3336105,6.09402414 10.2003474,6.10023103 10.1220316,6.1623 C9.63066316,6.55302414 9.14971579,7.05361034 8.83234737,7.69261034 C8.78245263,7.79285172 8.82003158,7.91326552 8.91824211,7.96943793 C9.28645263,8.17954138 9.61897895,8.48740345 9.84161053,8.89581724 L9.84192632,8.8955069 C10.0156105,9.18412759 10.1867684,9.73157586 10.0759263,10.3196793 L10.0756105,10.3196793 C9.97234737,11.0995759 9.17087368,11.815231 8.53361053,12.4598172 L8.53392632,12.4601276 C8.04918947,12.9476793 6.81634737,14.1828517 6.32245263,14.6781621 C5.43666316,15.5669897 3.97171579,15.5815759 3.06761053,14.7110586 C2.16318947,13.840231 2.14834737,12.4005414 3.03413684,11.5120241 L4.38508421,10.1468172 C4.44634737,10.0847483 4.46687368,9.99505862 4.43971579,9.91281724 C4.13971579,9.00847241 4.05761053,7.79067931 4.24708421,6.85033448 C4.25213684,6.82395517 4.21961053,6.80719655 4.20034737,6.82643793 L1.37718947,9.65802414 C-0.472705263,11.5135759 -0.456915789,14.5344724 1.41224211,16.3714034 C3.30003158,18.1894034 6.35813684,18.1586793 8.20803158,16.3031276 C8.85034737,15.5967828 11.6011895,13.0938517 11.9330842,12.3086793" id="Fill-4"></path>
                </g>
            </g>
        </g>
    </g>
</svg>