<?xml version="1.0" encoding="UTF-8"?>
<svg width="18px" height="18px" viewBox="0 0 18 18" version="1.1" xmlns="http://www.w3.org/2000/svg" xmlns:xlink="http://www.w3.org/1999/xlink">
    <title>join-share-linkedin</title>
    <g id="Page-1" stroke="none" stroke-width="1" fill="none" fill-rule="evenodd">
        <g id="08" transform="translate(-1503.000000, -651.000000)" fill="#888888">
            <path d="M1518.33859,666.338012 L1515.66904,666.338012 L1515.66904,662.160792 C1515.66904,661.164802 1515.65216,659.883578 1514.28187,659.883578 C1512.89296,659.883578 1512.68107,660.968631 1512.68107,662.089774 L1512.68107,666.338012 L1510.01442,666.338012 L1510.01442,657.748399 L1512.57338,657.748399 L1512.57338,658.922515 L1512.61005,658.922515 C1512.9663,658.247267 1513.83714,657.534765 1515.13583,657.534765 C1517.83914,657.534765 1518.33859,659.313693 1518.33859,661.626997 L1518.33859,666.338012 Z M1507.00433,656.574866 C1506.14689,656.574866 1505.45534,655.880991 1505.45534,655.026454 C1505.45534,654.171916 1506.14689,653.478042 1507.00433,653.478042 C1507.85829,653.478042 1508.55158,654.171916 1508.55158,655.026454 C1508.55158,655.880991 1507.85829,656.574866 1507.00433,656.574866 L1507.00433,656.574866 Z M1505.66723,666.338012 L1508.33969,666.338012 L1508.33969,657.748399 L1505.66723,657.748399 L1505.66723,666.338012 Z M1519.66813,651 L1504.32779,651 C1503.5955,651 1503,651.580946 1503,652.298105 L1503,667.701313 C1503,668.41789 1503.5955,669 1504.32779,669 L1519.66813,669 C1520.40159,669 1520.99942,668.41789 1520.99942,667.701313 L1520.99942,652.298105 C1520.99942,651.580946 1520.40159,651 1519.66813,651 L1519.66813,651 Z" id="join-share-linkedin"></path>
        </g>
    </g>
</svg>