<?xml version="1.0" encoding="UTF-8"?>
<svg width="46px" height="28px" viewBox="0 0 46 28" version="1.1" xmlns="http://www.w3.org/2000/svg" xmlns:xlink="http://www.w3.org/1999/xlink">
    <title>Group 9</title>
    <g id="Page-1" stroke="none" stroke-width="1" fill="none" fill-rule="evenodd">
        <g id="body_01_2" transform="translate(-937.000000, -12.000000)">
            <g id="Group-9" transform="translate(937.000000, 12.000000)">
                <path d="M44.6922441,17.3131378 L40.8708117,17.3131378 C40.8067396,18.9156333 40.4878928,20.2769126 39.9721631,21.4337414 L43.3794604,23.4009306 C43.6704964,23.5690568 43.770136,23.941255 43.6021991,24.232291 C43.434073,24.5233901 43.0618748,24.6230297 42.7708387,24.4549036 L39.4015054,22.5095973 C35.9984964,27.9727505 27.539091,27.9735072 22.6503162,27.9735072 C17.7614784,27.9735072 9.30194685,27.9727505 5.89906396,22.5095973 L2.52973063,24.4549036 C2.23863153,24.6230297 1.8664964,24.5233901 1.6984964,24.232291 C1.53037027,23.941255 1.6301991,23.5690568 1.92110901,23.4009306 L5.32840631,21.4337414 C4.81267658,20.2769126 4.49376667,18.9156333 4.42988378,17.3131378 L0.608451351,17.3131378 C0.272325225,17.3131378 1.89189189e-05,17.0406423 1.89189189e-05,16.7047054 C1.89189189e-05,16.3685162 0.272325225,16.0960838 0.608451351,16.0960838 L4.43064054,16.0960838 C4.59378468,12.0338766 6.39076667,9.51892162 8.89191081,7.96334505 C9.66973063,6.5349036 11.8039739,2.61553423 12.8955955,0.610948649 C13.297118,-0.126195495 13.8104514,-0.113204505 14.1841,0.611642342 C14.9196676,2.0386964 16.1215865,4.37057928 16.7811,5.65038108 C18.9237937,5.43754324 20.992136,5.43754324 22.6498117,5.43754324 L22.6503162,5.43754324 L22.6506946,5.43754324 C24.3085595,5.43754324 26.3769018,5.43754324 28.5194063,5.65038108 C29.1787306,4.37114685 30.3797036,2.0409036 31.1152712,0.61384955 C31.4894874,-0.112321622 32.0044604,-0.124303604 32.4074333,0.615363063 C33.4996856,2.62127297 35.6314063,6.53591261 36.4086586,7.96334505 C38.9099288,9.51892162 40.7069108,12.0338766 40.8699288,16.0960838 L44.6922441,16.0960838 C45.0281811,16.0960838 45.3006766,16.3685162 45.3006766,16.7047054 C45.3006766,17.0406423 45.0281811,17.3131378 44.6922441,17.3131378" id="Fill-4" fill="#898989"></path>
                <path d="M32.7191036,11.8398946 C32.5832027,13.7179757 32.1585991,15.1407414 31.7068153,15.1250387 C31.2552838,15.109273 30.9308243,13.660273 30.9262207,11.777336 L27.1988784,11.6471108 C27.1118514,14.1420117 29.0639054,16.2348856 31.5583649,16.3220387 L31.7948514,16.3303 C34.2896261,16.4174532 36.3825631,14.4657775 36.4697162,11.9708766 L32.7191036,11.8398946 Z M23.2952117,20.7954171 C23.2375721,20.4916423 22.9688604,20.2737595 22.6597252,20.2737595 L22.6411847,20.2737595 C22.3319865,20.2737595 22.0631486,20.4916423 22.0055721,20.7954171 C21.7455631,22.1619306 20.6222838,23.3134622 19.2801126,23.3134622 C17.7458514,23.3134622 16.4980225,22.1927054 16.4980225,20.815282 C16.4980225,20.4030387 16.6124189,19.9977324 16.8263288,19.6377685 C16.9723829,19.3919486 16.9127252,19.076318 16.682482,18.9067414 L16.6472928,18.8810748 C16.3912568,18.6926423 16.0298423,18.7596784 15.8571757,19.0265613 C15.5076171,19.5665072 15.3196261,20.1851559 15.3196261,20.815282 C15.3196261,22.7761649 17.0961757,24.3714081 19.2801126,24.3714081 C20.6664279,24.3714081 21.888527,23.7277865 22.5960946,22.5937234 C22.6211306,22.5535523 22.6795901,22.5535523 22.7046261,22.5937234 C23.4123198,23.7277865 24.6342297,24.3714081 26.0207973,24.3714081 C28.2043559,24.3714081 29.9813468,22.7761649 29.9813468,20.815282 C29.9813468,20.1913991 29.7966351,19.5779847 29.4534459,19.0413811 C29.2821667,18.7738616 28.9207523,18.7054441 28.6638333,18.8925523 L28.6295901,18.9175883 C28.3977072,19.0864081 28.337482,19.4028586 28.4830946,19.6495613 C28.693473,20.0055523 28.8030135,20.401336 28.8030135,20.815282 C28.8030135,22.1927054 27.5548694,23.3134622 26.0207973,23.3134622 C24.6785631,23.3134622 23.5551577,22.1619306 23.2952117,20.7954171 L23.2952117,20.7954171 Z M14.3627072,11.7777775 C14.3581667,13.6607144 14.0338333,15.1097144 13.5819865,15.1254802 C13.1302658,15.1412459 12.7057252,13.7184171 12.5698243,11.840336 L8.83081532,11.9708766 C8.91796847,14.4657775 11.0109054,16.4174532 13.5057432,16.3303 L13.7422928,16.3220387 C16.2370045,16.2348856 18.1886802,14.1420117 18.1016532,11.6471108 L14.3627072,11.7777775 Z" id="Fill-7" fill="#FFFFFF"></path>
            </g>
        </g>
    </g>
</svg>